<svg xmlns="http://www.w3.org/2000/svg" viewBox="0 0 745.03 630.56"><defs><style>.cls-1{fill:#df2027;}.cls-2{fill:#717171;}.cls-3{fill:#707171;}</style></defs><g id="Layer_2" data-name="Layer 2"><g id="Layer_1-2" data-name="Layer 1"><path class="cls-1" d="M744.51,164.37c0,47.7-.08,95.4.06,143.1,0,10.21,0,19.27-10.29,26.16C623.06,408.48,508.72,477.76,379,515.9c-70,20.59-141.9,33.18-214.86,12.8C96.76,509.88,71,465.13,88.66,397.17,108.5,320.94,152.23,257.86,202,198.73,261.58,127.92,331.45,68.18,406.1,13.78,418.77,4.55,431.49,0,447.54.14,538.83.82,630.13,1,721.41,0c19-.22,24.07,5.15,23.54,23.8C743.61,70.63,744.51,117.51,744.51,164.37Z"/><path class="cls-2" d="M378.48,10C306.79,58.25,238.8,109.6,176.14,167.48S55.11,286.89,5.68,356.87C-2.16,350.74.4,344.41.39,339.09.2,234.45.47,129.81,0,25.17,0,10.11,2.51,2.41,20.33,2.51c114,.69,227.9.36,341.85.48C366.94,3,372.31,1.85,378.48,10Z"/><path class="cls-3" d="M307.06,626.57c53.81-20,100.79-36.68,146-57.6,92.76-42.91,184-88.4,265.91-150.5,6.2-4.7,13-14.61,21.11-10.54s3.82,15.08,3.85,23c.28,59.41-.13,118.82.35,178.22.11,13.83-2.09,21.51-18.84,21.44-133.15-.55-266.3-.33-399.46-.46C322.26,630.1,318.52,628.76,307.06,626.57Z"/></g></g></svg>