<svg xmlns="http://www.w3.org/2000/svg" viewBox="0 0 802.31 728.68"><defs><style>.cls-1{fill:#33378c;}.cls-2{fill:#393984;}.cls-3{fill:#343787;}.cls-4{fill:#fbd91e;}.cls-5{fill:#f7d920;}.cls-6{fill:#36368e;}.cls-7{fill:#333686;}.cls-8{fill:#f8d821;}.cls-9{fill:#313891;}.cls-10{fill:#32358c;}.cls-11{fill:#313889;}.cls-12{fill:#31378e;}.cls-13{fill:#33378f;}.cls-14{fill:#2d3890;}.cls-15{fill:#f8da1e;}.cls-16{fill:#38358e;}.cls-17{fill:#323586;}.cls-18{fill:#313892;}.cls-19{fill:#444292;}.cls-20{fill:#38378e;}.cls-21{fill:#34368e;}.cls-22{fill:#2f387f;}.cls-23{fill:#2f3781;}.cls-24{fill:#39378e;}.cls-25{fill:#37398f;}.cls-26{fill:#3a388e;}.cls-27{fill:#3c398b;}.cls-28{fill:#3a388c;}.cls-29{fill:#343886;}.cls-30{fill:#39368d;}.cls-31{fill:#303789;}.cls-32{fill:#353a88;}.cls-33{fill:#323686;}.cls-34{fill:#37368f;}.cls-35{fill:#36378f;}.cls-36{fill:#2f3886;}.cls-37{fill:#313784;}.cls-38{fill:#f3d825;}.cls-39{fill:#323786;}.cls-40{fill:#3c3c90;}.cls-41{fill:#3a3887;}.cls-42{fill:#3d3a8f;}.cls-43{fill:#3d3d90;}.cls-44{fill:#3c378f;}.cls-45{fill:#35358f;}.cls-46{fill:#3b3c8d;}.cls-47{fill:#373987;}.cls-48{fill:#313884;}.cls-49{fill:#313684;}.cls-50{fill:#eed62a;}.cls-51{fill:#313687;}.cls-52{fill:#41348d;}.cls-53{fill:#303782;}.cls-54{fill:#393b8f;}.cls-55{fill:#343687;}.cls-56{fill:#3d3d85;}.cls-57{fill:#313683;}.cls-58{fill:#323784;}.cls-59{fill:#373791;}.cls-60{fill:#313786;}.cls-61{fill:#383a8f;}.cls-62{fill:#403c8f;}.cls-63{fill:#323585;}.cls-64{fill:#373991;}.cls-65{fill:#313585;}.cls-66{fill:#38388f;}.cls-67{fill:#3d3690;}.cls-68{fill:#313686;}.cls-69{fill:#333884;}.cls-70{fill:#313783;}.cls-71{fill:#36398e;}.cls-72{fill:#ead131;}.cls-73{fill:#3e3c8e;}.cls-74{fill:#303785;}.cls-75{fill:#303784;}.cls-76{fill:#3a3b8b;}.cls-77{fill:#313485;}.cls-78{fill:#303681;}.cls-79{fill:#2e3783;}.cls-80{fill:#403c8a;}.cls-81{fill:#313682;}.cls-82{fill:#3c3b8c;}.cls-83{fill:#323981;}.cls-84{fill:#403d8b;}.cls-85{fill:#3a3780;}.cls-86{fill:#2c387e;}.cls-87{fill:#30387f;}.cls-88{fill:#313484;}.cls-89{fill:#363894;}.cls-90{fill:#333582;}.cls-91{fill:#303584;}.cls-92{fill:#f0d52a;}.cls-93{fill:#3f3b90;}.cls-94{fill:#2d3a83;}.cls-95{fill:#313785;}.cls-96{fill:#363792;}.cls-97{fill:#38398e;}.cls-98{fill:#313780;}.cls-99{fill:#313782;}.cls-100{fill:#313481;}.cls-101{fill:#413b8f;}.cls-102{fill:#453e8a;}.cls-103{fill:#303783;}.cls-104{fill:#2f3881;}.cls-105{fill:#2f377f;}.cls-106{fill:#34397f;}.cls-107{fill:#313992;}.cls-108{fill:#2d3a82;}.cls-109{fill:#474181;}.cls-110{fill:#303383;}.cls-111{fill:#434083;}.cls-112{fill:#303883;}.cls-113{fill:#303684;}.cls-114{fill:#3b3995;}.cls-115{fill:#413e85;}.cls-116{fill:#30377f;}.cls-117{fill:#2d3883;}.cls-118{fill:#343583;}.cls-119{fill:#3e3d80;}.cls-120{fill:#544d81;}.cls-121{fill:#373784;}.cls-122{fill:#353782;}.cls-123{fill:#2f3982;}.cls-124{fill:#323682;}.cls-125{fill:#323484;}.cls-126{fill:#2d3782;}.cls-127{fill:#313781;}.cls-128{fill:#343584;}.cls-129{fill:#4c4581;}.cls-130{fill:#3c3b84;}.cls-131{fill:#5b517b;}.cls-132{fill:#313880;}.cls-133{fill:#2f3782;}.cls-134{fill:#534c7e;}.cls-135{fill:#323780;}.cls-136{fill:#2e3a7e;}.cls-137{fill:#2e3780;}.cls-138{fill:#2f3681;}.cls-139{fill:#30377e;}.cls-140{fill:#2e3982;}.cls-141{fill:#303483;}.cls-142{fill:#323683;}.cls-143{fill:#383b97;}.cls-144{fill:#403c7e;}.cls-145{fill:#313882;}.cls-146{fill:#433e83;}.cls-147{fill:#28326f;}.cls-148{fill:#2b3a7f;}.cls-149{fill:#333376;}.cls-150{fill:#303583;}.cls-151{fill:#313681;}.cls-152{fill:#2e3781;}.cls-153{fill:#353a7f;}.cls-154{fill:#303780;}.cls-155{fill:#373896;}.cls-156{fill:#383896;}.cls-157{fill:#393590;}.cls-158{fill:#35378f;}.cls-159{fill:#383587;}.cls-160{fill:#f2dc20;}.cls-161{fill:#f7dd16;}.cls-162{fill:#423f82;}.cls-163{fill:#fed71c;}.cls-164{fill:#fdd724;}.cls-165{fill:#fdd721;}.cls-166{fill:#fcd71d;}</style></defs><g id="Layer_2" data-name="Layer 2"><g id="Layer_1-2" data-name="Layer 1"><path class="cls-1" d="M0,437.89V173c1.52-9.14,2.28-18.38,5.09-27.32,9.94-31.73,27.3-58.59,51.82-81A220.54,220.54,0,0,1,119,24.29C145.71,12.8,173.42,4.72,202.55,2.12c5.28.57,10.33,2.36,15.62,3,1.23.14,2.28.35,3.12-.69,2-1.33-1-.77-.62-1.53A1.62,1.62,0,0,1,221,1.58c1.09-.76,2.32-.52,3.52-.53a4.34,4.34,0,0,1,1.42.34,10.44,10.44,0,0,1,2.1,2c2.06,2.14,4.28.08,6.42.22,1.77.11,3.55-.08,5.33.18a11.94,11.94,0,0,1,1.55.45c3.41.59,6.85.11,10.26.34,1.71.12,3.73-.29,4.47,2-.91,1.42-2.36.66-3.56.43q147-.8,294,0c.66.5-.41-.43,0,.12a39.34,39.34,0,0,1-10.34.11c-.81-2.61,1.26-2.37,2.7-2.65,2.68-.53,5.08,1.1,7.58,1-.71-.44-1.77.15-2.62-.39a1.36,1.36,0,0,1-.1-1.45c2.2-2,5.21-.62,7.6-1.8,4.9-1.45,10.07,1.5,14.93-.87,2.1-.15,4.2-.07,6.3-.09,38.4,0,74.86,8.81,110.1,23.63C702.83,33.1,721.07,44.55,738,58.2a48,48,0,0,1,6.15,6.52c2.69,5,7.23,8,11.63,11.17,6.55,4.87,10.92,11.66,15.45,18.19,5.38,7.76,11,15.47,13.9,24.68-.25,3.14,3.17,5.45,2,8.8-.22.21-.42.45-.63.67a8.84,8.84,0,0,0-1.16,2.49,15.82,15.82,0,0,1,1-2.28,2.8,2.8,0,0,1,1.13-.82,2.4,2.4,0,0,1,1.18.82c1.27,2.76,2.17,5.72,4.31,8,5.31,12.22,7.19,25.22,8.7,38.3.82,7.12.6,14.28.6,21.43q0,113.83,0,227.68a148.74,148.74,0,0,1-8.78,51.83c-3.73,10.18-6.94,20.45-13.59,29.2a4.83,4.83,0,0,1-2.85,1.4c-1.34.15.54.47.11.85a10.27,10.27,0,0,1-4.13,6.89c-1.57.54-1.63-1.37-2.7-1.65-1.83,0-2-1-1.56-2.39-.94,2,.61,2.3,2,2.64.62,1.93-1.67,3.45-.77,5.42a7.9,7.9,0,0,1-1.75,5.1c-4.91,6.49-9.9,12.9-16.3,18a3.34,3.34,0,0,0-2.88,2.72c-5.37,6.34-11.16,12.17-18.81,15.78-2.79-1.48-1.63,2.35-3.25,2.44a2.51,2.51,0,0,1-1.29.25c-.84.49-.63-3-2.14-.5a3,3,0,0,1-3.51,1.13,1.37,1.37,0,0,0-1.75.05c.53-.16,1-.64,1.63-.14a2.2,2.2,0,0,1,1.26,2.91,14.47,14.47,0,0,1-6.89,4.77,3.33,3.33,0,0,0-3.31,2.54c-4.42,4.51-10.24,6.84-15.68,9.59-22.88,11.59-47.13,19.26-72.22,24.38a15,15,0,0,1-4.95.43c-1.3-.36-2.45-.88-2.51-2.48.59-.3-.08,0,.28-.41.63-.77,3.18.19,2-2.16a11.62,11.62,0,0,1,3.67-.1c-2.95.45-6.42-.86-9.91-.06.13,0,.19,0,.3,0,1.29-.23,2.55-.7,3.74.18a1.74,1.74,0,0,1,.44,1.91c-.86.71-2,1.29-1.36,2.73A3.59,3.59,0,0,1,613,608c-2.13-.11-3.91.91-5.75,1.8a175.53,175.53,0,0,1-32.66,3.84c-19.44.75-38.89,1.4-58.37,1.22-28.47-.27-56.94,0-85.41-.09-3.12,0-6.38.47-9.16-1.61-1.69-2.18-1.17-4.76-1.17-7.19-.05-22.55,0-45.1-.06-67.65,0-6.92-.66-13.86.86-20.71.94-2.84,1-6.16,5.36-6.59,1.94-.2,1.68-2.93,2.16-4.09-.66,2-.71,5.36-4.91,4.22a2.6,2.6,0,0,1-.75-1.94c.63-2.49,1.64-4.9,1.56-7.54a8.06,8.06,0,0,1,.29-1.38c.65-1.57.46-3.25.6-4.89,4.38-18.72,13.66-34.93,25.47-49.85a6.38,6.38,0,0,1,3.16-2.34c1.52-.35,2.77.37,4.06,1,3.07,1.49,3.35-.12,2.78-2.59a4.61,4.61,0,0,1,0-2.09,3.11,3.11,0,0,1,3.16-2.28c3.29-.4,4-4.16,6.66-5.25,1.1-1.76-2.35-2.67-.9-4.52,1.08-3.27,4.1-4.71,6.44-6.78,6.12-5.42,13-9.88,19.59-14.65a7.85,7.85,0,0,1,4.55-1.86,2.29,2.29,0,0,1,1.61.86.71.71,0,0,1,0,.79.73.73,0,0,0,.3-.77,22.33,22.33,0,0,1,2.64-4.22,39.69,39.69,0,0,1,13.65-8.07,3.42,3.42,0,0,1,2.65.61c1.67,1.07-.65,2.52.37,3.65.92.35,1.65-.4,2.49-.4-.37-.35-.92-.13-1.3-.43-.52-.78-.32-1.93-1.26-2.51a2.44,2.44,0,0,1,.39-2.47,3.06,3.06,0,0,1,2.32-1.21c2.49.42,3-1.87,4.27-3.13a79.88,79.88,0,0,1,12.89-7.5c19.77-9.83,39.26-20.2,59-30.07,2.07-1,4.08-2.27,6.47-2.47,1.49-.15,2.94.68,4.44.19a2.3,2.3,0,0,0,.83-.61,16.3,16.3,0,0,1,0-2.21,2.8,2.8,0,0,1,.65-1.07,31.19,31.19,0,0,1,3.3-2.16,16.88,16.88,0,0,1,2.32-1.28c1.9-.61,3.38-2,5.15-2.85,2.79-1.22,5.09-3.47,8.23-3.95a5.41,5.41,0,0,0,2.54-1.21,2.86,2.86,0,0,1,1-.3c.71-.1.64-.77.88-1.24a20.5,20.5,0,0,1,9.65-6c1.4.31,2.27-.49,3.05-1.49a3.39,3.39,0,0,1,1.14-.57c1.46.25,1.19-.89,1.33-1.71,3.94-4.83,9.36-7.83,14.21-11.5,8.35-6.33,15.45-14,23-21.14a19.1,19.1,0,0,1,3.77-3.18,11.93,11.93,0,0,0,4.15-4.94,7.32,7.32,0,0,1,1.2-1.51c1.13-.87,2.25-1.74,2.36-3.34,2.77-5.52,5.54-11,10.28-15.23,2.11-.25,3.69,1.34,5.62,1.67,2-.1.55-2.12,1.52-2.76.44-1.17,1-2.49-1.19-1.52-1.11.51-2,2-3.35.53a4.94,4.94,0,0,1-.65-2.88c1.71-7.1,5.63-13.35,7.62-20.37,2.42-8.59,4.12-17.34,6.32-26,1-2.72,1.73-5.47,1.26-8.41a9.93,9.93,0,0,1,.06-2.88c.64-5.28,2.27-10.57-.1-15.83a24.37,24.37,0,0,1-1.49-5.77c-5.15-28.28-19.26-51.3-40.9-70-3.63-3.13-7.9-5.51-10.91-9.35a4.47,4.47,0,0,1-.29-1.13c-.06-.47-.1-1-.63-1.21a12.4,12.4,0,0,1-2.92,0c-4.19-1.28-7.72-3.86-11.52-5.88-23.34-12.41-48.32-19.27-74.48-22.16-2-.22-4-.27-5.69-1.53a4.12,4.12,0,0,1-1.34-1.83,2.47,2.47,0,0,1,.16-1.4c.33-.34.91-.15,1.22-.55a5.28,5.28,0,0,1-1,.3c-.76.3-1.34,1-2.17,1.13a4.4,4.4,0,0,1-2.3-.22,9.43,9.43,0,0,1-2.12-1.3,5.6,5.6,0,0,0-2.37-.7c-15.68-.43-31.24-3.07-47-2.19-9.93.55-19.91,0-29.82.2-.4.08-.51.32-.25.7.08.13.25.18.51.17,17.68.16,35.31,0,52.93.09,2.28,0,4.7-.49,6.71,1.2a2.17,2.17,0,0,1-.22,2.7c-3,2.14-6.4,1.52-9.67,1.52Q396,64,250,64c-7,0-14-.23-20.93.76a30,30,0,0,1-11.4-.35,4.48,4.48,0,0,1-1.44-.78c-.76-2.5.74-3,2.74-3.12a8.24,8.24,0,0,0,5.25-1.67c.36-.13-.39-.82-.14-.21,0,.08-.15.11-.38.3a2,2,0,0,1-2.66.25c-2.81-2.33-6.11,0-9.07-.89,3,.89,6.22-1.33,9.06.84-.63,2.84-4.43.15-5.1,2.92-1.77,1.58-4.11,2.06-6.14,3.13a23.49,23.49,0,0,1-9.94,1.26c-2-.31-4-1.47-5.78.46-1.3.67-2.61,1.21-4.06.45-.62-.63-.74-1.78-1.9-1.84.93.3,1.38.85,1,1.86-1.37,1.71-3.39,2-5.32,2.41-20.66,4.62-40.5,11.39-58.68,22.5-1.55.94-3.15,1.9-5.11,1.54a3.15,3.15,0,0,1-1.23-.7c-.49-.61-.6-1.59-1.61-1.71a1.29,1.29,0,0,0-.82.55,1.8,1.8,0,0,0,.5.93,3.24,3.24,0,0,1,.89,1.63c.11,1.93-1.13,3-2.5,4-13.51,9.68-24.42,21.87-34.23,35.15a10.4,10.4,0,0,0-3,5.69c-2.54,7.91-6.62,15.18-8.7,23.31-3.39,13.3-2.83,26.66-1.85,40.09.25,3.3,1.26,6.53.89,9.88-.18,2.62-3.89,5.56.7,7.76a2.34,2.34,0,0,1,.49,1.27,2.86,2.86,0,0,1-1.3,2.1c-.36,0-.46.18-.26.45,0-.32.24-.49.62-.54a4.51,4.51,0,0,1,2.54,2.07c3.06,4.8,4.32,10.39,6.72,15.49A148.77,148.77,0,0,0,96.43,270.6c1.44,1.81,3.08,3.5,3.38,6a9.86,9.86,0,0,1-.62,3.52c-.76,2.58-.33,4.64,2.65,5.26,2.21.45,3.59,2.29,5.58,3,.94-.23,1.73-1,2.8-.77a3.3,3.3,0,0,1,2.1,2.3c.19.79-1.19,1.54-.07,2.33.45.73.27-.18.45-.22a2.12,2.12,0,0,1,1.52-.71c2,.23,3.15,1.6,4.33,3A6.52,6.52,0,0,0,122,297.1c8.21,5.65,15.71,12.24,23.9,17.95,18.55,12.93,38.1,24.23,57.67,35.51,6.76,3.9,13.43,8,20.27,11.72a7.9,7.9,0,0,1,3.59,3.34c-1.17,2.77-.14,4.72,2.26,6.14a1.49,1.49,0,0,1,.56.51l-.63-.57c-1.26-1.18-3-2.2-1.2-4.22a2.77,2.77,0,0,1,1.34-.08c1.4.62,2.47,1.8,3.95,2.28a10.33,10.33,0,0,0,3.85,1c10.34,5.66,21.08,10.67,29.92,18.72.49,1.61-.17,3.24.11,4.89s1.56.85,2.26,1.37c.11-.72-.56-1.51.18-2.18a3.84,3.84,0,0,1,2.76-.69c5,1.63,9.43,4.11,12.39,8.68-.39,1.45-2.16,1.79-2.84,3.33,1.67-.51,1.74-2.07,2.63-2.93,2.06-.87,3.5.44,4.94,1.52,14.19,10.67,28.44,21.28,40.55,34.43a170.59,170.59,0,0,1,25.11,34.58,6.82,6.82,0,0,1,1.1,4.26c-.66,2.42-4,3.92-2.37,6.64-.15-2-.56-4.58,3.09-4.77,4.22,3.29,4.95,8.29,6.4,12.93a8.58,8.58,0,0,1,.27,2.13c-.41,2.34,1.26,3.82,2.31,5.56,2.48,6.14,3.4,12.66,4.77,19.07a17.67,17.67,0,0,1,.19,2.62c2.29,20.84.63,41.66-.14,62.49a43.38,43.38,0,0,0,0,18.43c.35,2.48.68,5-1,7.14a1.88,1.88,0,0,1-1.78.18c-10.65-.49-21.31-.17-32-.2q-39.48-.08-78.95,0c-2,0-4-.24-5.95.32a16.63,16.63,0,0,1,5-.33q53.13,0,106.27,0c2.24,0,5.12-1.19,6.47,2-1.42,3.33-4.45,2.35-6.91,2.36-29.44.08-58.89,0-88.33.06-10.14,0-20.29-.25-30.43.19a236.77,236.77,0,0,1-62.29-5.77c-1.6-1.13-4.06-2.45-3.22-4.4s3.66-1.6,5.77-1.41c1,.09,1.93.32,3.25.58.3.05-.5-1-.33-.33,0,.14-.12.2-.47.14-3.62-.62-7.08-1-10.21,1.85-2,1.85-4.84.17-7.23.81-11.8-1.51-23-5.23-34.17-9.16-26.6-9.38-51.3-22.31-73-40.49-20-16.78-36.29-36.62-47.38-60.46a14.1,14.1,0,0,1-1.58-4.71,4.06,4.06,0,0,1,1-3.25c2.23-1,.29-2,0-3.06a3.1,3.1,0,0,0-2.95-1.46,2,2,0,0,1-1.34-1.27c.09-2-1.15-3.33-2.19-4.79A72,72,0,0,1,1,445.75c.5-2.14-1.24-4.92,1.82-6.31,2.09.37,2.13,2,2.32,3.53a4.1,4.1,0,0,0-1.06-3C3.16,438.41,1.37,438.56,0,437.89Z"/><path class="cls-2" d="M224.51,1.85c.76-.68,2.47-.12,2.43-1.85h2c2.94,1.08,6,.23,9,.51Q396,.51,554.06.51c2.49,0,5,0,7.47,0,1.78.16,3.62-.39,5.35.41l6.26,1-7.32.19c-6.21,1.45-12.55.62-18.8.79-50,1.32-99.93.43-149.9.58-49.64.15-99.29,0-148.92,0-6.39,1-12.78-.52-19.18,0a3.48,3.48,0,0,1-3.09-1.23Z"/><path class="cls-3" d="M1.89,446.42C1,445.81,1.58,444,0,443.89v-6c1-.41,1.28-2.15,2.72-1.4S4,438.61,4,439.89H4C.43,441.14,2.68,444.27,1.89,446.42Z"/><path class="cls-4" d="M674.78,95.13c12.49,9.43,24,19.8,33.15,32.68,11.36,16,17.87,33.91,21,53.16,1.23,5.31.43,10.63.07,15.95,0,1-.09,2-.13,3,.35,2.73-.78,5.3-.94,8-2.66,16.23-7,31.92-14.28,46.74a36,36,0,0,0-1.17,4.18,3.4,3.4,0,0,1-1.52,1.09L700.65,276a5.58,5.58,0,0,1-2,2.58l-.93,1.2c-1,2.25-3.34,3.62-4.14,6-3.77.64-5.25,4.26-7.38,6.54-10.31,11-22.42,19.82-34.36,28.86a4.71,4.71,0,0,1-2.14,1.59l0,0a8.36,8.36,0,0,1-2.92,2l-10,6.15a1.05,1.05,0,0,1-1.08.7l-1,.48c-.56.68-.94,1.59-2.06,1.5L624,338a13.25,13.25,0,0,0-5.13,2.79L617.07,342a5.26,5.26,0,0,0-4.24,1.78l.12.46c-1.26,2.05-2.76,3.74-5.49,3.49-26.28,13.37-52.94,26-78.61,40.53a5.54,5.54,0,0,1-4.3,2.46,1.83,1.83,0,0,0-1.9.8c-.76,1.64-2.72,1.24-3.85,2.26-4.45,2.53-9.06,4.81-13.09,8-1.41,1.3-2.77,2.68-4.77,3.07a175.55,175.55,0,0,0-30.15,22.88c-.34.56-.45,1.3-.88,1.74-4.83,4.95-9.11,10.48-15,14.33a121,121,0,0,0-28,52c-1.27,1.44.38,3.57-1.16,4.95l0-.08c-.89,1.83.46,4.47-2.07,5.68-2.79,1.24-.92,3.43-.95,5.17,0,2.44.69,5-2.36,6.33-.41.17-.44.37.08,1.17,1.63,2.48,1.23,7.25.55,7.35-4.18.61-2.48,3.3-2.47,5.34,0,2.86-1.29,5.52-1.16,8.38.33,7.12-.72,14.28.9,21.38,1,4.3-.85,8.53-1,12.86-.36,9.5,1.37,18.89,1.14,28.36-.13,5.4-1.1,6.5-6.43,6.54q-16,.13-32,0c-5.48,0-6.37-1.2-6.86-6.86s1.62-10.92,1.21-16.35c-1.43-19.1-.92-38.23-.86-57.34a142.75,142.75,0,0,0-.69-16c-.18-1.59-.37-2.92-1.54-4-4.61-4.11-5.6-9.91-7.22-15.41a2.59,2.59,0,0,0-1.1-1.56c-2.08-4.31-3.29-9-6-13a1.7,1.7,0,0,1-1-1.84c-7-15.46-17.32-28.57-29.16-40.53-10.13-10.23-20.64-20-32.9-27.77-3.12-2-5.45-5.17-9-6.7h0a66.3,66.3,0,0,0-11.83-8.11c-1.45-.88-3.29-.8-4.7-1.83a4.37,4.37,0,0,1-1.47-2.07,297.09,297.09,0,0,0-29.9-18c-1.35-.55-2.75-1-4.08-1.6-1-.8-2.06-1.44-3-2.23a1.66,1.66,0,0,0-.84-.18c-1.07-.2-1.51-1.14-2.15-1.84q-22.35-13-44.71-26.08c-21.39-12.57-42-26.26-61.24-42a12.82,12.82,0,0,1-3.07-2.76,10.59,10.59,0,0,0-3.74-3.33,2.79,2.79,0,0,1-2.24-1.74L109.72,288c-4.5-2.9-8.74-6.05-10.58-11.41A161.09,161.09,0,0,1,69.94,226c-.41-1.31-1.32-2.5-.94-4l-.16-1c-2.5-1.85-2.16-4.42-1.75-7a243.73,243.73,0,0,1-2.37-27.15,93.27,93.27,0,0,1,9.8-43.06c.91-1.87,1.65-3.83,2.46-5.74,1.25-1.51,1.78-3.44,3-5,10.1-14.22,21.69-27,36.25-36.79a2.13,2.13,0,0,0,1.08-2,1.37,1.37,0,0,1,1.8-1c6-1.61,10.69-5.69,16.13-8.37A198.19,198.19,0,0,1,185.69,68a26,26,0,0,0,3.23-1.07c.33-.43.68-.43,1.06-.05,1.51.52,2.67-.59,4-.88,1.52-1.68,3.5-.36,5.21-.81L210,63.87a11.3,11.3,0,0,1,6-.71c110-2.33,219.93-.42,329.9-1,2,0,4-.13,6-.2,3.25-2.58,7-1,10.57-1.38a13.4,13.4,0,0,1,2.68.28c4.45,1.53,9.42-.07,13.74,2.24,12.28,2,24.64,3.37,36.75,6.41a200.16,200.16,0,0,1,56.12,23.63A4.29,4.29,0,0,1,674.78,95.13Z"/><path class="cls-4" d="M147.84,401.2c18.6,11.6,38.29,21.14,58,30.67,22.48,10.88,44.37,22.65,62.32,40.46,8.64,8.58,16.2,18,20.82,29.43.62,3.33,2.45,6.33,2.66,9.77a3.77,3.77,0,0,1-.72,1.39c-1.25,5.33-.43,10.19,4,13.7,2.75,2.17,2.9,5.15,3.32,8a30.48,30.48,0,0,1-.67,10.35c-.56,2.82-1.91,4-4.46,4.48-5.93,1.1-11.91,1-17.89.86-1.9,0-3.9-.57-3.86-3,0-2.62,2.24-2.44,4.07-2.46,4.12,0,8.24,0,12.36,0-8.28.07-16.57-.43-24.71,2.06-3.06.93-5.39,2.24-7.13,4.8-40.43,2.21-79.61-2.56-116.27-21.09-4.28-2.16-8.47-4.51-12.69-6.77a1.79,1.79,0,0,1-1.09-.75l-4-2.94a22,22,0,0,0-6.94-5.23l-10.06-7.06c-5.24-2.5-8.29-7.45-12.23-11.35-1.79-1.76-3.45-3.9-5.13-5.9-.62-1.18-1-2.48-1.54-3.68q-3.56-5.54-7.1-11.08c-3.34-1.26-2.64-4.67-3.79-7.1-4.22-10.7-8.47-21.4-9.61-33,.08-6.58-.09-13.17.13-20.46,2.79,1.86,1.3,4,1.65,5.6-.49-21.69.7-43.4.34-65.12,0-2.7-.9-6.31,3.51-7l0,0a8.4,8.4,0,0,1,1.32,8.5c-1.91,4.7-1.31,9.47-1.4,14.24-.1,5.78.18,11.58-.35,14.59.62-5.42.37-13.61.29-21.78,0-3.19.91-5.27,3.89-6.77s5.26-.88,7.72,1.06c2.28,1.79,4,4.62,7.37,4.66q18.19,12.48,36.39,24.93c1.49,1,3.14,1.8,4.72,2.68,4.41,1.18,7.95,4.08,12,6,1.37,1.11,3,1.84,4.23,3.15A6.06,6.06,0,0,1,147.84,401.2Z"/><path class="cls-4" d="M591.8,430.85c12.82-5.32,25.77-10.38,38-17,1.19-2.11,3.26-2.54,5.4-2.83a230,230,0,0,0,33.58-19.34c7-4.74,14.13-9.16,20.67-14.46,13.16-10.64,26.16-21.48,39.23-32.24,1.82,3,1.56,6.33,1.56,9.6q.06,38.28,0,76.55c0,4.08-.08,8.13-2.38,11.74a135.34,135.34,0,0,1-15.38,41.71l.31.25-.29-.28c-11.32,16.82-25.41,30.73-43.09,40.85-1.25.72-2.47,1.5-3.71,2.24-.81,1.63-2.69,1.32-3.94,2.16-11.29,5.29-22.8,10-34.91,13.16-1.59.41-3.23.63-4.85.94-12.34,2.4-24.68,4.76-37.18,6.14-4.45.49-8.94.48-13.41.74-1.78.1-4,.24-4.13-2.37s2.14-2.39,3.95-2.59c4.29-.49,8.49.63,12.85.35,6.87-.45,13.7-1.07,20.53-1.94.67.09-.4-.92,0-.36.12.2,0,.29-.36.35-10.65,1.61-21.35,1.66-32.09,1.92a95.1,95.1,0,0,0-19.53,2.46,16.55,16.55,0,0,1-9.78-.16,38.18,38.18,0,0,0-18.08-2.11c-4.55.57-9.66,1.8-13.76-2.1-.44-.42.19-.37-.39-.21-2.16.61-4.66,2.19-6-.74-.89-1.94,1-4.05,1.09-6.18.42-.91,1.4-1.34,1.94-2.16.51-.43-.4-.91,0-.4.11.14-.13.46-.37.74-.48.54-1,.79-1.64.26-.76-8.67,1.21-17,3.44-25.24.6-2.22,1-4.46,1.57-6.69l-.05.05c2-1.74,5.48.81,7.14-2.37.43-.37-.64-.75-.1-.37.15.11.09.26-.18.46-3.23,2.42-3.75,2.36-5.76-.67l0,.07a56.94,56.94,0,0,0,3.12-6.95c4.46-11.15,12-20,20.62-28.14,4.36-.52,5.07-5.3,8.32-7.1l9.17-7.5c.83-1.07,2.13-1.7,2.83-2.89,3.24-2.09,6.11-4.92,10.26-5.22L588.86,432A4.43,4.43,0,0,1,591.8,430.85Z"/><path class="cls-5" d="M362.94,491.78c1.69-1.22,2.77-.18,2.57,1.28-.44,3.21,1.2,5.94,2.2,8.54s3.9,4.52,6.18,6.5c.74.65,1.86,1,1.77,2.08-1,11.55-.49,23.13-.81,34.69-.53,19.4,2,38.79,0,58.17-.37,3.69,1,5,4.77,4.88,11-.21,22-.16,32.94,0,3.23,0,4.25-1,4.4-4.3.27-6-.86-11.9-1.12-17.86-.48-10.91,1.46-21.8,0-32.71-1.13-8.74,1.72-17.47.22-26.24-.28-1.61,1.26-2.12,2.31-3.33l1,4.1c2-2.68,2.3-5.64.51-7.09-3.15-2.54-1.89-5.05-1.61-8.1,2.39,1.08.86,3.27,2,4.43,2.12-2.86,1.33-8.5-1.73-12.28,2.35-1.82,3.4,1.41,5.28,1.35a2.51,2.51,0,0,1,.1,3c-.07.66-.13,1.32-.19,2-.66,1.62,0,3.44-.81,5-1.31,4.69-1.3,9.54-1.32,14.33-.1,26.57-.06,53.14-.05,79.7a22.71,22.71,0,0,0,.25,2.47l-.48,0-.49,0c-1.05-3.12-1.1,1.79-2,.25-16.33.21-32.67.61-49-.23-.63-.45-.53-1.11-.54-1.75a2,2,0,0,1,.46-1.8c0-2.33,0-4.67,0-7a65.44,65.44,0,0,1,.09-18c.45-20,1.5-40,.09-60-.09-1.32-.06-2.64-.09-4,3.21.84,2.39,3.53,2.4,5.65.08,11.37,0,22.75,0,34.12.05,6.73-.25,13.48.5,20.19v6.47c0-1.08,0-2.15,0-3.23-.06-2.67.24-5.35-.48-8,0-4.94,0-9.87,0-14.79V525.23c0-2.68.06-5.37-2.67-7-1.85-6.4-2.25-13.16-4.9-19.36-.58-1.75-1.7-3.33-1.78-5.26Z"/><path class="cls-5" d="M510.68,503.65c.77,6.74-3.58,12.58-3.35,19.26.14,4.32-3,8.53-.46,13-.13,1.49-.17,3-.4,4.45-.18,1.18-2.56,2.58.18,3.39,1.93.57,3.18-.36,3.24-2.59,0-.87-.38-2.06,1.09-2.51,2.06,1.49-.49,5.44,2.25,5.84,4.4.63,9.17,1.1,13.38,0,6.36-1.58,11.73.77,17.29,2.55,2,.64,4,1.24,5.77.66,9.46-3.11,19.26-2.41,28.92-2.73,9.27-.31,18.55-.18,27.84-.8-6,.19-11.6,2.26-17.49,3a64.26,64.26,0,0,1-16.35-.25c-1.44-.18-4.15-.88-4.17,1.27,0,2.73,2.81,1.55,4.37,1.59,14.37.37,28.34-2.66,42.35-5.28a31,31,0,0,1,6.91-.58c-13.22,4.16-26.88,5.77-40.6,6.9-22.92,1.89-45.88.91-68.83.58-3.13,0-6.3-.69-9.41.25-2.28-1.73-2.19-4-1-6.15a16,16,0,0,0,1.43-4.63q1-9,1.93-18c-.1-1.34-.71-2.73.43-3.93C507.82,513.91,508,508.41,510.68,503.65Z"/><path class="cls-6" d="M535.86,6c4.69,2.38,9.82,0,15.86,1.68H246.87C250,6,253.39,8.21,255.94,6s5.47-1.32,8.32-1.17c2.24.8,4.57.68,6.89.68h81.58a22.11,22.11,0,0,0,7.37-.81,42,42,0,0,1,5.49-.19q81.35,0,162.69,0C530.85,4.56,533.67,3.78,535.86,6Z"/><path class="cls-7" d="M247.94,59V58c.14-2.25,1.9-1.42,3-1.45,4.83-.09,9.65,0,14.47,0q104.29,0,208.58,0c2,0,4-.49,5.89.46v2c-1.56.9-3.26.48-4.89.48q-111.09,0-222.16,0C251.2,59.46,249.5,59.87,247.94,59Z"/><path class="cls-8" d="M290.93,511.87c0-3.5-2.9-6.43-2-10.11,3.68,5.89,4.89,12.69,7.09,19.12,3.27,7.43,4.64,15,2,23-.91,7.86-.91,7.89-9.28,7.9-11,0-21.91,0-32.86,0-.69-4.42,1.37-5,5.54-6.23,10.55-3,21-.74,31.51-1.6.78-.06,1.64-.06,2.91,2-5.69,0-10.65-.24-15.57.1-2.67.18-7.35-1.77-7.52,1.61-.13,2.55,4.78.83,7.4,1.25,4.5.74,8.85-1.12,13.34-1,2.23.05,3.4-1.24,3.33-3.44-.12-4.12.41-8.24-.62-12.38-.62-2.5-.91-4.51-4.15-4.19-1.55.15-2-1-1.74-2.32.69-4.56-4-8.76-.88-13.45.17-.26.95-.11,1.44-.16,1.16,1-.05,2.49.6,3.63C291.09,514.33,292.07,512.92,290.93,511.87Z"/><path class="cls-9" d="M225.93,2.26c7-1,14,.86,21-.24,1.9.94,3.93.46,5.89.46q146.56,0,293.14,0c2,0,4-.5,5.89.47-2.47,1.93-5.34.6-8,1-1.91,1.48-4.16,1-6.28,1-25.65,0-51.31.12-77,0-62.8-.3-125.59.88-188.38.39-10.64-.09-21.3,0-31.94-.65-4.4-1.23-9,1.37-13.36-.72Z"/><path class="cls-10" d="M551.86,3Q402.51,3,253.16,3c-2.08,0-4.36.72-6.22-1l318.88.06c-1.45,2.15-3.71,2-5.66,1.47C557.38,2.76,554.62,3.18,551.86,3Z"/><path class="cls-11" d="M535.86,6H359.91c-1.22.78-2.59.47-3.89.47q-44.1,0-88.2,0c-1.31,0-2.67.31-3.89-.48h-8c-5.32-.55-10.78,1.11-16-1,1.73-.93,3.6-.47,5.39-.47q146.56,0,293.14,0c1.79,0,3.66-.46,5.39.47,2.25.22,4.58-.48,8.18,1Z"/><path class="cls-12" d="M543.86,5H239.94c-.37-.22-.49-.45-.37-.67s.25-.33.37-.33H543.86Z"/><path class="cls-13" d="M479.88,57Q367,57,254.14,57c-2.08,0-4.36-.74-6.21,1h-5.55c1.7-2.19,3.72-2,5.65-2H475.66C477.13,56,478.7,55.7,479.88,57Z"/><path class="cls-14" d="M247.94,59H479.88c-1.51,1.53-3.44,1-5.21,1q-110.76,0-221.52,0C251.38,60,249.45,60.51,247.94,59Z"/><path class="cls-15" d="M71.1,348.8c-2.73,1.8-2,4.7-2.06,7.2-.14,9-.22,18,0,26.93.31,13.28-2,26.45-.85,40.5-1.94-2.37-.58-4.57-1.84-6.88-1,6.8.45,13.08-.86,19.22-1.52-7.76-.62-15.59-.61-23.39,0-21.13.28-42.27.44-63.4,2.1,2.06,1.78,4.77,1.63,7.25-1,15.12-.2,30.25-.46,45.37,0,.85.22,1.73,0,2,0-12.63-.37-25.78.16-38.89.25-6.4-.74-12.82.45-19.17A11.11,11.11,0,0,1,71.1,348.8Z"/><path class="cls-16" d="M732.79,351.9c1.54,1.49,1,3.42,1,5.18,0,20.56.19,41.12-.07,61.68-.1,7-1.82,14-.91,21.13l-2-2c-1.62-1.81-1.45-4-1.51-6.22.11-1.72-.28-3.46.35-5.15,1-2,.65-4.23.65-6.36,0-20.7,0-41.4.07-62.1C730.4,355.83,729.4,352.93,732.79,351.9Z"/><path class="cls-15" d="M89.92,363.27c-2.78,1.27-4.5.24-6.19-2.18-1.34-1.91-3.42-4.53-6-3.07s-6.35,1.92-5.95,7c.65,8.5.67,17.13-1.55,25.56-.11-12.48-.82-25,.82-37.44a34.13,34.13,0,0,0,0-4.41Z"/><path class="cls-7" d="M487.87,59V57c1-.72,2.24-.48,3.38-.48,18.91,0,37.82,0,56.72.07,1.43,0,4.56-1.62,3.91,2.34-.84.73-1.87.56-2.85.56H490.76A4.55,4.55,0,0,1,487.87,59Z"/><path class="cls-17" d="M551.86,608.85c-1.51,1.52-3.44,1-5.2,1q-58.78,0-117.57,0c-1.75,0-3.7.58-5.17-1,1.4-.79,2.93-.44,4.4-.44q59.58,0,119.16,0C548.94,608.37,550.48,608,551.86,608.85Z"/><path class="cls-18" d="M551.86,608.85l-127.94,0c1.52-1.49,3.44-.94,5.21-.94q58.77,0,117.54,0C548.43,607.87,550.36,607.32,551.86,608.85Z"/><path class="cls-19" d="M369.83,610.85c0,.52.07,1,.11,1.56-18.42.07-36.84.17-55.26.2q-31.12.06-62.24,0c-3.3,0-6.64.29-9.89-.62,9-.08,17.93-.21,26.9-.22q46.86,0,93.71,0c1.93,0,4,.61,5.76-.84C369.2,610.36,369.51,610.37,369.83,610.85Z"/><path class="cls-17" d="M369.83,610.85l-.91,0c-1.82-1.76-4.11-1-6.18-1q-54.56-.07-109.1-.06c-1.93,0-4,.64-5.71-1,1.22-.8,2.59-.49,3.89-.49H365c1.3,0,2.67-.3,3.89.47l1,0Z"/><path class="cls-18" d="M368.88,608.83l-120.95,0c1.5-1.53,3.44-1,5.2-1q55.28,0,110.55,0C365.44,607.87,367.37,607.31,368.88,608.83Z"/><path class="cls-20" d="M88.09,489.6l16.78,18.28a5.27,5.27,0,0,0-.82,1.21c-1.12,3.24-4.69,1.82-5.28,1.23-1.5-1.49-.73-2.69,1.56-1.54.68.34,1.27,1.15,2.16.22-.55-1.71-2.07-1.84-3.48-2.13-1.19-.7-.41-2.08-1-3-1.44-1.38-2.55-3.31-5-3-.38-.17-.27-.92-.92-.78.28.23.26.48,0,.75l-3.91,3.09c1.2-3.56-1.28-6.78,3.11-9.1-7,.35-8.28-.67-7.23-4.95h2C86.58,489.18,87.36,489.61,88.09,489.6Z"/><path class="cls-21" d="M551.86,59c-.88-3.15-3.49-2-5.39-2C526.94,57,507.41,57,487.88,57c1.33-1.41,3.09-1,4.7-1,18.44,0,36.91-.56,55.32.25,7.62.33,15.25,2.06,23,1.83,1.17,0,1.71.83,1.94,1.9-2.53,1.74-5.21,2.9-8.38,2.13l-1.66,0c-.27-.58.35-1.4-1.19-1.53-3.08-.26-6.36.82-9.25-1.06Z"/><path class="cls-22" d="M730,427l-.24,4.89-.67,0q0-40.71,0-81.42c0-1.81-.27-3.62-.41-5.43.84-.25,1.67-1.27,2.55-.44s.3,1.68-.46,2.36q0,38.19,0,76.37A6.28,6.28,0,0,1,730,427Z"/><path class="cls-23" d="M730,427l0-3.31c.7-9.3.22-18.62.28-27.93.1-14,0-28,.05-41.94,0-1.63-.49-3.34.53-4.87,3.33-.78,1.41,1.88,1.92,2.94-1.6,1.69-.95,3.79-.95,5.72-.05,21.8,0,43.61-.12,65.41C731.71,424.33,733.51,427,730,427Z"/><path class="cls-24" d="M454.92,443.88a82.45,82.45,0,0,1,15.87-16.07c-.53,2.79,1.74,2.18,3.29,2.45l-2.21,2.65c-3.1.58-4.55,3.47-7,5a3.14,3.14,0,0,0-3,2c-.55.67-.91,1.35,0,2,3.73,1.43.43,2.63-.25,3.69-.54.84-1.18,2.95-2.78,1A12.42,12.42,0,0,0,454.92,443.88Z"/><path class="cls-4" d="M67.1,345.57c1.28,6.88.1,13.75,0,20.64-.26,13.41-.08,26.83-.88,40.31-.07-1.3-.19-2.6-.19-3.9,0-16.1,0-32.2,0-48.3,0-1.79.45-3.67-.66-5.34-.18-1.43-.78-3,.31-4.19C66,344.38,66.79,344.91,67.1,345.57Z"/><path class="cls-25" d="M730.87,349q0,34.49-.08,69c0,1.93.66,4-.78,5.78q-.07-36.78-.16-73.54c0-1.17,0-2.34.95-3.22C730.82,347.62,730.85,348.29,730.87,349Z"/><path class="cls-14" d="M487.87,59h64c.26.23.34.45.26.67s-.18.33-.27.33q-29.13,0-58.27,0C491.65,60,489.55,60.61,487.87,59Z"/><path class="cls-26" d="M147.84,401.2l-.88-.46a5.94,5.94,0,0,0-4.37-2.66,58.52,58.52,0,0,1-11.56-7.2,11.94,11.94,0,0,1,6.57,1.58c1.7.9,3.59,2.77,5.91,1.38,3.23-1.94,3.28,2.38,5.57,2.92C150.58,397.12,149.12,399.85,147.84,401.2Z"/><path class="cls-4" d="M369.74,518.22c.44-1.83-.36-3.9,1.54-6.66,2.85,16.74,1.15,32.57,1.62,48.3-.32.52-.65.49-1,0q0-16.56,0-33.12c0-2.48.16-5-2-6.86C369.88,519.32,369.81,518.77,369.74,518.22Z"/><path class="cls-27" d="M99.14,276.56c3.62,3.71,7.55,7.14,10.58,11.41l-1.8,2c-2.42-1.61-4.54-3.58-7.32-4.75-2-.84-2.88-2.91-2.63-5.22Z"/><path class="cls-28" d="M566,443a58.35,58.35,0,0,1-10,6.24c-.67-.21-.79-.88-1.14-1.36l-1-2c-1.73-4.05,1.07-5.07,4-6l2,2c1,1.11,2,1.07,3,0Z"/><path class="cls-24" d="M298.07,543.85a175.11,175.11,0,0,0-2-23c1.44,0,1.88,1.38,2.87,2,1.19,1.85.54,4,1,6l2,1a7.93,7.93,0,0,1,0,6h-1c-2.31,2.25,1,5.94-2,8Z"/><path class="cls-29" d="M180.9,606a43.69,43.69,0,0,1-11.91-2.4c7.43.21,14.69-5.29,23.29-.26-5.14-.08-9.28-1.19-13.35-.21C178.86,604.83,180.64,604.87,180.9,606Z"/><path class="cls-30" d="M503.64,540.89c.67,3.62-1.64,7.13-.43,10.78l-4.3-.82a7.52,7.52,0,0,0-3-4C497.66,543.84,502.85,545.22,503.64,540.89Z"/><path class="cls-31" d="M240.69,555.31c4.46.21,8.92.41,13.37.67.88,0,1.58.52,1.47,1.57a1.34,1.34,0,0,1-1.38,1.17c-2.14.16-4.4.6-6.34-.53C245.59,556.89,243,557.14,240.69,555.31Z"/><path class="cls-32" d="M551.84,60c0-.33,0-.67,0-1,4.29,0,8.62-.39,12.81,1.29,0,1.14-1.6.81-1.85,1.79l-10.95-.15C551.85,61.27,551.85,60.62,551.84,60Z"/><path class="cls-33" d="M203,3.41l8.67-.63c3.44.63,7.16-.06,10.26,2.2,2.32.88,1.87,1.9-.18,1.89A47.27,47.27,0,0,1,213,5.78C209.65,5.13,206.34,4.21,203,3.41Z"/><path class="cls-34" d="M266.94,389.88l2,1.12c.46.93,1.78,1.57,1,2.92.83,1.31,3.11,1.53,2.79,3.71C265.38,396.33,265,395.8,266.94,389.88Z"/><path class="cls-35" d="M710.94,259.94l.59-1.16c.76-.23,1.12-1.45,2.2-.88a10.83,10.83,0,0,0,1.3-1.42c1-1.53,2.4-2.81,4-1.75s1,2.84-.21,4.2c-2.33-.33-1.69,2.31-3,3C713.51,263,712.28,261.31,710.94,259.94Z"/><path class="cls-36" d="M423,515.88c-.11-1.74-.35-3.5.81-5,6.17-.61,3.15-5.78,4.39-8.84,2.45,2.38,2.19,8.91-.74,9.46S424.08,514,423,515.88Z"/><path class="cls-37" d="M98,280c1.3,5.34,7.6,5.68,10,10-.2,1.6-1,1.63-1.67.41-1.35-2.63-3.6-3.25-6.25-4C96.79,285.49,96.92,282.67,98,280Z"/><path class="cls-38" d="M511.73,500.75c1,1.2,2.19,2.05,3.84,1.15,2.48-1.35.33-3.58,1.07-5.74,2.52.9,2.24,2.88,2.15,4.7-.1,2-1.31,2.94-3.23,3-1.64,0-3.29-.07-4.93-.12A3.14,3.14,0,0,1,511.73,500.75Z"/><path class="cls-39" d="M298.88,543.85a28.6,28.6,0,0,1,1.06-9.25c.18-.61.51-.77.81-.19a4.28,4.28,0,0,1,.17,1.45,54.5,54.5,0,0,1,.9,7.13C301.81,545.78,300.37,545.29,298.88,543.85Z"/><path class="cls-40" d="M743.81,66.1c4.63,2.67,8.09,6.55,11.21,10.78C750.5,74.1,746.45,70.84,743.81,66.1Z"/><path class="cls-41" d="M729.12,431.87c.22,0,.44,0,.67,0q.51,3,1,6c-.75,1.8,1.82,5.53-2.92,5Z"/><path class="cls-42" d="M75.08,468.77a24.43,24.43,0,0,1,3.79,7.1c-1.44,1.26-2.71,3.34-4.89,1a1.35,1.35,0,0,1,0-2C75.16,473,74.94,470.86,75.08,468.77Z"/><path class="cls-43" d="M13.94,489.84a26,26,0,0,1-3.3-7.79c2-2.55,3.12-.66,4.33.83a3.73,3.73,0,0,1,0,4C13.92,487.61,14.09,488.78,13.94,489.84Z"/><path class="cls-32" d="M564.47,62.11c2.93-.18,5.19-3,8.38-2.13l1,1c1.07,1.41,2.95-.54,4,1l1,1.11C574,63.05,569.22,63.12,564.47,62.11Z"/><path class="cls-44" d="M356,476.89l1,1.84c-3.22,2.26-1.22,5.71-1.88,8.61C352.23,484.82,352.58,481.05,356,476.89Z"/><path class="cls-45" d="M284.94,401.89c-.31,1.9-.61,3.81-.9,5.63-1.75.49-2.08-.87-2.77-1.7-.87-1-1.83-2.3-1.11-3.55.9-1.58,1.87.74,2.94.32l1.84-.7Z"/><path class="cls-46" d="M729,196.92q0-8-.07-15.95C731.88,186.28,730,191.6,729,196.92Z"/><path class="cls-47" d="M67.09,213.91q.89,3.51,1.75,7C64.17,219.7,63.87,218.5,67.09,213.91Z"/><path class="cls-48" d="M711.52,129.72c4.34,0,4.34,0,6.59,8.14C715.45,135,715,131.6,711.52,129.72Z"/><path class="cls-9" d="M221.94,5c-3.6.07-7.15,0-10.26-2.2h.06c3.07-.34,6.13-.69,9.17.19h3.56Z"/><path class="cls-49" d="M715.82,261.93a23.4,23.4,0,0,1,.51-3.78c.22-.78.59-2.16,1.87-1.4.47.28.43,1.43.62,2.18-.21.61-.38,1.25-.64,1.84-.45,1,2.35,1.48.48,2.52C717.4,264,716.69,262.57,715.82,261.93Z"/><path class="cls-50" d="M543.77,458.63c-.93,2.66-3.7,4.05-4.45,7s-2.55-.48-3.87.09A34.48,34.48,0,0,1,543.77,458.63Z"/><path class="cls-33" d="M239.94,4V5c-3.08.08-6.16-.22-9.21.78-1.52.51-3.35.56-3.79-1.78Z"/><path class="cls-51" d="M215.94,62c.38-3.15,3.88-1.08,5-3h0c1.65,0,3.08-1.38,4.87-.83-.65,2-1.56,3.29-4.07,2.88A8.24,8.24,0,0,0,216,62Z"/><path class="cls-52" d="M370,583.85a124.44,124.44,0,0,1-.09,18A33.29,33.29,0,0,1,370,583.85Z"/><path class="cls-53" d="M464.89,437.89c1.13-3.33,3.39-5.08,7-5-1.85,1.74-4.07,3.06-5.32,5.44C465.88,439.64,465.1,439.31,464.89,437.89Z"/><path class="cls-51" d="M220.94,59H209.2c3.92-.19,8-3.66,11.74,0Z"/><path class="cls-54" d="M725.93,562a12.6,12.6,0,0,1-5.11,3.72c-.34-.94-.67-1.88-1-2.81a17.36,17.36,0,0,0,3.41-2C725.15,559,725.15,561.32,725.93,562Z"/><path class="cls-55" d="M557.86,439.89c-1.78,1.69-4,3.1-4,6-1.74-.27-2.34-1.41-1.65-2.86A5.11,5.11,0,0,1,557.86,439.89Z"/><path class="cls-56" d="M635.23,411.06a10.16,10.16,0,0,1-5.4,2.83c-.14-.75-1.85-1-.6-2.2C631.1,409.92,633.06,409.62,635.23,411.06Z"/><path class="cls-16" d="M734.46,437c.89,2.82,1.8,5.56,1.06,9.17C734.48,442.79,731.38,440.39,734.46,437Z"/><path class="cls-57" d="M615.85,602.86l-5,0h0c3.75-4.12,7.86.6,11.74,0h-4.75A1.34,1.34,0,0,1,615.85,602.86Z"/><path class="cls-58" d="M106.2,512.28c.12,3.71,2.68,4.63,5.61,5.16C107.59,518.39,104.82,517.66,106.2,512.28Z"/><path class="cls-39" d="M696.18,509.61c2.26-.66,4.69-.92,5.05-5.18C704.12,512.9,698.17,508.72,696.18,509.61Z"/><path class="cls-59" d="M61.24,65.79c1.37,4.11.37,5.83-3.88,4.12C57.75,67.68,60.78,68,61.24,65.79Z"/><path class="cls-60" d="M793.72,445.28c1.66,4,.72,6.68.87,9.35A10.14,10.14,0,0,1,793.72,445.28Z"/><path class="cls-61" d="M772.65,513.84c-.54,2.06-1.32,3.89-3.71,4.37-1-2.36-.12-4,1.84-5.36-.37-.22-.5-.43-.38-.64s.25-.33.38-.33C771.4,512.54,772,513.19,772.65,513.84Z"/><path class="cls-62" d="M607.46,347.77l5.49-3.49c0,1.35,1.37,1.68,1.87,2.65-.73,1.1-2,.45-2.94.94C610.36,349.67,608.92,348.27,607.46,347.77Z"/><path class="cls-3" d="M4,439.89c4.7,1.42.92,4.64,1.8,6.87-2.54-1.88-1.55-4.51-1.8-6.87Z"/><path class="cls-63" d="M522.86,395.9c1.36.21,2.84-.47,4.65.88-3,.42-4.86,2.55-7.65,2.11C518.87,395.9,520.87,395.91,522.86,395.9Z"/><path class="cls-10" d="M561.48,6.25c1.82-.87,3.7-1.9,5.73-.63.17.1.08,1.14-.14,1.24C565.21,7.79,563.42,6.81,561.48,6.25Z"/><path class="cls-64" d="M105.87,37.59c1.32-1.35.39-4.05,2.77-4.65.18,0,.89,1,.91,1.57C109.62,36.72,108.16,37.55,105.87,37.59Z"/><path class="cls-65" d="M786.94,471.19v9.26C785.36,477,783.82,474.85,786.94,471.19Z"/><path class="cls-66" d="M226.94,366a2.16,2.16,0,0,1,2.15,1.84c-1.37,1.7.64,2.69.85,4h0C226.71,371.07,223.82,370.07,226.94,366Z"/><path class="cls-7" d="M770.78,511.88c0,.32,0,.64,0,1-3.53-1.33-3.6-1.52-2.11-6.46C770.7,507.73,767.78,511,770.78,511.88Z"/><path class="cls-67" d="M506,518.92c-.15,1.31-.29,2.62-.43,3.93a13.81,13.81,0,0,1-1-10.89C505.81,514.67,503.71,517.29,506,518.92Z"/><path class="cls-47" d="M783.88,118.7a27.31,27.31,0,0,1,4.08,9.15l-1.15.13,0,0C786.47,124.67,783.35,122.26,783.88,118.7Z"/><path class="cls-68" d="M78,130.41c-2.84,2.49-3.85-.21-6.61-1.55C74.67,128.3,76,130.56,78,130.41Z"/><path class="cls-69" d="M68,150c-3.28-.59-1.11-4.18-3.22-5.43,2.92.27,2.55,2.73,3.26,4.46a.62.62,0,0,1,.19.65C68.13,149.85,68.05,150,68,150Z"/><path class="cls-70" d="M548.89,383.38c-.07-1.27-2.19-2.43-.38-3.73.69-.5,1.77-.83,2.21,0C551.58,381.31,549.47,382,548.89,383.38Z"/><path class="cls-71" d="M522.86,395.9c-1.29.7-2.89,1.11-3,3-2.56-2.91,1.11-3.42,1.94-5l0,0c.78,0,2.06-.39,2.26-.07C524.8,394.92,523.07,395,522.86,395.9Z"/><path class="cls-32" d="M575.86,61c2.41-1.64,4.84-1.12,7.87-.34-2.34,2.36-4.13.22-5.89.37A1.32,1.32,0,0,1,575.86,61Z"/><path class="cls-29" d="M206.62,6.42c-2,.54-4,1-6.77-.5C202.67,4.59,204.6,6.53,206.62,6.42Z"/><path class="cls-72" d="M114.93,514.94a8.32,8.32,0,0,1,6.94,5.23C119.35,518.69,116.82,517.23,114.93,514.94Z"/><path class="cls-73" d="M119.08,93.18c-.26,1-1,.95-1.8,1l-1.34-1.25c-.55-.52-.37-1.39-.94-1.9a2.29,2.29,0,0,1,2-1c1.54-.22,2.24.39,2,2Z"/><path class="cls-47" d="M786.81,128c.23,2.45-1.49,4-3,6.94.33-3.45.15-5.88,3-7Z"/><path class="cls-29" d="M6.71,168.66c-2.18-2.86-1.69-4.28-.92-5.94C7.93,164.28,6.63,165.8,6.71,168.66Z"/><path class="cls-74" d="M673.57,307.85l5.08-2.8C677.63,308.06,675.94,308.59,673.57,307.85Z"/><path class="cls-75" d="M86.91,47.5c.85-2.12,2.27-2.84,5-2C90.19,47.14,88.2,46.46,86.91,47.5Z"/><path class="cls-76" d="M216,63.16c-1.91,1.09-4,.75-6,.71,1.64-1.74,3.76-2,6-1.9l0,0Z"/><path class="cls-77" d="M754.81,86c2,.35,3.77,1.31,5.82,1.35-2.19.52-4.6,1.89-5.83-1.35Z"/><path class="cls-78" d="M577.17,6.18h7.22l0,.48h-7.15Z"/><path class="cls-79" d="M82.87,125.59c-1.4-1.69-.36-2.77.62-3.82a1.09,1.09,0,0,1,.8.35C85.15,123.8,84.21,124.71,82.87,125.59Z"/><path class="cls-80" d="M424,508.87c0-1-.07-2-.1-3,.62-1.71,1.25-3.43,1.87-5.15C426,503.62,426.38,506.55,424,508.87Z"/><path class="cls-47" d="M787.92,127.8a21.65,21.65,0,0,1,3.17,8.08C788.44,133.81,788.06,130.85,787.92,127.8Z"/><path class="cls-81" d="M64.74,455.15l.56-5C67.76,452.41,66.37,453.83,64.74,455.15Z"/><path class="cls-82" d="M500.94,404.93a12.63,12.63,0,0,1,4.78-3.07c-.31,1.82-1.78,2.81-2.87,4.07-.31.39-.62.38-.94,0Z"/><path class="cls-70" d="M732.71,196.2v5.53C731.47,199.34,731.47,199.34,732.71,196.2Z"/><path class="cls-54" d="M719.54,562.57c-1.13,1.36-1.58,3.46-3.85,3.6C716.89,564.89,717.16,562.6,719.54,562.57Z"/><path class="cls-83" d="M107.5,370.79c2.16-.52,2.7,1.19,4.68,2.62C109.29,373.42,108.54,371.84,107.5,370.79Z"/><path class="cls-84" d="M693.59,285.8c0-3,2.57-4.15,4.14-6C697.56,282.61,695.29,284,693.59,285.8Z"/><path class="cls-85" d="M220.91,3l-9.17-.19c3-1.44,6.11-.69,9.19-.73C220.93,2.37,220.93,2.67,220.91,3Z"/><path class="cls-86" d="M199.2,65.16A9.43,9.43,0,0,1,194,66C195.22,62.37,197.33,64.52,199.2,65.16Z"/><path class="cls-57" d="M568.74,434.26c1.47-.53,2.69-.51,3.38,1,.11.23-.33,1-.63,1.11C569.76,436.81,569.48,435.3,568.74,434.26Z"/><path class="cls-87" d="M495.88,546.89c2.61.09,3,1.92,3,4C496.91,550.29,496.56,548.46,495.88,546.89Z"/><path class="cls-88" d="M28.37,504.63c-1.13.64-2.28,1.6-3.82.6C25.43,503.05,26.93,504,28.37,504.63Z"/><path class="cls-77" d="M754.8,86c-2.43,0-3.46-.93-2.35-3.53,1.86.69,1.48,2.51,2.36,3.53Z"/><path class="cls-89" d="M591.84,425.9c-1.21-1.74-3.44-.35-4.73-1.72,1.53,1.06,5.69-3,4.86,2.7C591.28,426.64,591.23,426.31,591.84,425.9Z"/><path class="cls-90" d="M360.76,505.32c1.76,1.34,2.34,3.13,1.82,6.59C361.73,508.84,361.24,507.08,360.76,505.32Z"/><path class="cls-91" d="M683.83,300.93c.39-1.46.24-3.31,2.41-3.53.22,0,.71.38.69.52a3.57,3.57,0,0,1-3.11,3Z"/><path class="cls-92" d="M612.83,343.82c-.13-4.27,2.16-2.78,4.24-1.78C615.84,343.08,614.66,344.22,612.83,343.82Z"/><path class="cls-46" d="M727.91,207.93a22.17,22.17,0,0,1,.94-8C730.43,202.84,728.66,205.33,727.91,207.93Z"/><path class="cls-38" d="M514.83,493.87a8.92,8.92,0,0,1-3.12,6.95C512.27,498.29,512.92,495.79,514.83,493.87Z"/><path class="cls-47" d="M68,224c-2.68,3.81-2.68.34-4.56-.91,2.66-.88,3.18,1.18,4.56.9Z"/><path class="cls-66" d="M229.94,371.9c.91.28,2.58-.52,2.3,1.39-.09.59-1.29,1.6-1.61,1.47-1.35-.52-.41-1.88-.69-2.85Z"/><path class="cls-20" d="M84,489.88c-2.15,1-2-.74-2.26-1.95-.13-.61.37-.92.9-.82,1.62.31,1.24,1.68,1.37,2.76Z"/><path class="cls-93" d="M363.06,493.6a9.24,9.24,0,0,1,1.78,5.26C363.48,497.37,361.23,496.18,363.06,493.6Z"/><path class="cls-92" d="M618.84,340.76c.76-2.66,2.92-2.77,5.13-2.79A8.8,8.8,0,0,1,618.84,340.76Z"/><path class="cls-94" d="M299.92,528.87c0,.16,0,.39-.12.46a2.54,2.54,0,0,1-.68.27q-.09-3.36-.19-6.72l1,2a2.17,2.17,0,0,1,0,3Z"/><path class="cls-95" d="M291.92,410.9l4.36,1.54c-2.52,1.79-3.88,1.37-4.35-1.55Z"/><path class="cls-96" d="M158.34,542.92c-.24.78-.87.88-1.54.82s-1.36-.35-1.11-1.17c.1-.3.8-.52,1.25-.57C157.58,541.93,158.28,542,158.34,542.92Z"/><path class="cls-97" d="M617.7,606.41l-2.88.33-3.06-2.7,4.07.79,0,0Z"/><path class="cls-98" d="M132.88,388.39c-.82-2.73.19-3.58,1.7-4.76C134.85,385.72,133.63,386.47,132.88,388.39Z"/><path class="cls-99" d="M233.32,608.53c1.71-.89,3.47-.78,5.56-.4C236.91,609.47,235.07,608.41,233.32,608.53Z"/><path class="cls-99" d="M560,608.48a9.11,9.11,0,0,1,6.47,0Z"/><path class="cls-100" d="M764.19,93.52c-.3,1.63-1.13,1.9-1.84,2-1,.2-1-.58-.73-1.19s0-1.82,1.24-1.56A4.26,4.26,0,0,1,764.19,93.52Z"/><path class="cls-69" d="M368.25,559.92c.85,3,.74,4.79,0,6.59Z"/><path class="cls-48" d="M615.59,63.71l-2.48,3.47c-.32-.34-.89-.66-.9-1C612.17,64.7,613.24,64.31,615.59,63.71Z"/><path class="cls-101" d="M649.71,322.79a2.92,2.92,0,0,1,2.14-1.59l2.47,1.39C652.65,324.05,651.15,322.5,649.71,322.79Z"/><path class="cls-102" d="M80,133a7,7,0,0,1-3,5C77.28,135.89,78,134,80,133Z"/><path class="cls-71" d="M524.55,390.76a9.34,9.34,0,0,1,4.3-2.46C528.22,390.54,527.19,392.07,524.55,390.76Z"/><path class="cls-103" d="M639.38,73.43c2.42-1.86,3.75-1.22,5.13-.7Z"/><path class="cls-103" d="M142.53,317.55a11.16,11.16,0,0,1-2.27,1c-.54.09-.7-.48-.5-1,.3-.75.7-1.51,1.69-1.17C141.8,316.5,142,317,142.53,317.55Z"/><path class="cls-104" d="M282.52,481a10.71,10.71,0,0,1,.88,1.78c0,.11-.86.67-.95.59a4.37,4.37,0,0,1-1.06-1.42C281.35,481.88,282,481.47,282.52,481Z"/><path class="cls-105" d="M646.51,401.74c-1.08,2.39-2.46,2.35-4.31,3.38C643.16,402.76,644.56,402.66,646.51,401.74Z"/><path class="cls-106" d="M75,345.68A5,5,0,0,1,78.75,348C76.91,348.24,76,347.58,75,345.68Z"/><path class="cls-107" d="M575.86,61l2,0c0,.31,0,.63,0,1-1.58,0-3.17,0-4.76,0-.33,0-1.61.29-.6-.78.25-.26.91-.13,1.38-.18Z"/><path class="cls-108" d="M115,91c1.66,0,1.49.84.94,1.9-.8.26-1.69,1.35-2.36.21C113.39,92.81,114.49,91.73,115,91Z"/><path class="cls-109" d="M269.93,393.92l-1-2.92a8,8,0,0,1,4.18,2.78Z"/><path class="cls-54" d="M714.1,570a4.48,4.48,0,0,1-3.27,1.87C710.17,568.2,712.3,569.39,714.1,570Z"/><path class="cls-110" d="M190,66.85l-1.06.05c-.89-1.47-2.85-.32-4-1.69C186.93,65.14,189.06,64.05,190,66.85Z"/><path class="cls-111" d="M88.09,489.6c-.58,1.19-1.39.49-2.15.28A2.79,2.79,0,0,1,86,487,2.88,2.88,0,0,1,88.09,489.6Z"/><path class="cls-91" d="M683.82,300.92c-.17,1,.41,2.39-1.27,2.56a1.31,1.31,0,0,1-1-.81c-.12-1.61,1.2-1.54,2.25-1.74Z"/><path class="cls-112" d="M113,293c-.65,1.19-1.46,2.13-3,1.64a.88.88,0,0,1-.39-.73c.4-1.24,1.52-.79,2.39-.94C112.3,292.5,112.63,292.53,113,293Z"/><path class="cls-113" d="M301.91,535.87q0-3,0-6A4.57,4.57,0,0,1,301.91,535.87Z"/><path class="cls-24" d="M300,527.86v-3c.78.15,1.6.29,1.73,1.26C301.84,527.41,300.92,527.68,300,527.86Z"/><path class="cls-114" d="M68,150c0-.33,0-.65,0-1,.7-.2,1.64-.91,1.78.48a1.9,1.9,0,0,1-.8,1.59C68.06,151.48,68.12,150.53,68,150Z"/><path class="cls-115" d="M229.93,368c1.55-.49,2.35.57,3.19,1.55.49.52.42.95-.2,1.31C231.65,370.22,230.09,369.86,229.93,368Z"/><path class="cls-95" d="M291.93,410.89c-1-.2-2.45.47-2.56-1.33a.93.93,0,0,1,.47-.76c1.7-.34,1.43,1.35,2.08,2.1Z"/><path class="cls-103" d="M708.72,120.86c.17,1,.39,1.38.27,1.67-.25.6.12,1.8-1.16,1.54-.19,0-.42-.83-.31-1.19A10.47,10.47,0,0,1,708.72,120.86Z"/><path class="cls-116" d="M470.31,437.06c.48.06,1,.21.73.8a2.66,2.66,0,0,1-1.3,1.18c-.56.21-.76-.35-.68-.85A1.26,1.26,0,0,1,470.31,437.06Z"/><path class="cls-117" d="M461.9,441.89c-.43.59-1,1.84-1.63.95-.93-1.42.47-2.27,1.61-2.95C461.88,440.56,461.89,441.23,461.9,441.89Z"/><path class="cls-118" d="M562.85,441.89c-.17,1-.43,1.9-1.7,1.74-1-.11-1.12-.94-1.26-1.72Z"/><path class="cls-119" d="M674.78,95.13a5,5,0,0,1-3.06-2l3.07-1.1c.71.65.21,1.33,0,2C674.81,94.37,674.79,94.75,674.78,95.13Z"/><path class="cls-120" d="M713.73,257.9l-2.2.88a5.91,5.91,0,0,1,2.1-4.11C713.66,255.75,713.7,256.83,713.73,257.9Z"/><path class="cls-121" d="M177.94,67.26a15.67,15.67,0,0,1-2.06.65c-.38,0-1.1-.07-.8-.62a2.56,2.56,0,0,1,1.51-.9C176.82,66.32,177.2,66.77,177.94,67.26Z"/><path class="cls-122" d="M454,453.06c.21.54.55,1,.45,1.28s-.63.89-1,.89c-.8,0-1.16-.58-.76-1.31C452.86,453.58,453.39,453.42,454,453.06Z"/><path class="cls-117" d="M168.48,65.57c1.91-.73,3.13-.79,4.45-.15C171.69,66.31,170.48,66,168.48,65.57Z"/><path class="cls-123" d="M712.53,484.62c.74.55,2.48-.5,2.33,1.4a1.37,1.37,0,0,1-.93.94c-1.87.09-.83-1.62-1.38-2.37l.24.25Z"/><path class="cls-124" d="M137.6,23l-1.08-.92c.29-.29.57-.78.88-.8s.68.41,1,.64Z"/><path class="cls-125" d="M26.93,111.81c-.47-.4-1.05-.64-1.11-1-.16-.84.59-1,1.22-1.12a.69.69,0,0,1,.77.93C27.7,111,27.29,111.35,26.93,111.81Z"/><path class="cls-126" d="M74,474.91c0,.66,0,1.31,0,2l-1.42,2.53C71.85,477.15,72.84,476,74,474.91Z"/><path class="cls-43" d="M10.12,480.87a6.59,6.59,0,0,1-1.12-4C10.66,477.86,11.72,479,10.12,480.87Z"/><path class="cls-127" d="M646.4,541.62c-.56.24-1,.62-1.33.54a1.06,1.06,0,0,1-.8-1.5c.11-.24.89-.38,1.23-.25S646,541.1,646.4,541.62Z"/><path class="cls-128" d="M300.73,551.41c-1-.55-1.1-2-.56-2.31,1.49-1,1.18.42,1.17,1.23C301.34,550.77,301.48,551.31,300.73,551.41Z"/><path class="cls-54" d="M730,558.94a6.2,6.2,0,0,1-3.16,2.57C727.36,560,727.23,557.72,730,558.94Z"/><path class="cls-129" d="M661.81,529.84a7.47,7.47,0,0,1,3.94-2.16C665.54,530.42,663.49,529.8,661.81,529.84Z"/><path class="cls-27" d="M113,293l-1,0c-1.14-.94-1.64-1.88,0-2.83a2.54,2.54,0,0,1,2.24,1.74C113.77,292.2,113.36,292.57,113,293Z"/><path class="cls-123" d="M161.6,328.9l.81,1.11c-.35.23-.71.66-1,.63s-.58-.53-.87-.82Z"/><path class="cls-130" d="M635.76,331.65a.84.84,0,0,1,1.08-.7c.33.84,2.16,1.46,1.26,2.22C636.76,334.31,636.32,332.56,635.76,331.65Z"/><path class="cls-131" d="M518.8,393.82a5.44,5.44,0,0,1,3.85-2.26l-.81,2.28,0,0Z"/><path class="cls-132" d="M66.84,231.8l1.59-4.33C69.19,229.26,69.05,230.37,66.84,231.8Z"/><path class="cls-97" d="M610.85,602.84c-.62.94-1,2.14-2.44,2.14-.12,0-.39-.53-.34-.77.33-1.62,1.69-1.23,2.78-1.37Z"/><path class="cls-97" d="M615.85,602.86h2c.33.5,1.06,1.25.93,1.45-.71,1.1-1.94.29-2.92.55l0,0C615.83,604.18,615.84,603.52,615.85,602.86Z"/><path class="cls-133" d="M591.84,425.9a5.37,5.37,0,0,0,.13,1h-4.12C589.18,425.24,590.63,426.2,591.84,425.9Z"/><path class="cls-134" d="M591.8,430.85c-.68,1.19-1.82,1.1-2.94,1.1C589.56,430.83,590.07,429.2,591.8,430.85Z"/><path class="cls-95" d="M289.18,414.77l-.76-.85a2.92,2.92,0,0,1,1-.55c.19,0,.56.29.66.54C290.32,414.55,289.82,414.66,289.18,414.77Z"/><path class="cls-135" d="M501.91,406c.31,0,.63,0,.94,0l1.11,1.48a4.26,4.26,0,0,1-1.64.37C501.09,407.51,501.68,406.65,501.91,406Z"/><path class="cls-136" d="M455.45,448.48l-1.74.7c-.1-.26-.32-.72-.27-.76.53-.34,1.1-.61,1.66-.91Z"/><path class="cls-55" d="M549.55,449.36c-.66-.16-1.14-.52-.83-1,.18-.3.88-.38,1.34-.39s1.19.06.7.8C550.53,449.09,549.91,449.18,549.55,449.36Z"/><path class="cls-55" d="M554.86,447.9l1.14,1.36a5,5,0,0,1-3.06,1.87Z"/><path class="cls-83" d="M538.19,457.77l-.83-1a4.73,4.73,0,0,1,1.06-.65c.16,0,.44.3.66.46Z"/><path class="cls-137" d="M68.07,460l-.71,1.05c-.28-.3-.83-.69-.77-.87a6.59,6.59,0,0,1,.94-1.42Z"/><path class="cls-70" d="M7.56,462.82c-.88-.82-.53-1.75-.31-2.68C8.44,460.91,8.09,461.84,7.56,462.82Z"/><path class="cls-138" d="M344.78,467.55c.38.3.77.52.74.6a3.71,3.71,0,0,1-.76,1.61c-.65.54-.79-.22-.71-.59A8.2,8.2,0,0,1,344.78,467.55Z"/><path class="cls-139" d="M722.76,146.63l-1.07.84a4.73,4.73,0,0,1-.65-1.06c0-.16.4-.66.44-.64A11,11,0,0,1,722.76,146.63Z"/><path class="cls-101" d="M646.81,324.8a4.32,4.32,0,0,1,2.92-2C649.13,324,649.14,326.08,646.81,324.8Z"/><path class="cls-140" d="M611.88,347.87c.73-1.09,1.87-.92,2.94-.94C614.52,349.36,613.16,348.49,611.88,347.87Z"/><path class="cls-47" d="M69,222a4.89,4.89,0,0,1,.94,4l-2-2h0A2.16,2.16,0,0,1,69,222Z"/><path class="cls-97" d="M613.13,607a6,6,0,0,1-4.27.77C609.91,605.46,611.64,606.87,613.13,607Z"/><path class="cls-141" d="M92,500.84c-.28-1-1.42-1.76-.59-3,1.3.65,1.37,1.88,1.56,3.05C92.65,500.87,92.32,500.86,92,500.84Z"/><path class="cls-133" d="M690.37,293.57c-.58.21-1.15.44-1.74.61a2.58,2.58,0,0,1-.26-.72c.53-.32,1.09-.58,1.65-.85C690.12,292.87,690.21,293.13,690.37,293.57Z"/><path class="cls-142" d="M146.19,319.94a3.33,3.33,0,0,1-1.13.51c-.15,0-.34-.61-.5-.93a6.89,6.89,0,0,1,1.23-.36C145.88,319.15,146,319.6,146.19,319.94Z"/><path class="cls-143" d="M674.82,94c-1.05-.65-.15-1.33,0-2,.5.25,1.36.41,1.44.76C676.48,93.77,675.51,93.81,674.82,94Z"/><path class="cls-133" d="M111.62,579.22l-.86.81a3.26,3.26,0,0,1-.55-1c0-.21.27-.61.5-.69C111.29,578.14,111.56,578.5,111.62,579.22Z"/><path class="cls-144" d="M125.88,523.11l1.09.75c-.47.81-1.16,2.11-2,1.51S125.69,524,125.88,523.11Z"/><path class="cls-80" d="M425.72,500.8c.22-1.69-.08-3.5,1.16-4.95C426.79,497.57,427.56,499.49,425.72,500.8Z"/><path class="cls-145" d="M119,92l-2-2c.77-1,1.57-.77,2.26,0A1.19,1.19,0,0,1,119,92Z"/><path class="cls-66" d="M232.92,370.89c.07-.44.13-.88.2-1.31a8.12,8.12,0,0,1,3.92,2.28A6.72,6.72,0,0,1,232.92,370.89Z"/><path class="cls-146" d="M117.92,295.16a5.26,5.26,0,0,1,3.07,2.76A2.88,2.88,0,0,1,117.92,295.16Z"/><path class="cls-147" d="M698.66,278.57a3.74,3.74,0,0,1,2-2.59C701.63,278.12,699.73,278,698.66,278.57Z"/><path class="cls-148" d="M294.77,505.51l-.95.86a4.12,4.12,0,0,1-.69-1c-.06-.17.26-.47.41-.71Z"/><path class="cls-149" d="M750.76,540.8a3.39,3.39,0,0,1-2,2C748.23,541,749,540.38,750.76,540.8Z"/><path class="cls-61" d="M777.68,505.86c.25.56,0,.92-.51,1.14-.78-.32-2.44.32-2.25-.76S776.63,505.32,777.68,505.86Z"/><path class="cls-150" d="M55.57,538.35a14,14,0,0,1,.33,1.75c0,.24-.24.51-.37.76-.27-.68-.56-1.35-.79-2A5.08,5.08,0,0,1,55.57,538.35Z"/><path class="cls-53" d="M98,503.89c1.08.74,1,1.88,1,3C96.57,506.61,97.36,505.22,98,503.89Z"/><path class="cls-151" d="M15,486.87c0-1.33,0-2.66,0-4C15.94,484.21,17.07,485.54,15,486.87Z"/><path class="cls-152" d="M243.47,379.07a6.41,6.41,0,0,1-.92.35c-.33-.52-.59-1.09-.87-1.64.25-.1.68-.35.73-.29C242.8,378,243.11,378.52,243.47,379.07Z"/><path class="cls-153" d="M438.75,475.79a6.81,6.81,0,0,1,.73,1.69c.09.58-.45.84-.81.4a4,4,0,0,1-.61-1.64C438,476.17,438.43,476,438.75,475.79Z"/><path class="cls-154" d="M682,377.23l1.06.37a15.77,15.77,0,0,1-1.18,1.49c-.08.08-.51-.18-.77-.28Z"/><path class="cls-130" d="M632.72,333.63l2.06-1.5c-.19.74-.16,1.69-.62,2.17S633,334.23,632.72,333.63Z"/><path class="cls-155" d="M632.79,727.84c-8.14.11-16.29.1-24.43.37-3.23.11-3.37-1.58-3.35-4,.08-10.16,0-20.32.08-30.47a12.8,12.8,0,0,0-2.38-7.84c-11.1-16.32-22-32.78-33.56-50,10.39,0,19.94-.12,29.48.07,2.68.06,4,2.4,5.32,4.61,5,8.56,10.16,17,15.68,26.24,5.46-9,10.76-17.44,15.63-26.07,2-3.55,4.14-5.21,8.47-5,8.47.42,17,.12,26.25.12-2.87,4.39-5.4,8.36-8,12.26q-13.56,20-27.16,40a12.38,12.38,0,0,0-1,2.75c-.94,10.55-.15,21.12-.44,31.68C633.26,724.29,633.82,726.15,632.79,727.84Z"/><path class="cls-156" d="M273.9,727.85c-8.15.1-16.3.07-24.44.36-3.75.13-3.33-2.15-3.33-4.52q0-28,0-55.94c0-9.32.1-18.65,0-28-.05-2.87.47-4.18,3.78-4,6.31.28,12.64.07,19,.09,4,0,6.66.95,6.31,6.06-.49,7.29-.25,14.63-.32,22-.9,4.1-.35,8.25-.37,12.37-.08,15.59,0,31.18-.06,46.77C274.4,724.61,274.86,726.32,273.9,727.85Z"/><path class="cls-157" d="M273.9,727.85q0-29.13.06-58.26c0-1.93-.62-4,.87-5.74q.1,30.84.19,61.68C275,726.43,275.35,727.6,273.9,727.85Z"/><path class="cls-158" d="M632.79,727.84c0-10.59,0-21.19.07-31.78,0-1.77-.53-3.68.89-5.23q.09,17.35.17,34.71C633.92,726.44,634.26,727.61,632.79,727.84Z"/><path class="cls-155" d="M481.48,724.69c.81.28,2.27.11,1.67,1.56a1.35,1.35,0,0,1-2.33.47Z"/><path class="cls-159" d="M373.68,666.82a4.11,4.11,0,0,1,0-5Z"/><path class="cls-160" d="M418.93,612.64c.46-.95.93-1.91,1.73-3.52.11,1.54.17,2.41.23,3.27Z"/><path class="cls-161" d="M585.11,69.6c4.06-1.1,8.25.1,12.27-1.27.77-.26,1.78-.35,1.89.83a1.39,1.39,0,0,1-1.54,1.54C593.59,69.44,589.29,70.48,585.11,69.6Z"/><path class="cls-162" d="M142.59,398.08c2.82-1.37,3.85.23,4.37,2.66A8.4,8.4,0,0,1,142.59,398.08Z"/><path class="cls-5" d="M508.35,531.75c.6,1.28,1.92,2.44.43,3.82-.39.36-1.26.21-1.91.29C506.89,534.37,506.94,532.89,508.35,531.75Z"/><path class="cls-160" d="M419.89,535.86c1.14,1,1,2.39,1,3.7q0,32.61,0,65.21a2.14,2.14,0,0,1-1,1.86V591.84a59.41,59.41,0,0,1,0-24v-8A59.28,59.28,0,0,1,419.89,535.86Z"/><path class="cls-163" d="M414.63,610.49c-12.58,2.14-25.24,1.26-37.91,0Z"/><path class="cls-164" d="M419.89,535.86v24c-2-.34-2-1.86-2-3.38,0-6.56.05-13.12,0-19.69C417.83,534.55,418.5,534.6,419.89,535.86Z"/><path class="cls-165" d="M419.89,567.86v24a2.17,2.17,0,0,1-2-2.39v-19.2A2.18,2.18,0,0,1,419.89,567.86Z"/><path class="cls-166" d="M371.92,559.86h1q0,8,0,16c.39,1.82,1.61,3.79-1,5Q371.91,570.35,371.92,559.86Z"/><path class="cls-166" d="M373.9,583.85v7.23c-2.68-2.17-1.7-4.81-2-7.23A1.34,1.34,0,0,1,373.9,583.85Z"/><path class="cls-4" d="M373.9,583.85h-2v-3c1.55-1.42.81-3.3,1-5C374.83,578.32,373.51,581.19,373.9,583.85Z"/><path class="cls-1" d="M263.93,6h96c-1.34,1.4-3.09,1-4.7,1q-43.29,0-86.58,0C267,7,265.27,7.41,263.93,6Z"/><path class="cls-4" d="M290.93,511.87c2.77,1.81,1.37,4.58,2.53,8-3.69-2.85-3.24-5.39-2.54-8Z"/><path class="cls-155" d="M212.33,679.24C226.41,684,231.56,692,230,706c-1.25,11.48-9.72,19.4-22.45,21-19.92,2.48-39.93.58-59.88,1.23-3.74.12-2.83-2.42-2.83-4.38q0-30,0-60c0-8,.11-16-.05-24-.06-2.8.27-4.14,3.65-4.1,17.16.18,34.32,0,51.48.13,12.41.12,22.16,6.68,25.08,15.75C228.57,662.67,224.68,671.63,212.33,679.24Zm-38.58,21v5.48c0,1.17-.08,2.64,1.53,2.61,7.09-.15,14.32,1.25,21.19-1.5,3.68-1.47,5.21-4.54,5.09-8.34s-2.16-6.47-5.89-7.77-7.55-.83-11.36-.94C173.74,689.8,173.74,689.8,173.75,700.28Zm16.34-28.55c4.92-.45,7.7-3.41,7.86-8s-2.23-7.82-7.16-8.6a55.35,55.35,0,0,0-8.46-.28c-8.59-.05-8.59,0-8.58,8.44,0,8.83,0,8.83,8.88,8.48C185.12,671.76,187.62,672,190.09,671.73Z"/><path class="cls-155" d="M416.85,727.84c-8.15.11-16.3.08-24.44.37-3.77.13-3.32-2.18-3.32-4.54q0-29.48,0-59c0-8.16,0-16.32,0-24.48,0-2.58.18-4.54,3.65-4.44,19.14.55,38.34-1.27,57.4,1,13.76,1.66,20.78,8.51,22.45,21.54,1.62,12.68-5,23.31-16.95,27.71-1.14.42-3.16,1-3.16,1.53,0,1.72,1.46,2,3.12,2.24,2.39.37,3.84,2.46,5.36,4.24,7.45,8.72,11.07,19.65,16.86,29.33.76,1.26.57,3.53,3,3.31a1.4,1.4,0,0,0,.66-2,34.86,34.86,0,0,1,3.38-8.9c3.81.58,4.34,3.35,3.57,6.24-.84,3.14.72,4.12,3.13,4.12,4.56,0,9.25,1.06,13.62-1.14,1.76-.88,3.17-.26,4.54.82.16,2.71-1.65,2.79-3.62,2.79-18.46,0-36.92-.08-55.38.06-2.81,0-3.69-1.56-4.73-3.49-5-9.19-10-18.36-14.95-27.57a12.24,12.24,0,0,0-8.31-6.56c-3.1-.72-5.25,0-4.94,3.79-.93,9.21-.12,18.45-.42,27.67C417.31,724.29,417.87,726.15,416.85,727.84Zm1.13-2.3q-.06-15.35-.19-30.69c-1.39,1.55-.86,3.45-.88,5.22-.06,9.26,0,18.51-.06,27.77C418.31,727.61,418,726.43,418,725.54Zm-.05-55.92c-.16,3.18,1.06,4,4,3.93,4.83-.1,9.64-.2,14.36-1.38,5.21-1.3,7.69-4.29,7.46-9s-3.14-7.82-8.39-8.15c-5.94-.38-11.93-.09-17.38-.09C418,660.09,418.19,664.87,417.93,669.62Z"/><path class="cls-155" d="M85.45,636.19c5.14,0,11.51-1.86,15,.52s4.27,8.94,6.08,13.73c9.18,24.37,18.24,48.79,27.54,73.11,1.48,3.87.87,4.84-3.25,4.68-7.14-.28-14.31-.18-21.46,0-2.74.06-4-.7-4.86-3.53-3.53-11.54-3.67-11.5-15.8-11.51-5.49,0-11,.12-16.47,0-2.65-.08-3.67.87-4.44,3.42-3.5,11.66-3.61,11.62-15.61,11.63-4.17,0-8.33-.15-12.48.06-3.63.18-4.61-.49-3.11-4.37,6.77-17.48,13.21-35.09,19.77-52.65,4-10.73,8.1-21.42,12-32.2.87-2.42,2-3.37,4.59-3.23,4.15.23,8.32.06,12.48.06Zm7,56.85c1.4,0,2.81.07,2.14-2.08q-4.52-14.52-9-29h-1L75.12,693Z"/><path class="cls-155" d="M724.08,637.76q9.85,25.79,19.69,51.56c4.35,11.45,8.49,23,13,34.35,1.63,4.06.5,4.7-3.38,4.56-7.15-.26-14.32-.19-21.47,0-2.77.07-4-.85-4.9-3.5-1.33-3.82-.67-9.28-4.32-11.09-3.22-1.6-7.82-.45-11.81-.46-5.33,0-10.66.13-16,0-2.58-.08-3.69.72-4.49,3.32-3.64,11.74-3.75,11.7-16.15,11.71H657.72c4.35-11.69,8.52-22.83,12.66-34q10.25-27.54,20.42-55.11c.74-2,1.49-3.35,4.06-3.29,8.32.21,16.64.17,25,.23C721.27,636.52,723.05,636.24,724.08,637.76ZM719.82,636l4.26,1.75C723.71,634.63,721.44,636.12,719.82,636Zm-12.74,26c-2.8,9.34-5.49,18.71-8.48,28-.86,2.67-.18,3.11,2.27,3.05,4.64-.11,9.28-.05,13.92,0,1.83,0,2.86-.26,2.16-2.49-3-9.56-5.88-19.13-8.82-28.7Z"/><path class="cls-155" d="M509.72,725.83c-6.06,2.44-12.42,2-18.73,2-4.3,0-5.19-2-3.6-6,.92-2.33-.85-4.33-2.53-6,5.1-14,10.16-28,15.32-42,4.25-11.53,8.7-23,12.9-34.52.93-2.55,2.14-3.59,5-3.51,8.15.22,16.31.17,24.47,0,2.57,0,3.68.79,4.6,3.27q15.86,42.68,32,85.23c1.28,3.36.5,4-2.74,3.92-7.49-.15-15-.13-22.48,0-2.57,0-3.68-.78-4.5-3.35-3.75-11.73-3.86-11.69-16.18-11.69h-4.5c-4.66,0-9.88-1.24-13.82.46C510.66,715.47,512,721.89,509.72,725.83Zm20.62-64c-3.81,9.47-6.63,18.79-9.48,28.1-.53,1.74-1,3.16,1.78,3.1,5.62-.11,11.24,0,17.35,0Z"/><path class="cls-155" d="M373.68,666.82c-1.41,16.95-11.56,26.35-28.94,27.15-6.93.32-13.9-.47-20.8.8-1.19,6.89-.16,13.85-.55,20.77-.23,4.1.71,8.26-.53,12.32-8.13.09-16.27.06-24.39.35-3.75.13-3.35-2.14-3.34-4.51q0-28.43,0-56.85c0-9.15.1-18.29-.06-27.43,0-2.85.85-3.67,3.68-3.65,14,.13,27.93,0,41.89.09,6.55,0,13.15.51,19.2,3.25a22.52,22.52,0,0,1,12.78,15.38,58,58,0,0,1,1.05,7.36A9.42,9.42,0,0,0,373.68,666.82ZM324,724.56c0-9.93,0-19.86,0-29.79a5.66,5.66,0,0,0-.32-.93c-.05-.1-.44-.12-.44-.11a6.68,6.68,0,0,0-.61,2.28c.78,10.61.18,21.23.29,31.85C324.83,727.31,324,725.68,324,724.56Zm-.05-49.75c4.11,1.68,8.25.26,12.32-.07,6.24-.51,9.79-4.44,9.67-9.94S342.2,655.51,336,655c-4-.33-8,0-12,0A72.68,72.68,0,0,0,323.92,674.81Zm-.7-20.24c-.22,0-.61.38-.61.58.07,4.22,0,8.45.37,12.65.18,2.34-1.24,4.94.94,7q.06-9.9.1-19.82C323.76,654.84,323.48,654.55,323.22,654.57Z"/></g></g></svg>