<svg xmlns="http://www.w3.org/2000/svg" viewBox="0 0 1870.72 495.9"><defs><style>.cls-1{fill:#e4232a;}.cls-2{fill:#361313;}.cls-3{fill:#721114;}.cls-4{fill:#af2124;}.cls-5{fill:#ac2024;}.cls-6{fill:#761215;}.cls-7{fill:#6d1114;}</style></defs><g id="Layer_2" data-name="Layer 2"><g id="Layer_1-2" data-name="Layer 1"><path class="cls-1" d="M741,.81c35.72,2.4,69.7,10.63,99.74,31,30.7,20.85,47.44,50,50.23,87.07,3.92,51.95-18.76,89.31-62.79,115a192.69,192.69,0,0,1-34.34,15.83c-4.22,1.45-5,2.37-2.24,6.41,24.81,36.25,49.11,72.86,74.12,109a590.44,590.44,0,0,0,58.63,71.32c14.7,15.39,32.24,26.14,53.73,29.35,2.93.44,4.39,1.64,4.16,4.88a85.74,85.74,0,0,0,0,11c.17,3.12-1.13,3.94-4.09,3.93q-65.74-.11-131.48,0c-2.53,0-3.84-1.09-5.15-3.08q-72-109.49-144-218.89a13,13,0,0,1-2.38-7.92c.19-6,.34-12,0-18-.28-4.44,1.47-5.49,5.61-6,23.89-2.76,46-10.2,64.92-25.67,18.52-15.17,28.78-35,32.18-58.46,2.59-17.81,2-35.59-4.24-52.7-12.23-33.6-36.78-52.89-71.34-59.89-19.6-4-39.53-1.47-59.31-2.1-2.06-.06-3.18.52-3,2.78.1,1,0,2,0,3q0,188.93,0,377.84a85.8,85.8,0,0,0,1.88,19.32c3.73,16.32,13.16,24.89,29.81,26.87,4.78.57,9.6,1,14.41,1.21,2.39.12,3.76.69,3.7,3.41-.11,5-.1,10,0,15,.05,2.38-.95,3.36-3.27,3.19-.83-.06-1.66,0-2.5,0q-88.49,0-177,.09c-4.45,0-6.42-1-5.85-5.75.52-4.43-1.8-10.37.88-13,2.53-2.47,8.39-1.67,12.8-2a76.75,76.75,0,0,0,12.27-2.1c13.62-3.33,20.58-10.78,22.68-24.56a88.67,88.67,0,0,0,1.13-13.41q.07-180.68-.05-361.35a101.88,101.88,0,0,0-2.93-25.71c-2.23-8.53-7.73-13.68-16.27-15.76s-17.15-2.34-25.8-2.17c-3.84.07-4.89-1.23-4.72-4.89.22-5-.08-10-.16-15h207c2.66,1.05,5.44.24,8.14.5C737.68.63,739.37.2,741,.81Z"/><path class="cls-1" d="M1869.9,143c-3.19,44.21-24.82,77.6-61,101.81-30.1,20.14-63.79,28.28-99.87,27.23-11-.32-22-.22-33-.12-3.86,0-5.59-.91-5.38-5.3.39-8.15.34-16.33,0-24.48-.15-3.94,1.27-4.69,4.85-4.63,12.3.19,24.68.52,36.8-2.06,23.2-4.93,40.56-18.14,50.11-39.64,16.76-37.71,18.17-76.25-.06-113.81-14.44-29.76-39.79-45.63-72.33-50-16.9-2.27-34-.49-50.9-1.26-2.63-.12-3.68.84-3.38,3.44a25,25,0,0,1,0,3q0,193.14,0,386.29a92.51,92.51,0,0,0,1.31,16.4c2.85,15.76,11.22,23,28.55,24.85,6.11.66,12.27,1,18.41,1.26,2.62.09,4,.57,3.87,3.58-.21,4.16-.15,8.33,0,12.49.09,2.49-.64,3.82-3.35,3.54a27.29,27.29,0,0,0-3,0H1502c-6.57,0-6.65,0-6.55-6.36.07-4.14-1.71-9.38.76-12.12s7.88-.89,12-1.4a117.9,117.9,0,0,0,13.76-2.3c13.85-3.48,20.9-11.92,22.82-26.27a180.61,180.61,0,0,0,1.18-23.92q.07-172.15,0-344.32c0-7.3,0-14.62-1-21.92-2.26-16.39-9.46-23.84-25.94-25.87a161,161,0,0,0-17.4-1.24c-3.38,0-4.36-1.24-4.2-4.4.27-5.15.25-10.31.36-15.46h201c2.59,1.05,5.3.24,7.94.5h4.82a173.52,173.52,0,0,1,85.6,19.92c26.33,13.72,47.32,33.15,61.75,59.34a89.45,89.45,0,0,1,11.37,43.33c0,1-.26,2,.49,2.86v2C1869.39,132.91,1870.94,138,1869.9,143Z"/><path class="cls-1" d="M1161.83,0c.1,5.16.07,10.33.35,15.48.17,3.18-.81,4.52-4.2,4.34a47.5,47.5,0,0,0-15.31,1.7C1125.82,26.26,1115,40.3,1112.8,60a172.81,172.81,0,0,0-1,19.43c0,85.63-.07,171.26.16,256.89a174.88,174.88,0,0,0,8.55,54.47c12,36.48,36.6,58.89,74.42,65.62,31.23,5.56,62.08,3,91.68-9,34.27-13.83,54.67-40.09,65.11-74.77,5.74-19.09,7.76-38.77,8.26-58.61,1.65-65.62.34-131.25.7-196.87q.15-27.48-.3-55a85.35,85.35,0,0,0-1.73-14.84c-3.27-16.8-14.34-26.34-31.51-27.32-4.65-.27-9.33-.39-14-.2-3.37.13-4.31-1.16-4.22-4.36.16-5.15-.09-10.31-.16-15.47h142c0,4,.06,8,.06,12,0,7.76,0,7.79-7.55,7.77A65,65,0,0,0,1427,21.4c-15.72,4-22.31,15.62-25,30.3a116.56,116.56,0,0,0-1.78,21.35q0,107.67,0,215.33c0,29.87-2.93,59.4-11.19,88.25-6.85,23.92-17.26,46-33.57,65-20.28,23.66-46.17,38.18-76,46.13-29.24,7.8-59,9.27-89.1,7.35-29.46-1.89-58-7.63-84.72-20.56-45.82-22.19-74.93-57.29-82.9-108.58a359.87,359.87,0,0,1-4.12-50.66c-1-78.6-.19-157.19-.39-235.79,0-9.8.74-19.59-.09-29.41-1.59-18.79-11.8-29-30.7-30.12a89.56,89.56,0,0,0-12.47-.17c-4.36.37-5.42-1.35-5.14-5.37.34-4.81.12-9.65.14-14.48Z"/><path class="cls-2" d="M0,466.81H1q.14,9.4.29,18.81L0,485.8Z"/><path class="cls-3" d="M1869.9,143c.2-5-1.29-10.14.82-15.06v15Z"/><path class="cls-4" d="M736,.84c-2.74,0-5.55.76-8.12-.84h8Q737.11.26,736,.84Z"/><path class="cls-5" d="M1706.84.89c-2.72-.08-5.54.75-8.09-.89h8C1707.51.22,1707.54.52,1706.84.89Z"/><path class="cls-6" d="M736,.84,735.89,0h5a5.57,5.57,0,0,1,.1.82Z"/><path class="cls-7" d="M1706.84.89a4.48,4.48,0,0,1-.09-.89h5q0,.42.06.84Z"/><path class="cls-1" d="M261,0c4.44,12.87,10.3,25.16,15.61,37.67Q359.34,232.8,442.24,427.88c2.92,6.87,5.95,13.71,9.15,20.46,5.36,11.32,14.56,16.83,26.93,17.5,9.61.51,9.61.59,9.61,10.22s0,9.52-9.29,9.52q-84.21,0-168.43.1c-4.74,0-6.26-1.11-6.15-6,.32-12.92.09-12.89,12.87-13.93a51.26,51.26,0,0,0,7.86-1.35c15.41-3.67,20.72-15,18.65-29.39-2-13.75-7.76-26.41-13-39.14-8.69-21-17.63-41.95-26.25-63-1.39-3.39-3-4.78-6.82-4.77q-78,.21-155.93,0c-3.47,0-5.23,1-6.66,4.3-11.91,27.77-24.08,55.43-36.13,83.15A65.74,65.74,0,0,0,93,445.66c.54,9.93,4.56,15.32,14.1,18.1,7.26,2.12,14.75,2.44,22.23,2.67,2.71.09,3.94.72,3.75,3.65a59.51,59.51,0,0,0,0,10c.44,4.28-.84,5.68-5.4,5.62-20.16-.27-40.32-.12-60.47-.11l-66,0C-.43,479.82,1,473.88.5,468c.1-2.19,1.4-3.24,3.45-3.56,1.48-.24,2.94-.71,4.42-.82,16.58-1.18,27.29-11,35.91-24.07,7.74-11.76,13-24.76,18.63-37.55q24.56-55.78,49-111.63,29.54-67.5,59.17-135Q203.58,81.31,236.14,7.2c1.29-2.92,2.71-5.74,5.82-7.2ZM219.79,134.33q-33.93,78.61-67.91,157.21c-2.08,4.79.91,4,3.57,4H283.31c5.45,0,5.48-.06,3.35-5.23q-21-51.09-42.13-102.17c-7.64-18.53-15.3-37.06-23.36-56.59C220.36,133.2,220,133.75,219.79,134.33Z"/></g></g></svg>