<svg xmlns="http://www.w3.org/2000/svg" viewBox="0 0 582.45 492.57"><defs><style>.cls-1{fill:#e94036;}.cls-2{fill:#3e8ebf;}.cls-3{fill:#3e8dc1;}.cls-4{fill:#488cc4;}.cls-5{fill:#e04835;}.cls-6{fill:#418cc4;}.cls-7{fill:#5088bc;}.cls-8{fill:#e14845;}.cls-9{fill:#4f91c7;}.cls-10{fill:#4f91cb;}.cls-11{fill:#e84b44;}.cls-12{fill:#e74242;}.cls-13{fill:#d84f3e;}.cls-14{fill:#d1634b;}.cls-15{fill:#5097ba;}.cls-16{fill:#e44f49;}.cls-17{fill:#478ead;}</style></defs><g id="Layer_2" data-name="Layer 2"><g id="Layer_1-2" data-name="Layer 1"><path class="cls-1" d="M348.3,60.91l3,2.85c.16,2.66,2.09,3.47,4.23,4.06l57.35,54.12c2.67,2.51,5.25,5.12,8,7.53,1.64,1.45,1.58,2.44.08,4Q390,165.75,359.22,198.12c-1.15,1.2-2,1.78-3.8.8-8.89-5-18.56-8.08-28.22-11.17-4.27-3.57-9.57-1.85-14.35-2.81-17.85-1.76-35.5-1-52.81,4.13a126.7,126.7,0,0,0-33.43,15.19c-1.7,1.1-3.06,2.22-5.14.2-16.71-16.16-33.54-32.2-50.32-48.28-.64-2.43-2.54-3.53-4.66-4.4-4.26-3.94-8.46-8-12.82-11.8-1.89-1.66-1.62-2.81,0-4.42,3.9-3.83,7.66-7.81,11.48-11.72a4.94,4.94,0,0,0,3.05-3.11L197.52,90c.82-1.1,3.13-.82,2.79-3l43-45A24.67,24.67,0,0,0,257.08,27.7C265.38,18.85,273.72,10,282,1.12c1.6-1.73,2.57-1.27,4,.1Q314,28.16,342.16,55C344,57.2,345.26,60,348.3,60.91Z"/><path class="cls-2" d="M98.3,195.78l2-2.08c4.29,3,4.79,5.13,1.82,8.78-1.56,1.91-2.9,4-4.58,5.84,3.6,1.14,5.41,4.12,8.31,7.12-3.62-8.63,2.61-13.58,6.14-19.43,1-1.73,3.23-1.41,5-1.54,1.49-.11,3.53-.08,3.6-1.89.2-5.23,5-7.59,6.94-11.73s8.42-5.72,12.8-3.27c3.1,1.74,5.44,1.4,8.13-.13l40,37.65c2.91,2.74,5.63,5.72,8.78,8.15s2.51,4,.25,6.72a122.59,122.59,0,0,0-28.33,63.86A125.47,125.47,0,0,0,181.39,368c.74,1.48,1.39,3,2.09,4.51.16,1.23-4.25,0-1.42,3,1.57,1.66.84,2.66-2.57,6.18,3.67.66,3.35-5,6.9-4.18,2,1.72.46,2.9-.66,4.08-15.16,15.88-30.38,31.7-45.43,47.67-2.29,2.44-3.37,1.22-5.08-.41q-44.41-42.34-88.9-84.6Q24.09,323.08,1.82,302c-1.8-1.7-2.76-2.69-.52-5q45.22-47.17,90.24-94.52a6,6,0,0,1,.8-.6c.6.22.78,1.41.89,1.23C94.8,200.54,98.45,199.45,98.3,195.78Z"/><path class="cls-2" d="M563.45,267.56c5.72,5.33,11.33,10.77,17.2,15.93,2.51,2.22,2.28,3.59.05,5.89Q555,316,529.6,342.75q-35.69,37.38-71.32,74.8c-7,7.38-7,7.31-14.34.36-12.52-12-25.05-23.9-37.68-35.72-2.15-2-2.78-3.44-1-6.18,6.48-10,10.46-21.1,14-32.37,1.46-.38,2,1.68,3.71,1.31,0-5.24,2-10.4-.12-15.73a8,8,0,0,1,.19-5.75c.19-10,.48-19.9-.73-29.81,3-4,.93-7-1.86-9.91-5.81-24.32-17.32-45.49-35.2-63.07-2-2-1.52-3,.14-4.72q28.27-29.51,56.46-59.11c1.07-1.11,2.17-3.61,4.21-.9a9.84,9.84,0,0,0,6.12,5.85c10.66,10,21.38,19.93,32,30q37.79,35.88,75.47,71.86a24.41,24.41,0,0,1,1.62,1.87C561.24,267,562.39,267.24,563.45,267.56Z"/><path class="cls-2" d="M422.21,444.58Q400.1,467.91,378,491.24c-1.31,1.38-2.18,2-4,.41-23.54-20-51.44-26.68-81.55-26.3a127.87,127.87,0,0,0-64.92,18.17c-1.6.64-3.43.94-4.3,2.73-8.27,8.22-8.25,8.2-16.53.3-14.32-13.66-28.54-27.43-43.12-40.81-3.45-3.16-3-4.74-.12-7.68q40.13-41.71,80.06-83.6c2.86-3,5.82-5.9,8.73-8.84,2.29-.13,3.52-2.43,5.71-2.78,1.19-.2,2.39-.23,3.21.76a1.5,1.5,0,0,1-.56,2.46,4.68,4.68,0,0,0-1,.74c.27,0,.5-.3.81-.41,4.39-1.57,8.81.55,13.22-.09,1.14-.16,2.31,0,3.47-.05,1.75-.07,3.44-.34,3.51-2.58s-1.56-2.68-3.34-2.73c-6.39-.21-8.56-5.25-11.25-9.71a4,4,0,0,1,2.24-2.44c5.09,3.95,10.87,0,16.23,1.39,2.18.58,4.63.2,7,.09,2-.1,4.87.69,5.12-2.45.26-3.32-2.64-2.68-4.67-2.93-3.71-.47-9.31-6.45-9.84-10.52,3.18-3.57,5.91-9.4,10-9.79,3.82-.37,6.91,5.46,10.24,8.63Q365,372.73,427.55,432.42c1.13,1.08,5.46,2.09,1.49,5A12.17,12.17,0,0,0,422.21,444.58Z"/><path class="cls-3" d="M148.48,177.45c-2.09,2.54-3.19,6.6-7.67,1.66-3.14-3.46-10.22-.68-12.84,3.55-1.27,2-1.37,5.34-4.84,5.63-.27,0-.73.83-.67,1.21,1,6.61-3.16,6.68-7.79,6.34-1.35-.1-1.78.87-2.44,2-1.41,2.37-1.52,5.72-5.17,6.6-1.2.3-.71,2.38-.73,3.68a77.08,77.08,0,0,1-.59,11.1c-2.28-5.46-5.25-9.55-11.82-10.08,4.17-1.3,5-5.64,7.94-8.11s-.49-4.94-1.58-7.3c9.79-10.37,19.61-20.71,29.34-31.14,1.36-1.46,2.24-1.47,3.6-.1C138.26,167.5,143.39,172.46,148.48,177.45Z"/><path class="cls-3" d="M266.05,331.23c1.69,3.07,6.54,3.15,6.95,7.73.1,1.17,3,.66,4.63.6,2.82-.1,4.66.18,4.7,3.89.05,3.9-1.83,4.4-4.91,4.15-4.77-.37-9.62.72-14.34-.82a1.91,1.91,0,0,0-2.74,1.35c-.29,1.07-.25,2.65-2.06,1.73a3.18,3.18,0,0,1-1.55-1.82c-.32-1.41,1.12-1.28,1.92-1.73s1.51-1,2.4-1.63c-2-1.76-3.34-.86-4.65.26s-2.42,2.58-4.15.68A145.39,145.39,0,0,1,266.05,331.23Z"/><path class="cls-3" d="M282.08,314.37c4,3.74,5.81,10.56,13.47,9.35,3.07-.49,2.59,2.24,2.65,4.16s0,3.74-2.69,3.72c-4.14,0-8.32.31-12.42-.1-2.92-.28-5.68-.65-8.47.56-3.36,1.46-4.7-1.24-6.33-3.27.36-.38.72-.75,1.07-1.13,3.66.55,6.92-1.26,10.37-1.72.51-.37-.17.14.36-.26.23-.17.12-.11-.34.23-3.2-.47-2.86-3.26-3.57-5.36l.92-1a5.4,5.4,0,0,0,3-3.18Z"/><path class="cls-4" d="M423.07,323.47c0,3.47.12,6.9,2.24,9.89a3.49,3.49,0,0,1-.06,4.54,5.1,5.1,0,0,0-1,4.17c.3,1.94,2.14,4.38-1.17,5.27-2.86.76-2.44-2.5-3.76-3.7Z"/><path class="cls-5" d="M257.08,27.7A12.07,12.07,0,0,1,258,31a3.1,3.1,0,0,1-2.08,2.6c-4.73,2-5.24,10.33-12.57,8.47A147.61,147.61,0,0,1,257.08,27.7Z"/><path class="cls-6" d="M186.39,377.49c-2.26.64-2.07,3.18-3.55,4.55-2.05,1.89-3.72,1.9-5.5,0-.93-1-1.32-2.38.74-1.93,2.51.55,2.93-1.49,3.5-2.67,1.07-2.19-1.32-1.54-2.27-2.07a1.44,1.44,0,0,1-.7-2.06,2.19,2.19,0,0,1,1.43-1.08,22.33,22.33,0,0,1,3.44.31A13.72,13.72,0,0,1,186.39,377.49Z"/><path class="cls-2" d="M276.18,320.55c2.63.67,1.41,4.4,4,5.07-1.28,1.47-3.93.82-4.62,3.61-.44,1.73-2.48,2-3.42-.29-.57-1.38-1.69-1.27-2.82-1.28A33.57,33.57,0,0,1,276.18,320.55Z"/><path class="cls-3" d="M98.3,195.78c2.12,1.91.27,4.85-.43,5-3.06.83-3.73,3.63-5.48,5.92-1.23-2,.41-3.44,0-4.92C93.88,199.38,96.12,197.61,98.3,195.78Z"/><path class="cls-7" d="M420.48,283.75a12.68,12.68,0,0,0,1.18.9c4.91,2.91,5,4.68.68,9Z"/><path class="cls-8" d="M312.85,184.94c2.61-.7,5.65.93,8-1.65.75-.83,1.72-.12,2.48.73,1.19,1.34,2.59,2.5,3.9,3.73Z"/><path class="cls-9" d="M422.21,444.58c.07-4.48,1.65-7.53,6.83-7.14A34,34,0,0,1,422.21,444.58Z"/><path class="cls-10" d="M452.21,161.8c-4.32.43-6.39-1.49-6.12-5.85A24.66,24.66,0,0,1,452.21,161.8Z"/><path class="cls-11" d="M348.3,60.91c-4.64.75-4.87-3.1-6.14-5.88A25.42,25.42,0,0,1,348.3,60.91Z"/><path class="cls-12" d="M355.52,67.82c-2.62-.09-6.52,1.15-4.23-4.06A13.55,13.55,0,0,1,355.52,67.82Z"/><path class="cls-13" d="M166.49,151.78q4.77-.37,4.66,4.4Q168.81,154,166.49,151.78Z"/><path class="cls-14" d="M200.31,87c3.23,4.86-1.76,2.1-2.79,3A5.91,5.91,0,0,1,200.31,87Z"/><path class="cls-15" d="M223.23,486.25c-.14-3.39,2.2-2.86,4.3-2.73A7.91,7.91,0,0,1,223.23,486.25Z"/><path class="cls-16" d="M168.21,120.73c.31,2.34-.65,3.43-3.05,3.11C166.17,122.8,167.19,121.77,168.21,120.73Z"/><path class="cls-17" d="M563.45,267.56c-1-.42-4.2,1.56-2.17-2Z"/><path class="cls-2" d="M280.13,316.4c.08,2.1-.94,3.15-3,3.18A8.06,8.06,0,0,1,280.13,316.4Z"/><path class="cls-2" d="M280.18,325.65c.3-1.2-.52-2.66,1.46-3.86C282.42,323.73,281.82,324.81,280.18,325.65Z"/></g></g></svg>