<svg xmlns="http://www.w3.org/2000/svg" viewBox="0 0 582.92 408.5"><defs><style>.cls-1{fill:#010202;}.cls-2{fill:#010101;}.cls-3{fill:#0f0f10;}.cls-4{fill:#f8f8f7;}.cls-5{fill:#fdfdfc;}.cls-6{fill:#2daae1;}.cls-7{fill:#2eaae0;}.cls-8{fill:#fdfdfd;}.cls-9{fill:#2faae1;}.cls-10{fill:#fcfcfb;}.cls-11{fill:#fbfbfa;}.cls-12{fill:#fbfafa;}.cls-13{fill:#ced9e6;}.cls-14{fill:#d7c8dd;}.cls-15{fill:#ecebf2;}.cls-16{fill:#e9e2e7;}.cls-17{fill:#f8f4f5;}.cls-18{fill:#cee6ec;}.cls-19{fill:#f0eaf1;}.cls-20{fill:#43acdc;}.cls-21{fill:#3faedb;}.cls-22{fill:#9e6ea9;}.cls-23{fill:#f2ecf0;}.cls-24{fill:#a06bac;}.cls-25{fill:#9f6ead;}.cls-26{fill:#9f6bad;}.cls-27{fill:#d0dee2;}.cls-28{fill:#e9e8e6;}.cls-29{fill:#fefefe;}.cls-30{fill:#21a2d8;}.cls-31{fill:#e3f2f6;}.cls-32{fill:#d4ebf1;}.cls-33{fill:#d8ebec;}.cls-34{fill:#9d6ba8;}.cls-35{fill:#9c69a8;}.cls-36{fill:#4ba9d2;}.cls-37{fill:#d9cbde;}.cls-38{fill:#e4e6da;}.cls-39{fill:#9e71ab;}.cls-40{fill:#c6b2c6;}.cls-41{fill:#1ea4dd;}.cls-42{fill:#ece6ec;}.cls-43{fill:#c4e2e9;}.cls-44{fill:#99d5e8;}.cls-45{fill:#dbf0f2;}.cls-46{fill:#9f74ab;}.cls-47{fill:#9a6aa6;}.cls-48{fill:#1fa4da;}.cls-49{fill:#4ca8ca;}.cls-50{fill:#37a6d1;}.cls-51{fill:#9c6ea7;}.cls-52{fill:#9c6ca8;}.cls-53{fill:#c7dec2;}.cls-54{fill:#c3b7c5;}.cls-55{fill:#9e6cab;}.cls-56{fill:#a171af;}.cls-57{fill:#fffffe;}.cls-58{fill:#eff8f6;}.cls-59{fill:#96c8d8;}.cls-60{fill:#cfbed3;}.cls-61{fill:#051116;}.cls-62{fill:#010d18;}.cls-63{fill:#080906;}.cls-64{fill:#1f201e;}.cls-65{fill:#0e2935;}.cls-66{fill:#050505;}.cls-67{fill:#030e12;}.cls-68{fill:#0c2430;}</style></defs><g id="Layer_2" data-name="Layer 2"><g id="Layer_1-2" data-name="Layer 1"><path class="cls-1" d="M96.1,329.73c-12.75-5.73-17.67-15.13-16.68-28,.41-5.36-1.25-7.49-7.45-6.28-12.92,2.53-26.13,3.61-39.06,6.1C20.32,304,13.55,298.28,12,286.78,7.68,254.54,4,222.21.2,189.9c-1.6-13.51,6.39-18.52,18.19-20.08,14.47-1.91,28.93-3.95,45.48-6.22L32.06,118.05H537l-26.15,44.44c10.8,1.54,20.36,3,30,4.25,30.88,4.13,48,28.89,40.2,58.94-1.22,4.72-2,8.86-.92,13.69,8.23,36.89-13.83,62.49-52,59.34,4.58,20.28,6.34,40.17-7.36,57.92-3.32,4.3,1,8,2,11.88,1.41,5.41,4.24,10.48,5.37,15.93,3.67,17.66-2.69,25.29-20.69,23.5-10.74-1.07-23.13,1.27-30.84-10-1-1.52-2.46-1.69-4.69-.72-25.9,11.24-51.6-.28-77.4-1.2-3.74-.13-5.59-4.66-7.86-7.7-4.53-6.09-12.8-6-16-2.18-12.4,14.93-28.64,9.3-42.19,7-11.24-1.89-21.18,1-31.69.91-24.09-.15-48.22-.78-72.27,1.57-7.36.73-13.89-.78-19-7s-14-5.68-17.2-1.16c-12.14,17.13-29.51,12-45,11.41-6.27-.23-10.66,0-16.35,2.71-18.42,8.94-37.28,10.16-54.86-2.26C53.25,386.05,51,365.85,51.49,345.07c.16-6.3,4.84-9.57,11-11.14C73.31,331.21,84.35,330.91,96.1,329.73Z"/><path class="cls-2" d="M125.72,79H448c-8,25.35-8.53,25.72-33.49,25.72-82.77,0-165.54-.85-248.28.59C145.34,105.64,132.33,100.26,125.72,79Z"/><path class="cls-3" d="M376.2,59.55c-3.15,8.6-8.7,9.47-15.35,9.46q-71.67-.17-143.34.13c-6.27,0-12.28,0-16.12-8.3,22.82-4.49,45.11-9.5,67.64-13.05C280.2,46,286.41,44.4,284.91,30a51.86,51.86,0,0,1,6.17-30c6.38,10.15,7.22,21.89,6.13,32.87-1,9.59,2.69,12.81,10.43,14.24C330.29,51.32,353,55.35,376.2,59.55Z"/><path class="cls-4" d="M325.28,162.31c-8.76-19.25-25.52-10.8-39-12.47-11.47-1.41-17,5.77-19.55,16.13-24.9-19.69-51.73-22.07-78.14-7.42-2.56,1.42-4.79,5.55-8,1.12-6.89-9.42-16.64-7.25-26-6.43-15,1.33-29.9,2.9-44.89,4.37.89-18.7.89-18.75,19.19-18.69,106.45.33,212.91.89,319.37.77,12.82,0,20.12,2.67,18.13,17.45-8.69,2.84-19.45-5.87-27.87,1.22-6.46,5.43-9.25,5.1-15-1.09-5.13-5.53-14-5.27-21.54-4.54-18.18,1.77-36.05-1.31-54.05-2.52C338.47,149.57,329.82,150.94,325.28,162.31Z"/><path class="cls-5" d="M282.23,247.69c-.3-25.51-.29-51-1-76.53-.32-10.85,7.2-8.36,12.37-7.61,5.6.82,15.58-5.7,15.66,7.31,0,4.73.42,9.52-.16,14.18-1.29,10.3,1.59,13.78,13.17,14.68,14.94,1.17,16.81-4.24,16.26-16.93-.87-20.22-.13-19.78,19.69-18.84,7.52.35,8.4,3.47,8.09,9.57-1.27,25-2.27,50-3.38,75-8.14,6.4-16.32,6.14-24.55.17-.21-3.76-1-7.6-.53-11.27,1.39-10.41-1.43-14.39-13.22-14.42-12.54,0-18,2.87-16,16,.46,3-1.1,6.34-1.73,9.52C298.42,254.85,290.21,255,282.23,247.69Z"/><path class="cls-6" d="M512.6,305.71c7.18,13.57,5.53,27.27-3.66,38.29-7.05,8.45-7.14,15.26-2.52,23.83a21.44,21.44,0,0,1,2.4,6.61c1,6.1,10.44,12.73,1.61,18.06-7.29,4.4-22.7-4.15-25.91-12.41-2.71-7-5.25-14.08-7.85-21.12-1.87-5.06-6-5.51-10.45-5-5.08.56-3.21,4.84-3.72,7.72-.75,4.17-2,8.45-1.7,12.59.69,10.14-3.52,12.06-13.19,11.59-10.46-.5-14-3.23-12.68-14.09,2.58-21,3.9-42.24,5.75-63.38,7.14-5.22,14.89-3.84,22.65-2.1,6.34,3,5.08,9.18,6.11,14.44,1.54,7.82,7,9.86,13.47,7.34,6.3-2.44,5.85-7.4,2.26-12.47-2-2.84-5.49-6-.15-9.09C494.15,303.67,503.37,304.52,512.6,305.71Z"/><path class="cls-7" d="M398.47,304c11.41,22.73,17.74,47.37,26.72,71,1.79,4.74,1.05,8.56-5.54,7.72-9.12-1.15-19.76,3.17-24.79-10.25-2.58-6.89-32.84-6.39-36.64.39-7,12.5-17.74,5.08-26.53,5.3-5.14.13-2.24-6-.81-9.09,9.73-20.83,19.67-41.55,29.55-62.3C372.89,302.93,385.87,306.08,398.47,304Z"/><path class="cls-8" d="M487.59,242.69c1.43-18.74,3.08-37.46,4.2-56.22.5-8.44,2.8-13,12.59-11.18,12.44,2.35,25.07,3.63,37.61,5.45,20.22,2.95,34.52,30,19,46-3.83,4-1.94,5.76.65,8.72,3.2,3.66,4.82,8,3.44,13.05-7.74,6.75-16,4.73-24.37,1.53-8.91-4.9-17.68-13.51-27.28-1-5.75,4.26-12.28,4.1-18.83,3.18C489.14,251.53,486,248.73,487.59,242.69Z"/><path class="cls-7" d="M210.62,306.34c12.87,20.32,21.13,42.86,31.15,64.56,2.34,5.06,1.44,8.71-4.75,8.16-8.94-.81-19.26,5.23-25.78-7.8-3.69-7.36-31.47-2.92-36.29,4.58-3.13,4.88-23.11,10.61-27.39,7.77s-1-5.79,0-8.64q12.24-34.44,24.57-68.87C185,304.08,197.8,303.68,210.62,306.34Z"/><path class="cls-8" d="M22.9,248.76c-5.65-19-4.93-39-8.53-58.34-.85-4.53.84-6.54,5.78-7.28,15.82-2.36,31.53-6.06,47.65-4.76,30.71,2.49,49.41,38.47,36.64,70-8,6.83-17,5-26,2.82-6.67-5-2.32-11.16-1.56-16.86,1.94-14.61-4.53-25-16.61-26.57-7.61-1-11.86,1.07-11.12,9.73.48,5.65,1.25,11.24,1.93,16.86.74,6,1.91,12.37-4.21,16.8C38.55,253.44,30.34,254.92,22.9,248.76Z"/><path class="cls-9" d="M323.24,308c-1,8.82-3.63,15.95,1.88,26.31,10.86,20.42-5.41,42.67-28.73,43.36-13.7.41-30.39,4.66-40.34-1.51-11-6.83-2.64-25-5-38.16-1.79-10.09-.38-20.74-.39-31.14,7.92-3.53,15.93-1.9,23.94-.46,8.65,5.51,17.2,4,25.71-.46C308.15,304.82,316,303.18,323.24,308Z"/><path class="cls-8" d="M232.51,244.1c4-2.09,7.37-4.89,5.92-9.91-1.52-5.22-6.3-7-11-7.52-8.38-.92-16.82,0-25.16-2.77-22.29-7.36-28.62-32.83-12-49.7,15.34-15.59,46.32-16.13,61.94-.82,5.74,5.63,13.12,14.6,7.35,20.12-4.67,4.47-17.2,5.08-24.52-1.34-6.58-5.77-13.15-6.92-20.74-4.23-3.48,1.24-7.09,3.29-6.85,8,.27,5.14,3.58,7.34,8.3,7.91,6.56.79,13.14,1.42,19.67,2.35,24.76,3.53,33,15.44,28,40C252.74,250.77,242.15,254.44,232.51,244.1Z"/><path class="cls-7" d="M133.11,308.16c4,17.16,4.43,34.7,3.5,52.08-1.14,21.31-20.21,34.28-43.69,31.15-17.67-2.35-30.46-20.78-27.74-39.8,1.5-10.57,10.6-4.45,15.75-7.11,5.55-2.87,7.28,1,7.44,6.23A30.85,30.85,0,0,0,90.12,359c1.74,5.42,4.95,9.18,11.33,8.15s10.25-4.59,9.75-11.52c-1.12-15.52-2.32-31-3.49-46.56C116,302.65,124.46,303.25,133.11,308.16Z"/><path class="cls-10" d="M134,249.24c-1.19-15.49-2.28-31-3.61-46.46-.46-5.36.41-10.7-8.72-11.13-9.32-.45-3.85-9.53-5.1-14.69s1.14-7.28,6.73-7.5c11.28-.43,22.51-1.9,33.78-2.57,4.07-.25,11-3.23,10,4.89-.75,5.74,6.47,15.25-5.57,16.94-8.08,1.14-5,6.56-4.8,10.58.71,16.46,1.75,32.91,2.67,49.36C151.05,255.06,142.58,254.54,134,249.24Z"/><path class="cls-11" d="M386.56,248.82c-4.17-4.28-3.15-9.69-3-14.78.76-19.81,2.33-39.62,2.33-59.44,0-9.32,4.1-10.33,11-8.47,6.71,1.82,18.54-4.66,17,11.11-1.74,17.84-2.1,35.8-3.19,53.71-.35,5.8-.22,11.35,3.89,16C405.93,257.19,396.3,253.86,386.56,248.82Z"/><path class="cls-12" d="M435.44,247.36c8.42-20.52,4-42.57,7.62-63.65.8-4.63-2.9-11.74,3.5-13.42,7.13-1.88,14.92-.32,22.21,1.84,2.26.68,2.47,2.81,2.19,4.58-3.78,23.92-1.26,48.53-7.9,72.13C453.52,254.54,444.22,255.84,435.44,247.36Z"/><path class="cls-13" d="M559.56,269.5c-5.36,12.1-16.11,12.93-27,12.16-13.07-.92-26.06-2.94-39.11-4.13-5.77-.52-10.9-.79-7.33-8.76,5-4.7,11.35-3.64,17.31-3.71,14-.15,28-.2,42,0C550.52,265.18,555.9,264.7,559.56,269.5Z"/><path class="cls-14" d="M257.23,256.22c-20.64,17.7-53.79,17-69-1.37,5.8-5.71,13.21-3.78,20.05-3.94q17.58-.42,35.18,0C248.64,251.08,254,250.91,257.23,256.22Z"/><path class="cls-15" d="M88.26,269.56c-17.23,14.3-38.93,11-58.83,14.17-4.62.74-3.55-7.5-5.06-11.63.79-4.5,4.2-6.22,8-6.43,16.72-.94,33.45-1.34,50.17.23A8,8,0,0,1,88.26,269.56Z"/><path class="cls-16" d="M565,255c.23,3.07.91,6.25-2.14,8.49-10.78,5.08-22.26,2.61-33.34,2.4-14.4-.28-29.07,3-43.23-2.17-.77-3.27-1.11-6.51.61-9.61,7.53-4.17,15.77-1.14,23.6-2.31,10.13-.1,20.26,2.86,30.39-.1C548.84,253.24,557.56,249.36,565,255Z"/><path class="cls-17" d="M101,256.71c-2,2.68-3.24,6-6.86,7.11-23.47,3.4-46.93,4.43-70.35-.4l-.59-8.94c7.52-4.59,15.76-1.79,23.68-2.32,8.69,1.8,17.19-1.62,25.85-1C81.88,254.57,93.1,247.39,101,256.71Z"/><path class="cls-18" d="M465.69,308.74l-25-.36.27-8.09a11.9,11.9,0,0,1,10.16-4.05c19.09,1.15,38.59-4,57.26,3.63,2.89.87,3.16,3.63,4.22,5.83-9.94,5.72-20.9.83-31.18,3C476.18,313.39,470.94,312.59,465.69,308.74Z"/><path class="cls-19" d="M460.66,256.2c-1.21,3.38-3.13,6.1-6.71,7.3-18.61,6-37.24,5.2-55.88.18a11.9,11.9,0,0,1-8.8-8.83c20.78-6.4,42.05-1.6,63.06-2.72C455.69,252,459,252.55,460.66,256.2Z"/><path class="cls-20" d="M508.37,299.87l-67.42.42q.19-3.93.41-7.88c2.74-3.78,6.82-4.82,11.05-4.73,16.12.34,32.33-.22,48.13,4C504.28,293.32,507.19,295.77,508.37,299.87Z"/><path class="cls-21" d="M250.83,285.88c0-2.68.06-5.37.1-8.05,17.76-3.1,35.58-2,53.39-.58,4.73,1.32,9.05,3.2,11.25,8.05-2.29,3.6-6,4.33-9.78,4.43-15.4.42-30.82.54-46.22-.07C256.22,289.53,253.12,288.58,250.83,285.88Z"/><path class="cls-22" d="M460.66,256.2c-23.74-3.24-47.6-.72-71.39-1.35a6.51,6.51,0,0,1-2.71-6c9.3-1.48,18.91,1.57,28.09-1.87,6.89,3.43,13.82,3.68,20.81.4q13.79.77,27.6,1.49C462.84,251.48,463.34,254.36,460.66,256.2Z"/><path class="cls-23" d="M122.62,263.61c-.93-3.31-3.32-6.69.47-9.78,16.37-1,32.78-4.9,49.06.69l.54,8.78C156,267.86,139.35,270.2,122.62,263.61Z"/><path class="cls-24" d="M486.26,263.72l76.57-.23c-.38,2.39-.64,4.83-3.26,6l-73.46-.72Z"/><path class="cls-25" d="M257.23,256.22c-22.93-3.57-46-1.08-69-1.37-1.06-1.88-2.13-3.76-3.19-5.65a10.89,10.89,0,0,1,8.9-3.69c22.37,2.13,44.94.9,67.25,4Q259.23,252.87,257.23,256.22Z"/><path class="cls-26" d="M23.83,263.42l70.35.4a8.71,8.71,0,0,1-5.92,5.74c-18.32-.14-36.65-.24-55-.47-3.44,0-6.51.41-8.92,3.05C24.19,269.21,24,266.31,23.83,263.42Z"/><path class="cls-27" d="M93.67,294.1c-1.53-2.83-4.11-6.9.92-7.65A261.94,261.94,0,0,1,128,283.8c4.78-.1,5.34,4.25,4.28,8.35C119.88,302.82,106.85,299.94,93.67,294.1Z"/><path class="cls-28" d="M500.54,291.66l-59.18.74c-1.29-4.72-.43-9.36,5.11-8.93C464.67,284.87,483.59,282,500.54,291.66Z"/><path class="cls-29" d="M250.83,285.88l64.75-.58,3.18,3.57c-.64,4.83-4.43,6.1-8.21,6.26-17.94.78-35.9,1.18-53.83-.22a9.46,9.46,0,0,1-6.09-3.32Z"/><path class="cls-30" d="M251.1,300.36c0-2-.08-3.92-.11-5.88,23.24-2.3,46.48-1.84,69.74-.27q1.11,3.12,2.23,6.26c-7.17,5.66-15.49,3.3-23.46,3.41-8.31-1.61-16.63-3-25-.36C266.51,303.77,258.24,306.16,251.1,300.36Z"/><path class="cls-31" d="M133.11,308.16l-25.4.88c-5-2.27-16.32,5.3-13.72-8.81a58.14,58.14,0,0,1,38.68,0C132.82,302.84,133,305.5,133.11,308.16Z"/><path class="cls-32" d="M210.62,306.34a69.77,69.77,0,0,1-38.52-.25c.92-2.26.72-5.15,3.53-6.37,10.58-5,21.13-5.16,31.63.24C210,301.25,210.13,303.88,210.62,306.34Z"/><path class="cls-33" d="M398.47,304c-12.13,8.4-25.23,3.65-38,2.78.18-2.69.85-5.12,3.39-6.61,11.09-6.19,22.13-6.26,33.1.3Z"/><path class="cls-34" d="M122.62,263.61l50.07-.31c1.47,7.5-4.47,5.51-8.05,6-5.57.82-11.21,1.13-16.82,1.66-8.22-2.34-17,1.71-25.11-2.32Z"/><path class="cls-35" d="M398.07,263.68,454,263.5c-2.69,3.94-6.8,5.71-11,7.3-11.64,1.2-23.25,1.4-34.76-1.21C403.76,269.38,400.2,267.75,398.07,263.68Z"/><path class="cls-36" d="M396.92,300.5l-33.1-.3,4.5-10.55a52.06,52.06,0,0,1,24.72-.41Q395,294.87,396.92,300.5Z"/><path class="cls-37" d="M362.83,254.68c3.18,15.7-8.67,10.14-15.74,10.94-9,1-12.19-2.8-8.77-11.47C346.56,251,354.75,250.4,362.83,254.68Z"/><path class="cls-38" d="M184.46,246.38c-3.21-4.6-4.68-8.17,3.31-9.13,9.61-1.16,19-2.53,25.54,7C204.12,250.75,194.19,247.28,184.46,246.38Z"/><path class="cls-39" d="M172.15,254.52l-49.07-.68c2.82-3.5,8.77.45,10.92-4.61q12.69-.27,25.37-.57C163.19,251.58,171.69,244.26,172.15,254.52Z"/><path class="cls-40" d="M184.46,246.38c9.58-1.11,19.48,2,28.84-2.14,6.44,2.78,12.83,1.93,19.22-.14,10,4.72,20.58,1.33,30.86,2.08l-2.14,3.34-76.15-.32Z"/><path class="cls-41" d="M132.67,300.19l-38.68,0c-.1-2-.21-4.08-.31-6.13,12.84-.87,25.88,2.2,38.55-2C132.38,294.83,132.52,297.51,132.67,300.19Z"/><path class="cls-42" d="M307.21,254.71c3.26,15.38-8.69,8.74-14.62,9.57-6.56.93-13.94.68-10.2-9.91C290.72,250.75,299,250.58,307.21,254.71Z"/><path class="cls-43" d="M298,300.66l25-.19q.14,3.79.28,7.57l-24.14.82C295.62,306.54,295.94,303.72,298,300.66Z"/><path class="cls-44" d="M320.73,294.21l-69.74.26-.36-2.88c18.29,0,36.59.15,54.88.06,4.53,0,9.51,1.32,13.24-2.79C321.5,289.88,320.9,292.12,320.73,294.21Z"/><path class="cls-45" d="M251.1,300.36l24.39.39c2.3,2.45,2.09,4.8-.27,7.07-8.2.43-16.42,1.22-24.52-.93Q250.9,303.64,251.1,300.36Z"/><path class="cls-46" d="M101,256.71c-9.46-4.45-19.73-.15-29.36-2.73-.52-4.17.9-6.29,5.42-5.1l27.34-.47C103.31,251.18,102.17,253.94,101,256.71Z"/><path class="cls-47" d="M511.88,254.25l-25-.14c.2-3.83-2-7.82.73-11.45,6.74,11.69,17.06,3.88,25.78,4.77C517.14,250.64,514.27,252.39,511.88,254.25Z"/><path class="cls-48" d="M207.26,300l-31.63-.24c.35-1.77.69-3.54,1-5.31,9.25-5.57,18.56-5.09,27.9-.22C206.88,295.45,207.28,297.61,207.26,300Z"/><path class="cls-49" d="M180.2,285.29c1.9-3.39.55-8.76,8-8.23,6.77.49,11.33,1.63,12.77,8.73C193.92,291,187,291.77,180.2,285.29Z"/><path class="cls-50" d="M371.91,285.15c-.31-5.87,2.56-8,8.33-8.08,6.46-.09,10.59,1.84,11.05,8.84C384.67,289.86,378.16,290.86,371.91,285.15Z"/><path class="cls-51" d="M565,255l-24.59-1c-3.41-2.4-3.21-4.7.19-6.91,8,2.5,16.32,1,24.48,1.46C565,250.7,565,252.85,565,255Z"/><path class="cls-52" d="M307.21,254.71l-24.82-.33c-.05-2.25-.11-4.48-.16-6.7q12.31.44,24.62.83Z"/><path class="cls-53" d="M304.32,277.25l-53.4.57C268.66,272.11,286.48,273.5,304.32,277.25Z"/><path class="cls-54" d="M408.16,269.59c11.61-.48,23.29-2.54,34.76,1.21C431.14,276.07,419.52,276.39,408.16,269.59Z"/><path class="cls-55" d="M362.83,254.68l-24.52-.53,0-5.42,24.55-.17Z"/><path class="cls-56" d="M48,254.61l-24.8-.12q-.16-2.87-.34-5.73l24.91-.36C49.94,250.39,49.9,252.47,48,254.61Z"/><path class="cls-57" d="M180.2,285.29l20.78.51,1.31,3c-7.68,7.15-15.56,6.24-23.54.55Z"/><path class="cls-58" d="M371.91,285.15l19.38.76,1.74,3.32c-8.16,4.55-16.41,3.8-24.7.42Z"/><path class="cls-59" d="M178.75,289.31c7.94,3.68,15.8,4.16,23.54-.55,2.69,1,2.22,3.33,2.28,5.43l-27.9.22C176.28,292.26,176.78,290.49,178.75,289.31Z"/><path class="cls-60" d="M122.71,268.67c8.35,1,17-1.35,25.11,2.32-6.87.64-13.75,1.18-20.6,1.94C123.81,273.31,121.71,272.74,122.71,268.67Z"/><path class="cls-61" d="M465.69,308.74l15.73,0c8.75,3.8,14.86,9.44,9.23,19.42-5.8,10.27-16.62,6.11-22.59,2.61C460.67,326.39,466.81,316.25,465.69,308.74Z"/><path class="cls-62" d="M379.17,324.79c2.78,7.74,8.47,13.76,5.38,20.56-1.29,2.83-10,2.61-11.38-.33C369.89,338,376.55,332.46,379.17,324.79Z"/><path class="cls-63" d="M540.57,247.09c-.06,2.31-.13,4.61-.19,6.92-9.43,7.84-19,2.29-28.5.24q.75-3.42,1.49-6.83c2.11-2.93-2.22-10.4,4.52-9.29C525.8,239.43,536.2,236.3,540.57,247.09Z"/><path class="cls-64" d="M528.43,218.11c-5.22-1-13.1,1.06-11.52-9,.62-4,.48-9.61,7-7.27,6.19,2.22,16.84-1.31,16.52,10.41C540.22,220,533.55,217.94,528.43,218.11Z"/><path class="cls-65" d="M191.65,326.55c2.89,6.85,10.68,12.08,6.49,19.58-1.2,2.13-9.4,4.33-11.31.85C182.91,339.84,189.61,333.4,191.65,326.55Z"/><path class="cls-66" d="M48,254.61q-.12-3.11-.23-6.21c-1-12.11-1.2-24.33-3.12-36.28-1.2-7.49,1.5-8.41,7.75-9,19.7-1.86,33.14,12.91,28.76,32.41-1,4.53-2.71,8.91-4.1,13.35L71.67,254C63.78,253.47,56.11,261.67,48,254.61Z"/><path class="cls-67" d="M287,336.34c7.27.1,14.76-1.31,14.63,8.93-.12,9-6.52,8.49-12.84,8.73-6.72.25-11.57.1-11.35-9.22C277.61,336.59,281.18,335.28,287,336.34Z"/><path class="cls-68" d="M275.22,307.82l.27-7.07c7.48-4.79,15-2.63,22.5-.09l1.11,8.19C290.79,316.57,282.68,319.68,275.22,307.82Z"/></g></g></svg>