<svg xmlns="http://www.w3.org/2000/svg" viewBox="0 0 765.86 121.14"><defs><style>.cls-1{fill:#053f44;}.cls-2{fill:#043f44;}.cls-3{fill:#02383e;}.cls-4{fill:#02363b;}.cls-5{fill:#022c32;}.cls-6{fill:#033036;}.cls-7{fill:#013a3f;}.cls-8{fill:#01393f;}.cls-9{fill:#01393e;}.cls-10{fill:#0d373d;}.cls-11{fill:#18393f;}.cls-12{fill:#032f35;}.cls-13{fill:#033137;}.cls-14{fill:#032f36;}.cls-15{fill:#023339;}.cls-16{fill:#02343a;}.cls-17{fill:#013c41;}</style></defs><g id="Layer_2" data-name="Layer 2"><g id="Layer_1-2" data-name="Layer 1"><path class="cls-1" d="M568.92,117.49c-9-3.57-11.57-11.56-13.57-19.94-6-24.9-12-49.79-18.6-77.41-5.8,13-7.07,24.3-10,35.08-4.08,15.26-7.39,30.72-11.24,46-3.14,12.49-10.77,18.78-22.43,18.94-11.17.16-19.81-6.54-22.33-18.94-6.08-29.87-11.57-59.85-17.3-89.79,1.31-11.6,9.43-7.36,16-6.84,6.5,4.3,4.55,11.69,5.83,17.59C480.45,46,484.69,70,489.38,93.85c.41,2.09,1.59,4,2.6,6.47,5-2,4.86-6.22,5.75-9.91,5.83-24,11.55-48,17.59-71.89C518.5,5.89,525.76,0,536.78.15c10.36.16,17.3,6.15,20.33,18.4,6,24.32,11.66,48.72,17.63,73.05.74,3-.14,8.05,4.1,8.11s3.55-5,4.15-8c5.7-28.18,11.19-56.4,16.73-84.62.34-1.7,0-3.8,2.51-4.19,5.16,2.27,10.85-.43,16,1.72,3.55,10.34-1.93,19.8-3.43,29.53C611.48,55.91,606.41,77.4,602.19,99c-1.63,8.39-5.19,15.19-13.5,18.66C582.09,118.64,575.51,117.39,568.92,117.49Z"/><path class="cls-2" d="M402.1,47.87c4.67-3.57,4.18-8.67,4.62-13.8.91-10.43-2.9-21.2,2.14-31.33C414.06,6,421,.87,425.79,6.25c1.34,36,1.21,72.08.08,108.12-4.73,5.59-11.79.36-17,3.65-4.87-5.23-1.73-11.55-2.11-17.31a209.68,209.68,0,0,1,0-28.58c.65-8.82-4.3-3-6.95-3.21-24.24-1.74-48.51-.42-72.77-.75-1.47,0-1.7,1.07-2.29,1.91-4.68,3.43-5,8.28-5.32,13.63-.72,11.36,2.69,23-1.78,34.11a5.32,5.32,0,0,1-1-3.58c0-11,0-22,0-31.53-1,10.23,1.57,22.13-1.37,33.78-5.39.19-10.86,1.84-16-1-.66-36.63-.46-73.26-.11-109.89,5.12-3.22,10.66-1.48,16.06-1.34,3.22,14.59.35,29.44,1.68,44.11-.62-13.89,0-27.8-.21-41.7a5.58,5.58,0,0,1,1-3.69c4.29,13.79,1.39,27.92,1.66,41.87.14,7.15,3.06,6,7.35,4.67,23.54,2.15,47.12.43,70.68.86C399.33,50.37,400.75,49.16,402.1,47.87Z"/><path class="cls-3" d="M424.34,115.85V4.91a3.67,3.67,0,0,1,2.17-1.86,800.72,800.72,0,0,1,0,114.66A3.62,3.62,0,0,1,424.34,115.85Z"/><path class="cls-4" d="M300,4.91V115.85c-.62.83-1.25.88-1.9,0V4.88C298.7,4.05,299.33,4.06,300,4.91Z"/><path class="cls-3" d="M402.1,47.87c-.71,3.2-3.06,3.65-5.83,3.64-21.95-.06-43.89,0-65.83-.19-1.27,0-2.53-1.2-3.79-1.84,20.8-.19,41.61-.34,62.41-.62C393.41,48.8,397.75,48.22,402.1,47.87Z"/><path class="cls-5" d="M324.73,70.08c.89-2.51,2.94-3,5.25-3,22,0,44,0,65.95.12,1.29,0,2.58,1.12,3.86,1.72Z"/><path class="cls-6" d="M11.11,117.85c9.91-4.37,20.32-1.63,30.44-1.74,10.5-.12,21.25-2.23,31.6,1.62A558.25,558.25,0,0,1,11.11,117.85Z"/><path class="cls-7" d="M275,75.84c-2.5-8.89-3.38-17.75.44-26.53C279.25,58.22,277.84,67,275,75.84Z"/><path class="cls-8" d="M121.62,75.82c-2.32-8.89-3.4-17.75.53-26.52C125.83,58.22,124.41,67,121.62,75.82Z"/><path class="cls-9" d="M568.92,117.49c6.61-2.44,13.21-2.7,19.77.18C582.06,121.67,575.48,120.81,568.92,117.49Z"/><path class="cls-10" d="M469.45,4.63c-6,.77-13.38-1.81-16,6.84-.2-3-4.19-7.48-1-8.34C457.79,1.7,464.24-.21,469.45,4.63Z"/><path class="cls-11" d="M620,115.91h21.37C634.26,120.06,627.13,120.45,620,115.91Z"/><path class="cls-12" d="M300,4.91l-1.9,0c6.05-5.44,13-1.94,19.59-1.94l-.21,1.78c-.54,1.2-1.2,1.27-2,.19Z"/><path class="cls-12" d="M298.05,115.88c.63,0,1.27,0,1.9,0h15.52c.77-1.11,1.41-1,2,.19l.21,1.78C311,117.82,304.1,121.33,298.05,115.88Z"/><path class="cls-13" d="M426.51,3.05l-2.17,1.86c-5.13-.91-10.8,2-15.48-2.17C414.75,2.16,420.65,1.62,426.51,3.05Z"/><path class="cls-13" d="M424.34,115.85l2.16,1.86c-5.86,1.43-11.75.9-17.64.31C413.54,113.86,419.21,116.76,424.34,115.85Z"/><path class="cls-14" d="M618.25,4.64c-5.36-.41-11,2.09-16-1.72C607.66,2.68,613.34.12,618.25,4.64Z"/><path class="cls-7" d="M158.93,55.46c1.28,3.44,1.55,6.47-.22,9.86C157.33,61.87,157.09,58.83,158.93,55.46Z"/><path class="cls-1" d="M275,75.84c-6.75,24.75-24.34,37.36-48.17,43.22-27.63,6.78-60-3.47-74.93-24C124.5,57.36,148.45,6.69,197,.83c29.3-3.53,54.94,3.82,72.17,30,3.62,5.49,6.52,11.54,6.28,18.49C275.54,58.16,275.29,67,275,75.84Zm-60.18,26.35c21.63-4.22,37.45-15,42.69-37.73,1.82-2.69,2-5.35-.11-8C248,27.68,226.16,14.39,197.53,20.08c-30.47,6.06-45.2,35.2-30.32,60.88C175,94.35,188.84,98.6,202.8,102.19A11.72,11.72,0,0,0,214.84,102.19Zm-12.7.85a1.73,1.73,0,0,0,0,.95c4.36.44,9.07,3.12,12.67-1.8h-12A3.26,3.26,0,0,0,202.14,103Zm56.24-38a1.57,1.57,0,0,0,1-.17c.17-3,2.69-6.54-1.92-8.44,0,2.67.07,5.33.11,8C257.81,64.68,258.07,65,258.38,65.08Z"/><path class="cls-1" d="M686.83,85.42c-19.12,4.27-34.94,13.43-45.45,30.51a46.61,46.61,0,0,1-21.37,0q22.93-49.59,45.91-99.17C671.11,5.6,680.37.42,692.38.19c12.27-.25,21.69,5.56,26.8,16.32,15.31,32.24,30,64.79,44.89,97.22-4.48,6.85-12.17.68-17.45,4.3-3.3.1-4-2.76-5.32-4.8-10.41-16.19-26.12-24-44.23-28.08C692.38,83,691.81,83,686.83,85.42Zm76,33c5.1-.08,2.6-2.64,1.28-4.7-5.09,4.37-12.44-.4-17.45,4.3C752,118.18,757.4,118.52,762.79,118.43ZM697.07,85.15a3.31,3.31,0,0,0,.66-.81,1.53,1.53,0,0,0,0-.92c-3.92-.9-8-2.49-10.9,2ZM701.28,26c-4.42-8.68-13.48-8.28-17.83.56-7.18,14.6-13.81,29.49-21.58,46.2,20.91-5.92,40.32-8.73,62.22,1.88C715.63,56.43,708.91,41,701.28,26Z"/><path class="cls-2" d="M.17,13.83C.12,7.82,3.56,4.65,9,3.09A548.35,548.35,0,0,0,73.19,3c29.29,6.82,45.88,22.5,49,46.29.43,8.85-.94,17.67-.53,26.52-7.3,24.2-23.28,38.37-48.47,41.91a467.06,467.06,0,0,0-62,.12c-7.54-1.13-11.8-5-11-13.12A877.75,877.75,0,0,0,.17,13.83Zm-.08,90.9c2.69-2.25,2.05-5.37,2.05-8.25q0-37.19,0-74.35c0-2.89.64-6-2-8.3ZM9,3.09A230.32,230.32,0,0,0,73.19,3,539.76,539.76,0,0,0,9,3.09Zm11.26,18V99.68C35.46,102.8,50.73,102,66,100c17.66-2.45,28.86-12.88,35.64-28.77a30.45,30.45,0,0,0-.07-21.72c-6.44-16.29-18.21-26-35.6-28.79C50.7,18.75,35.44,18,20.22,21.09Zm-3.93,4.06v70h1.1V25.59ZM66.1,18.36c-11.3-.5-22.64-.36-33.95,0-4,.11-8.93-2.2-11.94,2.77L66,20.73C67.73,20,71.42,18.6,66.1,18.36Z"/><path class="cls-15" d="M20.22,99.68,66,100c.16.62.31,1.24.46,1.85-15,.91-30,1.68-45-.48C21,101.31,20.62,100.27,20.22,99.68Z"/><path class="cls-16" d="M101.64,71.24q0-10.86-.07-21.73C106.06,56.74,105.94,64,101.64,71.24Z"/><path class="cls-17" d="M315.47,4.91a12.88,12.88,0,0,0,2-.19V50.93l-2,0Z"/><path class="cls-17" d="M317.43,116a14.29,14.29,0,0,0-2-.19V78.55l2,0Z"/></g></g></svg>