<svg xmlns="http://www.w3.org/2000/svg" viewBox="0 0 335.25 314.78"><defs><style>.cls-1{fill:#a6bd39;}.cls-2{fill:#a5bd3a;}.cls-3{fill:#a4bc3a;}.cls-4{fill:#abc138;}</style></defs><g id="Layer_2" data-name="Layer 2"><g id="Layer_1-2" data-name="Layer 1"><path class="cls-1" d="M333.13,184.16c-4.68-17.89-5.1-35.76.18-53.61A178.1,178.1,0,0,1,333.13,184.16Z"/><path class="cls-2" d="M22.34,138.22a49,49,0,0,1,0,38.24A156.81,156.81,0,0,1,22.34,138.22Z"/><path class="cls-3" d="M195,0c-11.45,5-22.9,5-34.37,0Z"/><path class="cls-4" d="M22.34,138.22C31,64.08,84.62,10.56,160.66,0A94.32,94.32,0,0,0,195,0C267.8,8.92,319,57.29,333.31,130.55c-2.35,17.86-2,35.73-.18,53.61-13.74,67.51-54.46,111.33-120.89,126.2-66.73,14.94-122.1-8.48-163-63.6-5.7-7.7-10.51-9.54-19-6.73-6.61,2.19-13.7,2.91-20.53,4.47-4.54,1-7.84-.83-9.3-4.7-1.67-4.43,1.69-8.44,5.22-8.44,34.37-.06,25-20.75,19.41-40-1.4-4.83-1.84-9.94-2.72-14.92A111.61,111.61,0,0,0,22.34,138.22ZM198.83,212.7c10.51-4.42,21.16-8.54,31.48-13.37,7.86-3.67,16.06-8,21.73,1.72s-.42,16.69-8.09,22.68c-30.66,23.93-84.25,27.66-112.64,2-17.11-15.46-29.35-13.21-45.47-4.2A13.63,13.63,0,0,1,82.31,223c-14.59,3.28-11.2,9.65-3.86,18.18,20.88,24.26,48.12,37.16,78.23,45.3a95.09,95.09,0,0,0,42.36.17c2.33-1.05,4.56-2.48,7-3.1,73.58-18.59,116.1-83,100.49-156.61-11-51.93-44-86.54-95.78-99.33C159.38,14.92,114,28.4,79,69.13,45.28,108.4,38.14,153.2,55.64,201.86c1.25,3.45,4.27,9.47,5.51,9.24,14.51-2.74,26.94-10.74,39.87-17.4,9.63-5-.42-12.8,2.29-18.88a33,33,0,0,0,0-19c3.73-39.24,21.63-69,58.55-85.19,15.25-6.68,31.58-8.52,45,4s11.83,28.91,6.12,44.58c-10.18,27.91-33.12,44.68-55.24,62.24C152,186,140.8,188,142.16,196.24c1.34,8.1,10.87,11.69,19.19,14,2.4.65,4.57,2.19,6.85,3.32C178.49,216.09,188.74,217.44,198.83,212.7ZM189.55,112c2.35-5.25,3.79-11.31-.43-16.18-4.92-5.69-10.88-1.67-15.93.17-26.44,9.63-44.31,42-42.36,80.86C156,157.38,177.44,139,189.55,112Z"/><path class="cls-3" d="M156.68,288.16l42.36.17C184.89,294.57,170.77,294.89,156.68,288.16Z"/><path class="cls-3" d="M168.2,215.19l30.63-.82C188.82,221.88,178.57,220.64,168.2,215.19Z"/><path class="cls-3" d="M103.31,176.49q0-9.5,0-19Q110.47,167,103.31,176.49Z"/></g></g></svg>