<svg xmlns="http://www.w3.org/2000/svg" viewBox="0 0 597.36 597.45"><defs><style>.cls-1{fill:#263c7f;}.cls-2{fill:#fefefe;}.cls-3{fill:#f9f8f8;}.cls-4{fill:#273a7c;}.cls-5{fill:#17191b;}.cls-6{fill:#444;}.cls-7{fill:#444d62;}.cls-8{fill:#504f50;}.cls-9{fill:#535352;}.cls-10{fill:#444c61;}.cls-11{fill:#566b9a;}.cls-12{fill:#5c70a0;}.cls-13{fill:#556a99;}.cls-14{fill:#53679b;}.cls-15{fill:#454d61;}.cls-16{fill:#454c60;}.cls-17{fill:#5d729d;}.cls-18{fill:#444445;}.cls-19{fill:#454d60;}.cls-20{fill:#373534;}.cls-21{fill:#434343;}.cls-22{fill:#030404;}.cls-23{fill:#52586c;}.cls-24{fill:#273575;}.cls-25{fill:#454446;}.cls-26{fill:#626362;}.cls-27{fill:#050505;}.cls-28{fill:#6a6d80;}.cls-29{fill:#1f1917;}.cls-30{fill:#fff;}.cls-31{fill:#f6fafd;}.cls-32{fill:#f5f5f7;}.cls-33{fill:#f6f5f8;}.cls-34{fill:#edf5fc;}.cls-35{fill:#fafbfc;}.cls-36{fill:#fafafc;}.cls-37{fill:#fbfbfc;}.cls-38{fill:#f6f7f9;}.cls-39{fill:#fbfcfc;}.cls-40{fill:#fafafb;}.cls-41{fill:#f7f7f9;}.cls-42{fill:#b2def5;}.cls-43{fill:#273b7f;}.cls-44{fill:#f8f8fa;}.cls-45{fill:#253d80;}.cls-46{fill:#44588b;}.cls-47{fill:#263d85;}.cls-48{fill:#273c80;}.cls-49{fill:#243e7f;}.cls-50{fill:#253e83;}.cls-51{fill:#283d82;}.cls-52{fill:#253e79;}.cls-53{fill:#283f82;}.cls-54{fill:#3c4c8b;}.cls-55{fill:#273c78;}.cls-56{fill:#273c82;}.cls-57{fill:#283b82;}.cls-58{fill:#283f84;}.cls-59{fill:#273c83;}.cls-60{fill:#243d7b;}.cls-61{fill:#293e83;}.cls-62{fill:#243e7c;}.cls-63{fill:#283b83;}.cls-64{fill:#283d83;}.cls-65{fill:#28417a;}.cls-66{fill:#273e7d;}.cls-67{fill:#324786;}.cls-68{fill:#273c84;}.cls-69{fill:#283a80;}.cls-70{fill:#283c83;}.cls-71{fill:#253975;}.cls-72{fill:#27397b;}.cls-73{fill:#293d87;}.cls-74{fill:#253c7b;}.cls-75{fill:#273773;}.cls-76{fill:#283e84;}.cls-77{fill:#283e7c;}.cls-78{fill:#253977;}.cls-79{fill:#263d7b;}.cls-80{fill:#273776;}.cls-81{fill:#273876;}.cls-82{fill:#293e84;}.cls-83{fill:#273c85;}.cls-84{fill:#344b82;}.cls-85{fill:#253b79;}.cls-86{fill:#273979;}.cls-87{fill:#293d83;}.cls-88{fill:#223c75;}.cls-89{fill:#293d84;}.cls-90{fill:#243b77;}.cls-91{fill:#253a7a;}.cls-92{fill:#263675;}.cls-93{fill:#273c86;}.cls-94{fill:#263673;}.cls-95{fill:#253774;}.cls-96{fill:#2b4186;}.cls-97{fill:#263978;}.cls-98{fill:#233e7c;}.cls-99{fill:#263574;}.cls-100{fill:#253d7c;}.cls-101{fill:#253c7a;}.cls-102{fill:#273c87;}.cls-103{fill:#283c85;}.cls-104{fill:#273d82;}.cls-105{fill:#273d85;}.cls-106{fill:#293b84;}.cls-107{fill:#273d88;}.cls-108{fill:#5a6276;}.cls-109{fill:#283f85;}.cls-110{fill:#293a84;}.cls-111{fill:#2c4285;}.cls-112{fill:#263d83;}.cls-113{fill:#243d7a;}.cls-114{fill:#273a7a;}.cls-115{fill:#243f7f;}.cls-116{fill:#273372;}.cls-117{fill:#243974;}.cls-118{fill:#2c437d;}.cls-119{fill:#233d79;}.cls-120{fill:#273d87;}.cls-121{fill:#6c738b;}.cls-122{fill:#273d86;}.cls-123{fill:#2c4089;}.cls-124{fill:#283879;}.cls-125{fill:#294184;}.cls-126{fill:#32487f;}.cls-127{fill:#253c79;}.cls-128{fill:#646c80;}.cls-129{fill:#273879;}.cls-130{fill:#283b85;}.cls-131{fill:#777b91;}.cls-132{fill:#283b74;}.cls-133{fill:#263b79;}.cls-134{fill:#536696;}.cls-135{fill:#283676;}.cls-136{fill:#283b8a;}.cls-137{fill:#455a8a;}.cls-138{fill:#263877;}.cls-139{fill:#273c88;}.cls-140{fill:#283b87;}.cls-141{fill:#223d75;}.cls-142{fill:#606883;}.cls-143{fill:#243c7a;}.cls-144{fill:#5e6788;}.cls-145{fill:#273572;}.cls-146{fill:#22376e;}.cls-147{fill:#010101;}.cls-148{fill:#0d0706;}.cls-149{fill:#060403;}.cls-150{fill:#76798a;}.cls-151{fill:#72788e;}.cls-152{fill:#5a6381;}.cls-153{fill:#7e8097;}.cls-154{fill:#181310;}.cls-155{fill:#080505;}.cls-156{fill:#040303;}.cls-157{fill:#9ad0f1;}.cls-158{fill:#a8d7f4;}.cls-159{fill:#ecf5fb;}.cls-160{fill:#acd8f4;}.cls-161{fill:#a3d7f4;}.cls-162{fill:#cce6f8;}.cls-163{fill:#afdcf4;}.cls-164{fill:#d0eafa;}.cls-165{fill:#e8f5fb;}.cls-166{fill:#deeffb;}.cls-167{fill:#f7fafd;}.cls-168{fill:#d0eaf9;}.cls-169{fill:#e8f1fa;}.cls-170{fill:#f1f9fd;}.cls-171{fill:#d8edfa;}.cls-172{fill:#b9e0f6;}.cls-173{fill:#f7f6f6;}.cls-174{fill:#b4daf1;}.cls-175{fill:#e8f6fb;}.cls-176{fill:#1b1715;}.cls-177{fill:#5d7cb1;}.cls-178{fill:#020202;}.cls-179{fill:#1b140e;}.cls-180{fill:#d1e5f1;}.cls-181{fill:#14120d;}.cls-182{fill:#b8def5;}.cls-183{fill:#1e1109;}.cls-184{fill:#e0eff6;}.cls-185{fill:#211810;}.cls-186{fill:#9bcae4;}.cls-187{fill:#c8e5f7;}.cls-188{fill:#bfe1f6;}.cls-189{fill:#1d110a;}.cls-190{fill:#cee2ed;}.cls-191{fill:#120d0a;}.cls-192{fill:#1b100c;}.cls-193{fill:#130a0c;}.cls-194{fill:#080605;}.cls-195{fill:#d2e9f7;}.cls-196{fill:#273a7b;}.cls-197{fill:#263d80;}.cls-198{fill:#263c82;}.cls-199{fill:#2b4089;}.cls-200{fill:#263c80;}.cls-201{fill:#273778;}.cls-202{fill:#293f81;}.cls-203{fill:#3a4f87;}.cls-204{fill:#3a4c86;}.cls-205{fill:#354780;}.cls-206{fill:#30457d;}.cls-207{fill:#25408e;}.cls-208{fill:#40518b;}.cls-209{fill:#d8eefb;}.cls-210{fill:#c2e6f8;}.cls-211{fill:#d3ebf9;}.cls-212{fill:#b9e1f7;}.cls-213{fill:#eff6f3;}.cls-214{fill:#e8f0f9;}.cls-215{fill:#9dd3f2;}.cls-216{fill:#263b7d;}.cls-217{fill:#263a79;}.cls-218{fill:#273d8a;}.cls-219{fill:#283c84;}.cls-220{fill:#283c87;}.cls-221{fill:#b8ddf5;}.cls-222{fill:#badcf3;}.cls-223{fill:#c8e5f8;}.cls-224{fill:#bee0f6;}.cls-225{fill:#c0e1f7;}.cls-226{fill:#e8f6fc;}.cls-227{fill:#c7e4f7;}.cls-228{fill:#c2e5f6;}.cls-229{fill:#283a82;}.cls-230{fill:#253e85;}.cls-231{fill:#283777;}.cls-232{fill:#bee3f5;}</style></defs><g id="Layer_2" data-name="Layer 2"><g id="Layer_1-2" data-name="Layer 1"><path class="cls-1" d="M597.36,520.14v1.18c-1.69,1.52-1,3.57-1.19,5.43A54.84,54.84,0,0,1,589.86,547c-2.3,2.16-6.41-2.43-7.76,2,1.76-.86,3.84-1.37,5.92.13,0,5-3.15,8.54-6,12-6.46,7.93-13.15,15.68-22.22,20.86a20.79,20.79,0,0,0-5.45,3.43c-3.11,1.7-6.08,3.66-9.46,4.82-1.57.36-3.22.43-4.63,1.33A16.23,16.23,0,0,1,534,594.1a24.34,24.34,0,0,0-5.87.85c-2.26.56-4.65.37-6.89,1.13a12.19,12.19,0,0,1-1.82.16c-2.2,0-4.39,0-6.59,0-2.3-.2-4.71.51-6.87-.85a2.81,2.81,0,0,1-.53-2,2.24,2.24,0,0,1,1.32-1.51,12.12,12.12,0,0,1,4.65-.11c-45,.27-89.95.23-134.92.26-2.51,0-5.09-.29-7.42,1.07a5.89,5.89,0,0,1-3.89.55,3.35,3.35,0,0,1-2.49-2.57,2.86,2.86,0,0,1,1.11-2.23c1-.73,2.3-1.14,2.47-2.63a12.94,12.94,0,0,0,.06-2.85c-.15-1-.42-1.82-1.69-1.09s-2.73,1.1-4-.18c-3.38-1.1-6.39.53-9.47,1.3,2.15,1.54,3.83.62,5.4-1a3.67,3.67,0,0,1,3.85-.51c1.07,1.46,3.22,1.2,4.29,2.67a3,3,0,0,1-.17,2.68c-1.22,1.09-2.14,2.55-3.81,3.1-9.62.93-19.25.34-28.88.34a5.83,5.83,0,0,1-4.22-1.56c-1.13-2.49-3.23-3.44-5.81-3.52-1.19,0-1.19,0-.32,2.21a2.76,2.76,0,0,1-.77,1.72c-2.28,1.59-4.88,1.25-7.39,1.25-21.86,0-43.73.47-65.58-.16-11.47-.33-22.93,1.3-34.37-.24a4.13,4.13,0,0,1-2.2-1.69c-2.77-3.18-4.55-3.32-5.81-.41a4.75,4.75,0,0,1-1.29,1.35c-2.31,1.38-4.86,1.14-7.36,1.15q-14.19,0-28.38,0c-2.71,0-5.43,0-7.83-1.53-2.93-1.69-5.47-.28-8,1-8.33.52-16.65,1.33-25-.68-3.41-.82-6.67,1.34-10.23,1.27-11.69-.24-23.39-.1-35.09-.08-1.92,0-3.9-.44-5.73.47-1.18,1-1.69,2.56-3.08,3.33-2.42,1.08-5,.78-7.48.72-5.5-1.63-11.57-1.83-16-6.22-1.29-1.67-.31-4.06-2-5.81.35,1.68.51,3.22-1.23,4.08-6.44-.32-10.84-4.69-15.57-8.16a27.65,27.65,0,0,1-8.24-8.86c-.37-1.11-.53-2.34-1.76-3a5.3,5.3,0,0,1-1.09-1,16.91,16.91,0,0,0-5-4.66c-5.7-6-8.85-13.37-11.13-21.17,1.13-2.45,2.08-4.89-.68-7a5.64,5.64,0,0,1-.75-1.49,41.85,41.85,0,0,1-.62-5.12C1.64,525,.69,523,.6,520.77.23,510,1.39,499.24,0,488.52v-1.17c1.36-6.35.45-12.78.56-19.17C.73,457.46.6,446.74.6,436c0-2.43.35-4.86,0-7.3,0-13-.1-26,.07-39A2.57,2.57,0,0,1,2,388c2.2-1,4.56-.92,6.88-.92q28.55-.06,57.09,0c2.7,0,5.47-.2,7.9,1.43,2.08,2.5,1.49,5.52,1.51,8.38.16,21.33-.19,42.67.21,64a6.66,6.66,0,0,1,.26,2.8c-.09,1.62-1.94,1.72-2.61,3,1.06.29,1.78-1.35,2.87-.46,1.78,1.91,1.59,4.06.79,6.28-2.35,1.39-2.17,3.92-2.72,6a.57.57,0,0,1-.64.53c.32.29.48.17.5-.37.94-1.75.45-4,2.09-5.43,1.87-.48,2.29,1.08,3.06,2.16a68.52,68.52,0,0,0,23,31.22c1.83,1.41,3.65,2.85,4.68,5-1.77,4.34,2.85,1.3,3.4,2.94a4.06,4.06,0,0,1-.2,2.47c.72.24.39-.61.75-.74a4.8,4.8,0,0,1,2.74-2,7.17,7.17,0,0,1,2.06-.19c14.1,5.34,28.81,4.1,43.4,4.11q160.14,0,320.27.09c17.46,0,34.78.3,50.84-7.95a4.06,4.06,0,0,1,3.75.75c.86.73,2,1.05,2.87,1.73-1.17-1.08-3.11-1.33-3.29-3.39.4-2.12,2.16-3.13,3.67-4.24a57.31,57.31,0,0,0,18.38-23.23c3.4-5.47,4.16-11.84,6.06-17.81a1.76,1.76,0,0,1,1.37-.69c-.76-.29,1.1-.23.54.28-.18.17.49.52.48.51-.88-1.69-2-3.28-2.13-5.3-.33-60.62-.09-121.22-.12-181.82,0-11.1-.44-22.21.31-33.31,1-2.83.83-5.77.83-8.69q0-33.09,0-66.18c0-9.43.68-10.09,9.84-10.13,4.88,0,9.77,0,14.64,0,3.76,0,6.45,1.26,7.56,5.05,1,10.86.88,21.79,1.07,32.67.44,24.15-.52,48.32-.36,72.46.47,74.06.43,148.12.56,222.18,0,6.25-.93,12.44-.71,18.67C595.66,513.42,595.52,517,597.36,520.14Z"/><path class="cls-2" d="M0,355V350.3c1.37-2.34,1-4.68,0-7V342.1a4.76,4.76,0,0,1,2.51-2.33c3.26-.81,6.6-.48,9.9-.48q149-.07,297.89-.07c25.77-3.64,41.7-22,41.73-48.06,0-38.21,0-76.43,0-114.64.06-31,19.18-55.61,49.11-63.21,9.41-2.38,19-1.19,28.53-1.08,3.21,0,5.09,1.94,5.18,5.17.1,4,1.18,8.32-3,11.23-7.11,1.59-14.34.31-21.49.85-23.66,2.85-40.76,21.8-40.86,45.74-.16,40.16,0,80.32-.06,120.48a35.38,35.38,0,0,1-.53,4.93c-2.16,12-6.11,23.11-14.12,32.71-12.46,14.92-28.26,22.54-47.56,23.29q-148.88,0-297.73,0C6.32,356.61,2.87,357.38,0,355Z"/><path class="cls-3" d="M597.36,113.7v12.88c-1.9,1.75-4.27,1.64-6.59,1.64q-32.87,0-65.74,0c-2.12,0-4.29.12-6.18-1.19-2.61-4.51-2.48-9.06-.18-13.64,2-1.53,4.42-1.31,6.73-1.31q32.39-.06,64.76,0C592.67,112.06,595.27,111.8,597.36,113.7Z"/><path class="cls-4" d="M597.36,520.14c-5.46-5.12-3.43-11.71-3.08-17.76.15-2.64.73-5.36.73-8.07,0-57,.6-113.95-.29-170.9-.34-21.21-1.53-42.49-.56-63.64.94-20.66.93-41.29.62-61.9-.17-11.25-.9-22.52-.93-33.8-.16-4-2.44-4.75-6.15-4.81-8.09-.13-16.26,1.18-24.29-.84a1.44,1.44,0,0,1,.31-1.89c10.41-2.4,20.88-1.4,31.35-.61a4.89,4.89,0,0,1,2.29,2.29v2.34c-1.38,9.85-.21,19.74-.6,29.61V500.75c.34,6.07-.7,12.18.6,18.22Z"/><path class="cls-5" d="M77.31,597.45l0-1.29c1.58-1.39,3.51-1.48,5.46-1.52,143,.67,285.91-1.43,428.86,1.07,2.81-.27,5.71.59,8.48-.53l1.29-.18c.49-.4.83-.29,1,.33,0,.7,0,1.41,0,2.12Z"/><path class="cls-6" d="M0,355l308.1-.08a6.73,6.73,0,0,1,1.15.19,1.46,1.46,0,0,1-.81,1.9c-3.19,1.3-6.55.79-9.84.79q-142,0-283.92,0c-1.95,0-3.91.05-5.86,0-4.13-.1-6,1.8-6,6s.77,8.59-.84,12.76a1.41,1.41,0,0,1-1.94.65Z"/><path class="cls-7" d="M0,310.48V200.37a1.37,1.37,0,0,1,1.9.63A11.17,11.17,0,0,1,3,206.68c-.13,33.73.48,67.46-.35,101.18A6,6,0,0,1,1.89,310,1.37,1.37,0,0,1,0,310.48Z"/><path class="cls-8" d="M597.36,158.21l-1.27-1.31c-2.23-2.63-1.46-5.84-1.7-8.85-.45-5.7,1.09-11.53-1.11-17.1-2-2.2-4.69-1.52-7.13-1.52-19.57-.05-39.13,0-58.69-.05-2.68,0-5.45.41-8-.92a1.38,1.38,0,0,1-.58-1.89c15.7.12,31.4.33,47.1.35,10.46,0,20.92-.22,31.37-.34Z"/><path class="cls-9" d="M597.36,113.7l-78.43.07a1.35,1.35,0,0,1,.5-1.9c2.53-1.39,5.3-1,8-1,19.59,0,39.18,0,58.78-.05,2.45,0,5.1.67,7.13-1.46,2-3.64.81-7.58,1.11-11.37.31-4-.7-8.11,1.12-12a1.29,1.29,0,0,1,1.81-.46Z"/><path class="cls-10" d="M1,200.38H0v-96a1.4,1.4,0,0,1,1.94.68c1.4,2.72,1.1,5.67,1.1,8.56Q3.1,152.29,3,191C3,194.22,3.74,197.69,1,200.38Z"/><path class="cls-11" d="M596.33,396q0-39.24,0-78.48c.35-.52.69-.49,1,0V396C597,396.53,596.67,396.5,596.33,396Z"/><path class="cls-12" d="M597.36,317.51l-1,0q0-32.19,0-64.39c.33-.54.68-.54,1,0Z"/><path class="cls-11" d="M597.36,253.08l-1,0q0-31.64,0-63.29c.35-.5.69-.49,1,0Z"/><path class="cls-13" d="M596.34,501.43q0-27,0-53.9c.34-.55.69-.52,1,0V501.4C597,501.93,596.69,501.92,596.34,501.43Z"/><path class="cls-10" d="M1.09,434.52q.06,24.28.08,48.57c0,1.49.45,3.18-1.17,4.26V434.64C.32,434.15.68,434.09,1.09,434.52Z"/><path class="cls-14" d="M597.36,447.52h-1V396h1Z"/><path class="cls-15" d="M1.25,389.11,1.16,430c-.41.52-.79.51-1.16,0V389A.77.77,0,0,1,1.25,389.11Z"/><path class="cls-16" d="M1.35,522.47l-1.35,0v-34c2.28,2.29,1.06,5.16,1.12,7.74C1.34,505,1.3,513.73,1.35,522.47Z"/><path class="cls-12" d="M597.36,189.83l-1,0c0-8.53-.11-17.07-.13-25.61,0-1.31-.29-2.77,1.15-3.65Z"/><path class="cls-17" d="M596.34,501.43l1,0V519C594.77,513.26,596.78,507.27,596.34,501.43Z"/><path class="cls-18" d="M0,310.48l1.22.32c2.72,5.09,2,10.32.61,15.58a1.31,1.31,0,0,1-1.83.5Z"/><path class="cls-19" d="M0,98.47V82.07a1.29,1.29,0,0,1,1.8.46A25.41,25.41,0,0,1,1.8,98,1.28,1.28,0,0,1,0,98.47Z"/><path class="cls-20" d="M0,377.24H1.12a1.12,1.12,0,0,1,1.63.1c1.12,2.12,1.31,4.14-.66,5.91-1.2.34-1.55-.64-2.09-1.33Z"/><path class="cls-21" d="M1.2,341,0,342.1V331.56c1.17-.28,1.7.46,2.14,1.34a11.64,11.64,0,0,1,.09,6.54A10.29,10.29,0,0,1,1.2,341Z"/><path class="cls-20" d="M1.19,332.75,0,331.56v-4.68c.37,0,.74,0,1.11,0C4.75,328.78,4.67,330.74,1.19,332.75Z"/><path class="cls-22" d="M0,98.47a2.7,2.7,0,0,1,1.13.12c3,1.9,3,3.77,0,5.62a3.1,3.1,0,0,1-1.09.12Z"/><path class="cls-23" d="M1.07,82.06H0V72.7c1.16-.27,1.7.45,2.13,1.34a12.33,12.33,0,0,1,.35,5.63A3.59,3.59,0,0,1,1.07,82.06Z"/><path class="cls-24" d="M1.34,73.85,0,72.7V71.53c1.06-.36,1.1-1.36,1.39-2.21a1.74,1.74,0,0,1,1.48-.68,2.12,2.12,0,0,1,1.31,1C4.58,72,4.34,73.87,1.34,73.85Z"/><path class="cls-21" d="M0,343.28c1.24,2.34,3.54,4.68,0,7Z"/><path class="cls-25" d="M0,381.93l1.2,1.19c1.71,1.92,1.45,3.83,0,5.74l.05.25L0,389Z"/><path class="cls-26" d="M597.36,85.59q-.5,0-1-.06c-1.9-1.6-1.76-3.7-1.48-5.85a4.2,4.2,0,0,1,1-1.84l1.47.72Z"/><path class="cls-27" d="M0,430l1.16,0c.88,1.52.41,3-.07,4.53l-.54.12H0Z"/><path class="cls-28" d="M597.36,522.49c-1.81.55-.59,3-2.26,3.63.15-1.89-1.11-4.44,2.26-4.8Z"/><path class="cls-29" d="M595.73,79.44c.21,2,.43,4.06.64,6.09l-.24,25.84c-2,1-4.2.52-6.29.53-21.54,0-43.08,0-64.62,0-2.1,0-4.27-.45-6.32.45l0,1.37q0,6.41,0,12.8c0,.46,0,.93,0,1.4,16.07.9,32.15.08,48.23.41,9.66.2,19.33-.69,29,.53q0,14,0,28l-32.79.26c-2.29,2-5.12,1.67-7.81,1.69q-14.06.08-28.1,0c-6,0-6.74.58-6.82,6.64-.12,9.36,0,18.73,0,28.1q-.06,50.16,0,100.32c0,14.87,0,29.74,0,44.61,0,20.75,0,41.49,0,62.24-.16,6.8-2,13.39-2.73,20.11-1.62,6.54-3.83,12.9-6,19.26a147.8,147.8,0,0,1-19.33,31.77c-12,13.15-26.08,23.32-42.94,29.31-8.8,3.13-17.71,6-27.33,4.5a26.62,26.62,0,0,0-5.84-.3q-97.74,0-195.46,0a32.41,32.41,0,0,0-5.83.26c-12.2,1.47-23.4-2.34-34.24-7.14A101.41,101.41,0,0,1,140,465.79c-6.23-7.78-10.26-16.8-14.61-25.66-3.6-7.9-5.23-16.36-7.08-24.76-.44-3.93-1.29-7.81-1.59-11.75-.55-12.89-.55-12.77-13.48-12.92-9.25-.11-18.53.7-27.76-.55a11.81,11.81,0,0,1-1.83-1L1.2,388.86v-5.74c1.92-1.65.87-3.87,1.13-5.84-1.24-5.78-.22-11.64-.55-17.45-.14-2.26.9-3.19,3.13-3.08,1.55.08,3.12,0,4.68,0q146.39,0,292.78,0c2.28,0,4.68.72,6.84-.68a6,6,0,0,1,0-.95c30.19-2.59,52.22-22.55,57.57-52.14a12.4,12.4,0,0,1,.82-2.14c1.34-1.4.86-2.89.2-4.39,0-41.48-.45-83,.12-124.44.32-22.92,20.15-42.88,42-44.16,7.31.67,14.62,1.21,21.91-.27,3.33-3.92,1-8.52,1.48-12.78.12-1.15-1.12-1.39-2.12-1.45-22.71-1.28-44.11,1.46-60.63,19.47a61.52,61.52,0,0,0-16.78,43c0,39.2.1,78.41-.06,117.61a47.27,47.27,0,0,1-42.24,47.32c-2.28-.81-4.64-.4-7-.4q-148.2,0-296.41-.05c-2.3,0-4.67.55-6.91-.51l-.06-7c1.7-2,1.77-3.95-.08-5.89q.06-8,.11-16.06v-.31c3-2.39,6.64-1.85,10.06-1.85,20.56,0,41.11-.16,61.66.12l2.23,0c12.66.05,25.33.1,38,0a4.82,4.82,0,0,0,2.55-1.31c1.41-1.91.94-4.12,1-6.21,0-9.12,0-18.25,0-27.37,0-2.48-.35-5.1,1.56-7.2,5-2.46,10.27-1.15,15.42-1.35,4.82-.2,9.67-.17,14.5,0,2.13.1,4.27.3,5.8,2.11,2,3.83,1.13,8,1.21,12,.12,6.78,0,13.55,0,20.33,0,8.78.36,9.08,9.25,8.72a5.28,5.28,0,0,0,1.73-.73c1.74-4.3.65-8.77.79-13.14.29-9-.2-18.07.19-27.11.46-.65,1-1.34,1.77-1.41,10.5-1,21-2,31.43.59,1.88,2.12,1.52,4.75,1.53,7.25.07,9.56.14,19.12,0,28.67-.07,4.49,1.65,6.28,6.21,6.26,30.62-.1,61.25,0,91.87,0a15.78,15.78,0,0,0,7.85-1.9c1.6-.88,3.07-2,4.62-2.95a18.85,18.85,0,0,0,2.61-1.92c.35-.39.72-.76,1.07-1.14a9.78,9.78,0,0,0,2.36-5.83,27.63,27.63,0,0,1,1.44-4.52c.89-2.68.51-5.43.52-8.14.14-40-.21-80,.17-119.93a50.92,50.92,0,0,0,1.38-7.57,11.29,11.29,0,0,1,.4-1.72c.95-2.92,1.5-6,2.34-8.91,2.12-4.41,3.09-9.29,5.43-13.61.22-.5.48-1,.74-1.45a119.12,119.12,0,0,1,11.72-17.6c8.55-10.91,19.73-18.49,31.67-25.14,12.69-6.19,26.31-8.45,40.21-9.57,3.89,0,7.78-.15,11.66,0s5.71-1.38,5.61-5.43c-.14-5.24-.16-10.5,0-15.74.21-6,1.86-7.9,7.54-8.16,8.54-.38,17.1-.3,25.64,0,2.09.07,4.37.25,5.26,2.8q-.19,171.71,0,343.42a19.2,19.2,0,0,0,.48,5.8,15,15,0,0,1,.61,3.25c-.85,30.29-26.64,56.6-56.85,56.78q-96,.57-192,0c-27.92-.17-52.74-23.32-56.3-51.17a18.62,18.62,0,0,1,.09-5.82c.47-3.94,2.67-8-1.09-11.57-9.3-1-9.91-.46-9.93,8.52a70.42,70.42,0,0,0,70.57,70.76q88.92.06,177.84,0a58.57,58.57,0,0,1,9.91.38c3.09,1,6.49.8,9.55,2.35-.47-.86-2.34-.92-1.15-2.45,1.88-1.6,4.27-1.84,6.52-2.42,31.9-8.27,53.49-36,53.5-69.09Q482,230.07,482,61c0-3.49-.38-7,.66-10.47A4.53,4.53,0,0,1,484,48.67c10.38-2,20.83-.94,31.26-.64,1.27,0,2.78.6,2.36,2.55-9.13,1-18.29.34-27.43.35-3.51,0-5.15.91-4.68,4.6a32.79,32.79,0,0,1,0,4.09q0,168.45,0,336.9,0-167.58,0-335.15a36.52,36.52,0,0,0,0-4.68c-.54-4.16.74-6,5.37-5.74,7.39.38,14.82.19,22.23.06,3-.06,4.14,1.05,4.06,4.08-.15,5.77,0,11.56,0,16.15.18-5.89-.12-13,.13-20.07,3.73-1,3,2.13,3.13,3.81.37,5,.09,10,.16,15,0,2.08-.4,4.28,1.32,6,3.78,1.92,7.81.56,11.7.93,8.75,0,17.5.1,26.25-.09,9.74-.06,19.48.27,29.23,0C591.54,76.74,594.18,76.84,595.73,79.44Z"/><path class="cls-30" d="M140.71,465c11.62,14,25,25.65,42,32.72,9.75,4.07,19.78,7.11,30.5,7.13,1.65-.92,3.44-.51,5.16-.51q100.26,0,200.51,0c1.72,0,3.51-.41,5.16.51,24.11-1.28,44.09-11.67,61.38-28,2.11-2,4.14-4.08,6.21-6.12a17.66,17.66,0,0,1,6.94-.53c3.92.32,7.72.23,11.2-2.16,2.17-1.48,4.87-1.2,7.4-1.2,10.12,0,20.25-.07,30.37,0,3.66,0,7-.33,9.22-3.75.82-1.24,2.07-2.6,3.87-1.73s1.22,2.83.95,4.18c-1.17,5.84-2.54,11.65-5.18,17.05-4.06,11.76-13,19.52-22.24,27a1.52,1.52,0,0,1-1.28.88c-12.69,7.12-26.24,10.07-40.83,10.05q-172.69-.27-345.37,0c-11.28,0-22.11-1.38-32.64-5.3-2.69-.64-5.32-1.4-7.41-3.37-10.64-8.14-20.41-17-25.94-29.65-.93-2.11-2.14-4.12-2.23-6.51-1.58-3.89-1.82-8-2.16-12.12,1.5-4,3.91-3.75,5.63-.57,1.85,3.42,4.53,3.8,7.77,3.79,14,0,28.05-.08,42.07.05C135,467,137.73,465.67,140.71,465Z"/><path class="cls-31" d="M556.37,482.67c1.78-4.82,1.65-10.16,4.08-14.83a5.36,5.36,0,0,0-.08-5.47c-.45,0-1.08,0-1.13.11-2.41,6.38-7.52,6.44-13.2,6.22-8.76-.35-17.55-.25-26.32,0-4,.1-7.56-.12-11.73,2.63s-10.9,1.26-16.39-.51a154.12,154.12,0,0,0,18.75-30.41c2.51-2.56,5.15-5,5-9.11a2.85,2.85,0,0,1,2.88-3.09c2.27-.05,2.86,1.67,3.22,3.47a21,21,0,0,1,.29,5.25c-.22,4.09,1.84,5.51,5.69,5.45,5.85-.1,11.7.05,17.55-.05,7.06-.11,9.45-2.53,9.74-9.48.15-3.48-.52-7,.91-10.41a1.5,1.5,0,0,1,1.64-.84c2.85,1.8,3.25,4.6,3.22,7.65-.08,6.09,0,12.19,0,15.3-.33-4.78.41-12.55-.21-20.31-.1-1.28.07-3.43,2.51-1.85-.16,14,.54,27.92-.36,41.87C561.67,470.8,560.4,477.19,556.37,482.67Z"/><path class="cls-32" d="M301,563.4l-16.4-.89c-.55.35-.91.22-1.09-.41-3.29-4.34-5.37-9.07-4.61-14.68,1.23-7.5,3.59-9.31,11.31-9.13,9,.2,17.93-.14,26.89.15,2.53,2.26,1.84,5.08,1.37,7.86a4.93,4.93,0,0,1-1.86,2.45,7,7,0,0,1-2.89.93c-1.64.16-3.3.13-4.95.18-3.27.08-6.53.09-9.8,0-1.28,0-2.57.09-3.86,0-1.81.25-3.83-.66-5.65,1.15,1.3,2.1,3.39,1.39,5.11,1.46,4.44.18,8.91-.34,13.33.26,5.08.69,8.65,4.32,9.64,9.49,1.31,6.83-.27,11.19-5.05,13.87-.72.95-1.65,2-2.73,2-10.33.4-20.71,1.89-31-.67,0-2.71,0-5.42,0-8.13h0c7.31-1.18,14.68-.17,22-.55,2.08-.11,4.26.54,6.25-.6C306.58,564.69,302.77,565.34,301,563.4Z"/><path class="cls-33" d="M201.51,538.89c.11,1.55.11,3.12.33,4.66.54,3.68-1.1,4.57-4.6,4.59-6,0-12-1.09-17.84,1.07l-.69.15c-1.29.37-2.79,0-3.85,1.1,1.53,3.59,4.79,2.07,7.32,2.44,4.4.63,9.08-1.11,13.26,1.55a26.19,26.19,0,0,1,6.08,7.86c1.28,1.47.92,3,.27,4.62-.3,3-1.8,5.5-3.13,8.08a3,3,0,0,1-1.61,2.74c-2.09,1.31-4.37,1.26-6.75,1.14a160.4,160.4,0,0,0-19.24.07c-7.67.56-9.33-1.36-7.9-9.08,1.57-2.26,4-2,6.3-2.12,5-.21,10.07.07,15.11-.06,1.85-.05,3.91.53,6.08-2-7.63-1.62-15.43.89-22.1-3a11.09,11.09,0,0,1-3.8-3.81,15.8,15.8,0,0,1-1-1.43,9.19,9.19,0,0,1,.2-10.4c2.58-6.05,6.9-8.71,13.69-8.31,7.91.46,15.87.08,23.81.07Z"/><path class="cls-34" d="M77.3,463.92c-.72,4.05,1.46,7.83,1.13,11.85L76.34,473l0,.06a12.28,12.28,0,0,0-1.27-7c-.33-.17-.45-.37-.38-.59s.16-.35.26-.35l-.14-2.35c-1-12.72-.22-25.47-.43-38.2-.1-6.77,0-13.53,0-20.29,1.45-4.15-.69-8.9,2.06-13.29,3.53,2.9,2,6.74,2.76,10.08.09.23.34.2.76-.15,7.46-6.19,32.4-4,38.29,3.28q.69,5.83,1.37,11.65c-.75,6.25-1.79,7.47-7.85,7.61-9.88.24-19.79.43-29.66-.12-3.56-.2-4.35.92-4.24,4.11.22,6.59,0,13.18,0,19.78C78.34,452.8,77.38,458.35,77.3,463.92Z"/><path class="cls-35" d="M397,577.5c-.76,0-1.53,0-2.29.09-7,.83-6.74.82-7.16-6.35-.14-2.33,2.76-6.83-3.09-6.85-3.87,1-7.64-.88-11.51-.36-1.83.24-4-.56-5.05,1.78-.1,2.52-.37,5.06-.24,7.57.15,3-.29,4.7-4,4.73s-4-1.84-3.95-4.72c.08-4.47-.13-8.95-.22-13.42.08-6.64-3.5-13.29,0-19.92,9.34-2.32,18.82-1.54,28.15-.43,4.7.57,8.16,7,6.82,12.72-1.17,4.92,0,9.1,1.3,13.52,2.51,2.59,1.18,6.06,2.07,9A3.09,3.09,0,0,1,397,577.5Z"/><path class="cls-36" d="M234.23,570.52c.8-2.81-.5-4.89-2.34-6.78-5.49,1.86-11.12,1.18-16.72.88l-1,0c-2.81,2.82-2.37,6.42-2.15,9.84.2,3.13-1.4,3.46-3.87,3.44s-4.19-.17-4-3.34c.13-2.88-.17-5.78-.29-8.67a2.79,2.79,0,0,1,1-2.38l2.36-5.84a1.62,1.62,0,0,1-.28-1.47c.87-1.88,2.57-3.27,3.12-5.35a5.25,5.25,0,0,1,1.84-1.39l2.67-5.34c.69-3.09,3.12-4.22,5.74-5.13,7.78-1.54,11,3.7,14,9.37,2.52,2.63,4.38,5.59,4.57,9.36.16,2.8,1.87,4.89,3.26,7.12a19.75,19.75,0,0,1,.26,12.64c-2.77.21-5.66,1.44-8.1-1A7.13,7.13,0,0,1,234.23,570.52Z"/><path class="cls-37" d="M131.31,569.36V574a2.88,2.88,0,0,1-.2,3.86c-2.69-.09-5.5,1.22-8-.73-1.59-9.9,2.55-18.25,7.17-26.48a1.36,1.36,0,0,1,.72-1.25c1.05-1.83,2.09-3.66,3.15-5.49,3.22-5.56,8-6,13.46-4,1.72-.39,2.6.73,3.46,1.9,2.76,5.09,5.17,10.36,7.91,15.48.65,1.31,1.33,2.61,2,3.92a13.86,13.86,0,0,1,1.84,9.35c-.14,8.57-2.45,10.23-9.27,6.7-.28-3.44,1.18-7.08-1.14-10.3a14,14,0,0,0-2.87-2.08c-4.53-.63-9.36,1.52-13.63-1.5-3.08-.8-3.26,1.55-3.8,3.51A2.37,2.37,0,0,1,131.31,569.36Z"/><path class="cls-38" d="M475.45,577.42c-9.33,1.08-9.33,1.08-9.33-8.42,0-5.25,0-10.5,0-15.74,0-1.57,0-3.16-1.15-4.38-.93-1-17.68-1.37-18.25-.29-1.3,2.49-.59,5.24-.38,7.89a25.26,25.26,0,0,1,0,18.69c-1.51,5.12-5.39,1.93-8.24,2.34a.74.74,0,0,1-.39-.7c0-.28.08-.42.15-.42.12-10.68.43-21.36.25-32-.06-4.15.73-6,5.36-5.62,5.8.44,11.66.06,17.5.12,8.32.07,12.57,4,12.91,12.33.29,7,0,14,.16,21,0,1.44-1.14,3.6,1.48,4.25a.63.63,0,0,1,.18.68C475.61,577.31,475.53,577.42,475.45,577.42Z"/><path class="cls-39" d="M476.56,564.63q6.06-12.21,12.11-24.43l-.1.09c9.93-2.23,11.46-3.8,18.74,10.29a5.58,5.58,0,0,1,3,6c2.5,5.68,4.83,11.31,4.1,17.84-.32,3-1.47,3.44-4,3.42s-4.05-.32-4-3.42,1.11-6.27-1.46-8.88c-5.79-1.36-11.65-1.06-17.5-.63-1.59,1.52-2.12,3.67-3.21,5.48q-.27,3.62-.52,7.23c-7.56,1-7.6,1-7.54-6.12C476.19,569.23,475.76,566.89,476.56,564.63Z"/><path class="cls-40" d="M435.73,577.61c-7.36.41-7.35.41-7.74-7.18-.09-1.67.16-3.47-1.44-4.69-3.76-2.92-8.15-1.31-12.26-1.66-1.85-.16-3.82.81-5.54-.61-5,3.73-2.44,9.33-3.48,14-1.46,1.54-3.26,1.59-5.16,1.22-4.66-4-3-9.06-2.14-14q4.25-8.81,8.51-17.6c.76-2.18.48-5,3.54-5.76,7.74-4.51,12.31-3.19,16.3,4.75,1.64,3.27,2.94,6.76,4.9,9.83,4,6.3,5,13.19,4.95,20.41A1.15,1.15,0,0,1,435.73,577.61Z"/><path class="cls-41" d="M331.7,541.32c7.62-4.38,12.21-3.11,16.06,4.53,2.53,5,4.66,10.27,7.5,15.12,2.67,4.56,2,9.34,2.16,14.14.09,3.09-2.07,2.64-4,2.73-2.14.1-3.81-.1-3.78-3,0-2.27.7-4.65-.53-6.84v0c-.25-1.81-.51-3.61-2.43-4.52-5.47,1.46-10.93.49-16.4,0-2,.73-2.26,2.47-2.49,4.24a12.34,12.34,0,0,0-.4,6.31c.44,3.59-1.77,4.22-4.41,4.52-2.93.35-4.32-1.34-4.64-4-.6-5.06-.55-10.06,1.93-14.74,1.73-3.25,3.06-6.69,4.78-9.94C327.4,547.14,327.92,543,331.7,541.32Z"/><path class="cls-42" d="M562.39,464.24l-.18-42.48c-2.66-3.3-1.22-7.21-1.64-10.84q0-19.69,0-39.37c0-11.88,0-23.76,0-35.65,0-.73,0-1.46,0-2.2.08-5.8,0-11.6-.09-17.41.25-6.17.06-12.34.1-18.51,0-5,0-10.11,0-15.16q0-3.28,0-6.57c-.48-10.79.2-21.58,0-32.36,0-12-.22-24,0-36.06-.1-7.38-.35-14.76,0-22.14,0-5.53.2-11.06,0-16.57-.4-2.34-2-3.1-4.17-3.22-10.08-.52-20.23,1-30.27-1.06-.68-.15-1,1-1.35,1.73a4.55,4.55,0,0,1-.91,1.33c-1.55.14-2.36.8-2.3,2.55.1,2.88,0,5.77.15,8.66-.12,4.36.46,8.75-.47,13.08a3.52,3.52,0,0,1-1.13,1.56l-1-.2c-.09-10.92-.12-21.85-.32-32.77,0-2.69.67-3.79,3.58-3.75,13.65.21,27.3.24,41,.33a1.35,1.35,0,0,0,.23,1.08c1.18,2.42.38,5,.39,7.45q.11,35.82,0,71.65c0,2.11.38,4.27-.38,6.35q-.09,57.26-.18,114.5,0,51.71.11,103.41c.53.77.63,1.5-.21,2.13A5.25,5.25,0,0,1,562.39,464.24Z"/><path class="cls-43" d="M363.1,590.42l1.17,2.34c-2.82,2.54-6.3,1.62-9.52,1.62q-132.78.07-265.58,0c-3.84-.46-7.64.76-11.49.29-1.25-.48-2.79.27-3.89-.89l1.17-3.4c1.83-1,3.82-.54,5.73-.54,20,0,40,.08,60.06-.06,17.65-.14,35.3.09,52.95,0,40-.07,80.08.12,120.12-.08,14.52-.08,29,.3,43.56.1C359.28,589.86,361.28,589.36,363.1,590.42Z"/><path class="cls-44" d="M120.83,568.15l-.25,2.23c-.92,1.48-.35,3.48-1.65,4.83a1.81,1.81,0,0,1-2,.67c-8.75,3.63-17.87,2.34-26.76,1.3-4.52-.53-6.76-5-7.08-9.54-.25-3.64.1-7.32.18-11,2.21-1.06,4.42-1.77,6.67-.1a8.67,8.67,0,0,1,.49,1.68c.94,10.67.94,10.73,12,10.65,11.67-.08,10.74,1.72,10.79-11,0-4.08.3-8.19-.08-12.24-.47-5,.82-7.81,6.4-7a1.28,1.28,0,0,1,1.63,1C121.06,549.13,121.65,558.65,120.83,568.15Z"/><path class="cls-45" d="M77.23,594c3.55-.34,7-1.76,10.63-1.2,2,1.13,4.2.57,6.3.57,89.29,0,178.6.8,267.88-.29,45-.55,90-.17,135-.74,3.05,0,6.31-.67,9,1.62V595c-2.18,1.27-4.58.61-6.86.61q-205.08.06-410.15.06c-2.32,0-4.68-.4-7,.38l-4.68.08a5.89,5.89,0,0,0-.15-.82c-.34-.31-.45-.62-.32-.92S77.11,594,77.23,594Z"/><path class="cls-46" d="M82,596.08c2-1.77,4.49-.94,6.74-.94q205.41-.06,410.81,0c2.14,0,4.29-.05,6.43-.07l7.09.18c.35.21.46.4.33.58s-.24.27-.37.27c-2.53.07-5.06.21-7.59.21H89C86.7,596.27,84.36,596.15,82,596.08Z"/><path class="cls-47" d="M506,593.93q-205.74,0-411.49,0c-2.23,0-4.72.89-6.65-1.13H367.79c2.29-1.51,4.88-1.15,7.39-1.15q62.06,0,124.09,0c2.27,0,4.72-.64,6.73,1.14Z"/><path class="cls-48" d="M326.9,549.52c-2.58,8.08-9.06,14.86-7.61,24.33.43,2.76.74,4.08,3.91,4s4.11-.94,3.94-4c-.11-2-.69-4.25.69-6.17,0,2.53,0,5.07.15,7.6s-1.28,3.44-3.54,3.52c-1.7,1.79-4.12-.56-5.85,1l-6.07-3.79c4.85-6.47,5.45-11.9,2.18-17.11-2.16-3.45-5-5.2-9.12-5.14-4.49.07-9,.08-13.45,0-2.24-.05-5.27.46-5.2-3s3.16-2.62,5.34-2.75a19,19,0,0,1,2.9.24c.33.71-.38,1.87-.21,1.89,1.62.25,2.68-.84,3.72-1.89h10.56a3,3,0,0,0,4.65,0l2.34-.14c2.7.35,2.79-3.15,5-3.44,2.34-.45,2.63-2.26,3.08-4.19.32-1.32.17-4,3-2.42a13.37,13.37,0,0,1,.67,6.57A25.1,25.1,0,0,1,326.9,549.52Z"/><path class="cls-49" d="M363.1,590.42H75c.5-2.48,2.42-1.08,3.56-1.09,10.34-.13,20.71.46,31-.21,14.67-1,29.28.49,43.91.13,1.89-2.14,5.15-.16,7-2.33,1.32,1.06,2.33,2.4,4.42,2.38,12.27-.12,24.54,0,36.81-.14a11.68,11.68,0,0,0,3.28-1.08c2.49-.48,4.94-.69,7,1.17q51.33,0,102.66-.07c2.18,0,5.33,1.58,6.28-2.27,2.34-1.73,4.68-1.49,7,0,.55,3.23,3.11,2.3,5.05,2.32,9.64.07,19.28,0,28.92,0a1.63,1.63,0,0,1,2.34,0Z"/><path class="cls-43" d="M506,592.77H367.79c1.11-2.45,3.29-2.34,5.47-2.34H513.41c1.92,0,3.9-.17,6.11,2.34Z"/><path class="cls-50" d="M563.56,243.69l0-85.45c8.31,0,16.66.39,24.94-.16,5.18-.34,6.36,1.49,5.38,6a6,6,0,0,0-6.4-3.62,101.12,101.12,0,0,1-15.76,0c-5.51-.48-7.34,1.19-7.26,7,.33,23.37.16,46.74.11,70.11C564.53,239.61,565.25,241.86,563.56,243.69Z"/><path class="cls-51" d="M164,547.09c.18,3.52-1.09,7.22,1.23,10.49-2,3-3.05.62-4.31-.72-5.89-2.86-6.1-9.7-9.84-14.06-.83-1.59-.18-3.51-1.11-5.08.09-3.08.91-5,3.53-1.51a19.51,19.51,0,0,0,4,3.79c3.29,2.37,3.81,4.39.56,7.77Z"/><path class="cls-52" d="M153.54,577.28c7.55,1.09,7.55,1.09,8.18-8a1.34,1.34,0,0,1,2,0c0,8.7,0,8.7,9,8.67,6,0,12,0,17.94,0a13.18,13.18,0,0,0,7.09-2.15c.36,5-1,5.74-8,4.08H172.18c-4.05,2.12-7.87-.46-11.81-.6-2.33.22-4.73,1.28-6.89-.56Z"/><path class="cls-53" d="M317.18,539.29c-9.62-.92-19.27-.4-28.91-.24-5.25.09-7.24,4.43-9.34,8.37-2.71-4.87-1.72-8.93,3.13-11.52,1.79-1,4.42-3.47,6.29.39,1,2.06,3,1.38,4.66,1.39,8.13.06,16.27,0,24.41,0l.38.55A1,1,0,0,1,317.18,539.29Z"/><path class="cls-54" d="M75,403c-.65,19.92-.39,39.83-.12,59.74-1.86-2-1.11-4.43-1.12-6.67q-.12-33.48-.1-67a1,1,0,0,1,1.08-.1C76.32,393.65,75.63,398.33,75,403Z"/><path class="cls-55" d="M278.81,577.49c11.27.19,22.6,2.24,33.71-1.37a3,3,0,0,1-3.14,3.42c-9,.27-18,.28-27,.35A3.54,3.54,0,0,1,278.81,577.49Z"/><path class="cls-56" d="M407.64,577.55c5.59,1.84,6.93,6,3.43,10.22-.78.94-1.31,1.32-2.26.59a1.44,1.44,0,0,1-.11-2.43c.87-.88,2.84-1.54,1.55-3s-2.81.32-4.25.51c-.19,0-.36.13-.55.18-1.47.38-2.66,3.53-4.21,1.29-1.92-2.77,2.3-2.17,2.86-3.8C404.46,579.06,406.08,578.34,407.64,577.55Z"/><path class="cls-50" d="M565.9,456.51V405.74h.59v51Z"/><path class="cls-56" d="M447.45,557.63c1.16-.3,3-1.76,3.22.39a113.41,113.41,0,0,1,0,14.4c-.08,1.71-1.94,1.5-3.26,1.6A47.24,47.24,0,0,1,447.45,557.63Z"/><path class="cls-57" d="M189.75,579.89c3.23-.26,7.23,1,8-4.08l.9-.8c3.31.91,3.19,4.33,3.07,6.23s-3.31.61-5.11,1-3.7-1.39-5.51.36c-1.15,1.12-2.86,3.22-4.18,1C185.75,581.67,189.08,581.42,189.75,579.89Z"/><path class="cls-58" d="M410,541.4l-3.54,5.76c-.76-1.27-2.58-1.9-2.34-3.74s-1.11-4.56,1.62-5.52c1.58-.55,2.83-2.87,4.49-1.86C412.82,537.61,407.89,539.47,410,541.4Z"/><path class="cls-59" d="M358.4,551.76c-1,.26-1.28,2.36-2.74,1.23-1.25-1-2.79-2.77-1.35-3.86,2.78-2.1-4.52-9.16,4.06-7.89A20.08,20.08,0,0,1,358.4,551.76Z"/><path class="cls-60" d="M70.81,428V393.79c1.35,11.35-.34,22.8,1.45,34.14Z"/><path class="cls-61" d="M238.84,557.67a31.8,31.8,0,0,1-4.57-9.36c1.8.66,2.69-3.25,4.2-1.26,1.15,1.51,3.44,3.18,1.87,6C239.56,554.39,240.64,556.51,238.84,557.67Z"/><path class="cls-62" d="M70.66,436.89c3.22,6.59,1.38,13.16,0,19.73Z"/><path class="cls-63" d="M160.42,578.87c4-.5,7.74,1.8,11.76,1,1.56,2.74,6.3-.93,7,3.49a11.21,11.21,0,0,1-10.54,0c-1.32-4.49-6.08-.93-8.21-3.52-.37-.21-.5-.43-.38-.66S160.3,578.87,160.42,578.87Z"/><path class="cls-1" d="M317.42,537.71v-2.35c1.76-3,4.42-2.17,7-1.6,2.11,2.06.26,4.47.57,6.69-2.26,3.21-4.21,1.34-6.17-.37a25.73,25.73,0,0,0-1.39-2.37Z"/><path class="cls-56" d="M589,547.09l-1.17,2.33c-2.22.16-4.7-.65-6.2,2-.45.81-1.45,1.57-2.36.62a2.15,2.15,0,0,1,.12-3.12C582.13,546.16,584.91,543.07,589,547.09Z"/><path class="cls-59" d="M324.45,534.2c-2.34.38-5-1-7,1.16-1.43-.18-3.57.38-3.15-2.15.26-1.55,1.76-1.39,2.83-.85,2,1,3.11-.41,4.7-1,2.58-1,6-2.21,6.16,2.85A2.46,2.46,0,0,1,324.45,534.2Z"/><path class="cls-64" d="M510.32,556.6a14.45,14.45,0,0,1-3-6c1.37-1.24,1.43-4.71,4.47-3.08,2.16,1.17,1.32,3.41.7,5.19C512,554.08,512,555.84,510.32,556.6Z"/><path class="cls-61" d="M242.36,577.43q-.13-6.31-.26-12.64c1,0,3.22,1.37,2-1.53-.55-1.31.33-2.22.69-3.29h0l2.35,3.51a.7.7,0,0,1,1.16,0c-.1.76,0,2.08-.34,2.2-6,2.15-4.45,6.45-3.17,10.69-.65.65-1,1.82-2.31,1.22Z"/><path class="cls-65" d="M195.44,554.45c-6.59-1.06-13.23-.33-19.84-.57-1.61,0-3.3-.28-3.68-2.18s.1-3.54,2.63-3.39a4.5,4.5,0,0,0,4.24,3.64c4.76,1.22,9.69-.44,14.42.93C194.24,553,195.21,553.21,195.44,554.45Z"/><path class="cls-66" d="M324.45,534.2H328l2.55.51L328,536.55q.42,1.59-1.17,1.17c-1.31.94-1.31,2.36-1.15,3.68.44,3.69-1.3,5-4.72,4.51-1.8-3.77,2.52-3,3.5-4.65C324.44,538.91,324.44,536.55,324.45,534.2Z"/><path class="cls-67" d="M120.83,568.15l-.24-29.21a.78.78,0,0,1,1.25-.09c0,7.93,0,15.86,0,23.79C121.82,564.51,122.43,566.55,120.83,568.15Z"/><path class="cls-68" d="M496.63,567c4.81,4.09,4.81,8.82,0,10.54C494.09,574,495,570.51,496.63,567Z"/><path class="cls-69" d="M301,563.4c7.83-.62,8.21-.32,6,4.82C304,567.88,299.78,569.07,301,563.4Z"/><path class="cls-70" d="M151.62,564.57a2,2,0,0,1,.78,2.41c-5.4-1.74-11.2,1.28-16.52-1.38a.54.54,0,0,1-.23-.45c0-.17.15-.34.24-.51A48.84,48.84,0,0,1,151.62,564.57Z"/><path class="cls-71" d="M464,576.86V553l.52,0v23.84Z"/><path class="cls-72" d="M463.28,537.49H440.64v-.58h23.14Z"/><path class="cls-73" d="M398,564.76c-.07,3-.11,6.07-.2,9.1-.06,2,0,3.85,2.55,4.27.49,1.23-.1,2.11-.94,2.92-1.35-.26-3.19.74-3.91-1-.24-.54,1-1.7,1.52-2.58l.15-2.52c-1.13-3-.73-6.05-.27-9.1Z"/><path class="cls-59" d="M211.6,541.15c-2.08-.09-3.29-1-2.76-1.7a27.42,27.42,0,0,1,5-5c.49-.39,1.69.74,1.36,1.37C214.15,538,213.31,540.39,211.6,541.15Z"/><path class="cls-74" d="M496.63,567q0,5.26,0,10.54h-3.52c-1.93-2.73-.61-4.92,1.17-7C494.27,568.81,494.25,567.1,496.63,567Z"/><path class="cls-75" d="M486.08,564.68c4.77-2.77,16.38-2.23,18.87.88-.05.9-.09,1.8-.14,2.69-5.32-4.64-11.48-3.19-17.55-2.42h0a1.11,1.11,0,0,1-1.36.19A1,1,0,0,1,486.08,564.68Z"/><path class="cls-76" d="M50.25,588.35c-1.18-.42-2.73.16-3.52-1.31,2.1-3.18-2.46-2.64-2.61-4.58C50.39,581.42,50.39,581.42,50.25,588.35Z"/><path class="cls-77" d="M106.6,511.93c2.94.09,5.09,1.91,7.41,3.37l-1.59.21a1.52,1.52,0,0,1-2.29-.11c-.48-.22-1.1-.75-1.42-.61-1.67.76-2.66,4.61-4.81,2.2C102.28,515.17,106.16,514,106.6,511.93Z"/><path class="cls-78" d="M112.12,541.54v20.7h-.58V541.45Z"/><path class="cls-63" d="M230.75,565.83c-5.6.56-11.31,2.53-16.57-1.26h0a52.85,52.85,0,0,1,16.51.11C230.74,565.06,230.74,565.44,230.75,565.83Z"/><path class="cls-59" d="M201.46,538.85c.16-2.6-.59-4.61-3.7-5.28,2.65,0,5.69-2.16,7,1.38.91,2.45-.32,4.15-3.26,3.94Z"/><path class="cls-68" d="M502.78,539.31c-.42-2.54-1.27-4.58-4.31-5.28,4-1,5.77-.46,6.72,1.22C506.55,537.67,503.78,537.91,502.78,539.31Z"/><path class="cls-79" d="M211.2,550.73c-.76,2.3-1.11,4.85-3.77,5.94-2.49.3-4.32-.92-6-2.56h0a1.55,1.55,0,0,1,0-2.34c2.34-.06,4.68,2.7,7,0C208.71,549.64,209.81,549.8,211.2,550.73Z"/><path class="cls-80" d="M110.46,579.84H91.61v-.76h18.81Z"/><path class="cls-81" d="M408.75,563.47l14.24-.38c1.9-.05,3.45.33,3.56,2.65-4.68-1.1-9.4-1.83-14.14-.48C410.48,565.8,409.53,565,408.75,563.47Z"/><path class="cls-82" d="M326.8,537.72l1.17-1.17c1.48.06,3.4-.32,3.87,1.48s-2.15,1.8-2.69,3.21c1,2.34.2,3.53-2.35,3.51Z"/><path class="cls-83" d="M487.26,565.83c7-2.63,14.06-1.66,17.55,2.42-.37.43-.73.87-1.09,1.3C499.4,563.17,492.82,566.74,487.26,565.83Z"/><path class="cls-60" d="M168.67,583.4h10.54C176.11,586.74,171.78,586.74,168.67,583.4Z"/><path class="cls-63" d="M473.21,583.39c-2.23,4.42-5.62,2.06-8.66,1.42-.86-.18-1.91-1-.92-1.92.35-.35,1.67.3,2.56.5A5.15,5.15,0,0,1,473.21,583.39Z"/><path class="cls-84" d="M476.56,564.63c-.06,1.92-.22,3.85-.17,5.77.19,7.78-1.7,7.45,7.33,7.24-2.48,2.29-5.49.64-8.22,1.13l0,0c0-.44,0-.88,0-1.31a1,1,0,0,1,.06-1C475.93,572.5,474.36,568.4,476.56,564.63Z"/><path class="cls-85" d="M363.45,537.73c-1.45-.23-3.91.36-3.34-1.77.24-.93,3.46-1.11,5.36-1.51,1-.22,2.11.19,2,1.39C367.18,538.55,364.88,537.34,363.45,537.73Z"/><path class="cls-86" d="M399.38,581.05c.32-1,.63-1.95.95-2.92l4.94-.63c.79,0,1.6-1.27,2.37,0a7.47,7.47,0,0,1-3.54,3.5Z"/><path class="cls-59" d="M357.25,583.39c-3.36,5.06-6.67,1.36-10.32.35,1.35-2,2.31-.44,3.29-.35A5.82,5.82,0,0,1,357.25,583.39Z"/><path class="cls-87" d="M116.93,575.88l.89-.89c1.33-.48,1.71.18,1.65,1.36,1.74,1.39,2,3.48,2.67,5.43C118.08,581.75,116.67,579.54,116.93,575.88Z"/><path class="cls-88" d="M358.4,551.76l0-10.52c.4-.39.79-.79,1.18-1.19l0,19.92C357.4,557.47,358.86,554.48,358.4,551.76Z"/><path class="cls-59" d="M364.27,584.56c-1.71,0-3.4,0-3.51-2.34h0c1.05-.26,2.5-.17,3.08-.84,4.27-4.87,3.48-.26,4,2A3.63,3.63,0,0,1,364.27,584.56Z"/><path class="cls-89" d="M211.2,550.73a2.54,2.54,0,0,0-2.72,1c-1-.15-3,.14-2.71-1a7.16,7.16,0,0,1,3.4-4.06c2.1-1,1.28,2.25,2.72,2.68Z"/><path class="cls-90" d="M447.45,557.63V574c-.37.38-.74.77-1.12,1.15q0-9.34,0-18.69Z"/><path class="cls-83" d="M532.85,510.55l1.28-.88c1.27,2.26,5.69,1.58,5.26,5.08-.21,1.7-1.77,2.34-3,0a23.37,23.37,0,0,0-3.26-3.75A1.67,1.67,0,0,1,532.85,510.55Z"/><path class="cls-91" d="M193.21,552.88,177,552.79c-.48-2.06-.3-3.67,2.41-3.58h0c0,3.12,2.39,2.32,4.21,2.58C186.8,552.23,190.23,550.64,193.21,552.88Z"/><path class="cls-92" d="M230.74,564.67l-16.51-.11c5.76-2.92,11.74-1.33,17.66-.82Z"/><path class="cls-59" d="M205,586.91c-.42-1.34-1.88-2.59.15-4.67.07,5.32,6.2.09,6.88,4.67A5.87,5.87,0,0,1,205,586.91Z"/><path class="cls-93" d="M121.84,538.85l-1.25.09a2,2,0,0,1-1.08-.34c2.06-1.31-2.79-8.37,4.61-5.09C123.41,535.17,122.62,537,121.84,538.85Z"/><path class="cls-94" d="M367.89,565.81c-.17-.95-.43-2.36.8-2.35,5.26,0,10.64-1.62,15.76.93l-.36.32c-1.91,1.12-3.82.7-5.73,0C374.85,564.92,371.21,563.84,367.89,565.81Z"/><path class="cls-51" d="M488.67,540.2c-3.45,1.1-3-2.59-4.6-3.83-.55-.44,0-1.47.82-1.83a1.35,1.35,0,0,1,1.95.64c.43,1.76,2.88,2.85,1.73,5.11Z"/><path class="cls-74" d="M357.25,583.39h-7c3.08-4.32,6.86-2.34,10.54-1.17h0C359.47,582.26,358.09,582,357.25,583.39Z"/><path class="cls-70" d="M230.75,565.83c2.36,3.9.85,8,.88,12.42-2.85-.81-1.7-2.86-2-4.22,1.52-2.15-.29-4.85,1.15-7Z"/><path class="cls-59" d="M494.29,570.51l-1.17,7C489.41,574.14,489.76,572.06,494.29,570.51Z"/><path class="cls-95" d="M330.32,563.52a64.76,64.76,0,0,1,16.4,0c0,.37,0,.74,0,1.11a4.57,4.57,0,0,1-4.67,0C338.14,564.12,334,565.82,330.32,563.52Z"/><path class="cls-96" d="M4.82,540c-.45-2.31-2.16-4.37-1.36-6.92C7.47,534.72,8.72,536.87,4.82,540Z"/><path class="cls-83" d="M486.24,565.83a8.68,8.68,0,0,0,1,0c3.81,2.57,1.39,4.74-.7,6.89-1.06-.86-.2-2.25-.49-3.4A2.56,2.56,0,0,1,486.24,565.83Z"/><path class="cls-97" d="M89.94,556.56l-6.67.1c-1.07-3.86,2.4-1.73,3.58-2.49C89.16,552.68,89.74,554.65,89.94,556.56Z"/><path class="cls-57" d="M567.12,565.31a1.82,1.82,0,0,1,2-1.72c1.7-.05,2.45.85,2.37,2.47-.07,1.34-.9,1.41-2,1.11S567.24,566.68,567.12,565.31Z"/><path class="cls-63" d="M82.56,493.43c1.86.16,1.74,1.77,2.06,3,.25.93-.39,1.37-1.26,1.39-1.64,0-2.51-.71-2.44-2.41A1.76,1.76,0,0,1,82.56,493.43Z"/><path class="cls-98" d="M473.21,583.39h-7v-2.34c1.94-.78,3.89-1.46,5.84,0C474.08,581,473.82,582.1,473.21,583.39Z"/><path class="cls-99" d="M151.62,564.57l-15.73.07c0-.41,0-.82,0-1.24C141.16,563.52,146.57,561.6,151.62,564.57Z"/><path class="cls-100" d="M205,586.91h7c0,.78,0,1.56,0,2.34-2.34-.38-5,1-7-1.17C205,587.69,205,587.3,205,586.91Z"/><path class="cls-101" d="M440.45,581.07c2.11.23,4.4-.62,7.06,1.25-2.9,1.28-5,1.78-7.11-.1-.36-.27-.48-.53-.34-.78S440.32,581.07,440.45,581.07Z"/><path class="cls-60" d="M295.43,584.51c-2.89,1.65-4.73,1.36-7.52.29C290.68,583,292.56,583.15,295.43,584.51Z"/><path class="cls-59" d="M328,586.9h-7a1.63,1.63,0,0,1,0-2.34C323.28,585.36,326.77,582.67,328,586.9Z"/><path class="cls-100" d="M160.46,586.92c-1.19,4.23-4.69,1.53-7,2.33C154.63,585,158.12,587.7,160.46,586.92Z"/><path class="cls-68" d="M5.85,519.79c1.56,3,1.28,4.85.31,7.69C4.2,524.67,4.47,522.8,5.85,519.79Z"/><path class="cls-66" d="M326.8,544.75a3.64,3.64,0,0,0,2.35-3.51l2.55.08-4.8,8.21C326.87,547.93,326.83,546.34,326.8,544.75Z"/><path class="cls-102" d="M237.78,582.22c-.79-1.59-2.84-.74-4-1.73,1.2-2.63,2.67-1,4-.63a2.78,2.78,0,0,1,3.46,0l-1.15,2.3A1.68,1.68,0,0,1,237.78,582.22Z"/><path class="cls-60" d="M492.94,533.3c1.82-.19,3.62-1,4.55,1.18a1.23,1.23,0,0,1-1,1.73C494.39,536.55,493.86,534.83,492.94,533.3Z"/><path class="cls-103" d="M440.45,581.07c0,.38,0,.76-.05,1.15l-3.51-1.16a.69.69,0,0,1-1.15,0c0-1.14,0-2.29,0-3.43.15-.4.29-.81.44-1.22h1.68a2.72,2.72,0,0,1,.24,1.12C437.85,579.38,439.74,579.84,440.45,581.07Z"/><path class="cls-104" d="M201.47,554.11c2.47-.29,4.05,1.52,6,2.56a1.39,1.39,0,0,1-.22,1C204.57,557.63,201.76,557.93,201.47,554.11Z"/><path class="cls-105" d="M342,564.68l4.67,0c-3.06,2.49-6.6,2.58-10.66,2.14C337.88,564.93,340.69,566.82,342,564.68Z"/><path class="cls-106" d="M480.21,545.26c-1.36-.81-1.15-1.76-.9-2.68a1.44,1.44,0,0,1,1.76-1.09,1.41,1.41,0,0,1,1.14,2.14C481.82,544.37,480.83,544.78,480.21,545.26Z"/><path class="cls-60" d="M124.52,551.85c-.28-3.1-1-4.94,1-6.79C127.18,547.28,126.14,548.92,124.52,551.85Z"/><path class="cls-86" d="M241.26,579.91l-3.46,0c1-1.89,3.64-.43,4.69-2.26l2.31-1.22C245,578.93,244.94,581.24,241.26,579.91Z"/><path class="cls-74" d="M75,465.1a.65.65,0,0,1,.12.94c-.77,1-.65,2.89-2.36,2.77-1-.07-1.32-1.3-1.15-2.31C72,464.29,73.32,464.29,75,465.1Z"/><path class="cls-107" d="M132.34,578.74c-.92,3.89-4.26,1.7-6.8,3.9.88-3.65,3.63-2.07,4.46-3.76a1.17,1.17,0,0,1,1.12-.74A1.28,1.28,0,0,1,132.34,578.74Z"/><path class="cls-43" d="M364.27,589.25h-2.34a2.14,2.14,0,0,1,2.35-2.34,2.51,2.51,0,0,1,3.5,0C367.69,589.29,366,589.27,364.27,589.25Z"/><path class="cls-108" d="M77.23,594c0,.46,0,.92,0,1.37-4-.86-8.28,1-12.07-1.45l8.67-.07Z"/><path class="cls-109" d="M73.79,479.15c1.33-1.85-2.75-6,2.58-6.14l0-.06c-.23,2.32-.54,4.61-2.55,6.2Z"/><path class="cls-104" d="M204.85,563.46c.31,1.07-.34,1.73-1,2.38l-2,1.1-.27-4.63Z"/><path class="cls-110" d="M371.3,567v9.09c-.71-3.05-2.3-6.14,0-9.08Z"/><path class="cls-111" d="M119.47,576.35,117.82,575l2.76-4.61C120.7,572.46,123,575,119.47,576.35Z"/><path class="cls-112" d="M345.3,572.13c-.06.82-.31,1.51-1.25,1.62a1.42,1.42,0,0,1-1.77-1.62,1.36,1.36,0,0,1,1.5-1.38A1.45,1.45,0,0,1,345.3,572.13Z"/><path class="cls-74" d="M320.94,584.57v2.34c-1.58-.17-4,.23-3.08-2.45C318.38,582.89,319.93,583.35,320.94,584.57Z"/><path class="cls-113" d="M367.78,586.9h-3.5c0-.79,0-1.57,0-2.35.85-1.37,2.23-1.12,3.52-1.16Z"/><path class="cls-114" d="M149.93,537.72c2.46,1,2.39,2.67,1.17,4.62-.28.5-.59.52-.94.06l-2.55-2.47C148.38,539.19,149.15,538.45,149.93,537.72Z"/><path class="cls-61" d="M244.8,560c-1.41-.2-3.38.39-3.19-2.11a1.6,1.6,0,0,1,1.09-1.08c2.49-.19,1.91,1.78,2.1,3.19Z"/><path class="cls-115" d="M131.31,569.36a2,2,0,0,1,.79-2.45c1.35.17,2.85.58,2.32,2.24C133.78,571.18,132.39,569.66,131.31,569.36Z"/><path class="cls-116" d="M396.87,565.88l.27,9.1c-3.21-2.64-1-6.07-1.32-9.12A7.36,7.36,0,0,1,396.87,565.88Z"/><path class="cls-117" d="M349.14,568c-.72,3.13,1.12,6.6-1.27,9.51a9.66,9.66,0,0,1,0-7,2.5,2.5,0,0,1,1.28-2.46Z"/><path class="cls-118" d="M220.3,538.94l-5.74,5.13C214.51,540.15,216.75,538.81,220.3,538.94Z"/><path class="cls-119" d="M128.71,523l6.86,1.07C132.55,525.08,130.58,525.19,128.71,523Z"/><path class="cls-120" d="M164.83,541.17c0-3.28.54-4.35,2.11-4.42.37,0,1.13.56,1.12.86C168,539.42,166.19,538.94,164.83,541.17Z"/><path class="cls-121" d="M21.11,567A12.61,12.61,0,0,1,16,561.2,7.81,7.81,0,0,1,21.11,567Z"/><path class="cls-103" d="M433.39,581.06c-2.12-.13-4.37.14-6.33-.49s-1.16-1.56.46-1.84c1.74,1.42,4.11-.25,5.85,1.17,0,.39,0,.77,0,1.16Z"/><path class="cls-74" d="M237.78,582.22h2.33a2.45,2.45,0,0,1,1.18,2.36,3.4,3.4,0,0,1-4.69,0A2.44,2.44,0,0,1,237.78,582.22Z"/><path class="cls-83" d="M236.6,584.57h4.69c-.15,1.24-.63,2.17-2.06,2.26A2.19,2.19,0,0,1,236.6,584.57Z"/><path class="cls-122" d="M378.36,564.7h5.73c-1.15,4.33-4-.25-5.76,1.11h0C378.34,565.45,378.34,565.07,378.36,564.7Z"/><path class="cls-123" d="M131,549.43c-.24.42-.48.84-.73,1.25-1.63-.81-3.1-1.71-2.13-3.95C130,546.76,129.77,548.85,131,549.43Z"/><path class="cls-124" d="M210.73,579.18c-1.48.62-3,1.55-4.91.77C207.21,577.69,209.1,579.1,210.73,579.18Z"/><path class="cls-115" d="M132.34,578.74l-1.12,0q-1-.6-.12-1.38c.07-1.1.14-2.2.22-3.3C135.08,574.86,132.91,577,132.34,578.74Z"/><path class="cls-109" d="M73.79,479.15c-.26,1.38.65,3.07-1.3,4.28-1.65-2.16-.44-3.29,1.3-4.28Z"/><path class="cls-125" d="M283.54,562.1a2.83,2.83,0,0,1,1.09.41c-.36,1.79,2.3,1.6,2,3.14,0,.28-1.53.69-2.12.46C282.52,565.31,283.85,563.46,283.54,562.1Z"/><path class="cls-105" d="M416.08,566.07h7.18C419.71,567.22,417.81,567.15,416.08,566.07Z"/><path class="cls-101" d="M204.16,531.21a8.83,8.83,0,0,1-6.57.12A8.83,8.83,0,0,1,204.16,531.21Z"/><path class="cls-104" d="M201.47,551.77v2.34c-1.3.68-3.33,1-3.48-.37C197.81,552.09,200,552,201.47,551.77Z"/><path class="cls-126" d="M131.1,577.33l.12,1.38-1.22.17c-2.26-.75-5.2,1.29-6.89-1.72A14.75,14.75,0,0,0,131.1,577.33Z"/><path class="cls-60" d="M549.57,502.41a6.08,6.08,0,0,1,.75,1.81c.08.82-.48,1.67-1.36,1.22-.47-.25-.59-1.32-.7-2.05C548.18,502.82,548.41,502.25,549.57,502.41Z"/><path class="cls-127" d="M121.86,530.89l-5.9,2.25C116.83,529.88,118.87,530.86,121.86,530.89Z"/><path class="cls-128" d="M522.42,595.33l-1-.33c2-2,4.55-.74,6.82-1.11.58-.53,1.06-.46,1.45.21C527.52,596,524.8,594.66,522.42,595.33Z"/><path class="cls-127" d="M464,533.58c1.71-.46,3.23-1,4.67.08C467,534.66,465.37,534.09,464,533.58Z"/><path class="cls-80" d="M433.37,579.9c-2-.32-4.21.76-5.85-1.17C429.44,579.23,431.81,577.55,433.37,579.9Z"/><path class="cls-129" d="M475.5,578.77c-.85,1.34-2.22,1.06-3.48,1.12a2.87,2.87,0,0,1-3.5,0c2-2.1,4.63-.79,7-1.15Z"/><path class="cls-103" d="M324.43,579.87l2.22.18c-1.95.85-3.89,1.67-5.7-.13A2.77,2.77,0,0,1,324.43,579.87Z"/><path class="cls-74" d="M435.74,581l1.15,0c-.16,1.2-.46,2.3-2,2.11-1.21-.15-1.33-1.17-1.47-2.11h0Z"/><path class="cls-130" d="M134.54,526.62c-1.71.47-3.23,1-4.68-.08C131.58,525.54,133.17,526.12,134.54,526.62Z"/><path class="cls-131" d="M558.68,581.44a4.46,4.46,0,0,1-4.68,3C555,582.58,556.88,582.08,558.68,581.44Z"/><path class="cls-93" d="M468.76,531.21a5.59,5.59,0,0,1-5.17.13A5.56,5.56,0,0,1,468.76,531.21Z"/><path class="cls-122" d="M378.33,565.82c-2.05,2.14-4.69.79-7,1.17h0c2.06-2.13,4.69-.79,7-1.17Z"/><path class="cls-132" d="M486.24,565.83c-.06,1.16-.11,2.33-.17,3.49l-1.83,1.09c-.62-2.3.48-4.06,1.84-5.73C486.12,565.07,486.17,565.45,486.24,565.83Z"/><path class="cls-101" d="M230.73,567c-.36,2.34,1,5-1.15,7C230,571.69,228.62,569.07,230.73,567Z"/><path class="cls-120" d="M398.23,557.84c-.31.62-.44,1.35-.79,1.48-.86.33-1.37-.31-1.33-1.11a1.55,1.55,0,0,1,.85-1.14C397.24,557,397.73,557.51,398.23,557.84Z"/><path class="cls-127" d="M248.31,563.49h-1.16c.18-1.05-.44-2.42,1.08-2.92a1,1,0,0,1,.9.46A1.86,1.86,0,0,1,248.31,563.49Z"/><path class="cls-112" d="M347.87,570.52v7A5.3,5.3,0,0,1,347.87,570.52Z"/><path class="cls-83" d="M420.26,534.72a5.57,5.57,0,0,1,5.16.13A5.57,5.57,0,0,1,420.26,534.72Z"/><path class="cls-133" d="M335.92,534.85a5.59,5.59,0,0,1,5.17-.13A5.59,5.59,0,0,1,335.92,534.85Z"/><path class="cls-129" d="M160.42,578.87c0,.33,0,.67,0,1h-1.17a6.81,6.81,0,0,1-5.85,0c0-.38,0-.76,0-1.13Z"/><path class="cls-77" d="M532.93,515.67c-.31.62-.44,1.35-.79,1.48-.86.33-1.37-.31-1.33-1.11a1.53,1.53,0,0,1,.85-1.13C531.94,514.81,532.43,515.35,532.93,515.67Z"/><path class="cls-83" d="M505.36,527.6a3,3,0,0,1-1.17.53c-.83,0-1.39-.55-1-1.38.16-.32.93-.5,1.41-.47S505.67,526.62,505.36,527.6Z"/><path class="cls-134" d="M513.05,596.06c0-.28,0-.57,0-.85l7,0C518,597.37,515.44,596,513.05,596.06Z"/><path class="cls-101" d="M513,581.05c1,.15,2.36-.35,2.89,1,.09.22-.52,1-.88,1-1.55.25-1.83-.9-2-2.07Z"/><path class="cls-135" d="M392.56,579.19c-1.18,1.08-2.35.71-3.67.38C390,578.12,391.23,578.74,392.56,579.19Z"/><path class="cls-136" d="M278.8,569.36c-.93-.57-2.25-.67-2.56-2a2.06,2.06,0,0,1,1.39-.78c1.78.24.9,1.76,1.16,2.74Z"/><path class="cls-102" d="M424.64,537.76c.39.31,1,.57,1.15,1a.74.74,0,0,1-1,.89c-.45-.17-.75-.76-1.12-1.16Z"/><path class="cls-137" d="M3.46,533.09c-2-2-1.4-4,0-6Q3.46,530.08,3.46,533.09Z"/><path class="cls-83" d="M153.44,579.87l5.85,0C157.33,581.62,155.38,581.63,153.44,579.87Z"/><path class="cls-138" d="M563.28,463.73l.21-2.13c1.6,1.27.93,2.93,1,4.65C562.78,465.8,563.68,464.5,563.28,463.73Z"/><path class="cls-139" d="M468.52,579.88H472c0,.38,0,.77,0,1.15h-5.84A2.41,2.41,0,0,1,468.52,579.88Z"/><path class="cls-140" d="M513,581.05h-5.26c2.34-1.7,3.84-1.43,5.26,0Z"/><path class="cls-141" d="M234.23,570.52l0,5.9A4,4,0,0,1,234.23,570.52Z"/><path class="cls-101" d="M505.08,530.46a10.15,10.15,0,0,1-2.13,1c-.71.15-1.17-.43-.58-1a4.93,4.93,0,0,1,2.07-.8C504.55,529.65,504.79,530.1,505.08,530.46Z"/><path class="cls-142" d="M545.27,589.29c-1.65,1.21-3.39,2-5.47,1.16C541.35,588.79,543.35,589.24,545.27,589.29Z"/><path class="cls-93" d="M492.93,531.22a3.83,3.83,0,0,1,4,0C495.41,532.06,494.22,532.16,492.93,531.22Z"/><path class="cls-143" d="M111.27,517.78c-.11,1.21-.44,2.45-1.93,2.19s-.54-1.38-.41-2.17A1.57,1.57,0,0,1,111.27,517.78Z"/><path class="cls-144" d="M529.7,594.1l-1.45-.21c1.84-1.77,4.14-1,6.29-1.16C533.19,594.12,531.42,594,529.7,594.1Z"/><path class="cls-145" d="M324.43,579.87l-3.48,0-2.36,0c1.66-2,3.84-1,5.85-1C324.45,579.21,324.45,579.54,324.43,579.87Z"/><path class="cls-102" d="M111.27,517.78l-2.34,0a2.46,2.46,0,0,1,1.2-2.4l2.29.11Z"/><path class="cls-146" d="M23.28,569.14a3.13,3.13,0,0,1-2.06-2c.76-.38,1.51-1.19,2.38-.31S23.78,568.41,23.28,569.14Z"/><path class="cls-147" d="M1.25,339.79q152.35,0,304.7,0c1.88,0,3.94-.61,5.58,1-2.33.14-4.67.39-7,.39q-150.19,0-300.41,0c-1,0-1.95-.08-2.92-.12C1.22,340.61,1.24,340.2,1.25,339.79Z"/><path class="cls-148" d="M431.88,127.56l.25,1c-7.4.17-14.84,1.51-22.16-.73A111.4,111.4,0,0,1,431.88,127.56Z"/><path class="cls-149" d="M367.84,296.43c1.74,1.45,1,3.42,1.06,5.2,0,.74-.51.78-.92.24a3.5,3.5,0,0,1-.34-1.05C367.71,299.36,367.78,297.89,367.84,296.43Z"/><path class="cls-1" d="M73.79,310.31l-72.59.18q-.07-55-.16-110.11,0-48.09.05-96.17a4.48,4.48,0,0,0,0-5.62L1.07,82.06c.08-.77.17-1.54.25-2.31,1.07-3.44,4-6.51,2.16-10.56-.39,0-.78,0-1.16,0-.71-1.66,1.5-3.2.2-4.88C6.14,57,8.37,49.1,12.6,41.91c5.2-8.81,12-15.76,19.61-22.27,6.86-5.88,15.09-9.45,23-13.63,2.64.14,4.81-1.21,7.1-2.2L74.92,1.25C77.64.19,80.41.69,83.18,1Q284,1,484.75,1c11.69,0,23.39.49,35.07-.61,1.07,1.3.43,2-.85,2.53-3.31.33-6.63,0-9.94,0Q300.35,3,91.68,3h-5a38.51,38.51,0,0,1,4.86,0Q300.2,3,508.88,3c3.31,0,6.62.33,9.92,0,3-2.74,6.19-2.3,9.49-.71,11.36,3.27,22.28,7.47,32.24,14a33.92,33.92,0,0,1,8.72,8.29c-1.27,1.58-.81,3.92-2.82,5.64,2.51-1.46,1.46-4.09,2.91-5.56,13.1,11.32,19.95,26.08,23.58,42.66.78,3.55,2,7,3,10.5l-.15,1.6c-9.76-1.44-19.58-.34-29.37-.67-2.31-.08-4.62-.06-6.93-.09-.89-1.29-2.39-2-3.26-3.29-3.56-7.12-6.46-14.66-12.84-20-12-11.57-26.11-18.43-43.06-18.68-1.92,0-4,.17-5.51-1.29s-.24-1.84,1.09-2c.58,0,1.16,0,1.61,0-15,2.08-30.23,1-45.42,1q-149,.18-298.09.08c-2.91,0-5.87-.39-8.71.57a22.09,22.09,0,0,1-8.48,1.65C121.49,36.92,108.64,43,97.42,53c-6,5.38-11.31,11.32-14.56,18.84a37.36,37.36,0,0,0-3.55,8.45c-1.75,6-3.51,12-3.67,18.3-.72,12.67.37,25.36-.54,38-1.23,3-6.38,5.84-.56,9.34a6.35,6.35,0,0,1,.2,3.71c-1,5-.25,10.08-.51,15.11-.12,2.28.32,4.73-1.68,6.53-.54-.15-1.3-.12-1.37-.83C70.59,164,71,157.51,70.8,151c.63,21.4-.12,42.78.28,64.17.42.76,1.37-.32.69.06-.3.18-.51.1-.53-.23-.76-10.63-.23-21.26-.28-31.9,0-1.14.61-1.76,1.85-1.56,2.06,2.51,1.3,5.53,1.44,8.36.48,9.82-1,19.7.87,29.48.69,28.67.2,57.35.27,86A6.36,6.36,0,0,1,73.79,310.31Z"/><path class="cls-150" d="M520.18,2.32,519.82.41c3.08-.49,6.1-.72,8.47,1.9-2.69.26-5.39-1.67-8.09,0Z"/><path class="cls-151" d="M62.27,3.81A6.15,6.15,0,0,1,55.17,6,15,15,0,0,1,62.27,3.81Z"/><path class="cls-152" d="M83.18,1l-8.26.27C77.6-.94,80.4.28,83.18,1Z"/><path class="cls-153" d="M2.52,64.29c2.28,1.72.21,3.27-.2,4.88a6.94,6.94,0,0,0-.93.15C1.77,67.65,2.14,66,2.52,64.29Z"/><path class="cls-154" d="M309.21,356.05c-2,2.3-4.77,1.23-7.17,1.23q-146.09.09-292.17.05c-7.52,0-7.52,0-7.53,7.66q0,6.15,0,12.29l-1.21,0c0-5.66.14-11.31,0-17-.07-3,.92-4.4,4-4.12,1.55.14,3.12,0,4.68,0H300.44C303.37,356.18,306.29,356.1,309.21,356.05Z"/><path class="cls-155" d="M596.13,128.91q-35.82,0-71.63,0c-1.88,0-3.92.58-5.57-.93q35.55,0,71.1.05C592.06,128,594.31,127.18,596.13,128.91Z"/><path class="cls-156" d="M518.9,112.4c1.6-1.63,3.66-1,5.53-1q35.85,0,71.7,0c-1.78,1.83-4,.95-6.08.95Q554.49,112.44,518.9,112.4Z"/><path class="cls-59" d="M3.48,69.19c2.23,3.91,1.18,9.07-2.16,10.56,0-2,0-3.93,0-5.9C3.31,72.88,3.64,71.15,3.48,69.19Z"/><path class="cls-2" d="M414.66,472.22c-19.31-.07-38.61-.19-57.91-.2-42.72,0-85.46-.87-128.14.24-41.08,1.07-78-31.64-75.39-79.81.14-2.56.47-4.05,3.49-3.8,3.49.28,7,.28,10.5.4,1.53,4.22,1,8.5.34,12.78-1,29.13,25.36,55.9,55.93,56.25,30.05.34,60.12.08,90.18.09,31.23,0,62.49-.83,93.69.22,33.26,1.13,59.87-22.22,62.59-55.63-.55-115.62-.1-231.24-.21-346.87,0-2.8-.8-6.4,2.77-7.59,3.89-1.31,8.07-2,11.16,2.07q0,66.71.1,133.4,0,106.77,0,213.55c0,25.26-9.77,45.72-29.88,61.12-9.65,7.4-20.89,11-32.6,13.47C419.13,473.27,416.9,472.77,414.66,472.22Z"/><path class="cls-157" d="M483.66,50.37a10.77,10.77,0,0,0-2.17-.86c-9.81-1.61-10.7-.86-10.7,8.9q0,168.8,0,337.57c0,2.26.77,4.69-.82,6.79-.13-.72-.27-1.44-.41-2.16-.7-1.69-.39-3.47-.39-5.21q0-170.11,0-340.24a15.15,15.15,0,0,1,.29-4.65c-5.75-2.27-11.74-.86-17.6-.91s-13.9-2.76-17.3,1.25c-2.92,3.46-.94,11.15-1,17C433.5,79,433.54,79,422.18,79c-2.92,0-5.83-.2-8.74-.31-.11-2.62,2-2.42,3.6-2.72a36.55,36.55,0,0,1,6.37-.22c7.28-.09,7.28-.09,7.1-7.32-.49-5.81.5-11.68-.87-18.13-3.89,4.31-8.68,4.35-13.53,4.35l-294.85,0c-3.9,0-7.77,0-11.28-2.26-3.31-2.14-6,.18-8.57,1.76s-4.6,2.52-5.6-1.42c10.61-10.7,23.68-16,38.48-17.59,2.89-.3,5.78-.56,8.67-.84,1.72-1.43,3.76-.73,5.64-.74q169.83,0,339.67,0c1.88,0,3.92-.68,5.64.72,7.46,1.18,15.11.75,22.44,3.24,10.84,3.69,20.69,8.83,28.26,17.67-1.33,1-2.64.54-3.74-.28-2-1.5-3.37-1.08-5.57.25-6.42,3.9-11.23-.28-15.92-4.15-.9-1.77-2.38-2.32-4.29-2.31-9.83.05-19.67,0-29.51,0-.82,0-1.48.2-1.68,1.12l.07.37Z"/><path class="cls-158" d="M74.89,97.25c-1.38-6.36,1.61-11.86,3.47-17.58.82-.13,1.78,0,2.1.68,2.71,6.05,8,5.75,13.36,5.74q129.26-.06,258.52,0c4.3,0,8.51,0,12.42-2.39a9.06,9.06,0,0,1,7.37-.84c3.17.94,4.28,2.65,1.64,5.42a118.29,118.29,0,0,0-30.6,24.22c-2.66.7-5.91-.45-7.7,3-.88,1.69-2.77,1.2-4.2.48-3.48-1.74-7.2-1.57-10.9-1.57H92c-2.73,0-5.46.16-8.19.19-5.39.07-6.52-1.15-6.65-4.52,1.07,4.16.91,10.85.77,17.54-.4,3.65,0,7.31-.06,11-.23,10.75-.06,21.5.08,32.26-.85,5.08,1.45,10.52-1.66,15.36a1.21,1.21,0,0,1-1.9-.41c-2.28-10.84-.47-21.78-.43-32.64.08-16.49.43-33,.46-49.48C74.42,101.49,74,99.31,74.89,97.25Z"/><path class="cls-159" d="M432.33,409.22C430,418,424,423,415.2,423q-98,.09-196.06,0c-9.68,0-16.12-6-17.78-15.83-1-4.05-.27-8.15-.44-12.23-.06-1.43.18-2.77,2-3,1.64-.16,2.53.78,3.05,2.17,1,2.65.68,5.37.39,8.25a6.68,6.68,0,0,1,6-4.48c2.14-.2,4.28-.2,6.43-.2q99.42,0,198.86,0c3.95,0,8.29-.94,11.48,2.9.61-.95-.43-2,0-3s.77-1.9,1.88-1.89c1.57,0,1.81,1.25,1.76,2.46C432.59,401.86,433.28,405.57,432.33,409.22Z"/><path class="cls-160" d="M76.14,127.76V102.87c1.85,1.55.92,3.2,1.17,4.6.67,3.75,1.52,7,6.67,5.19,1.39-.49,3.1-.13,4.65-.13q117.92,0,235.81,0c2.79,0,5.76-.79,8,2.24,1.24,1.69,2.51.55,2.52-1.21,0-6.18,2.4-5.07,5.69-2,.61.57,1.7.63,2.56.92l-11.62,17.7-.23-.15.25.11-5.76,14.43c-3-4-2.24-8.38-.62-13.18-4.25,2-8.34,1.7-12.38,1.7q-109.42,0-218.84,0c-4.44,0-8.91-.47-13.13,1.91-2.32,1.31-4.14.42-4.12-2.72C76.72,130.78,77.14,129.16,76.14,127.76Z"/><path class="cls-161" d="M373.77,88.26c0-1.32,1.88-3-.74-3.81-2.9-.86-6.56-1-8.13,1.09-2,2.73-4.18,2.37-6.58,2.37q-135.19,0-270.4.09c-4.23,0-7.27-.5-7.63-5.54-.07-1-1.26-1.86-1.93-2.79a16,16,0,0,1,3.43-8.22,7.75,7.75,0,0,1,4.51-.89c112.17.59,224.34,0,336.5.46,3.46,0,6-2.72,9.38-1.82.05,8.15,0,8-8.1,8.26-3.55.11-7.35-1.33-10.64,1.2A112.61,112.61,0,0,0,373.77,88.26Z"/><path class="cls-162" d="M167.29,310.41a1.81,1.81,0,0,1-.92-.15c-2.13-2.21-1.76-5-1.79-7.69-.07-8.52,0-17,0-25.56,0-7.65-.1-7.68-7.69-8a7.24,7.24,0,0,1-3.37-.69c-1-1.65-2.71-1.25-4.21-1.25q-15.4.06-30.83.18c-1.14.81-.71,2.28-1.37,3.3-.24,6.72-.87,7.51-7.29,7.64-9,.19-17.92.15-26.88,0-2.91,0-6-.07-7.61-3.22-.13-8.17-1.37-16.36.71-24.46,5.3-.82,10,2.07,15.36,2q108.4-.36,216.81-.11c5.15,0,9.83,0,10.87-6.58.12-.75,1-1.09,1.86-1.15,1.15,10.6.62,21.21.28,31.83-2.79,2.48-6.24,1.79-9.47,1.8-30.91.06-61.82,0-92.73.05-4.44,0-9-.53-13.21,1.44-1.87.87-2.85-.41-3.73-1.77-1.27-3.51.22-7.46-1.7-10.88-9.84-.05-19.68-.12-29.52-.08-1.13,0-2.83-.86-3.27,1.24C168.21,282.36,168.74,296.39,167.29,310.41Z"/><path class="cls-42" d="M320.86,276.52l0-31.6c-2.26-2.47-1.53-5.52-1.64-8.41-.29-6.18,0-12.35,0-18.52-.44-5.82.29-11.64-.06-17.46-.1-5.08-.11-10.16,0-15.24-.17-2.59-.09-5.18,0-7.77C318.66,166,318.66,166,307,166H89c-12.23,0-12.26,0-12.21-11.88,0-2.91-.38-5.84.32-8.73,1.59-1,3.37-.83,5.11-.82,76.82.17,153.63,0,230.44.07,1.17,0,2.34,0,3.51.06,7.15.38,8.13,1.6,7.32,9.09l.08-.14c-1.87,2.25-.14,5.13-1.3,7.51q-.09,62.76-.23,125.51c0,2,.8,4.31-1.1,6A17.39,17.39,0,0,1,320.86,276.52Z"/><path class="cls-163" d="M323.46,153.74c.64-6-2.21-7.38-7.91-7.37q-115.14.27-230.28.12c-2.7,0-5.48.39-8-1.17-1.46-2.16.34-4.86-1.17-7V127.76c1.11.77,1.09,2,1.18,3.13s-.45,2.92,1.3,3.5c1.52.49,1.82-.92,2.5-1.83,1.75-2.33,4.34-1.24,6.52-1.24q114.48-.09,228.94-.14c2.6,0,5.84,1.68,7.9-1.77.84-1.4,1.17.18,1.27.6.38,1.53,3.8,2.31,2.38,3.34-4.53,3.26-1.17,7.61-2.32,11.22A31.68,31.68,0,0,1,323.46,153.74Z"/><path class="cls-164" d="M320.86,276.52q0,8.07.05,16.13c-1.35,1-.83,2.51-1.23,3.77-1.63,1.68-1.95,4.11-3.41,5.89h0c-1.07.41-2.24.7-2.4,2.12l-3.09,2.7c-8,3.54-16.4,2.74-24.74,2.75-26.55,0-53.09-.09-79.64.1-4.26,0-5.78-.88-5.64-5.44.27-8.16.39-16.34.18-24.51,0-1.29-.91-3.34,1.68-3.51.63.86,1.62,2.91,2,2.27,2.25-4.15,5.94-2.16,8.84-2.17C249.24,276.46,285.05,276.52,320.86,276.52Z"/><path class="cls-165" d="M432.33,409.22v-12.5h-1.88c.2,2.59.44,5.18.55,7.77.05,1.1.2,2.67-1.45,2.6-1.33-.05-1.95-1.24-1.52-2.58,1.65-5.14-1.85-5-5.12-5l-209.28,0c-2.63,0-5-.21-5.42,3.52-.21,1.91-2,3.15-4.21,4.2-.11-4.13,1.58-7.64,1-11.33-.21-1.31.07-3.1-1.83-3s-1.65,1.84-1.67,3.17c-.07,3.7-.09,7.4-.13,11.11-1.7-5.14-.48-10.42-.78-15.63-.21-3.55,2.53-2.78,4.49-2.79,12.67,0,25.34,0,38,0q31,0,62,0c2.31,0,4.68.4,6.9-.67,1.74-1.39,3.59-.91,5.44-.29,10.75-.31,20.44-4.55,30.28-8.2a9.82,9.82,0,0,1,8.35-.19c2.65,1.18,5.71.83,8.63.82,19-.07,38.06,0,57.08,0,2.51,0,5.07-.17,7.43,1,.5.47,1.31.77.92,1.72.69.05.26-.46.24-.6-1.82-11.16-1.14-22.4-.95-33.63.05-4.49-.18-9,.13-13.46.13-1.9-.44-4.61,2.89-4.7.84,16.23.12,32.46.39,48.69,0,2.1-.46,4.26.48,6.29C433.27,393.35,434.68,401.36,432.33,409.22Z"/><path class="cls-166" d="M431,349.13v35.1c-.49-.27-.94-.38-1-.59a8.85,8.85,0,0,1-.17-1.71c-1.57-1.73-1.57-3.88-1.69-6-.41-7.39-2.52-9.61-9.92-9.79-9.5-.22-19,0-28.52-.08-2.9,0-5.89.12-8.15-2.27a32.7,32.7,0,0,0-3.51-4.11C377,356.58,380,355,380.6,352.5a173.88,173.88,0,0,0,12.7-22.18c1.15-2.32,3.23-3.65,5.54-2.91,7.42,2.35,15,1,22.48,1.33s8.36,1.39,8.6,9.07C430,341.58,428.78,345.55,431,349.13Z"/><path class="cls-167" d="M77.3,463.92c-2.45-5.32-.59-10.95-1.16-16.4.31-4.24,3.1-5.24,6.76-5.27,8.31-.07,16.63,0,24.94,0,6.33,0,12.68.35,18.81-1.78A219.81,219.81,0,0,0,140.71,465c-.69,2.92-2.54,3.66-5.46,3.64-16.37-.13-32.75-.1-49.12,0-3.16,0-5-.72-5.44-4.42C80.32,460.82,78.77,460.29,77.3,463.92Z"/><path class="cls-168" d="M76.13,275.34c4.05,2.14,8.41,1,12.63,1.12,7.59.18,15.18,0,22.77.08,3.52,0,5.34-.88,3.81-4.77-.59-1.49-1.35-3.41,1.71-2.27a277.52,277.52,0,0,1,.08,40.88l-2.35.09c-9.19-1.33-18.44-.24-27.66-.6-4-.16-8.09.38-12.12-.31-1.37-7.23-.26-14.53-.58-21.79C75.89,283.75,73.68,279.23,76.13,275.34Z"/><path class="cls-169" d="M381.84,362c1.26,2.75,3.75,2.33,6.06,2.34h27.46c13.69,0,14.51.79,14.51,14.06v3.51c-22.91,0-45.83-.31-68.73.24-5,.12-8.54-4.24-13.45-2.66l11.85-7c3.24,3.32,5.53,1.86,8-1.22a35.08,35.08,0,0,1,4.6-5.08c1.6-1,3.59-.81,5.18-1.81C378.83,363.67,379.49,361.22,381.84,362Z"/><path class="cls-170" d="M126.65,440.44c-1.38,3-3.75,3.68-7,3.64-12.4-.18-24.81.08-37.21-.17-3.19-.07-5,1-6.35,3.61,0-7.41.08-14.83,0-22.24,0-2.85.38-3.83,3.8-3.69,9.93.42,19.9-.12,29.83.28,5,.2,8.58-.77,9.91-6Z"/><path class="cls-170" d="M556.37,421.75c0,4.48,0,8.95,0,13.42-.05,5.53-3.23,8.79-8.67,8.82-7.58.06-15.17-.16-22.75.09-3.9.12-5.38-1.34-4.88-5.08a1.88,1.88,0,0,0,0-.58c-.7-3.05,1.54-8.71-1.43-8.74-4.23,0-1.27,5.23-2,8.09-.56,2.14-1.06,3.48-3.34,1.75-1.48-1.12-1.82,1-2.91.87q3-9.36,5.92-18.72c1.94-1.48-.09-4.15,2.2-6.21,3.71,5.7,9.57,4.49,15.08,4.54s10.86-.06,16.28,0C552.12,420.08,554.54,419.85,556.37,421.75Z"/><path class="cls-171" d="M431,349.13c-4.07-1.15-2.21-4.51-2.25-6.83-.26-13.23,1.3-11.88-11.86-11.89-4.84,0-10,1.28-14.42-.09-3.47-1.08-6.09-2-9.21,0q2.46-8.16,4.91-16.32c1.25-2,.64-4.23,1-6.34.09-1,.17-2,.26-3.05,1.29-1.87-.31-4.29,1.16-6.12a1.58,1.58,0,0,1,1.62.54c2.89,8.67,2.89,8.67,12.24,8.68,2,0,3.9-.12,5.84,0,4.14.31,6.89-.48,6-5.68a3.88,3.88,0,0,1,3.19-4.82,3.31,3.31,0,0,1,2.23,1.69c1,3.53-.18,7.26,1,10.78-.63,6.88,1,13.82-.53,20.69C429.75,336.51,431.66,342.9,431,349.13Z"/><path class="cls-34" d="M556.37,421.75c-10.33,0-20.67-.12-31,.07-3.62.07-6.12-.76-6.66-5.24-1.69,1.72-.16,4.37-2.44,5.09q1.35-9.93,2.69-19.87c1.48-1.86-.74-4.71,1.69-6.32,7.22,3,14.86,2.54,22.37,2.2,6.16-.28,11.1,1.06,14.16,6.81C558.06,410.3,559.31,416.13,556.37,421.75Z"/><path class="cls-172" d="M400.72,298.78c-.44,1.94.63,4.19-1.22,5.83l-.15-53.88c-.6-10.63-1.21-21.27-.62-31.92.47-8.57-.35-17.09-.48-25.63a31.78,31.78,0,0,1,1.1-10.36c.57-4.86.42-9.88,3.45-14.13,7.07-3.45,14.65-2.86,22.16-2.76,2.29,0,4.7-.17,6.51,1.75.25,7,0,13.93-.05,20.9,0,1.91,0,4.23-2.23,4.92-2.41.75-3.48-1.32-4.22-3.1-1.06-2.54-2.94-3.41-5.5-3.45-4.08,0-8.16,0-12.24,0-3.45,0-4.86,1.61-4.87,5,0,5.25.11,10.5,0,15.75-.41,8.37.43,16.75,0,25.12-.07,2.56.27,5.13,0,7.69-.19,7.39-.05,14.79-.06,22.18-.18,9.47.22,18.93.18,28.39C402.42,293.73,402.64,296.5,400.72,298.78Z"/><path class="cls-173" d="M153.49,268.3a17,17,0,0,1,3.3-1.08c9.15-1.06,9.49-.72,9.5,8.5q0,17.26.08,34.54c-13.1,1.93-13.13,1.93-13.09-11C153.31,288.94,153.41,278.62,153.49,268.3Z"/><path class="cls-174" d="M431,167.58c-5.2,0-10.41-.16-15.6.06-3,.12-6.31-1.36-8.6,2.66-1.24,2.17-2.64-1-4-1.61a26.85,26.85,0,0,1,28.36-11.88c3.47.69,2.29,3.11,2.29,5q.14,31.91.1,63.82,0,77,0,154c0,1.94-.19,3.88-.3,5.81-1.75-1.79-1-4.05-1-6.1-.08-16.3-.07-32.6-.09-48.9V309.3c-1.18-5,.07-10.24-1.6-15.18.09-5.88-.43-11.75-.09-17.63q-.3-9.45,0-18.91c-.05-15.49,0-31-.09-46.47C429.94,196.59,431.76,182.1,431,167.58Z"/><path class="cls-175" d="M75,403q-.13-7-.26-14c13.4-.11,26.8-.17,40.2-.35,2.44,0,3.54.69,3.43,3.3-.16,4.07-.06,8.15-.07,12.22-10.23-8-22.19-3.62-33.39-4.63-2.56-.23-3.94,1.21-4.06,3.84-.06,1.32,0,3.07-2,2.74-1.82-.29-1.44-2.05-1.46-3.34,0-3.42,0-6.85,0-11.47C74.93,395.82,77.67,399.88,75,403Z"/><path class="cls-176" d="M517.83,50.33V77.14l-1.29,0c0-6.62-.21-13.25.08-19.85.19-4.21-.89-6-5.48-5.78a197.15,197.15,0,0,1-19.9,0C487,51.34,486,53,486,57c.2,12.29.07,24.59.07,36.88V402.39c-1.78-2.16-1.13-3.92-1.13-5.5q-.06-169.78-.17-339.56c0-5.8,1.77-7.27,7.27-7,8.57.42,17.17,0,25.75,0Z"/><path class="cls-147" d="M469.42,50.51c.11,1.54.33,3.09.33,4.64q0,170.69,0,341.38c0,1.36-.14,2.72-.22,4.08-1.72-1.82-1-4.09-1-6.15q-.06-168.87,0-337.75C468.55,54.64,467.87,52.39,469.42,50.51Z"/><path class="cls-177" d="M75.13,287q0,11.13.05,22.28c.27.29.35.57.21.82s-.25.36-.36.36l-1.24-.17L73.61,219c-.88-11.63.4-23.31-.54-34.89-1-11.81.7-23.48.56-35.21v-3.6a5.51,5.51,0,0,1,0-7c0-11.64.07-23.29.2-34.93,0-2.06-.68-4.32,1-6.11q0,39.6.08,79.19c0,3.3.14,6.59.21,9.89,1.86,2.15,1.4,4.79,1.41,7.27,0,16.78.88,33.6-.23,50.3C75.4,258.29,76.37,272.68,75.13,287Z"/><path class="cls-178" d="M424,504.88c-3.3.19-6.6.53-9.89.53q-95.82,0-191.63,0c-3.1,0-6.21-.35-9.31-.53,1.75-1.87,4-1.1,6.08-1.1q99.33-.06,198.67,0C420,503.78,422.26,503,424,504.88Z"/><path class="cls-179" d="M417.76,425.11H217.07v-.58H418Z"/><path class="cls-180" d="M202.63,276.51c-2,5.93-.77,12.09-1,18.1-.52,14.68-.17,14.7,14.37,14.7h76.13c4.84,0,9.81.61,14.15-2.34,1.61-1.09,3,.23,4.49.16-3.67,3.07-8.08,3.63-12.61,3.63-31,0-62-.07-93,.12-4.17,0-4.73-1.56-4.7-5.11.11-12.86-.06-25.73-.12-38.59C203.35,269.74,202.51,273.24,202.63,276.51Z"/><path class="cls-181" d="M317.41,387.71,312,388l-103-.25h-7c2.1-1.63,3.7-1.11,5.18-1.11q52.38,0,104.75,0C313.76,386.64,315.83,386,317.41,387.71Z"/><path class="cls-182" d="M519.08,193.35l1,0c2,2,1.82,4.61,1.83,7.1,0,7,.19,14-.11,20.94.11,12,.34,24,0,36,.05,6.18.24,12.37,0,18.55,0,4.86.15,9.73-.12,14.59a6.8,6.8,0,0,1-.85,3,1.26,1.26,0,0,1-1.73.54Z"/><path class="cls-183" d="M300.63,312.66H203v-.57h97.85Z"/><path class="cls-184" d="M372.47,366.7c-1.28,5.08-6.37,7.07-9,11.06-.73,1.1-2.12.37-2.51-1s.21-3.16-1.38-4.19a149.51,149.51,0,0,0,21.06-20c.87,2.91-2.23,4.56-2.27,7.17l-.36.7C376.07,362.42,373.57,364,372.47,366.7Z"/><path class="cls-185" d="M399.35,182.82v67.91c-1.41-1.17-1.23-2.82-1.08-4.31,1.06-10.58-2.3-21.07-.16-31.75,1.53-7.63-1.4-15.34-1.08-23.1C397.17,188.43,397.35,185.41,399.35,182.82Z"/><path class="cls-186" d="M483.9,49.8c.68-2,2.37-1.68,3.88-1.68,9.11,0,18.23,0,27.34,0,2.57,0,4.69.42,5,3.54,3.29,8.21,1.62,16.65,1.16,25a7.9,7.9,0,0,1-1.2,1.88c-2.49-1.42-1-3.77-1.21-5.65-.66-7.51,1.08-15.12-1-22.57h0C506.53,48.62,495.21,49.66,483.9,49.8Z"/><path class="cls-187" d="M520.07,396c-.32,1.95.73,4.16-1.11,5.82q0-31.6.08-63.22a1.34,1.34,0,0,1,1.8.71c1.93,6.78.66,13.7.91,20.56.12,7.33.26,14.66,0,22C521.28,386.57,523.16,391.57,520.07,396Z"/><path class="cls-188" d="M520,338.58h-1q0-22.24,0-44.5h1c3.14,4.35,1.39,9.32,1.78,14,0,6.22.16,12.45,0,18.68C521.25,330.72,523,335,520,338.58Z"/><path class="cls-189" d="M76.52,311.84h40.22v.56H76.3Z"/><path class="cls-190" d="M117.13,310.38q0-20.44-.08-40.88c.12-1,.32-1.9,1.4-2.28,0,12.67,0,25.33-.21,38C118.22,306.92,119.47,309.1,117.13,310.38Z"/><path class="cls-147" d="M167.29,310.41l.27-42.08c1.41,1.16,1.1,2.79,1.1,4.3,0,11,0,22.05,0,33.07C168.64,307.36,169.2,309.26,167.29,310.41Z"/><ellipse class="cls-191" cx="151.71" cy="289.36" rx="0.39" ry="27.94"/><path class="cls-192" d="M558.34,80.58H520.17V80h38.34Z"/><path class="cls-190" d="M75,310.48l.15-1.18c11.2,0,22.4,0,33.59,0,2,0,4.3-.77,6,1.13Q94.91,311.24,75,310.48Z"/><path class="cls-186" d="M557.55,75.08c1.65.66,1.45,2.3,1.89,3.6a205.24,205.24,0,0,1-26.48,0,1.26,1.26,0,0,1,.29-1.8c5.46-2.27,11.2-.7,16.78-1.21C552.53,75.42,555.1,76,557.55,75.08Z"/><path class="cls-178" d="M167.55,401.83q-.18-6.39-.34-12.78C169.78,393.24,169.17,397.52,167.55,401.83Z"/><path class="cls-157" d="M533,77.39c0,.43,0,.85,0,1.27a46.14,46.14,0,0,1-12.91-.11q0-.58.06-1.17C524.39,74.91,528.67,74.72,533,77.39Z"/><path class="cls-193" d="M154.64,312h10.24l0,.47H154.65Z"/><path class="cls-194" d="M414.66,472.22l6.62-.31,2.7.52C420.8,473,417.63,474.28,414.66,472.22Z"/><path class="cls-180" d="M316.27,302.31c.75-2.19.25-5.1,3.41-5.89A7.44,7.44,0,0,1,316.27,302.31Z"/><path class="cls-163" d="M322.24,161.11c.31-2.53-1.36-5.39,1.3-7.51C323.32,156.14,323.55,158.76,322.24,161.11Z"/><path class="cls-180" d="M313.88,304.42c-.12-.85-2.1-.85-1.17-2s2.34-.86,3.57-.15C315.84,303.43,315.31,304.44,313.88,304.42Z"/><path class="cls-195" d="M399.24,307.66a5.18,5.18,0,0,1-1,6.34C398.3,311.85,398.15,309.66,399.24,307.66Z"/><path class="cls-170" d="M556.37,421.75V404.18a5.61,5.61,0,0,1-.61-6.57c3-1.13,2.87,1.43,3.28,3a30.84,30.84,0,0,1,.08,16.07c.58-1.76.48-3.69,1.49-5.32a1.14,1.14,0,0,1,1.6-.17v10.55c-2.47,4.74-.76,9.81-1.09,14.72-.3,4.39-.07,8.81-1.24,13.22,0-5.44-.24-10.9.07-16.33C560.21,428.94,559.4,425.06,556.37,421.75Z"/><path class="cls-93" d="M324.43,541.26c.34,2.68-3.87,2-3.5,4.65-1.68.51-1.07,5.79-4.7,2.25l1.06-1.2c1.81-2.46-.26-5.56,1.31-8.07C320.44,540,322,541.7,324.43,541.26Z"/><path class="cls-56" d="M298.68,548.31c-.73,6.2-4.64,2.73-7.7,3,.68-2.74,3.45-1.24,4.19-3Z"/><path class="cls-196" d="M318.6,538.89c-.11,2.73-.22,5.45-.36,8.18,0,.06-.31.15-.46.13a1.49,1.49,0,0,1-.49-.24c0-2.56-.07-5.11-.11-7.67.08-.52.17-1,.25-1.58Z"/><path class="cls-106" d="M313.89,548.3c-.13,1.25-.63,2.13-2,2.22a2.15,2.15,0,0,1-2.61-2.21Z"/><path class="cls-197" d="M163.76,569.31h-2c.09-3-1.47-5.49-2.36-8.19,1-1,.28-2.27.66-3.36a2.17,2.17,0,0,1,1.62-1.31c1.07.73,1.82,2.48,3.55,1.12h0c1.16.9-.58,4.12,2.67,3.34,6.16,3.59,12.93,1.62,19.42,2.22,2.35.22,6.35-1.52,6.19,2.91-.14,4.2-4,2.62-6.45,2.75C179.28,569.22,171.5,568.31,163.76,569.31Z"/><path class="cls-198" d="M179.39,549.21,177,552.79c-4,.24-2.75-2.38-2.43-4.48C176.23,548.24,178.11,547.14,179.39,549.21Z"/><path class="cls-199" d="M167.87,560.91c-1.43.17-.68,3.35-2.48,2.29-2.5-1.46.57-3.74-.19-5.63Z"/><path class="cls-200" d="M385.64,553.07c-5.11,1.59-10.35.35-15.51.7-1.65.11-2.6-.66-2.48-2.39.09-1.24-.51-3.3,1.43-3.17,5.79.42,11.78-1.85,17.37,1.23-.39.65-.2,1.63-.77,2C384.84,552.12,384.16,552.49,385.64,553.07Z"/><path class="cls-78" d="M385.64,553.07l-2.28-.16c-1.17-.09-2.72-.29-2.36-1.74.69-2.76,1.81-.23,2.76,0,1.5.37,1.66-1.36,2.69-1.74C387.69,551,387.47,552.2,385.64,553.07Z"/><path class="cls-201" d="M226.74,553.17c-2.36.23-4.94,1.75-6.53-.5-.83-1.16.37-2.67,1.76-3.15C225.06,548.45,225.38,551.48,226.74,553.17Z"/><path class="cls-202" d="M161.64,556.46l-1.17,1.16a8.94,8.94,0,0,1-2.47.24l-7.84-15.46.94-.06c2.27,1.7,4.57,3.09,4.45,6.75-.05,1.25.62,4.61,4.07,4.32C161.09,553.28,161.55,555,161.64,556.46Z"/><path class="cls-203" d="M138.89,553.49c.28-2.35.67-5,3.33-5.27,2.94-.27,3.07,2.74,4.06,5.27Z"/><path class="cls-51" d="M158,557.86c.71-1.23,1.51-1.56,2.47-.24.58,1.47,2,3.19-1.11,3.51C158.58,560.17,157.7,559.26,158,557.86Z"/><path class="cls-204" d="M499,553.86c-2.65-.47-5.65,1.6-7-1.31-.61-1.34.77-4.27,2.92-4.33C498.28,548.12,498.43,551.06,499,553.86Z"/><path class="cls-205" d="M414.52,550.55c1.62-3.67,3.22-3.56,4.79,0C417.69,553.19,416.1,553.07,414.52,550.55Z"/><path class="cls-206" d="M414.52,550.55a3.92,3.92,0,0,0,4.79,0l0,0c-.26,3.2-.68,3.37-5.74,2.31C413.14,551.85,413.83,551.2,414.52,550.55Z"/><path class="cls-205" d="M413.59,553c2-.51,5,1.34,5.74-2.31.69.69,1.71,1.91.92,2.4A5.58,5.58,0,0,1,413.59,553Z"/><path class="cls-207" d="M336.11,550.42c-.07-1.21.21-2.07,1.66-2.3,2.12-.34,2.18,1.46,2.92,2.58,1.35,2.66-.43,2.77-2.29,2.78C336.28,553.49,335.05,552.81,336.11,550.42Z"/><path class="cls-208" d="M336.11,550.42c.2,1.5.87,2.39,2.55,2.37,1.45,0,2-.78,2-2.09,1.18.61,2,1.94.95,2.67a6.24,6.24,0,0,1-6,.23C333.89,552.81,335.34,551.43,336.11,550.42Z"/><path class="cls-166" d="M520,338.58l.05-11.69c4.79-.59,4.55,3,5.31,7,.27-5.41,1.72-7.24,7-5.79,6.34,1.73,13.16,1.38,19.65-.13,5.12-1.19,5.49-1.17,5.87,4.11.11,1.56,0,3.12.09,4.77,1-5.67-1.09-11.7,2.33-18.25,2.36,5.83.23,10.8,1.83,15.33,0,.41,0,.81,0,1.22-1.23,11.88-.21,23.8-.55,35.69v9c-.2,1.32-1,2.32-2.3,2.08-1.55-.29-1.91-1.9-1.94-3.24-.11-5.22-.92-10.39-1.11-15.64-8,4.3-16.53,3.53-25.08,1.69-.56-.12-1.2-.6-1.66-.39-5.1,2.37-7.29-1.09-9.44-4.64Z"/><path class="cls-188" d="M520.1,221.47l-.06-28.1,0-.05c1.6-1.92,1.68-4.26,1.94-6.6.23-2.1.51-4.6,3.49-4.47,2.56.11,2.78,2.36,3.07,4.29a22.43,22.43,0,0,1,.26,4.29c.07-5.87,3.69-7.34,8.58-7.35,6.24,0,12.48,0,18.72,0,2.15,0,4.32,0,6,1.66v22.29c-1.5,3.27.29,6.89-1.37,11-3.25-2.88-2.24-6.39-2.62-9.63-.48,3-.05,5.93-.33,8.81-.35,3.56-1.78,5.27-5.74,4.22a34.43,34.43,0,0,0-20,.2c-3,1-5.74-1.23-8.55.13A3.57,3.57,0,0,1,520.1,221.47Z"/><path class="cls-209" d="M562.19,333.89c-2.57-4-.09-8.69-2.31-12.82,0,5.21.1,10.43,0,15.64-.05,1.74,1,4.83-1.55,4.85-3.2,0-1.67-3.27-1.84-5.11a78.45,78.45,0,0,1-.07-7.95c-9,2.39-17.77,3.56-26.67.09-2.7-1-2.32,1.44-2.65,3.08-.46,2.23,1.57,6.33-1.77,6.29-3.15,0-1.54-4.15-1.61-6.4-.07-2.69-1.52-3.79-3.59-4.67V308.15c8.88-1.47,17.81-.42,26.71-.53,6-.07,12,.61,12.49-7.85,0-.41.59-1,1.84-.69,1.5,5.52-.49,11.55,1.08,17.25Q562.19,325.11,562.19,333.89Z"/><path class="cls-162" d="M520.08,276.52q0-9.37,0-18.74c6.44-2,12.55-4.76,19.51-5.21s13,2.23,19.42,3c-.47-4.26-2.18-8.58,1.58-12.29a1.9,1.9,0,0,1,1.58.48q0,16.4,0,32.79c-2-1.39-2.75,1.14-4.25,1.34-11,1-22,.38-33.05.38A6.91,6.91,0,0,1,520.08,276.52Z"/><path class="cls-210" d="M562.18,243.72h-1.13c-2.59-2.72-1.12-6.34-2.37-10.54-1.85,5.13-5.64,5.24-9.49,5.23-5.25,0-10.5.19-15.73-.08-8.06-.4-13.18-9.24-9.89-16.86.09-1.28,1-2.91,1.89-2.47,7.16,3.37,14.27-1.76,21.38.08,2,.51,4.15-.38,6.08,1.23,2.58,2.14,3.37.34,3.42-2.06.07-3.49,0-7,.06-10.49,0-1.41-.5-3.56,1.9-3.44,1.88.1,1.53,1.95,1.56,3.24,0,3.06,0,6.13,0,10.13,2.37-3.79-.28-7.53,2.31-10.24Q562.17,225.59,562.18,243.72Z"/><path class="cls-211" d="M559.88,276.51c.17-.85.33-1.7.49-2.55l1.82,2.55v5.87a42.43,42.43,0,0,0,0,15.2q0,9.38,0,18.75c-2.72-5.22,0-11-1.66-16.66-1.58,9.64-1.58,9.64-11.52,9.64-7.58,0-15.16,0-22.74,0-2.16,0-4.28,0-6.2-1.17q0-7,0-14.07c0-.78,0-1.56,0-2.34,1.09-.87,1.6-2.19,2.48-3.2,2-2.37,4.22-3,5.89.28,2,3.86,5.27,5,9.18,4.76,5.4-.3,11.14,1.61,15.83-3.3,1.68-1.76,3.38.58,4.44,2.44C559.3,287.32,556.61,281.54,559.88,276.51Z"/><path class="cls-182" d="M523.57,167.58a42.9,42.9,0,0,1,.09-4.68c.24-2,1.85-3.24,2.92-1.24,1.69,3.13,4.17,2.35,6.54,2.37,8.19.08,16.38.07,24.57,0,2.55,0,4.86,0,4.5,3.56-1.49,4.47.22,9.2-.94,13.71-10.21-1.72-20.21-3.09-30.23.4-4.09,1.42-4.94-1.72-5.42-4.78S526.28,170.26,523.57,167.58Z"/><path class="cls-212" d="M523.57,167.58c2,.08,4.53-.72,3.65,3.09a20.11,20.11,0,0,0-.09,6.39c.28,2.82.36,6.62,4.39,2.15,1.17-1.29,2.83-1.08,4.37-1.08,6.61,0,13.21.06,19.82,0,2.1,0,3.76.39,4.83,2.61,1.58-4.44-.95-9.09,1.65-13.08q0,8.77,0,17.54c-8.35,0-16.71.18-25-.07-4.6-.14-7,1.08-6.62,6.17.13,1.64,1.24,4.81-1.37,4.8-2.81,0-1.89-3.22-2-5.21-.12-1.74,0-3.49-.07-5.24,0-1.2-.23-2.5-1.78-2.44s-1.64,1.42-1.65,2.59c0,3.08.61,6.42-3.53,7.57q0-7.59,0-15.19c2.43-3.1-.14-7.85,3.48-10.55Z"/><path class="cls-213" d="M561.05,380.76v-9.37c.38-.52.76-.54,1.13,0l0,39.81h-1.17C558.84,401.06,557.62,390.91,561.05,380.76Z"/><path class="cls-214" d="M562.19,371.4h-1.13c0-10.27,0-20.54,0-30.81,0-1.86-.64-3.93,1.09-5.47Q562.18,353.26,562.19,371.4Z"/><path class="cls-182" d="M523.57,167.58c-1.65,3.35.75,8-3.48,10.55V165C522.93,164.33,522.1,167.25,523.57,167.58Z"/><path class="cls-168" d="M562.19,297.58a21.4,21.4,0,0,1,0-15.2Z"/><path class="cls-215" d="M432.18,69.2c-2.54,4.83-7.07,3.48-11.08,3.48q-164.78,0-329.53.06a31.92,31.92,0,0,1-9.78-1.29,45.91,45.91,0,0,1,14-18.77,2.37,2.37,0,0,0,3,.19c2.72-2.35,7.15-1.59,9.28-5.17.42-.7,1.61-.11,1.76.7,1,5.4,5.24,4.36,8.77,4.36q150,.06,300,.1c5.5,0,9.89-.45,9.68-7.86C434.77,52.45,431.2,61.21,432.18,69.2Z"/><path class="cls-215" d="M533,77.39H520.11q0-12.88,0-25.75c1.71.08,3.44-.23,5,1.08,3.72,3.19,7.39,4.63,10.73-.62,1.25-2,2.76-.61,4,.14,1.61,1,2.61,3,4.84,2.91,6.5,5.23,9.82,12.52,12.94,19.94-.44,2.82-2.63,2.29-4.47,2.3C546.37,77.41,539.66,77.39,533,77.39Z"/><path class="cls-83" d="M520.2,2.31a3.89,3.89,0,0,1-3.48,1.79c-36.46-1.16-72.92-.42-109.39-.46q-158.9-.2-317.81-.05H81.89C85.4,1.87,87.74,2.45,90,2.45q211.59,0,423.18,0c2.34,0,4.68-.07,7-.1Z"/><path class="cls-216" d="M493.91,34.23c-1.74.11-3.48.31-5.23.31H148.2c-1.74,0-3.49-.19-5.24-.29,1.36-2.1,3.51-1.34,5.35-1.34q175.38-.06,350.76,0a5.68,5.68,0,0,1,3.41.9Z"/><path class="cls-107" d="M72.61,181.62c-2.27,2.75-1,6-1.09,9-.19,8.7-.07,17.41-.93,26.1V150c2.06,6.93-.74,14.23,2,21.07A20.46,20.46,0,0,1,72.61,181.62Z"/><path class="cls-217" d="M72.61,181.62V171.11c.6-7.38-1.2-14.88,1-22.18q0,35,0,70.1c-2.12-4.42-.78-9.09-.92-13.64C72.44,197.48,72.61,189.55,72.61,181.62Z"/><path class="cls-56" d="M576.26,76.19c-2.13,0-4.25,0-6.37,0-1.17,0-2.5-.11-2.61-1.61s1.18-1.81,2.37-1.82q6.66-.06,13.31,0c1.19,0,2.47.3,2.31,1.87s-1.49,1.54-2.65,1.56C580.5,76.22,578.38,76.19,576.26,76.19Z"/><path class="cls-122" d="M70,278v30h-.59V277.88Z"/><path class="cls-127" d="M67,307.92V277.79h.58v30Z"/><path class="cls-57" d="M569.34,24.68c.18,1.32,1,3.15.42,3.85-1.28,1.54-2,4.16-4.54,4.08-1.92,0-2.15-1.44-.93-2.79.61-.68,1.89-.89,2.25-1.61.7-1.4,1.14-2.89,2.71-3.61Z"/><path class="cls-93" d="M69.42,264.47V245H70v19.62Z"/><path class="cls-59" d="M73.65,138.29q0,3.53,0,7c-1.55.1-3.63,1.26-3.38-1.92C70.45,141,69.56,138.05,73.65,138.29Z"/><path class="cls-127" d="M67.05,264.75V245.17h.52v19.58Z"/><path class="cls-59" d="M103.71,41.48c2.4-.89,2.17-4.9,5.36-4.67.48,0,1.4,1.42,1.25,1.66C108.92,40.78,106.68,41.72,103.71,41.48Z"/><path class="cls-103" d="M4.68,300.21v9.37C2.83,305.9,3.74,303,4.68,300.21Z"/><ellipse class="cls-218" cx="72.04" cy="107.85" rx="0.39" ry="6.55"/><path class="cls-122" d="M82.28,62.41c.3.72.66,1.18.65,1.64,0,.86-.6,1.35-1.4.9a1.65,1.65,0,0,1-.4-1.41C81.21,63.17,81.77,62.89,82.28,62.41Z"/><path class="cls-219" d="M515,35.21c-.58-.36-1.29-.55-1.38-.9-.24-.94.51-1.3,1.27-1.2a1.47,1.47,0,0,1,1,.93C516,34.36,515.39,34.76,515,35.21Z"/><path class="cls-220" d="M73.17,84c-.15-.89-.43-1.49-.25-1.88s.83-.41,1.28-.6c.11.34.41.78.3,1A9,9,0,0,1,73.17,84Z"/><path class="cls-221" d="M76.14,138.3c2.12,2.06.78,4.68,1.17,7,0,4.87.1,9.75,0,14.62-.08,3,1,4.38,4.06,4.14,1.55-.12,3.12,0,4.67,0q113.13,0,226.25,0c9.73,0,8.59-1.09,8.68,8.79,0,1.76,0,3.51-.06,5.26-2.24,2.05-5.05,1.86-7.76,1.86q-111.69,0-223.37,0C81,180,78.25,178,76.14,171.1Z"/><path class="cls-212" d="M76.14,171.1c3.18,4.62,7,7.17,13.19,7.15q115.77-.3,231.54-.12,0,3.51,0,7c-3.2,2.67-7.06,1.86-10.69,1.86q-110.36.08-220.72,0c-4.09,0-8.19.46-12.27-.19l-1.05-.52Q76.13,178.71,76.14,171.1Z"/><path class="cls-222" d="M75.13,287q0-50.35.05-100.69l.95,0h0c2,2.11,1.68,4.78,1.7,7.36-.33,8.07.43,16.14,0,24.22,0,7.36-.18,14.72,0,22.08-.06,3.67.8,7.49-1.73,10.76q0,12.3,0,24.6C75.68,279.22,77.15,283.27,75.13,287Z"/><path class="cls-163" d="M331.57,130.14c-1,.28-2.19,1-2.63-.69a2.21,2.21,0,0,1,.26-1.31c1.3,0,1.83,1.05,2.35,2Z"/><path class="cls-223" d="M76.14,250.74V240.2c2-3.48-1.2-7.84,1.9-11.14,1.23-.28,2.68-.19,3.16.9,2.44,5.63,7.36,4.83,12,4.83q108.51,0,217,0c3.63,0,7.48-.81,10.68,1.86,0,2.74,0,5.49,0,8.23a3.25,3.25,0,0,0-.41.42c-1.79,2.53.89,6.51-1.74,8.15-3.15,2-7.22.72-10.87.73q-104.69.08-209.36,0C90.87,254.24,83,255.43,76.14,250.74Z"/><path class="cls-224" d="M76.14,193.35v-7c2.29-1.45,4.86-1.17,7.38-1.17H320.86q0,7.64,0,15.27a4.18,4.18,0,0,0-.53,2.82c.4,3.63-.69,5.23-4.54,3.67s-7.68-1.13-11.57-1.13H86.52c-9.48-.08-9.49-.08-9.78-9.62A4.69,4.69,0,0,0,76.14,193.35Z"/><path class="cls-210" d="M320.86,236.69H88.21c-3.83,0-8.21,1.05-7.66-5.41.14-1.71-1.92-1.51-3.24-1.62-1.36-8.51-.21-9.93,8.55-9.93q112.28,0,224.55-.06c2.81,0,5.91,1,8.34-1.45a1.88,1.88,0,0,1,2.11-.26Z"/><path class="cls-225" d="M320.86,218h-1.09c-2.07,1.92-4.66,1.74-7.19,1.74H83.32c-2.53,0-5.12.18-7.19-1.75q0-12.28,0-24.59a6.37,6.37,0,0,1,1.06,2c1.11,8.56,1.09,8.56,9.61,8.56h222.8c3.3,0,6.71-.45,9.05,3,2.11-2,0-5,2.22-6.5Q320.87,209.18,320.86,218Z"/><path class="cls-180" d="M315,296.73c0,.8-.23,1.38-.91,1.09a1.87,1.87,0,0,1-.9-1.18.71.71,0,0,1,.95-.88C314.49,295.9,314.73,296.47,315,296.73Z"/><path class="cls-184" d="M381.84,362l-3.51,3.51c-1.77-1.95-1.46-3.9,0-5.86C380,359.66,381.74,359.64,381.84,362Z"/><path class="cls-166" d="M378.33,359.67v5.86c-1.64,2-3.88.89-5.86,1.17C372.39,363.07,373.38,361.88,378.33,359.67Z"/><path class="cls-164" d="M432.18,276.52q0,8.79,0,17.58c-1.26,1.34.13,3.32-1.13,4.67l-1.17-1.18c-1.75-1.62-1.36-3.9-2-6.11-1,5.53-1.28,12.08-8.71,12.08-6,0-13.49,3.49-17.38-4.79h-1q0-18.11,0-36.21c4.29,1.77,2.39,5.6,2.55,8.52.17,3.18.12,4.79,4.36,4.11,6.5-1,13.19-.16,19.79-.53A6,6,0,0,1,432.18,276.52Z"/><path class="cls-195" d="M401.76,298.77c5.42,5.88,12.49,3.26,18.86,3.16a5.55,5.55,0,0,0,4.72-5.85c-.18-3.16-.19-8.41,2.82-8.26,3.44.17,1,5.2,1.69,8a7.86,7.86,0,0,1,0,1.75c-3.18,1.74-2.62,4.44-1.71,7.1,1.14,3.35,0,4.73-3.47,4.64-4.08-.11-8.16,0-12.24,0C402.59,309.31,401.79,308.52,401.76,298.77Z"/><path class="cls-195" d="M431,298.77c.17-1.61-.54-3.43,1.13-4.67q0,7.61,0,15.2C429.88,306,431.55,302.26,431,298.77Z"/><path class="cls-226" d="M556.37,397.16v7c-.76-.11-2.09,0-2.2-.35-2-5.77-6.78-4.23-10.92-4.32-2.91-.06-5.82-.05-8.73,0-5.13.09-10.36.66-14.45-3.53q0-7,0-14.05c4.7-2,4.39,1.89,5.48,4.84-.11-5.4,3.14-6.28,7.28-6.57,6.86-.46,14,1.55,20.55-2.2,1.72-1,3.6.05,3.91,2.18C558.11,385.88,559.38,391.65,556.37,397.16Z"/><path class="cls-224" d="M431,167.58c1.78,1.53,1.13,3.6,1.13,5.47,0,12.63,0,25.26,0,37.9-.9,4,0,8.76-4.88,11a4.49,4.49,0,0,1-2,.12c-5.46-1.87-11.12-1.08-16.7-1.25-7.18-.22-7.39-.45-7.46-7.62,0-1.9.43-3.87-.46-5.71,0-5.84.11-11.69-.18-17.52-.21-4,1.41-5.07,5.11-4.9,5.25.24,10.52.18,15.77,0,3.24-.1,5.37.52,5,4.4-.14,1.4.31,3.19,1.85,3.16,2.38,0,1.49-2.27,1.58-3.64C430.3,181.88,428.86,174.63,431,167.58Z"/><path class="cls-162" d="M432.18,276.52c-9.83.64-20-1.93-30.05,2.16-1.62-4.79,1.11-10.77-1.4-16.11q0-11.13,0-22.26c3,.52,2.42,3.09,2.56,5a51.43,51.43,0,0,1-.07,9.81c7.16-4.53,15.19-1.86,22.84-2.27,3.23.18,4.33,3,6.13,4.94Z"/><path class="cls-227" d="M427.52,254.25c-5.22,0-10.45.1-15.67,0-4.59-.11-9.12-.4-8.29,7.11-3.52-7.24,0-14.54-2.84-21,0-2.38,0-4.75,0-7.13a2.22,2.22,0,0,1,2.65-.55c5.06,3.51,10.8,2,16.29,2.4,3.9.26,5.73-1.05,5.19-5.3-.35-2.8-.72-5.83,1.48-8.27h1.17c5.91,6.54,3.18,14.36,2.93,21.69C430.33,246.91,432.15,251.55,427.52,254.25Z"/><path class="cls-228" d="M426.35,221.46c0,2.92-.69,6.06.16,8.71,2.17,6.75-1.46,7-6.35,6.54a28.66,28.66,0,0,0-5.24,0c-5.16.48-10-.17-14.18-3.53l0-25.67c1.05.83,1,2,1.05,3.19.43,8.42.46,8.11,9.06,8.53C416,219.49,421.74,216.94,426.35,221.46Z"/><path class="cls-228" d="M427.52,254.25a171.23,171.23,0,0,0,2.42-24.14c.17-3.3-3.47-5.28-2.42-8.65,1.13-3.69,4.16-6.54,4.65-10.51q0,23.42,0,46.82C428.58,259.32,430.19,254,427.52,254.25Z"/><path class="cls-187" d="M523.57,221.46c-1.9,5.7,3.48,9.12,4.49,14,.36,1.7,3,1.25,4.74,1.26,6,0,12-.06,18,0,3.13,0,6,.12,5.6-4.34a2.1,2.1,0,0,1,2.41-2.53c1.8.09,2.16,1.34,2.17,2.82,0,3.68,0,7.37,0,11.05-2.34,3.58-.63,7.57-1.17,11.33-.13.86-.31,1.72-.46,2.58-2-5-4.66,4.49-6.36-.19-1.3-3.58-4-3.47-6.63-3.11-5.68.8-11.83-2.29-17.25,2.75-.93.87-5.9,1.92-9.09.71q0-18.15,0-36.31Z"/><path class="cls-168" d="M559.88,276.51c0,5.82,0,11.63,0,17.45,0,1.31.26,3.07-1.56,3.26s-1.78-1.54-1.93-2.87.41-3-1.42-3.39c-2-.42-1.79,1.45-2.31,2.6-.28.62-1,1.46-1.55,1.45-6.73,0-13.52,1.27-20.16-.8-.36-.11-.88-.28-1-.55-2.31-5.76-5.75-5.52-9.86-1.92V276.52Z"/><path class="cls-169" d="M556.37,397.16c0-5.24,0-10.47,0-15.71,0-1.94-1.18-4.36-2.84-1.93-2.11,3.07-4.59,2.3-7.11,2.37a132.49,132.49,0,0,1-13.37,0c-4.44-.33-6.65,1-6,5.76a22,22,0,0,1-.3,4.42c-3.34-1.26-3.24-3.79-3.14-6.17.1-2.56-.58-4.2-3.52-3.94q0-11.12,0-22.25c1.32.1,2.93-.22,3.31,1.61.74,3.56,2,4,4.28,1,.59-.8,1.52-1.38,2.48-.54,6.09,5.31,13.35,1.53,20,2.56,1.59.25,2.42-.78,2.74-2.36.21-1.05.9-2.86,1.94-.89.74,1.41,2.88-1,2.85,1.79,0,5.19,1.59,10.31,1.06,15.58-.15,1.56-.32,3.42,2.32,2.35v30.45c-.5,3-1,6-1.52,9.05C558.43,412.56,559.56,404.56,556.37,397.16Z"/><path class="cls-229" d="M190.32,566.26a2.19,2.19,0,0,1-2.19,1.78c-.6.05-1.38-.24-1-.9a5.93,5.93,0,0,1,2.07-1.79C189.35,565.26,190,566,190.32,566.26Z"/><path class="cls-230" d="M184.68,566.1c-1.67,1.25-2.91.88-5.36.53C181.57,565.77,182.61,564.81,184.68,566.1Z"/><path class="cls-231" d="M171.23,568.26l-7.15-.43C166.72,566.81,168.32,566.66,171.23,568.26Z"/><path class="cls-78" d="M377.12,552.7h-4.77C374,551.12,375.49,552,377.12,552.7Z"/><path class="cls-232" d="M76.13,217.94H319.77c0,1.93-.34,3.53-2.81,3.49-1.56,0-3.12,0-4.68,0h-227c-7.92,0-7.92,0-8,8.2-.53,3.5,1.17,7.25-1.17,10.54Q76.14,229.07,76.13,217.94Z"/></g></g></svg>