<svg xmlns="http://www.w3.org/2000/svg" viewBox="0 0 914.29 926.88"><defs><style>.cls-1{fill:#d92827;}.cls-2{fill:#d92927;}.cls-3{fill:#030202;}.cls-4{fill:#260f0e;}.cls-5{fill:#1d0c0c;}.cls-6{fill:#351311;}.cls-7{fill:#621310;}.cls-8{fill:#4a1412;}.cls-9{fill:#411311;}.cls-10{fill:#531411;}.cls-11{fill:#651410;}.cls-12{fill:#a92023;}.cls-13{fill:#b02124;}.cls-14{fill:#37110f;}.cls-15{fill:#31110f;}.cls-16{fill:#6f1513;}.cls-17{fill:#0d0e0e;}.cls-18{fill:#67b846;}.cls-19{fill:#fff;}.cls-20{fill:#fbed26;}.cls-21{fill:#faed26;}.cls-22{fill:#fcfbfb;}.cls-23{fill:#68b745;}.cls-24{fill:#fcfcfb;}.cls-25{fill:#4a3f29;}.cls-26{fill:#fbec25;}.cls-27{fill:#fefefe;}.cls-28{fill:#fcfcfc;}.cls-29{fill:#fdfcfc;}.cls-30{fill:#fdfdfd;}.cls-31{fill:#f7f6f6;}.cls-32{fill:#f8f7f7;}.cls-33{fill:#f6f5f5;}.cls-34{fill:#f5f4f4;}.cls-35{fill:#f8f8f7;}.cls-36{fill:#f5f4f3;}.cls-37{fill:#f5f5f4;}.cls-38{fill:#f4f3f3;}.cls-39{fill:#fbfbfb;}.cls-40{fill:#fafafa;}.cls-41{fill:#faf9f9;}.cls-42{fill:#fafaf9;}.cls-43{fill:#fbfafa;}.cls-44{fill:#f9f9f9;}.cls-45{fill:#f7f7f6;}.cls-46{fill:#f6f6f5;}.cls-47{fill:#f1e828;}.cls-48{fill:#f3f2f2;}.cls-49{fill:#f3f3f2;}.cls-50{fill:#fbfbfa;}.cls-51{fill:#f9f8f8;}.cls-52{fill:#f8f8f8;}.cls-53{fill:#f9f9f8;}.cls-54{fill:#66b545;}.cls-55{fill:#eeedec;}.cls-56{fill:#f1f0f0;}.cls-57{fill:#f0efef;}.cls-58{fill:#ddd42a;}.cls-59{fill:#eae9e8;}.cls-60{fill:#ebeaea;}.cls-61{fill:#0e0e0e;}.cls-62{fill:#0e0f0e;}.cls-63{fill:#10110e;}.cls-64{fill:#151616;}</style></defs><g id="Layer_2" data-name="Layer 2"><g id="Layer_1-2" data-name="Layer 1"><path class="cls-1" d="M512.42.84A855.62,855.62,0,0,1,747.09,48.39c3.12,1.11,4.58,2.6,4.92,5.82,2,19.34,4.48,38.65,6.26,58,3,32.33,4.55,64.76,4.43,97.24-.09,22.13-.47,44.26-2,66.36s-3.88,44.38-7.15,66.43c-7.67,51.8-20.79,102.12-40.58,150.65A582.92,582.92,0,0,1,621.56,645c-45,54.41-97.94,100.11-154.79,141.55-6.86,5-6.89,5-13.57.13-42.89-31.23-83.56-65-120.54-103.16-72.57-74.86-123.21-162.19-150.19-263a714.86,714.86,0,0,1-18.18-92.29,902.43,902.43,0,0,1-7.11-101c-.54-31,.46-61.93,2.49-92.83,1.75-26.55,4.73-53,7.92-79.41.42-3.48,1.74-5.34,5.39-6.53A1010.85,1010.85,0,0,1,317.84,12.24,783.34,783.34,0,0,1,405.46,1.86c4-.23,8-.67,11.94-1,1.61-.63,3.29-.2,4.93-.33h4.93c2.38-.25,4.83.57,7.15-.51h62a7.71,7.71,0,0,0,6,0h4C508.27,1.22,510.5-.09,512.42.84Z"/><path class="cls-2" d="M75.49,925.8H.6L0,924.73c1.84-1.75,3.67-3.51,5.53-5.24,17-15.73,33.93-31.51,51-47.13,2.49-2.28,2.75-3.5.34-6.16-15.86-17.54-31.51-35.27-47.22-53-.52-.58-1-1.22-1.58-2,2-1.07,3.83-.57,5.57-.56,37.48.07,75,.1,112.46.41,4.72,0,5.84-1.39,5.73-5.86-.28-10.84-.07-10.85,10.91-10.85h632.8c6.5,0,6.5,0,6.51,6.36,0,10.26,0,10.22,10.13,10.22,37.65,0,75.3,0,113.73,0-3.07,3.56-5.87,6.88-8.75,10.12q-20.23,22.78-40.54,45.52c-1.34,1.51-2.84,2.53-.46,4.7q29.16,26.55,58.11,53.3v1c-1.73.93-3.6.46-5.39.47q-40.24,0-80.48,0h-114c-8.08,0-16.16.09-24.25-.07-2.83-1.41-2.43-4.14-2.51-6.55-.18-6-.11-12-.06-18,0-3.6-1.47-5.21-5.06-5.07-1.83.07-3.66,0-5.49,0H236.87c-11.57,0-10.53-.68-10.62,10.49,0,4.5.12,9-.09,13.48-.1,2.12,0,4.44-2.38,5.63-11.07.21-22.14,0-33.21.09H122.49C106.83,925.91,91.16,926.54,75.49,925.8Z"/><path class="cls-3" d="M828.33,925.79l86-.16c-.9,2.07-2.7.94-4,.94q-41,.12-82,.06c-.35-.19-.46-.38-.34-.56S828.21,925.79,828.33,925.79Z"/><path class="cls-4" d="M828.33,925.79c0,.28,0,.56,0,.84h-58c-.35-.19-.46-.38-.34-.56s.24-.27.36-.27Z"/><path class="cls-5" d="M75.49,925.8h47c.35.18.46.36.35.55s-.22.28-.34.28h-47C75.5,926.35,75.5,926.07,75.49,925.8Z"/><path class="cls-6" d="M122.49,926.63c0-.28,0-.56,0-.83h37c.36.17.48.36.36.54s-.22.29-.34.29Z"/><path class="cls-7" d="M223.54,925.79a1.71,1.71,0,0,1-.08.84h-33c-.33-.18-.44-.36-.34-.55s.21-.29.32-.29Z"/><path class="cls-8" d="M190.45,925.79c0,.28,0,.56,0,.84h-31c0-.28,0-.56,0-.83Z"/><path class="cls-9" d="M770.35,925.8c0,.27,0,.55,0,.83h-31c-.35-.19-.46-.38-.34-.56s.24-.27.36-.27Z"/><path class="cls-10" d="M739.36,925.8c0,.28,0,.55,0,.83h-25c-.34-.2-.46-.39-.33-.57s.24-.27.36-.27Z"/><path class="cls-11" d="M714.37,925.79l0,.84h-24a1.89,1.89,0,0,1-.08-.85Z"/><path class="cls-12" d="M434.41,0c-2.17,1.79-4.7.78-7.08.9-.28-.23-.37-.44-.25-.63s.23-.27.33-.27Z"/><path class="cls-13" d="M502.4,0c-2,1.6-4,1.44-6,0Z"/><path class="cls-14" d="M512.42.84c-2,0-4.22.87-6-.84h6C512.4.28,512.4.56,512.42.84Z"/><path class="cls-15" d="M422.35.86l-5,0c0-.28,0-.56,0-.84h5c.35.22.46.42.32.6A.53.53,0,0,1,422.35.86Z"/><path class="cls-16" d="M422.35.86a5,5,0,0,0,.07-.86h5a3.87,3.87,0,0,1-.08.9Z"/><path class="cls-17" d="M239.58,516.93c-8.5-16.49-15.19-33.76-21.91-51,3-2.69,6.64-1.5,10-1.66,3-.15,5.17-.6,5.17-4.36s-2-4.34-5-4.5c-4.74-.25-9.68,1.17-14.17-1.47l-1-2.62c1-2.35,3.24-1.89,5.1-2,3.77-.19,7.54,0,11.31-.08,2.5,0,4.94-.22,6.86-2.1a78,78,0,0,0,9.7-12.61c5.08-6.66,10-13.44,15-20.18,2.95-3.53,5.11-7.62,8-11.21,5.52-7.19,10.66-14.66,16.1-21.91,2.3-2.83,4.16-6,6.34-8.88,1.82-3.14,3.85-5.79,8.13-5.36,3.32.34,3.65-2.17,3.69-4.63.11-7.3,0-14.61.05-21.91-.12-3.43,1.54-7.63-3.83-8.78-4.94-2.35-6.48-6.44-5.95-11.6a9.63,9.63,0,0,1,4.8-7.37,9.4,9.4,0,0,0,6.23-5.76c1.85-4.31,5.31-7.39,10.35-7.27s9.15,2.46,10.72,7.4c1.74,5.5,5.9,4.22,9.73,4.26,2.78-.05,5.56-.12,8.34.07,2.31-.16,4.62,0,6.93-.1,5.11-.12,5.57-.51,5.6-5.79.06-10.8.6-21.49,5.82-31.32a90,90,0,0,1,4.93-8.51,117.45,117.45,0,0,1,30.24-27.63q4.69-3,9.26-6.21c2.51-1.82,5.26-3.28,8.84-5.58-4.4,0-7.82,0-11.27.21-5.74-.65-6.68-1.52-6.9-6.95-.17-4.49-.14-9,0-13.49.08-2.33.17-4.74,2.67-6,4.23-1.23,8.57-.53,12.86-.65,3.08-.08,4.56-1.28,4.55-4.46a42.18,42.18,0,0,1,2.7-14.6,54,54,0,0,1,10.28-16.87c8.44-8.14,18.38-12.87,30.21-13.35a7.59,7.59,0,0,1,1.43.1,11.18,11.18,0,0,0,6.84-.13,12.06,12.06,0,0,1,1.47-.34c10.48-.23,20.59,1.1,29.66,6.91,5,3.45,9.8,7.16,13.27,12.28a41.58,41.58,0,0,1,8.16,23.59c.25,6.8.19,6.8,7,6.92.83,0,1.66.06,2.49,0,7.54-.1,8.58.91,8.74,8.33.11,4.93-.19,9.85-.38,14.76-.41,2.89-2.49,3.63-5,3.75-3.3.16-6.6.06-10.45,0,4.22,3.21,8.38,5.67,12.33,8.44,10.37,7.15,20.91,14.06,29.48,23.47a68.79,68.79,0,0,1,6.81,7.75c8.54,10.31,10.27,22.73,11,35.47.11,2,0,4,0,6,0,2.58,1.05,4.12,3.84,4s5.51-.11,8.26-.09c1.83.24,3.66-.05,5.49.06,5.43.32,9.59,0,12.88-6.19,4.72-8.92,15.53-7,20.69,3,.82,4.08,5.27,4,7.49,6.48,4.91,6.59,4.09,12.4-2.79,16.8a7.69,7.69,0,0,0-3.9,7.38c.11,6.79,0,13.6,0,20.4,0,7,0,7,7,8.19,4.54,0,6,3.71,8,6.71,4.66,7.8,9.31,15.61,14.11,23.33,2.19,4.42,5.39,8.25,7.5,12.71a209.74,209.74,0,0,0,15.69,22.52c1.13,5.42,4.37,9.23,9.09,11.93,1.68,3.07,3.93,5.15,7.76,5.06,1.29,0,2.64.53,2.71,2.28l-.66,2c-2.18,1.57-4.71,1.4-7.18,1.42s-4.1,1-4.06,3.79c0,2.38-.13,4.79,3.2,5.13,1.47.15,3,.31,4,1.64-5.4,13-9.72,26.44-16.51,38.85-8.18,4.82-17,8.3-25.54,12.43-4.14,2-8.88.75-13.35,1-1,.05-2,0-3,0-11.17-.24-12.82,2.12-13.82-11.62-.29-4-2.34-3.15-4.71-1.74-12.73,7.57-25.39,15.27-38.13,22.85-6.46,3.85-6.85,3.89-12.7-.93-4-3.27-7.86-6.68-11.64-10.19-2.68-2.49-5-3.06-7.62-.1a33,33,0,0,1-3.46,2.86c-2.77,2.39-5.8,2.4-8-.23-6-7.25-11.76-5.83-18.34-.87-4.5,3.39-9.73,5.77-14.55,8.72-3.47,2.12-6.35,2-9.57-.51-8.4-6.56-17.27-12.49-25.65-19.06-3.17-2.49-6.05-2.89-9.58-.87-3.75,2.14-7.76,3.84-11.59,5.86-3.29,1.74-6.47,1.85-9.33-.53-5.09-4.23-10.39-5.44-16.61-2.52-3.83,1.79-7-.16-10-2.63-9.3-7.62-7.5-6.26-13.16,2.25-4.46,6.69-8.79,13.35-7.64,22.06.46,3.48-1.68,5.17-5.16,5.14-6.42-.05-12.32-1.18-17.8-5.21-11-8.1-8.63-7.06-18.83-.41-12.24,8-10.36,8.51-21-1.49-4.78-4.49-9.3-9.45-15.09-13.39-2.58,5.12-4,10.23-6,15.11-1.41,3.46-3.57,5.41-7.47,5.45-4.16,0-8.19,0-10-4.68-4.51-11.69-13.73-18.85-23.77-25.39-3.29-2.14-6-2.17-9.19-.15-5.76,3.68-12.05,6.39-18.14,9.48C243.47,516.31,241.74,517.5,239.58,516.93Z"/><path class="cls-17" d="M677.21,522.83A452,452,0,0,1,646.33,577c-4.09,3.11-9,4.09-13.78,5.55-3.72,1.15-5.39-1.31-6.92-4.14-2.47-4.57-2.47-4.37-6.32-1.17-6.15,5.1-11.47,11.12-17.82,16-4,3.08-5.5,3-8.79-.88-3.76-4.45-7.41-9-10.9-13.65-2.2-2.94-3.85-3-6,.06-2.64,3.83-5.18,7.74-8,11.46-2.25,3-4.95,4.31-8.65,3.45-3.18-.74-6.14-.89-8.76,1.82-2,2.1-4.28.93-6.31-.48-4.24-2.94-8.61-5.7-12.66-8.89-3.4-2.68-6.28-2.6-9.79.11-8.57,6.59-17.37,12.9-26.13,19.24a10.52,10.52,0,0,1-8.86,2.14c-3.3-.69-6.65-.82-9.75.86s-5.37.86-7.64-1.4c-4.72-4.69-9.51-9.32-14.09-14.14-2.4-2.54-4.92-3.34-8-1.75-10.41,5.33-20.68,5-30.93-.47-1.45-.77-3.15-1.08-4.66-1.78-2.76-1.28-4.94-.65-7.28,1.31-4.21,3.53-8.11,7.39-12.33,10.9-2.94,2.43-5.7,2.85-9.06.7-5.18-3.33-11-5.47-16.32-8.63a5,5,0,0,0-6,.25,5.33,5.33,0,0,0-.8.59c-7.18,8-14.35,6.71-22.75,1.27-10.57-6.85-8.53-6.42-18.13,1.89-5.21,4.51-10.33,6.82-17.17,5-4.3-1.11-9-.33-13.11-2.43a605.39,605.39,0,0,1-39.69-64.23c-1.15-2.2-2.21-4.44-3.31-6.66.44-1.84,1.93-2.64,3.42-3.4,4.73-2.45,9.56-4.72,14.28-7.18,3.18-1.66,6-1.33,8.9.64,4.73,3.21,9,6.69,11.62,12.06,1.94,4,4.54,7.76,6.6,11.75,1.75,3.41,4.29,5,8,4.58a141.06,141.06,0,0,1,17.43-1c3,.05,4.22-2.06,5.24-4.53,2.85-6.9,4.37-7.23,9.71-2,3.11,3,6.76,5.44,9.69,8.64,2,2.22,4.12,2.36,6.61.63,4.52-3.13,9.14-6.11,13.72-9.15,2.64-1.76,5.48-2.21,7.86-.08,7.76,6.94,17.47,6.6,26.84,7.54a70.56,70.56,0,0,1,7.94.73c3.32.7,4.59-.76,4.54-4-.08-4.66,0-9.32,0-14a16.06,16.06,0,0,1,1.43-7.29c2.37-4.8,4.55-5.61,8.84-2.57,3,2.16,6.1,1.86,9,.54,5.85-2.67,11-1.87,15.62,2.38,3.86,3.51,7.82,3.76,12.22.86,2.35-1.55,5.19-2.35,7.55-3.88,5.14-3.35,9.49-2.37,14.07,1.35,7.48,6.1,15.72,11.24,23.21,17.35,3.66,3,6.73,3.11,10.77.61,6.08-3.77,12.36-7.23,18.42-11,3.67-2.32,6.8-2.19,9.9.77.47.46,1,.88,1.5,1.31,7.14,6.05,7.18,6.1,14.61.2,2.69-2.13,5.05-2.1,7.58.13,4.12,3.63,8.42,7.07,12.47,10.76,2.82,2.56,5.2,2.66,8.41.67,9.77-6,19.66-11.91,29.53-17.78,5.43-3.23,5.76-3.18,8.38,2.34a4.19,4.19,0,0,0,4.32,2.62c10.16,0,20.33.22,30.48-.11,5.32-.18,9.8-3,14.47-5.19C672.77,523.14,674.69,521.2,677.21,522.83Z"/><path class="cls-17" d="M361.14,683.53a591.73,591.73,0,0,1-61.59-69.43c2.73-2.24,5.83-.84,8.5-.31,4.6.9,8-.45,11.41-3.32,9.38-7.81,9.33-7.49,20.13-1.8,12.36,6.51,8.4,7.45,19.82-1.17,3.38-2.56,6.38-2.69,10.1-.79,5.35,2.73,10.5,5.8,15.82,8.55,3.31,1.71,6,1.43,8.5-1.33,3.47-3.84,7.94-6.6,11.45-10.41,2.57-2.8,5.59-3.36,9.08-2,1.25.48,2.61.69,3.79,1.28,8.38,4.2,16.79,4.85,25.45.75,3.4-1.61,6.41-.6,9,2.07,5.16,5.21,10.44,10.3,15.51,15.59,2.1,2.2,4,2.64,6.49.81,4.68-3.46,9.64-5,15.4-2.55,2.77,1.17,5.09-.47,7.33-2.08q12.38-8.9,24.57-18c3.34-2.5,6.13-2.63,9.42-.05,4.71,3.69,10,6.59,14.73,10.31,2.9,2.28,5.49,2.28,7.61-.92,2.49-3.79,5.9-4.66,10-3.31,4.43,1.47,7.06-.36,9.46-4.08,5.23-8.12,6.44-8.08,12.44-.64,2.3,2.86,4.66,5.67,6.85,8.6s4.45,3.15,7.08.67c5-4.69,9.92-9.37,15.08-13.85,2.58-2.25,4.78-4.28,7.85-.58,1.77,2.14,4,.49,6,0,1.6-.39,3.19-1.13,4.81-.07-2.84,6.47-7.66,11.6-11.82,17.15a512.65,512.65,0,0,1-36.85,44c-6.39-4.78-11.49-1.4-16.84,2.32-6.14,4.27-12.72,7.91-19.08,11.87s-9.56,2.14-9.69-5.42c-.08-4.16-.12-8.33,0-12.49.11-3.76-1.26-4.21-4.5-2.79A138.33,138.33,0,0,0,521,656.48c-5.25,3-9.74,2.45-14-1.8-1.64-1.65-3.58-3-5.32-4.53-2.61-2.31-4.27-1.8-5.67,1.25q-5.1,11.11-10.33,22.18c-.43.9-.77,1.84-1.19,2.75-3.57,7.67-10.45,8.62-16,1.93s-10.84-13.93-16.19-20.94c-3.84-5-4.69-5.14-9.26-.79-4,3.78-7.69,7.86-12.16,11.11-4.27,3.12-8.44,3.31-12.95.41-2-1.25-3.75-2.76-5.63-4.13-5-3.64-5.13-3.63-9,1.48-1.51,2-3,4-4.51,6-2.31,3.08-5.36,4.3-8.74,2.44-6.78-3.74-12.11-1.62-17.65,2.88C369.11,679.44,366,683,361.14,683.53Z"/><path class="cls-17" d="M565.4,676.79c-22.81,23.37-47.47,44.68-73,65-9.65,7.65-19.51,15-29.25,22.55-1.9,1.47-3.35,2.48-5.95.52-29.38-22.15-58.06-45.12-84.8-70.44-.47-.46-.87-1-1.3-1.5,3.19-6.68,10.83-10.2,17.55-8.08,10.5,3.31,10.59,3.38,17.28-5.14,2.37-3,4.41-3.73,7.91-1.52,8.57,5.4,16.43,4.47,24.08-2.32,9.23-8.19,9.23-8.19,16.74,1.85,1.8,2.4,4,4.6,5.37,7.18,3.6,6.58,9.51,8.09,16.27,8.44,11.57.6,11.57.68,16.64-9.75,2.18-4.49,3.84-9.22,6.34-13.56,2.36-4.08,3.92-4.75,7.39-1.61,4.14,3.76,7.68,3,12.12.74,9.06-4.64,10-4,10,6.12.05,6.48.1,6.25,6.41,7.58,7.73,1.64,14.74.93,21.21-4.08,2.26-1.75,4.56-4,7.94-3.67C565.13,675.39,565.73,675.81,565.4,676.79Z"/><path class="cls-18" d="M334.42,312.51c-1.48.05-3,0-4.45.16-3.29.41-5-.47-5.68-4.2-.88-4.76-4.66-7.2-9.35-7.44s-8.61,2-9.6,6.33-3.14,5.94-7,6.43c-2.17-.77-2.7-2.8-3.49-4.61-14.77-33.72-29.29-67.54-43.89-101.33-19.82-45.87-39.85-91.64-59.47-137.6-.81-1.89-2.45-3.75-1.07-6.07,8-2.76,15.92-5.63,24.26-7.18,4.54,3.61,5.92,9.15,8.2,14q16.94,36.19,33.81,72.42,23,49.35,46.06,98.68c10,21.44,20.1,42.8,30,64.29C333.6,308.35,335.06,310.15,334.42,312.51Z"/><path class="cls-18" d="M633.2,309.24c-4.4-8.69-11.88-10.91-17.64-5.2-.81.8-2,1.8-2,2.74-.18,7.17-5.28,5.92-9.71,5.87l-8.42-.12c.19-5.9,3.71-10.6,6.07-15.6,15.78-33.41,31.21-67,47-100.41,19.51-41.4,38.58-83,58.25-124.34,2.18-4.57,3-10,7.56-13.16,5.88.82,11.18,3.58,16.86,5.06a2.66,2.66,0,0,1,2.23,2.8c.08,3.61,1.51,7.11.85,10.78-2.63,11.09-8.05,21.09-12.51,31.44q-30.18,70.11-60.6,140.12c-7.79,18-15.49,36.06-23.46,54C636.63,305.45,636.5,308.59,633.2,309.24Z"/><path class="cls-18" d="M363.19,274.24c-5.27,10.2-6.13,21.23-5.48,32.37.3,5.23-1.45,6.76-6.34,6.1a65.43,65.43,0,0,0-7.93-.18c-2.81-2.66-3.47-6.39-4.69-9.78Q309.64,222,280.31,141.35,265,99.11,249.81,56.86c-1-2.86-3-5.71-1.56-9.06a173.69,173.69,0,0,1,25.16-6c2.53,1,2.92,3.52,3.72,5.62q23,60.15,45.92,120.34c12.81,33.58,25.7,67.13,38.41,100.75C362.17,270.4,362.66,272.32,363.19,274.24Z"/><path class="cls-19" d="M677.21,522.83c-.16,0-.37,0-.49,0-16.67,11.26-35.57,6.82-53.72,7.65-1.86.09-2.7-.48-2.8-2.45a45.32,45.32,0,0,0-1-5.64c-12.33,7.39-24.33,14.43-36.16,21.75-2.91,1.81-4.78,2.34-7.53-.44-4.33-4.36-9.3-8.06-13.84-12.22-1.9-1.74-3.14-2.2-5.33-.21-2.7,2.47-4.77,7.3-8.47,6.65-3.12-.54-5.9-4.12-8.42-6.75-3.47-3.62-6.43-4.2-10.87-1.05-6.33,4.49-13.38,8-20,12.15-2.51,1.59-4.15,1.57-6.57-.28-9.63-7.37-19.54-14.39-29.19-21.74-2.21-1.68-3.94-1.94-6.23-.52-1.68,1-3.71,1.55-5.31,2.68-8.34,5.89-16.32,6.79-23.92-1.24-1.26-1.35-2.77-1.35-4.53-.62-2.13.89-4.49,1.22-6.62,2.09-3.6,1.47-6.68,1.26-9.33-1.89-2.2-2.63-3.82-2.11-5.4.86a13.44,13.44,0,0,0-2,7c.17,6-.09,12,.12,18,.09,2.79-.89,3.35-3.43,3.08-8.28-.85-16.56-1.57-24.86-2.23-4.57-.36-8.19-2.67-11.46-5.51s-5.78-3.15-9.32-.24c-4.21,3.45-9.18,6-13.58,9.23-2.45,1.81-4,1.88-6.24-.37-5-4.89-10.27-9.42-15.7-14.35-.48.81-1,1.29-1.05,1.84-1.31,8.1-5.93,11-14,10-4.39-.55-9,.2-13.45.64-3,.3-4.81-.57-6.25-3.42-2.93-5.76-6.37-11.25-9.52-16.9a12.68,12.68,0,0,0-3.43-4.18c-9.18-6.89-9.16-6.9-19.28-1.64-4.11,2.14-8.26,4.21-12.39,6.32l-6-12c8.52-4.42,17.09-8.76,25.55-13.31,2.42-1.31,4.42-1.84,6.56.29a10.25,10.25,0,0,0,2.4,1.78c10.85,5.89,19.05,14.24,23.74,25.76,2.16,5.32,6.63,2.75,10.2,3.31,3.37.52,3.59-2.18,4.38-4.26,2.17-5.68,4.29-11.38,6.67-17.7,7.54,6.85,14.93,13.26,21.94,20.06,2.78,2.7,4.76,3.1,7.89.69,4.2-3.23,8.92-5.78,13.15-9,2.46-1.87,4.23-1.74,6.45.15,1.89,1.61,4.29,2.65,6.06,4.36,5.09,4.9,11.43,5.39,17.95,5.82,3.21.21,4.27-.76,3.78-3.8-2.09-13.12,8-21.18,13.08-31.31.9-1.78,1.85-.62,2.74.08,3,2.37,6.12,4.61,8.95,7.17,2,1.8,3.83,2.27,6.28,1.1,6.9-3.31,13.31-2.9,18.92,2.81,2.22,2.26,4.5,1.8,7.11.41,4.81-2.58,9.85-4.74,14.68-7.29,2.33-1.23,4-1.15,6.19.55,9.5,7.27,19.27,14.19,28.77,21.46,2.24,1.72,3.78,1.77,6.11.32,7.75-4.8,15.7-9.3,23.46-14.1,2.13-1.32,3.55-1.52,5.52.36,3,2.86,6.24,7.13,9.64,7.39,2.78.2,6.08-4.43,8.87-7.2,2-2,3.16-.63,4.54.56,5.28,4.58,10.81,8.91,15.75,13.83,2.8,2.79,4.76,2.14,7.57.43,15-9.14,30.08-18.13,45.5-27.4,2,4.49,1.21,9.07,2.07,13.35.47,2.33.86,3.38,3.52,3.3,6.66-.21,13.32-.14,20,0a11.25,11.25,0,0,0,5.21-1.35c7.16-3.45,14.31-6.94,21.52-10.28,1-.44,2-2.15,3.34-.48C683.38,511.05,680.24,516.91,677.21,522.83Z"/><path class="cls-18" d="M586.41,312.52c-4.62,1.09-5.62-1.06-5.39-5.29.78-14.82-1.36-29-10.58-41.27a11,11,0,0,1,.89-5.34C598.62,189.49,625.61,118.26,653,47.16c.68-1.75.8-4.07,3.37-4.46a199.1,199.1,0,0,1,25,6.42c1.44,1.82.24,3.51-.34,5.16-9.14,25.73-18.49,51.38-27.82,77.05q-18.07,49.75-36,99.57C608,256.27,598.57,281.56,589.63,307,588.92,309,588.28,311.15,586.41,312.52Z"/><path class="cls-18" d="M397.24,239.29a125.4,125.4,0,0,0-29.65,26.82c-2.5-1.39-2.84-4-3.46-6.36-9.43-35.69-19-71.33-28.52-107-9.78-36.8-19.74-73.55-29.36-110.39-.61-2.34-1.87-4.73-.47-7.24,9-2.3,18.21-3.55,27.39-4.88,1.79,1,2.22,2.8,2.75,4.56q30.1,99.83,60.21,199.66A20.12,20.12,0,0,1,397.24,239.29Z"/><path class="cls-18" d="M564.36,258.69c-8.87-8.71-19.16-15.63-29.2-22.86-1.74-4.63,1-8.25,2.75-12.09,2.94-16.26,8.71-31.73,13.41-47.48C562.45,139,573.78,101.72,585,64.44c2.88-9.56,5.71-19.13,8.77-28.63.66-2,.72-4.83,3.84-5.17l26.07,4.7c1.22,2,.8,4.14.23,6.27q-24.37,91.08-48.62,182.21c-2.63,9.79-5.13,19.63-7.88,29.39C566.82,255.24,566.57,257.53,564.36,258.69Z"/><path class="cls-18" d="M304.22,339.87c0,8.26.06,16.53.12,24.79,0,2.07.1,4.52-2.88,3.86-4.94-1.11-7.58,1.58-9.95,5.12-2.15-.38-2.7-2.28-3.58-3.84-22.19-39.27-44.17-78.66-66.35-117.94-13.83-24.5-27.49-49.09-41.36-73.57a22.8,22.8,0,0,1-2.35-6.53c.5-15.27,1.09-30.54,2.78-45.73,3.18.51,3.81,3.46,5.06,5.61,15.57,26.93,31,53.94,46.52,80.89q31,53.84,61.92,107.72c-.48,4.56,1.11,8.08,5.18,10.36A22.57,22.57,0,0,1,304.22,339.87Z"/><path class="cls-20" d="M248.25,47.8q16.86,47,33.74,93.9,29.1,80.46,58.26,160.9c1.17,3.26,2.93,6.36,3.19,9.93l-9,0q-15-31.78-29.95-63.57Q259.54,153,214.68,57A327.27,327.27,0,0,1,248.25,47.8Z"/><path class="cls-20" d="M586.41,312.52c4.44-12.68,8.77-25.4,13.34-38q29.14-80.6,58.39-161.16,11.63-32.08,23.17-64.2a337.33,337.33,0,0,1,33,9.9q-55,117.54-110,235.09c-2.89,6.17-5.92,12.28-8.88,18.42Z"/><path class="cls-19" d="M633.32,595.4a77.71,77.71,0,0,0-7.57,2.45c-2.42,1-4.06,1-4.92-1.83s-2-2.25-3.76-.57c-5.8,5.5-12,10.61-17.55,16.33-3.29,3.39-5,2.61-7.37-.76-3.37-4.73-7.26-9.1-10.81-13.71-1.52-2-2.7-2.22-4,.12-.4.72-1,1.34-1.37,2.08-3.32,6.78-8,10-15.71,6.61-3.35-1.48-4.33,1.87-5.52,3.71-2.59,4-4.85,4.68-8.83,1.36-5.08-4.24-10.88-7.62-16.24-11.54-2.15-1.57-3.57-1.88-6,0-9,6.91-18.15,13.49-27.29,20.14-1.39,1-2.64,2.64-4.84,1.52-6.33-3.22-12.08-1.78-17.35,2.47-2.39,1.92-4,1.48-6.15-.75-5.35-5.71-11.16-11-16.47-16.73-2.33-2.51-4.41-3-7.37-1.58-1.78.85-3.79,1.22-5.62,2-4.88,2-9.91,2.36-14.42-.33-10.1-6-17.78-4-25.72,4.65s-8.72,8-19.13,2.58l-1.76-.94c-4.24-2.26-8.45-6.2-12.75-6.3s-7.92,4.91-11.69,7.82c-2.27,1.76-3.93,1.57-6.19.22-4.85-2.88-9.92-5.38-14.77-8.26-2.31-1.38-4.21-1.81-6.05.49-7.1,8.83-16.24,10.4-26.63,7.49L288.6,599.77c6-.42,11.94.78,17.85,1.69,2.84.43,5.06.06,7.24-1.92,3.2-2.91,6.74-5.45,10-8.33,2.49-2.22,4.57-3,7.79-.88,4.69,3.12,9.87,5.46,14.75,8.3,2.12,1.23,3.93,1.65,5.7-.4.11-.12.3-.17.4-.29,7.22-8.25,14.8-8.28,23.33-1.73,3.6,2.77,8.42,6.32,12.21,5.83s7.51-5.2,10.54-8.67c5.56-6.38,11.32-8.44,19.13-3.77,9.31,5.55,19,5.48,28.61.33,4.09-2.19,7.36-1.58,10.62,2.32,4.36,5.23,9.62,9.69,14.32,14.64,1.56,1.63,2.74,2,4.6.64,3.68-2.63,7.78-2.66,11.86-1.24,2.5.86,4.27.29,6.36-1.28,9.7-7.31,19.61-14.31,29.3-21.62,2.38-1.8,4-2.08,6.49-.16,5.13,3.94,10.55,7.51,15.91,11.16,1.08.74,2.61,2.67,3.7.57,2.57-5,6.47-3.49,10.27-2.53,3.08.78,5.16.23,7-2.72,3.65-5.72,7.8-11.12,12-17,5.54,6.86,10.91,13.31,16,20,1.84,2.39,3,2.71,5.3.45,6.84-6.59,14.06-12.77,20.91-19.34,2.37-2.27,3.16-1.57,4.42.9,4,7.86,4.08,7.81,12.58,5,2.82-.93,5.66-1.79,8.49-2.68C642.21,583.26,638.61,589.92,633.32,595.4Z"/><path class="cls-18" d="M642,368.59c-8.82-.6-8.82-.6-8.82-9.23,0-7.95,0-15.89,0-23.84,0-2.06,0-3.56,2.62-4.46,8.2-2.83,9.74-8.88,4.49-16.24-.67-2,.58-3.51,1.48-5.07,25.41-44.32,51-88.55,76.32-132.91,5.77-10.11,11.72-20.13,17.47-30.26,1.1-1.93,1.76-4.45,4.63-4.72,1.41,15.73,2.44,31.48,2,47.29-2.22,8.71-7.64,15.84-11.93,23.48-20.56,36.56-41,73.19-61.63,109.71-7.94,14.06-15.79,28.17-23.69,42.25A15.9,15.9,0,0,1,642,368.59Z"/><path class="cls-20" d="M294.15,320.25c-2.45.54-2.58-1.76-3.27-3Q247.6,242.13,204.46,166.9c-7.86-13.67-15.87-27.25-23.81-40.87,1.17-19.74,3.84-39.32,5.82-59,.26-2.61,2.36-2.3,3.95-2.88Q211,112.06,231.68,160,265,236.89,298.34,313.79C296.33,315.55,294.62,317.5,294.15,320.25Z"/><path class="cls-20" d="M397.24,239.29c-2.16-.76-2.08-2.9-2.58-4.54q-29.6-97.92-59.1-195.89c-.86-2.85-1.59-5.75-2.39-8.63l35.23-4.72c2.19,1.73,2.31,4.35,2.75,6.76q13,70,25.78,140.07c1.35,7.38,2.89,14.72,4.09,22.12.34,2.08,1.17,4.27-.68,6.14-1.76.16-1.92,1.32-1.91,2.78.05,6.27-.13,12.55.07,18.82.16,5.3,4.64,1.45,6.69,2.88a6.36,6.36,0,0,1,1.31,7.86Z"/><path class="cls-20" d="M305.78,35.11q19.85,74.37,39.69,148.73,11,41.15,22.12,82.27c-1.47,2.71-2.94,5.41-4.4,8.13-4.06-4.47-4.89-10.4-6.93-15.73q-41.55-108.3-82.85-216.7C284.09,39,294.88,36.83,305.78,35.11Z"/><path class="cls-20" d="M740.2,141.86c-9,15.34-18,30.64-26.82,46Q676.8,251.33,640.3,314.82c-1.51-.65-3-1.75-4.52-1.85-2.79-.18-2.75-1.79-2.58-3.73,7.63-17.32,15.34-34.61,22.87-52Q692.54,173.1,728.93,88.9c1.64-3.79,2.86-7.8,5.27-11.24C737.14,99,739.06,120.38,740.2,141.86Z"/><path class="cls-20" d="M564.36,258.69q20.5-76.75,41-153.51,8.61-32.24,17.18-64.5c.47-1.75.76-3.56,1.14-5.34l32.65,7.36q-13.53,35.11-27,70.23Q601,187,572.74,261.05c-.64,1.69-1.53,3.27-2.3,4.91Z"/><path class="cls-20" d="M597.6,30.64c-2.44,2.74-2.72,6.35-3.71,9.62q-27.46,90.89-54.8,181.82a14.73,14.73,0,0,1-.82,1.82c-.27.47-.54.5-.82,0-.07-5.93-.47-11.89-.1-17.8.28-4.41-1-6.1-5.41-5.34a9.81,9.81,0,0,1-2.46-.17c-2.07-2.64-.73-5.49-.23-8.14,5.53-29.78,10.9-59.59,16.4-89.37,4.36-23.57,8.66-47.15,13.09-70.7.46-2.41.46-5,2.7-6.75C573.57,26.79,585.59,28.69,597.6,30.64Z"/><path class="cls-18" d="M400.34,200.6c-2.73-15.33-5.4-30.68-8.21-46Q380.84,93,369.43,31.39c-.36-2-.69-3.92-1-5.88,8.59-1.16,17.17-2.44,25.88-2.43,1.8,1.54,2.05,3.74,2.41,5.86Q409,100.51,420.92,172.12c.45,2.66.06,5.28.22,7.91a43.08,43.08,0,0,0-2.64,17.11c.18,2.88-.88,3.79-3.69,3.65C410,200.57,405.17,200.65,400.34,200.6Z"/><path class="cls-18" d="M285.61,381.91l-16,21.78c-5.68-4.56-8.92-11.06-13-16.84Q221,336.06,185.21,285.34c-2.2-3.12-4.46-6.22-5.7-9.9-1.95-6.91-1-14.07-1.67-21.1-.75-8.18-.36-16.46-.47-24.7,3.51.08,4.45,3.21,6,5.36,12.26,17.24,24.41,34.54,36.65,51.79,20.71,29.21,41.25,58.54,62,87.7C283.62,376.71,286,378.68,285.61,381.91Z"/><path class="cls-20" d="M285.61,381.91q-53-74.87-105.94-149.72a26.21,26.21,0,0,0-2.3-2.55c-.3-19.3-.25-38.59.5-57.88,8.15,14.3,16.38,28.57,24.46,42.93Q244.71,290,287,365.3c1.55,2.76,3,5.56,4.52,8.34Q288.57,377.78,285.61,381.91Z"/><path class="cls-18" d="M561.44,25.63q-7.26,39.71-14.52,79.4-8.73,47.78-17.44,95.56c-9.77.48-9.71.47-10.12-9.05-.36-8.4-3.7-15.77-8.18-22.71a10.94,10.94,0,0,1-.56-6.81Q521.8,96.22,532.88,30.38c.43-2.58.45-5.37,2.71-7.29C544.29,23.1,552.87,24.33,561.44,25.63Z"/><path class="cls-19" d="M564.26,675.62c-2.14,1.25-4.59,2.16-6.36,3.81-8.52,7.93-18.48,5.26-28.27,4.23-2.16-.22-2.13-1.7-2.13-3.23,0-4.3,0-8.6,0-13.24a31.67,31.67,0,0,0-10,4.19c-4.07,2.38-7.18,2.42-10.78-1.18-4.07-4.07-4.4-3.75-6.87,1.53-3.28,7-6.63,14.07-9.79,21.17-1,2.16-2.15,3-4.56,2.62A117.08,117.08,0,0,0,470.16,694c-4,0-6.34-1.66-8.51-4.7-3.75-5.28-8-10.23-11.68-15.53-2.2-3.15-4-4.4-6.78-.75a35.35,35.35,0,0,1-4.41,4c-8.17,7.43-17.25,8.06-26.49,1.66-1.76-1.22-3-2-4.16.49a3.8,3.8,0,0,1-.63.77c-2.87,3.15-4.4,8.62-8.31,9.35-3.53.66-7.83-2-11.6-3.64-3.27-1.41-5.88-1.18-8.59,1.18-2.49,2.16-5.28,4-7.93,6a78.4,78.4,0,0,1-9.93-9.35c5.89-4.28,11.9-8.43,17.64-12.91,2.84-2.22,5.08-.38,7.39.42,8.89,3.08,8.86,3.16,14.55-4.33,6.5-8.55,6.5-8.55,15.11-2,1.32,1,2.61,2.06,4,3,3.39,2.27,6.68,2.45,9.88-.51,5.24-4.86,10.7-9.5,15.76-14.54,2.58-2.58,3.79-1.81,5.64.66,6.16,8.25,12.48,16.39,18.8,24.52,4.06,5.22,10.1,4.65,12.82-1.12l14.91-31.61c4.72,3.89,9.18,7.35,13.38,11.11,1.93,1.73,3.43,1.84,5.7.71,6.37-3.18,12.94-5.94,19.29-9.14,3.43-1.73,4.23-.74,4.19,2.73-.06,5.65.14,11.31.3,17,.14,4.58,1.89,5.6,5.86,3.19,8.36-5.07,16.63-10.3,24.93-15.47,7.07-4.4,7.07-4.4,13.37,1.42-5,5.47-9.77,11.16-15.43,16C567.77,673.91,566.44,675.45,564.26,675.62Z"/><path class="cls-18" d="M663.31,398.1A256.87,256.87,0,0,1,649.14,375c-.51-1.87.64-3.19,1.59-4.53q33-46.65,66-93.35c6.9-9.8,13.91-19.52,20.79-29.32,1.17-1.66,1.87-4.07,4.67-3.8a459.93,459.93,0,0,1-2.95,47.07c-1.43,5.48-5.36,9.5-8.47,13.94Q699.44,349.7,668,394.23C666.81,395.89,666.08,398.28,663.31,398.1Z"/><path class="cls-18" d="M461.38,151c-11.78.94-22.13,5.17-30.8,13.31-2.46-2.2-1.72-5.19-1.92-7.93-1.33-17.73-.47-35.51-1.19-53.24-1-24.7-1.06-49.42-1.79-74.12-.09-2.79-.36-5.7,1.65-8.1,7.31-1.51,14.7-.79,22.06-.8,2.29,2.57,2.27,5.84,2.56,9,2.91,31.82,5.79,63.64,8.84,95.45.68,7.12,1.26,14.26,1.91,21.38C462.86,147.74,463,149.61,461.38,151Z"/><path class="cls-20" d="M742.16,244c-8.72,12.15-17.49,24.27-26.14,36.47Q682.54,327.74,649.14,375c-2.64-1.85-2.33-7-7.12-6.44,1.45-6.07,5.32-10.95,8.27-16.24q45.26-80.89,90.76-161.63a14.78,14.78,0,0,1,1.16-1.57C742.83,207.44,742.61,225.74,742.16,244Z"/><path class="cls-18" d="M499.51,157.92c-9.58-5.85-20.25-6.83-31.1-6.94-2-1.9-1.47-4.28-1.26-6.58,3.2-34.81,6.62-69.59,9.72-104.4.35-4,.76-8,1.11-11.93.24-2.78.34-5.71,2.47-7.94,7.37,0,14.77-.74,22.09.76,1.61,2,1.61,4.33,1.59,6.66-.23,26.3-.76,52.59-1.82,78.86-.47,11.82.05,23.66-.21,35.48C502,147.32,502.18,152.88,499.51,157.92Z"/><path class="cls-20" d="M427.33,20.93c.43,24.57.75,49.14,1.3,73.71.53,23.23,1.29,46.45,1.95,69.68-3.67,4.92-7.49,9.75-9.44,15.71-3.24-12-4.53-24.42-6.66-36.66-6.35-36.63-12.46-73.3-18.65-109.95-.58-3.44-1-6.9-1.55-10.34A283.14,283.14,0,0,1,427.33,20.93Z"/><path class="cls-20" d="M179.51,275.44c7,9.69,14.05,19.31,20.92,29.07q33.67,47.83,67.24,95.76c.75,1.07,1.32,2.28,2,3.42-2.56,3.79-4.84,7.78-8,11.11-1.85-.09-2.89-1.48-4.1-2.59q-18.93-17.29-36.72-35.78c-9.7-10-20.33-19.08-30.12-29a16.1,16.1,0,0,1-4-5.59C183.12,319.82,180.34,297.74,179.51,275.44Z"/><path class="cls-20" d="M499.51,157.92l3-137a280.89,280.89,0,0,1,33.05,2.2Q530.28,55,525,86.89q-6.87,41-13.79,81.94A76.33,76.33,0,0,0,499.51,157.92Z"/><path class="cls-20" d="M663.31,398.1c8.79-12.3,17.63-24.58,26.37-36.92q24.81-35,49.53-70.09c-1.14,17.89-3.66,35.62-6.33,53.33-.46,3.11-1.11,6.19-1.67,9.29a13,13,0,0,1-4,5.59c-14.85,12.79-27.94,27.39-41.94,41.05-3.46,3.37-7.31,6.25-10.79,9.57-1,.91-2,1.76-3.55,1.2C668.29,406.84,665.25,402.79,663.31,398.1Z"/><path class="cls-20" d="M480.45,20.13c-1.93,20.31-3.9,40.62-5.79,60.94q-2.7,29-5.28,58c-.36,4-.65,7.93-1,11.9l.06,0a11.61,11.61,0,0,1-7.14,0l.05,0c-1.43-16.37-2.8-32.74-4.3-49.1-1.49-16.19-3.12-32.37-4.65-48.56-1.05-11.07-2-22.14-3-33.22Z"/><path class="cls-18" d="M186.62,341.83Q210.41,364.9,234.19,388q13.76,13.38,27.42,26.83l-14.92,20.35c-5.32-1-8.07-5.56-11.69-8.7-12.06-10.45-23.74-21.33-35.73-31.87a16,16,0,0,1-3.57-4.74A414,414,0,0,1,186.62,341.83Z"/><path class="cls-18" d="M670.91,411.12c4.4-2.76,7.84-6.63,11.54-10.17,16.34-15.66,31.86-32.16,48.76-47.24a379.88,379.88,0,0,1-10,47.91c-5.25,7.36-12.67,12.5-19.25,18.47-3.79,3.44-7.19,7.35-11.45,10.25-1.34.92-2.4,2.35-4.24,2.39C679.56,426.65,675.46,418.73,670.91,411.12Z"/><path class="cls-20" d="M195.7,389.84l51,45.3A58.19,58.19,0,0,1,237.81,447a3,3,0,0,1-1.47-.15c-11-6.76-22-13.46-31.72-22.1C201.2,413.23,198.15,401.61,195.7,389.84Z"/><path class="cls-21" d="M686.25,432.73c11.49-10.55,22.9-21.18,34.94-31.11a311.06,311.06,0,0,1-8.74,32c-5.05,4.77-10.42,9.07-17.21,11.15C689.17,443.06,687,438.44,686.25,432.73Z"/><path class="cls-18" d="M204.62,424.76c11.48,6.8,22.22,14.69,33.19,22.25-.88,3.33-3.21,4.05-6.37,4-6.25-.08-12.5.16-18.75.27C209.84,442.5,206.71,433.79,204.62,424.76Z"/><path class="cls-22" d="M213.65,453.92c5.66,0,11.33.05,17-.15,2.67-.09,3.75.48,3.76,3.49,0,8.5.21,8.49-8.25,8.51-2.83,0-5.66.09-8.48.14Z"/><path class="cls-23" d="M695.24,444.79c5.65-3.84,11-8.21,17.21-11.15-1.22,6.3-3.66,12.23-5.64,18.3-.54-.31-1.15-1-1.61-.86C699.81,452.18,696.77,449.71,695.24,444.79Z"/><path class="cls-24" d="M702.13,465.92a30.18,30.18,0,0,0-4.93-.11c-3.52.47-4.43-.94-4.35-4.36.17-7.62,0-7.63,7.37-7.62,2,0,3.95.07,5.93.11Z"/><path class="cls-25" d="M564.26,675.62a12,12,0,0,1,5-3.06c-.66,2-2.21,3.12-3.82,4.23Z"/><path class="cls-20" d="M456.87,880.69q-152.7,0-305.4.14c-5.26,0-6.16-1.52-6.1-6.33q.4-30.74,0-61.47c-.05-4.36,1-5.47,5.43-5.46q192.18.2,384.37.11,113.72,0,227.42-.13c5,0,5.92,1.4,5.86,6.06q-.41,30.74,0,61.47c0,4.51-1.07,5.73-5.68,5.72Q609.82,880.59,456.87,880.69Z"/><path class="cls-20" d="M38,824.62c30.86,0,60.67,0,90.48-.06,3.48,0,3.12,2,3.12,4.17,0,20.16.1,40.31-.1,60.46,0,3.78,1,5.42,4.71,6.64C151.67,900.91,167,906.41,183,912H33.5c8.21-7.65,15.32-14.28,22.45-20.89,6.59-6.12,13.11-12.32,19.86-18.26,2.32-2,2.18-3.19.16-5.42-11.21-12.32-22.22-24.81-33.28-37.26C41.29,828.61,40,827,38,824.62Z"/><path class="cls-20" d="M875.72,824.91c-7.28,8.22-14.08,15.92-20.9,23.6-5.64,6.36-11.17,12.81-17,19-2.15,2.26-2,3.4.24,5.42,11.22,10.18,22.29,20.53,33.41,30.83l8.7,8.07H731.56c5.15-1.81,10.53-3.71,15.91-5.59,10.2-3.55,20.34-7.25,30.62-10.54,3.33-1.07,4.2-2.67,4.17-6-.16-20.32,0-40.64-.12-61,0-2.76.33-4.15,3.7-4.14,29.32.08,58.64,0,88-.08A14.08,14.08,0,0,1,875.72,824.91Z"/><path class="cls-26" d="M176.53,894.41c10.43,0,20.86,0,31.28,0,1.9,0,2.46.78,2.66,2.66,1.07,10,.66,10.4-8.56,7.18l-25.55-8.93Z"/><path class="cls-26" d="M737.27,895.39c-10.31,3.59-20.62,7.13-30.91,10.78-2.14.76-2.84.39-3-2-.78-9.75-.86-9.75,9-9.75h24.91C737.28,894.73,737.28,895.06,737.27,895.39Z"/><path class="cls-19" d="M469.07,224.92c13.82,0,27.64,0,41.47,0a9,9,0,0,1,5.65,1.37c12.58,9,25.77,17,38,26.55,18.8,14.71,26.63,33.75,24.31,57.29-.18,1.83-.54,2.65-2.56,2.64q-24.48-.11-49,0c-1.85,0-2.39-.59-2.88-2.39-1.69-6.23-5.15-9.27-10-9.39s-8.79,3.09-10.42,9.52c-.5,2-1.31,2.14-3,2.27-6.87.54-10.2,3.5-10.34,8.95-.14,5.65,3.11,9.14,9.74,9.58,2.95.19,3.48,1.2,3.44,3.84-.14,9.66-.16,19.32,0,29,.05,2.91-.47,4-3.74,4-20.81-.17-41.63-.13-62.45,0-2.64,0-3.84-.45-3.78-3.5.19-9.82.12-19.64,0-29.47,0-2.31.21-3.77,3.13-3.68,7.54.23,10.44-5.42,10.41-9.65,0-5.27-3.78-8.53-10.44-8.93-2.39-.14-2.93-1-3.3-3.18a10,10,0,0,0-19.92.19c-.39,2.42-1.27,3-3.48,2.95-15.48-.07-31-.1-46.46,0-2.76,0-3.07-1-3.31-3.47-2.68-26.5,8.49-46.19,29.41-61.5,10.47-7.67,21.48-14.46,32.34-21.52a9.55,9.55,0,0,1,5.64-1.38C441.42,224.94,455.25,224.92,469.07,224.92Z"/><path class="cls-19" d="M469.17,200.8c-14.47,0-29-.18-43.43.11-4.2.09-4.87-1.4-4.8-5.09.52-24.93,17.72-41.94,42.8-41.88,6.95,0,13.93-.67,20.88.82a41.67,41.67,0,0,1,32.69,43c-.19,3.45-2,3.1-4.2,3.1Q491.14,200.78,469.17,200.8Z"/><path class="cls-27" d="M467.37,222.7c-20.65,0-41.29-.1-61.94.1-3.84,0-5-1.11-4.64-4.78.44-4.78-1.92-10.94.85-14s9.09-1,13.83-1c38.12-.1,76.25,0,114.38-.16,4,0,5.19,1.12,4.82,5a53.66,53.66,0,0,0,0,10c.37,3.86-.83,5-4.86,5C509,222.59,488.18,222.7,467.37,222.7Z"/><path class="cls-19" d="M566.64,328.93H501.69c-5.68,0-9.11-2.57-9.2-6.8-.09-4.41,3.5-7.2,9.42-7.2q64.95,0,129.89,0c3.54,0,6.7.58,8.39,4.06a6.69,6.69,0,0,1-.89,7.48c-1.85,2.37-4.46,2.52-7.21,2.52Q599.36,328.89,566.64,328.93Z"/><path class="cls-28" d="M370.51,328.93q-32.47,0-64.94,0c-6.1,0-9-2.14-9.15-6.67s3.1-7.33,9.16-7.33H435.45c.33,0,.67,0,1,0,5.28.17,8.23,2.84,8.11,7.34-.12,4.34-2.83,6.66-8.12,6.66Q403.47,329,370.51,328.93Z"/><path class="cls-19" d="M431.4,391.86c0,18.31-.07,36.61.07,54.91,0,3.1-.64,4.29-4,4.35-12,.23-12,.35-12-11.58,0-34.45.1-68.89-.07-103.33,0-4,1.16-4.94,5-4.88,11,.2,11,0,11,11.11Z"/><path class="cls-29" d="M521.69,391.29c0,18.46-.09,36.93.08,55.4,0,3.39-.71,4.5-4.31,4.45-11.53-.13-11.53,0-11.53-11.66,0-34.27.06-68.54-.09-102.81,0-3.93.65-5.49,5.05-5.37,10.55.31,10.56.07,10.56,10.6v49.39Z"/><path class="cls-27" d="M468.74,370.88c10.31,0,20.61.12,30.91-.08,3.05-.06,3.89.7,3.89,3.81,0,11.18.12,11.18-10.93,11.18-18.28,0-36.56-.07-54.85.07-3.19,0-4.25-.71-4.24-4.08,0-10.9-.12-10.9,10.79-10.9Z"/><path class="cls-27" d="M468.64,402.84c-10.5,0-21-.09-31.49.07-2.87,0-3.58-.86-3.61-3.65-.15-11.3-.25-11.29,11-11.29,18,0,36,.09,54-.08,3.66,0,5.19.54,5.06,4.75-.32,10.19-.07,10.2-10.44,10.2Z"/><path class="cls-30" d="M468.91,419.9c-10.48,0-21-.1-31.43.07-3,0-4-.64-4-3.82,0-11-.17-11,10.79-11,18.13,0,36.26.13,54.38-.11,4,0,4.94,1.17,4.85,5-.23,9.9-.05,9.9-10.19,9.9Z"/><path class="cls-19" d="M468.9,422.75c10.32,0,20.64.09,31-.06,2.73,0,3.64.59,3.67,3.51.11,10.83.23,10.83-10.78,10.83-18.14,0-36.29-.09-54.43.08-3.55,0-4.93-.58-4.82-4.56.26-9.79,0-9.8,9.93-9.8Z"/><path class="cls-19" d="M468.4,439.81c10.32,0,20.64.11,31-.07,3.11-.06,4.66.57,4.12,4a18.73,18.73,0,0,0,0,4.49c.21,2.13-.52,2.87-2.76,2.86q-31.93-.12-63.88,0c-2.75,0-3.5-1-3.25-3.52a20.43,20.43,0,0,0,0-4.49c-.33-2.68.79-3.37,3.36-3.34C447.43,439.88,457.91,439.81,468.4,439.81Z"/><path class="cls-27" d="M322.44,350.13c0,5.15-.1,10.31.05,15.46.06,2.33-.62,3.05-3.05,3.16-12.91.6-12.91.68-12.91-12.32,0-7.15.14-14.3-.06-21.44-.09-2.93.94-3.57,3.69-3.63,12.28-.29,12.28-.38,12.28,11.78Z"/><path class="cls-19" d="M630.5,350.23v13.46c0,.83,0,1.67,0,2.5.08,3.87-3,2.73-4.61,2.35-3.57-.87-9.82,3.13-10.42-2.32-1.18-10.67-.33-21.57-.37-32.37,0-1.59.39-2.59,2.21-2.42a12.51,12.51,0,0,0,1.5,0c11.69-.3,11.69-.3,11.69,11.34Z"/><path class="cls-30" d="M675,465.76c-3,0-6,.13-9-.05-1.85-.11-4.87,1.13-5.33-.9-.76-3.29-.32-6.9,0-10.35.09-1,1.72-.61,2.66-.62,7.8,0,15.6.12,23.4-.08,2.9-.07,3.56.9,3.57,3.66,0,8.34.17,8.34-8.34,8.34Z"/><path class="cls-30" d="M610,465.76c-3.81,0-7.64-.17-11.44.06-2.69.16-3.27-.8-3.31-3.35-.13-8.64-.25-8.64,8.38-8.64,6,0,11.94.13,17.91-.06,2.76-.09,3.66.68,3.68,3.56.06,8.43.2,8.43-8.26,8.43Z"/><path class="cls-30" d="M577.65,465.76c-2.5,0-5,.11-7.48,0s-5.88,1.25-7.08-.68c-1.69-2.72-.54-6.45-.52-9.73,0-2.1,1.87-1.46,3-1.46,8-.06,16,.08,23.95-.1,2.65-.05,2.84,1.09,2.9,3.24.22,8.76.29,8.76-8.33,8.76Z"/><path class="cls-30" d="M447.32,465.76h-8.5c-6.44,0-6.15,0-6.54-6.61-.25-4.29.79-5.74,5.33-5.44,7,.45,14,.25,21,.06,2.86-.08,3.62.84,3.64,3.64.07,8.35.2,8.35-7.91,8.35Z"/><path class="cls-30" d="M382.89,453.83c3.66,0,7.34.15,11-.05,2.68-.16,3.31.84,3.36,3.41.16,8.57.28,8.57-8.18,8.57-5.83,0-11.67-.15-17.49.06-3,.11-4.33-.45-4.26-4,.18-8,0-8,8.09-8Z"/><path class="cls-30" d="M349.71,453.83c3.83,0,7.67.17,11.49-.06,2.68-.16,3.28.75,3.32,3.34.1,8.65.22,8.65-8.47,8.65-6,0-12-.14-18,.06-2.86.1-3.62-.8-3.63-3.63-.05-8.36-.19-8.36,8.28-8.36Z"/><path class="cls-28" d="M512.34,453.83h7c8.36,0,9.57,1.6,8.09,10-.34,1.93-1.34,1.93-2.72,1.92-8.15,0-16.31-.06-24.45,0-2.19,0-2.75-.7-2.87-2.84-.53-9.14-.61-9.13,8.47-9.13Z"/><path class="cls-30" d="M284.49,453.83c3.66,0,7.33.17,11-.06,2.92-.18,4,.51,4,3.76-.09,8.23.1,8.23-8,8.23-6.16,0-12.32-.14-18.46.06-2.78.09-3.63-.68-3.65-3.55,0-8.44-.17-8.44,8.14-8.44Z"/><path class="cls-28" d="M479.42,465.76a70.73,70.73,0,0,0-9,.07c-4.67.61-5.64-1.23-5.77-5.69-.15-5.21,1.31-6.81,6.53-6.43a192.77,192.77,0,0,0,20,.05c2.9-.09,3.56.86,3.56,3.64,0,8.36.15,8.36-8.32,8.36Z"/><path class="cls-27" d="M642.86,465.76c-3.83,0-7.66-.16-11.48.05-2.67.15-3.3-.82-3.35-3.38-.2-8.6-.31-8.6,8.49-8.6,5.82,0,11.65.15,17.47-.07,2.84-.1,3.58.78,3.58,3.59,0,8.41.16,8.41-8.23,8.41Z"/><path class="cls-27" d="M316.45,465.76c-3.66,0-7.33-.15-11,.05-2.61.15-3.35-.72-3.41-3.34-.22-8.64-.33-8.64,8.47-8.64,5.82,0,11.65.14,17.46-.06,2.79-.1,3.63.68,3.63,3.54,0,8.45.16,8.45-8.19,8.45Z"/><path class="cls-27" d="M414.75,453.83c3.66,0,7.34.24,11-.07,3.23-.28,3.82.92,3.78,3.89-.09,8.11.06,8.11-8,8.11-6,0-12-.08-18,0-2.37.05-3.51-.31-3.6-3.16-.28-8.82-.43-8.81,8.32-8.81Z"/><path class="cls-27" d="M544.76,453.83c3.82,0,7.65.15,11.47-.06,2.58-.14,3.34.63,3.38,3.29.13,8.7.26,8.7-8.43,8.7-5.82,0-11.64-.14-17.45.06-2.81.1-3.63-.74-3.65-3.59-.07-8.4-.2-8.4,8.2-8.4Z"/><path class="cls-27" d="M251.47,465.76c-3.65,0-7.3-.16-10.93.05-2.67.16-3.29-.8-3.34-3.35-.19-8.63-.3-8.63,8.4-8.63,5.8,0,11.6.15,17.4-.07,2.84-.1,3.55.79,3.56,3.58,0,8.42.14,8.42-8.13,8.42Z"/><path class="cls-30" d="M270.14,438.43a10.41,10.41,0,0,1-10,10.35,10.24,10.24,0,0,1-10.17-9.62,10,10,0,0,1,9.7-10.45A10.11,10.11,0,0,1,270.14,438.43Z"/><path class="cls-30" d="M675.13,428.71a10.1,10.1,0,0,1,10,10.26,10.48,10.48,0,0,1-10.07,9.8A10.07,10.07,0,0,1,665,438.63,9.78,9.78,0,0,1,675.13,428.71Z"/><path class="cls-30" d="M630.71,451a5.29,5.29,0,0,1-1.49,0c-2.56-.8-6.35,1.68-7.56-2.66-1-3.67-.9-7.24,1.91-10.24s6.14-4.2,9.91-2.93c2.79.93,5.42,2.53,6.76,5.51,2.63,5.84-.2,10.34-6.54,10.35Z"/><path class="cls-27" d="M303.39,451a4.85,4.85,0,0,1-1.12-.09c-2.61-.67-6.29,1.84-7.67-2.45-1.19-3.69-1.1-7.36,1.85-10.19s6.29-4.5,10.38-3.12a9.66,9.66,0,0,1,6.8,7.29C315.16,449.29,312.89,451.29,303.39,451Z"/><path class="cls-31" d="M576.27,350.83c0,4.83-.12,9.66.05,14.47.09,2.58-.68,3.54-3.36,3.47-2.36-.07-3.63-.36-3.58-3.22q.23-15,0-29.94c0-2.76,1.3-2.79,3.34-2.82,2.25,0,3.77,0,3.62,3.08C576.09,340.84,576.27,345.84,576.27,350.83Z"/><path class="cls-32" d="M567.22,351.32c0,4.66-.12,9.33,0,14,.09,2.6-.75,3.52-3.4,3.46-2.36,0-3.6-.31-3.55-3.18q.24-15,0-30c-.05-2.74,1.22-2.86,3.29-2.81s3.87-.14,3.69,3C567,341,567.22,346.16,567.22,351.32Z"/><path class="cls-33" d="M585.31,351.3c0,4.66-.11,9.31.05,14,.08,2.48-.5,3.63-3.28,3.51-2.33-.1-3.67-.33-3.63-3.21.15-10,.18-19.94,0-29.91-.06-3.28,1.88-2.68,3.84-2.85,2.4-.21,3.17.63,3.09,3.05C585.2,341,585.31,346.15,585.31,351.3Z"/><path class="cls-31" d="M558.16,350.81c0,4.66-.08,9.31,0,14,.06,2.46-.15,4-3.37,4-3,0-3.54-1-3.5-3.72q.21-14.46,0-28.93c0-2.49.49-3.44,3.23-3.42s3.81.7,3.67,3.62C558,341.16,558.16,346,558.16,350.81Z"/><path class="cls-34" d="M594.35,351.18c0,4.81-.1,9.62,0,14.43.07,2.33-.63,3.25-3.08,3.14-2.21-.09-3.79-.1-3.75-3.09.14-10,.17-19.91,0-29.86-.06-3.1,1.56-2.93,3.7-3s3.26.41,3.16,3C594.2,340.89,594.35,346,594.35,351.18Z"/><path class="cls-33" d="M542.37,350.57c0-5,.17-10-.06-14.93-.13-2.73,1.12-3,3.24-2.83,1.83.11,3.61-.35,3.58,2.62q-.21,15.18,0,30.36c0,3.11-1.82,2.78-3.88,3-2.66.22-2.94-1.12-2.9-3.25C542.44,360.52,542.37,355.54,542.37,350.57Z"/><path class="cls-35" d="M406.41,350.46c0-4.82.17-9.66-.06-14.48-.14-2.79.95-3.27,3.42-3.22s3.59.34,3.54,3.21c-.17,9.82-.15,19.65,0,29.47,0,2.76-1.09,3.27-3.54,3.33s-3.51-.64-3.41-3.33C406.56,360.46,406.41,355.46,406.41,350.46Z"/><path class="cls-36" d="M603.37,350.39c0,5,0,10,0,15,0,2,0,3.58-2.82,3.37-2.11-.15-3.91.1-3.87-3q.18-15.24,0-30.48c0-3.08,2-2.3,3.72-2.46,1.94-.18,3.07.16,3,2.59C603.25,340.4,603.37,345.4,603.37,350.39Z"/><path class="cls-37" d="M331.45,351c0,5-.14,9.95.06,14.92.1,2.65-1.13,2.93-3.28,2.87s-3.5-.17-3.48-2.84c.09-10.12.12-20.23,0-30.34,0-2.81,1.48-2.74,3.45-2.76s3.46-.08,3.33,2.73C331.29,340.66,331.45,345.81,331.45,351Z"/><path class="cls-38" d="M340.46,351c0,4.82-.06,9.65,0,14.48,0,2.05-.07,3.51-2.83,3.32-2.17-.14-3.83,0-3.79-3.06.14-10,.16-20,0-29.95-.06-3.14,1.68-2.81,3.76-3,2.65-.22,2.94,1,2.89,3.21C340.38,341,340.46,346,340.46,351Z"/><path class="cls-36" d="M540,350.59c0,5-.13,10,0,15,.1,2.91-1.38,3.1-3.69,3.19-2.56.1-3-.95-3-3.19.09-10,.14-20,0-30,0-2.76,1.24-2.84,3.3-2.81s3.52,0,3.42,2.81C539.84,340.59,540,345.6,540,350.59Z"/><path class="cls-27" d="M606,350.35c0-4.81.18-9.63-.07-14.42-.15-2.92,1.23-3.07,3.52-3.16,2.48-.09,3,.82,3,3.13q-.17,14.91,0,29.82c0,2.47-.85,3.07-3.16,3s-3.38-.46-3.32-3C606.07,360.62,606,355.48,606,350.35Z"/><path class="cls-27" d="M397.41,350.86c0-4.83,0-9.66,0-14.49,0-2.14-.13-3.81,3-3.63,2.51.14,3.43.64,3.39,3.33q-.24,14.49,0,29c0,2.76-.68,3.72-3.61,3.75-3.38,0-2.74-2-2.75-3.94C397.39,360.18,397.41,355.52,397.41,350.86Z"/><path class="cls-27" d="M394.62,350.66c0,5-.1,10,0,15,.07,2.38-.74,3.15-3.13,3.14s-3.22-.55-3.19-3q.18-15,0-29.92c0-2.47.78-3.08,3.12-3,2.17.05,3.34.3,3.23,2.93C394.47,340.68,394.62,345.68,394.62,350.66Z"/><path class="cls-27" d="M367.48,351.26c0,4.82-.12,9.65,0,14.46.08,2.49-.9,3-3.19,3s-3.15-.77-3.13-3.14c.1-10,.13-19.94,0-29.92,0-2.62,1.06-2.88,3.23-2.93,2.34,0,3.2.56,3.11,3C367.35,341,367.48,346.11,367.48,351.26Z"/><path class="cls-27" d="M358.46,350.52c0,5-.08,10,0,15,.06,2.2-.35,3.27-2.95,3.27s-3.44-.78-3.41-3.4c.12-9.81.16-19.63,0-29.45-.06-2.91,1.21-3.06,3.53-3.16,2.7-.11,2.9,1.16,2.85,3.29C358.38,340.87,358.46,345.7,358.46,350.52Z"/><path class="cls-27" d="M349.45,351.18c0,4.64-.06,9.28,0,13.91,0,2.17.07,3.79-3,3.69-2.56-.09-3.48-.76-3.44-3.39.11-9.94.14-19.88,0-29.82,0-2.8,1.38-2.69,3.37-2.78,2.3-.11,3.22.48,3.12,3C349.32,340.9,349.45,346,349.45,351.18Z"/><path class="cls-27" d="M379.35,350.36c0-4.65.06-9.31,0-14,0-2.17-.1-3.75,3-3.66,2.62.07,3.34.79,3.3,3.38-.14,9.63-.08,19.27,0,28.91,0,2.13.1,3.7-3,3.77-3.35.07-3.31-1.63-3.26-4C379.42,360,379.35,355.18,379.35,350.36Z"/><path class="cls-27" d="M524.28,350.86c0-5,.11-10,0-14.94-.07-2.31.51-3.27,3-3.14,2.18.11,3.69,0,3.63,3.05-.19,9.79-.13,19.6,0,29.4,0,2.44-.55,3.53-3.31,3.55s-3.38-1-3.3-3.47C524.39,360.5,524.28,355.68,524.28,350.86Z"/><path class="cls-27" d="M376.51,350.86c0,5-.13,10,.05,14.95.09,2.61-1.1,3-3.29,2.93-2,0-3-.41-3-2.72.09-10.3.11-20.6,0-30.9,0-2.8,1.72-2.17,3.3-2.29,1.91-.15,3.08.15,3,2.58C376.39,340.55,376.51,345.71,376.51,350.86Z"/><path class="cls-28" d="M623.31,376.86a8.39,8.39,0,0,1,8,8.44,8.07,8.07,0,0,1-8.62,7.7,7.81,7.81,0,0,1-7.62-8.08A8,8,0,0,1,623.31,376.86Z"/><path class="cls-39" d="M311.7,393a8.1,8.1,0,0,1-8.07-8.29,8.52,8.52,0,0,1,8.13-7.87,8.38,8.38,0,0,1,8.29,8.18A8,8,0,0,1,311.7,393Z"/><path class="cls-28" d="M281.73,451.05h-5.5c-5-.05-5.74-1.3-3.75-5.95a10.29,10.29,0,0,1,10.42-6.18,9.92,9.92,0,0,1,8.6,8.39c.33,2.63-.14,4.13-3.28,3.78A61.06,61.06,0,0,0,281.73,451.05Z"/><path class="cls-30" d="M653,451.05h-5c-5.07,0-6-1.45-3.9-6.15,1.79-4,6.23-6.71,10.4-5.95a10.23,10.23,0,0,1,8.67,8.38c.48,2.11.41,4-2.78,3.68A73.6,73.6,0,0,0,653,451Z"/><path class="cls-40" d="M388.63,395a7.71,7.71,0,0,1,7.72,7.48,7.46,7.46,0,1,1-7.72-7.48Z"/><path class="cls-41" d="M591.33,438.26a7.46,7.46,0,0,1-14.91-.31,7.54,7.54,0,0,1,7.86-7.15A7.45,7.45,0,0,1,591.33,438.26Z"/><path class="cls-41" d="M358.44,438.12a7.51,7.51,0,0,1-7.61,7.46,8,8,0,0,1-7.24-7.49,7.48,7.48,0,0,1,7.73-7.29A7.33,7.33,0,0,1,358.44,438.12Z"/><path class="cls-42" d="M553.41,402.52a7.35,7.35,0,0,1-7.19,7.31,7.66,7.66,0,0,1-7.65-7.49,8,8,0,0,1,7.35-7.4A7.54,7.54,0,0,1,553.41,402.52Z"/><path class="cls-40" d="M307.69,409a7.83,7.83,0,0,1,7.6,7.61,7.6,7.6,0,0,1-7.34,7.26,7.49,7.49,0,0,1-7.51-7A7.66,7.66,0,0,1,307.69,409Z"/><path class="cls-42" d="M299.51,409.67a7.2,7.2,0,0,1-7.22,7.18,7.5,7.5,0,0,1-7.56-7.5,8,8,0,0,1,7.4-7.34A7.5,7.5,0,0,1,299.51,409.67Z"/><path class="cls-41" d="M335.34,403.78a7.5,7.5,0,0,1-7.91,7.11,7.39,7.39,0,0,1-7-7.5,7.69,7.69,0,0,1,7.37-7.28A7.83,7.83,0,0,1,335.34,403.78Z"/><path class="cls-42" d="M626.93,409a7.52,7.52,0,0,1,7.51,7.52,7.36,7.36,0,0,1-7.1,7.35,7.44,7.44,0,0,1-7.6-6.92A7.8,7.8,0,0,1,626.93,409Z"/><path class="cls-40" d="M321.2,420.83c3.81.1,7.24,3.89,7.2,7.93,0,3.61-3.91,7.1-7.69,6.94a7.75,7.75,0,0,1-7.2-7.48A7.59,7.59,0,0,1,321.2,420.83Z"/><path class="cls-40" d="M650.23,409.5a7.55,7.55,0,0,1-7.74,7.35,7.35,7.35,0,0,1-7.13-7.36,7.58,7.58,0,0,1,7.13-7.47A7.84,7.84,0,0,1,650.23,409.5Z"/><path class="cls-40" d="M613.86,435.71c-3.74-.07-7.62-3.92-7.38-7.32.29-4.22,3.76-7.64,7.65-7.56a7.47,7.47,0,0,1,7.23,7.29A7.61,7.61,0,0,1,613.86,435.71Z"/><path class="cls-43" d="M563.69,403.84a7.66,7.66,0,0,1,7.38,7.73c-.17,3.59-3.88,7.12-7.54,7.16-4,0-7.35-3.63-7.2-7.8A7.32,7.32,0,0,1,563.69,403.84Z"/><path class="cls-39" d="M283.69,426.23a7.46,7.46,0,0,1-7.27,7.35,7.55,7.55,0,0,1-7.3-7.36,7.29,7.29,0,1,1,14.57,0Z"/><path class="cls-39" d="M294.62,420.2a7.71,7.71,0,0,1,7.4,7.35,7.25,7.25,0,0,1-7.2,7.36,7,7,0,0,1-7.49-7.41A7.3,7.3,0,0,1,294.62,420.2Z"/><path class="cls-40" d="M597.11,396a7.86,7.86,0,0,1-7.71,7.61c-3.38,0-7.07-4-7.07-7.63a7.19,7.19,0,0,1,7.32-7.18A7.46,7.46,0,0,1,597.11,396Z"/><path class="cls-22" d="M371.46,427a7.06,7.06,0,0,1-7.33,7.14,7.28,7.28,0,1,1,.29-14.54A7,7,0,0,1,371.46,427Z"/><path class="cls-43" d="M614.39,403.61a7.13,7.13,0,0,1-7.08,7.28,7.45,7.45,0,0,1-7.71-7.32,8,8,0,0,1,7.27-7.46A7.42,7.42,0,0,1,614.39,403.61Z"/><path class="cls-28" d="M666,426a7.78,7.78,0,0,1-7.57,7.59,7.41,7.41,0,0,1-7.14-7.37,7.1,7.1,0,0,1,6.93-7.41A7.33,7.33,0,0,1,666,426Z"/><path class="cls-22" d="M578.28,427.08a7.52,7.52,0,0,1-7.59,7.06,7.28,7.28,0,1,1,.48-14.55A7.45,7.45,0,0,1,578.28,427.08Z"/><path class="cls-28" d="M378.61,411.45c-.08,4-3.55,7.41-7.33,7.28a7.86,7.86,0,0,1-7.27-7.45,7.39,7.39,0,0,1,7.67-7.43A7.29,7.29,0,0,1,378.61,411.45Z"/><path class="cls-39" d="M647.64,427.45a7.28,7.28,0,1,1-14.55.14,7.28,7.28,0,1,1,14.55-.14Z"/><path class="cls-24" d="M352.58,395.89c.05,3.67-3.53,7.67-6.93,7.73A7.62,7.62,0,0,1,338,396.1a7.17,7.17,0,0,1,7.25-7.27A7.07,7.07,0,0,1,352.58,395.89Z"/><path class="cls-43" d="M591.67,370.91a7.41,7.41,0,0,1,7.27,7.34,7.67,7.67,0,0,1-7.4,7.29,7.32,7.32,0,0,1,.13-14.63Z"/><path class="cls-43" d="M382.06,380.07a7.27,7.27,0,0,1-7.4,7.06,7.17,7.17,0,0,1-7.19-7.23,7.32,7.32,0,0,1,7.38-7.08A7.24,7.24,0,0,1,382.06,380.07Z"/><path class="cls-43" d="M369.61,451.05c-4.69,0-7.27-2.45-7.23-6.75a7.43,7.43,0,0,1,7.45-7.17,8,8,0,0,1,7.34,7.48C377.16,448.8,374.47,451.09,369.61,451.05Z"/><path class="cls-39" d="M565.42,451.05c-5.1,0-7.46-2-7.5-6.37a7.72,7.72,0,0,1,7.14-7.54,7.37,7.37,0,0,1,7.46,7.1C572.59,448.59,570,451,565.42,451.05Z"/><path class="cls-39" d="M343.45,370.92a7.2,7.2,0,0,1,7.07,7.37,7.17,7.17,0,1,1-14.34-.19A7.13,7.13,0,0,1,343.45,370.92Z"/><path class="cls-39" d="M322.41,384.24c0-4.62,2.5-7.39,6.7-7.35,2.79,0,7.16,5.33,7.23,8.75.06,2.84-4,6.23-7.44,6.17C324.73,391.73,322.45,389.07,322.41,384.24Z"/><path class="cls-28" d="M560.73,372.84a7.2,7.2,0,0,1,6.65,7.8c-.33,4.09-3.68,6.8-7.93,6.44a6.85,6.85,0,0,1-6.37-7.49A6.93,6.93,0,0,1,560.73,372.84Z"/><path class="cls-43" d="M612.49,384.22c-.12,5.07-2.65,7.91-6.94,7.55-3.74-.33-6.43-2.47-6.81-6.14-.41-3.87,4.4-8.91,7.58-8.72C610.37,377.14,612.6,379.78,612.49,384.22Z"/><path class="cls-40" d="M531.15,418.73a7.11,7.11,0,0,1-6.77-7.06c0-4.35,3.12-7.21,7.77-6.84,3.9.32,5.83,2.89,6.15,6.52S534.63,418.8,531.15,418.73Z"/><path class="cls-44" d="M397.48,420.59a7.07,7.07,0,0,1-6.74,7.11,7.33,7.33,0,0,1-7.07-6.93,7.09,7.09,0,0,1,6.91-6.95A6.64,6.64,0,0,1,397.48,420.59Z"/><path class="cls-43" d="M544.27,413.82a7.12,7.12,0,0,1,7,6.85,7.29,7.29,0,0,1-7,7,7.17,7.17,0,0,1-6.92-7A6.85,6.85,0,0,1,544.27,413.82Z"/><path class="cls-43" d="M403.08,404.8c4.62-.06,7.48,2.53,7.49,6.79a7.06,7.06,0,0,1-6.8,7.15c-3.16,0-7-3.77-7.2-7.06A7,7,0,0,1,403.08,404.8Z"/><path class="cls-32" d="M413.17,395.94c.58,4.11-.49,7-5.25,7a7.19,7.19,0,0,1-7.3-7.1c.12-3.67,3.5-7.09,7.14-6.89C412.09,389.22,413.93,391.68,413.17,395.94Z"/><path class="cls-33" d="M423.1,312.73a18.62,18.62,0,0,1-3,0c-1.52-.26-3.66,1.05-4.44-.9s.4-3.9,1.72-5.44c2.78-3.23,6.29-3.66,9.9-1.8,2.65,1.37,4.64,4,3.9,6.9-.7,2.74-3.69.78-5.6,1.24A10.89,10.89,0,0,1,423.1,312.73Z"/><path class="cls-34" d="M314.39,312.73a11.49,11.49,0,0,1-2.49,0c-1.77-.39-4.48,1.27-5.16-1.24-.61-2.25.86-4.49,2.7-6.08a7.53,7.53,0,0,1,8.41-1.15c2.84,1.28,5.1,3.76,4.45,7-.62,3.12-3.6.84-5.43,1.41A8.55,8.55,0,0,1,314.39,312.73Z"/><path class="cls-45" d="M622.45,312.73a10.17,10.17,0,0,1-2.47,0c-1.74-.43-4.49,1.37-5.07-1.36-.47-2.22.76-4.55,2.71-6a7.76,7.76,0,0,1,8.8-.81c2.64,1.4,4.59,3.74,3.91,6.78s-3.59.88-5.42,1.43A9.17,9.17,0,0,1,622.45,312.73Z"/><path class="cls-46" d="M514,312.73a15.59,15.59,0,0,1-3,0c-1.65-.31-4.11,1.18-4.8-1.16-.62-2.08.43-4.27,2.12-5.81a7.76,7.76,0,0,1,9.2-1.27c2.77,1.35,4.59,3.82,3.94,6.82s-3.64.87-5.49,1.43A7.33,7.33,0,0,1,514,312.73Z"/><path class="cls-32" d="M554.91,438.31c-3.94-.36-6.07-2.44-6.38-6-.27-3,3.48-6.64,6.48-6.21,3.5.5,5.69,2.55,5.66,6.33A5.84,5.84,0,0,1,554.91,438.31Z"/><path class="cls-44" d="M380.3,438.29c-3.45-.34-5.8-2-6-5.8-.18-3.55,2.68-6.77,6-6.38s6,2.39,6,6.1S384,437.84,380.3,438.29Z"/><path class="cls-41" d="M524,396.1c1.44-2.32-2.12-6.59,3.11-7.1,3.54-.35,7.06,3.15,7.2,6.83a7,7,0,0,1-6.77,7.12C521.39,403.06,525.67,398.21,524,396.1Z"/><path class="cls-47" d="M537.45,223.9h.83l-3.12,11.93c-5.34-2.63-10-6.31-15.83-10.92,5.17,0,9.12.09,13.07,0C534.1,224.8,536.06,225.71,537.45,223.9Z"/><path class="cls-48" d="M413.54,379.51c-1.58,2.11,2.07,6.1-2.53,6.8-3.12.47-6.5-3.57-6.46-7s3.54-7.43,6.6-6.78C415.5,373.46,412,377.31,413.54,379.51Z"/><path class="cls-33" d="M642.87,395.38c0,2.33-2.16,4.2-5.26,4.14s-5.32-2-5.21-5.41,2-5.19,5.32-5.25C641.24,388.79,642.6,391.07,642.87,395.38Z"/><path class="cls-46" d="M347.37,411c-.45,3.47-2.43,5.54-5.58,5.46s-5.41-2-5.27-5.41c.14-3.22,2.05-5.22,5.42-5.21S346.8,408.11,347.37,411Z"/><path class="cls-38" d="M593.23,405.74c3.07.29,5,1.93,5.15,5.3s-2.18,5.3-5.24,5.39a5,5,0,0,1-5.42-5.29C587.74,408.06,589.58,405.91,593.23,405.74Z"/><path class="cls-33" d="M575,373.88c3.77.32,5.85,2.25,5.91,5.39s-1.84,5.47-5.19,5.47-5.22-1.82-5.37-5.22S572.55,374.7,575,373.88Z"/><path class="cls-31" d="M302.53,393.64c0,3.74-2,5.73-5,5.86s-5.28-1.54-5.25-5.14c0-3.31,1.4-5.44,4.86-5.49C300.41,388.81,302.17,390.7,302.53,393.64Z"/><path class="cls-40" d="M551.5,386.83c-.28,3.3-2,5.1-5.39,5.1s-5.21-2.22-5.2-5.31a4.9,4.9,0,0,1,5.39-5.18C549.49,381.53,551.41,383.4,551.5,386.83Z"/><path class="cls-45" d="M389.09,392c-3.37-.1-5.44-1.69-5.63-5s1.83-5.32,5-5.52a5,5,0,0,1,5.62,5C394.26,389.54,392.38,391.66,389.09,392Z"/><path class="cls-45" d="M354.1,379.36c.19-3.22,2-5.31,5.22-5.32s5.21,1.87,5.23,5.3-1.91,5.34-5.12,5.39S354.35,382.74,354.1,379.36Z"/><path class="cls-49" d="M559.42,400.89c-3-.46-5-2.2-5-5.52s2.4-5.18,5.57-5.08a4.92,4.92,0,0,1,5,5.2C565,398.6,563.1,400.71,559.42,400.89Z"/><path class="cls-35" d="M586.32,428c-3-.32-4.94-2.22-4.83-5.44s2.27-5.19,5.55-5,5.36,2.14,5.15,5.42C592,426.11,590,428,586.32,428Z"/><path class="cls-32" d="M601.07,427.09c-3.38-.14-5.44-2-5.51-5.17s2.07-5.21,5.28-5.32,5.36,1.85,5.41,5.12S604.3,426.79,601.07,427.09Z"/><path class="cls-43" d="M601.41,444.11c-3.44-.11-5.4-2-5.45-5.16s1.74-5.28,5.16-5.29,5.25,1.66,5.32,5.09S604.59,443.8,601.41,444.11Z"/><path class="cls-31" d="M549,450.94c-3.7.25-5.69-1.34-5.57-4.87.12-3.35,2.22-5.23,5.48-5.18s5.26,2.44,5.16,5.56C554,449.37,552.22,451.44,549,450.94Z"/><path class="cls-50" d="M312,406c-3-.29-4.77-2.13-4.61-5.52.16-3.55,2.33-4.81,5.7-4.7S318,398,318,400.88C317.88,404,316,406.06,312,406Z"/><path class="cls-51" d="M334.29,427.07c-3.41-.07-5.48-1.93-5.6-5.08a4.85,4.85,0,0,1,5.16-5.38c3.16,0,5.43,1.68,5.51,5S337.51,426.75,334.29,427.07Z"/><path class="cls-41" d="M380.51,395.93c-.52,3.07-2.28,5-5.62,4.86s-5-2.47-4.82-5.69a4.8,4.8,0,0,1,5.28-4.8C378.51,390.42,380.44,392.38,380.51,395.93Z"/><path class="cls-50" d="M622.52,395.76c3.23-.09,5,1.68,5,5.11s-2,5.14-5.39,5.08c-3.21-.05-4.93-1.94-5-5C617,397.65,618.69,395.66,622.52,395.76Z"/><path class="cls-51" d="M348,428c-3.37-.23-5.25-2.31-5.18-5.41s2.29-5.11,5.53-5.05,5.22,2,5.1,5.37S351.26,427.9,348,428Z"/><path class="cls-35" d="M333.67,444.13c-3.19-.29-5.24-1.88-5.21-5.29s2-5.16,5.28-5.2a4.9,4.9,0,0,1,5.34,5.22C339.09,442,337.06,444,333.67,444.13Z"/><path class="cls-41" d="M391.55,446.24c-.23,3.77-2.37,4.78-5.7,4.77-3.48,0-4.93-2-4.86-4.91.09-3.18,2-5.34,5.42-5.2S391.43,443.07,391.55,446.24Z"/><path class="cls-32" d="M539.7,433.12c-.11,3.35-2,5.42-5.15,5.46a4.84,4.84,0,0,1-5.21-4.85c-.25-3.45,1.87-5.43,4.89-5.7C537.45,427.74,539.37,429.81,539.7,433.12Z"/><path class="cls-32" d="M362.11,399.08c-3.46-.11-5.5-2-5.49-5.2s2-5.18,5.39-5.16a4.83,4.83,0,0,1,5.16,4.91C367.31,396.81,365.37,398.8,362.11,399.08Z"/><path class="cls-31" d="M533.88,451c-3.2.42-5.2-1.12-5.25-4.27a4.93,4.93,0,0,1,5.2-5.39c3.14,0,5.42,1.64,5.51,5.05C539.44,450,537.34,451.37,533.88,451Z"/><path class="cls-52" d="M395.26,433c.32-3.15,2.27-5.19,5.45-4.93a5,5,0,0,1,4.87,5.7,4.77,4.77,0,0,1-5.18,4.85C397.26,438.5,395.32,436.51,395.26,433Z"/><path class="cls-43" d="M573.06,399.07c-3.49-.18-5.31-2.29-5.23-5.4a4.75,4.75,0,0,1,5.08-4.94c3.35,0,5.35,1.81,5.39,5.11S576.33,398.9,573.06,399.07Z"/><path class="cls-52" d="M400.41,451c-3.25.27-5-1.49-4.83-4.62s2.35-5.07,5.6-5,5.23,2.13,5.13,5.4C406.2,450.41,403.75,451.42,400.41,451Z"/><path class="cls-50" d="M362.48,405.88c-.2,2.62-2.18,4.28-5.45,4.18s-5.11-2.28-5-5.46c.07-2.41,1.51-5.17,4-4.57S362.72,400.47,362.48,405.88Z"/><path class="cls-35" d="M577.61,410.12c-3.39-.35-5.3-2.07-5.22-5.45.1-4.21,4.11-4.15,6.48-4.63,2.74-.54,4.28,2.39,4.16,5C582.89,408.19,580.82,410,577.61,410.12Z"/><path class="cls-34" d="M321.56,451.06a7.34,7.34,0,0,1-2,0c-1.38-.41-4.07,1.21-3.95-1.24.1-2,0-4.68,2.56-6.06,3.91-2.09,9.42.82,9.78,5.22.14,1.61-.5,2.1-1.91,2.1Z"/><path class="cls-32" d="M613.21,451.35c-1.78-1.59-5.9,2.2-5.92-2.62,0-3.69,2.93-5.38,6.31-5.73a5.46,5.46,0,0,1,5.7,6.42C618.58,453,615.18,450,613.21,451.35Z"/><path class="cls-53" d="M279.53,408.27c-.53,3.3-2.5,4.93-5.85,4.68-2.35-.17-4.91-1.51-4.1-3.82.93-2.65,2.23-6.35,6-6.3C278.48,402.87,279.52,405.41,279.53,408.27Z"/><path class="cls-35" d="M660.83,413c-3.33-.17-5.29-1.9-5.41-5.17-.1-2.78,1.41-5.21,4.22-5.06,3.52.19,5.06,3.73,5.77,6.42C666.07,411.69,663.31,412.85,660.83,413Z"/><path class="cls-48" d="M639.47,381.94c-3.74.07-5.6-2.21-5.77-5.51a5,5,0,0,1,3.9-5.17c.71-.18,6.26,7.17,6.21,8.08C643.74,380.59,641.58,381.88,639.47,381.94Z"/><path class="cls-38" d="M296,382c-2.32-.22-5.12-.62-4.49-2.93.83-3.06,2.9-6.45,5.78-7.56,2-.78,4,2.27,3.95,4.74A5.38,5.38,0,0,1,296,382Z"/><path class="cls-32" d="M289.54,392.63c-.09,3.47-1.85,5.27-5.2,5.45a4.38,4.38,0,0,1-4.73-2.81c-.4-1,4.86-7.58,5.94-7.43C288.29,388.23,289.35,390.13,289.54,392.63Z"/><path class="cls-31" d="M650.61,398.12c-3.3-.29-5.24-2-5.21-5.39,0-2.54,1.27-4.46,4-4.9,1.12-.18,6.06,6.17,6,7.44C655.2,396.71,652.79,398.17,650.61,398.12Z"/><path class="cls-46" d="M524.27,379.45a3.27,3.27,0,0,1,0-1c.61-1.83-1.49-5.28,1.24-5.35,3.24-.08,4.66,3.23,4.78,6.45a7,7,0,0,1-.79,2.81c-.81,1.91-2.21,3.85-4.3,3.36s-.59-2.83-.92-4.31A9.25,9.25,0,0,1,524.27,379.45Z"/><path class="cls-54" d="M406.5,232.94c-.44-2.62-.87-5.24-1.31-7.86h12.6l.3.84Z"/><path class="cls-55" d="M542.14,376.93c-.5,2.42-1.63,4.07-4.3,4.05s-4.17-1.59-4.19-4c0-2.64,1.55-4.31,4.44-4.22C540.8,372.87,541.71,374.7,542.14,376.93Z"/><path class="cls-36" d="M397.26,381c-2.83,0-4.19-1.55-4.21-4s1.24-4.1,3.9-4.13c2.81,0,4.41,1.58,4.33,4.25A3.79,3.79,0,0,1,397.26,381Z"/><path class="cls-38" d="M408.35,428.92a3.77,3.77,0,0,1-3.75-4.09c0-2.64,1.71-4.2,4.51-4.06s3.63,1.87,3.56,4.33C412.59,427.72,411.18,429,408.35,428.92Z"/><path class="cls-33" d="M340.5,451.34c-1.61-1.28-4.9,1.65-5.07-2-.14-2.92,2.39-4.27,5-4.38s5.09,1.46,5,4.33C345.35,453.05,342,450,340.5,451.34Z"/><path class="cls-46" d="M594.12,451.05c-1.59-.88-4.6,1.75-4.66-1.76,0-2.83,2.26-4.49,5-4.38s5.34,1.53,5,4.4C599.13,453,595.84,450.06,594.12,451.05Z"/><path class="cls-56" d="M245.32,451.56c-1.88-1.46-5.27,1.34-5.28-2.1a4.79,4.79,0,0,1,5.15-4.4c2.65.16,5.26,1.65,5.06,4.43C250,453.1,246.56,449.6,245.32,451.56Z"/><path class="cls-57" d="M689.94,451.31c-1.75-1.14-5,1.58-5.27-1.77-.25-2.73,2.39-4.33,5.07-4.49a4.8,4.8,0,0,1,5.19,4.39C694.92,453.06,691.39,449.63,689.94,451.31Z"/><path class="cls-44" d="M524.22,424.6c.34-1.64-.88-4.13,2.37-3.8a3.77,3.77,0,0,1,3.72,3.89,3.71,3.71,0,0,1-3.9,4.17C522.74,429,524.94,426,524.22,424.6Z"/><path class="cls-58" d="M304.22,339.87c-2.26-2.75-4.33-5.61-4.89-9.26C306.66,330.68,304.1,336,304.22,339.87Z"/><path class="cls-59" d="M358,451.26c-1.53-.63-3.78.82-3.9-1.33-.09-1.73,1.88-2.71,3.58-2.82s3.67.79,3.75,2.5C361.53,452.65,358.7,450,358,451.26Z"/><path class="cls-60" d="M581,450.86a37.42,37.42,0,0,1-3.78.2c-1.25-.05-2.72.56-3.69-.52-.58-.66,0-1.52.63-2.09,1.29-1.11,2.62-1.85,4.4-1C580,448.1,581.06,448.9,581,450.86Z"/><path class="cls-18" d="M461.33,151l7.14,0A8.2,8.2,0,0,1,461.33,151Z"/><path class="cls-61" d="M478,825.68c7.15,0,7.17,0,7.28,7.45.11,8.32.15,16.65.34,25,0,1.67-.75,4.37,1.59,4.62,2.53.26,2-2.45,2.26-4.15,1-6.91,1.78-13.85,3-20.72,1-5.66,3.69-10.27,9.31-12.67,6.76-2.88,13.32.44,14.72,7.68,1.33,6.92.65,14,.89,20.93.07,2,0,4,.06,6,0,1.19.11,2.52,1.5,2.81,1.65.35,2.3-.84,2.66-2.28q2.38-9.41,4.81-18.79c.67-2.56,1.32-5.14,2.14-7.66,2.06-6.35,4.76-8.81,9-8.29s6.81,4.4,7,10.59q.3,10.74.54,21.47c.06,2.4.26,4.3,3,5.57s2.63,3.57.08,5.43c-4.75,3.45-10.11,1-10.67-5.2s-.7-12.3-1-18.45c-.06-1.16,0-2.34-.14-3.49-.26-1.82-.59-3.85-2.82-4.17-2.59-.38-3.42,1.74-3.94,3.66-2.1,7.85-4.18,15.7-6,23.61-1,4.06-1.73,8.09-7.17,7.75-4-.26-6.75-4.17-6.94-9.55-.27-7.82-.53-15.64-.85-23.46-.11-2.72-.44-5.76-3.63-6.36s-5.76,1.11-7.44,3.92c-3.43,5.73-3.58,12.36-5,18.63-.67,2.9-1.26,5.83-2.17,8.66-1.28,4-4.37,5.09-8.29,4.56s-4.4-3.59-4.45-6.65c-.16-8.83-.21-17.66-.26-26.48,0-2.46-.15-4.75-3.16-5.4-1.74-.38-3.22-1-2.74-3.23s2.39-1,3.65-1.29A16.55,16.55,0,0,1,478,825.68Z"/><path class="cls-17" d="M681.71,829.11a9.73,9.73,0,0,1-5.39,3.36c-9.37,2.29-13.73,17.19-7.12,24.3,2.55,2.74,6.84,2.78,10.39.13,3.83-2.87,5.42-7,6.64-11.4,1.12-4,2-8,3.11-12a11.43,11.43,0,0,1,5-7.19c6-3.52,12.22-.25,12.5,6.73q.54,13,.51,26c0,4.06,1.73,5.82,5.59,5.89,1,0,2.46-.74,2.67,1.17.16,1.43-.75,2.16-1.91,2.56a47.45,47.45,0,0,1-5.69,1.78c-6.62,1.43-8.71-.14-9.82-6.86-1.56-9.45-.56-18.94-.68-28.42,0-1.65,1-4.28-1.35-4.67-2.07-.34-2.73,2.18-3.17,3.9-1.62,6.25-3,12.56-4.6,18.83a45.27,45.27,0,0,1-4.67,11.47c-5.18,9.09-13.64,10.58-21.67,3.88-6.55-5.47-10-18.17-7.28-26.6,2.39-7.33,11.25-14,19.33-14.41C676.69,827.36,679.39,827.14,681.71,829.11Z"/><path class="cls-62" d="M387.06,825.39c8-.55,9.29.69,9.51,8.63q.36,12.72.84,25.44c0,1.32-.71,3.35,1.72,3.36,2,0,2.12-1.68,2.32-3.21,1-7.57,1.75-15.18,3.1-22.68,1.71-9.43,7.8-15.06,15.77-15.27,6.89-.19,11.83,4.15,12.16,11.05q.63,13.2.79,26.44c0,3.15.29,5.64,4.26,5.81,1.54.07,2.16,1.24,2.33,2.75s-.81,2.07-1.78,2.7c-6.69,4.3-13.37,1.07-13.77-6.8-.42-8.3-.52-16.63-.91-24.93-.16-3.27,0-7.18-4.28-8s-7.47,1.33-9.33,5.14c-3.26,6.66-3.56,14.09-5.3,21.16a52.81,52.81,0,0,1-1.92,6.66c-1.86,4.72-5,6.07-10.48,5-4.47-.86-3.9-4.18-4-7.35-.18-8.81-.46-17.63-.63-26.45,0-2.13-.19-3.92-2.8-4.51-1.84-.41-4.45-.7-3.77-3.48.59-2.4,3.09-.83,4.65-1.37A6.57,6.57,0,0,1,387.06,825.39Z"/><path class="cls-62" d="M635.36,834.56c0-5.16,0-10.32,0-15.47,0-3.44,1.44-5.67,4.79-6.65,3.74-1.08,7.17-.16,9.42,2.74,1.09,1.41,2.8,5-2,4.82-3.33-.1-3.69,2.53-3.73,4.8-.14,6.65,0,13.3,0,20,0,2.33.21,4.67,0,7-.77,10.3-4.39,15.53-12.19,17.88-10.32,3.1-20.56.43-26.31-6.86-8-10.12-7.06-23.31,2.11-30.74a17.47,17.47,0,0,1,22.82,1,3,3,0,0,1,.66,3.62c-.75,1.8-1.9.28-2.88.05a4.43,4.43,0,0,1-.47-.17c-11.74-4.79-15.57-2-15.35,10.9.08,4.69,1.4,8.88,4.76,12.19,6.1,6,14.7,3.84,17.4-4.26,1.14-3.39,1-6.89,1.1-10.36s0-7,0-10.47Z"/><path class="cls-17" d="M202.69,825.4c8.14-.58,9.63.83,9.76,9,.13,7.66.26,15.32.57,23,.06,1.39-1,3.94,1.48,4,1.85,0,2.11-2.36,2.4-3.92,1.28-6.86,2.32-13.76,3.65-20.6s3.94-12.59,11.59-14.66c8.71-2.37,16,2.51,16.27,11.49.27,8.32.3,16.65.39,25,0,3.2.29,6.1,4.54,6.31a2.13,2.13,0,0,1,2.18,2.23,3.19,3.19,0,0,1-1.75,3.22c-6.49,4-13.06,1.16-13.85-6.43-.59-5.61-.36-11.31-.49-17-.06-3,.2-6-.28-9s-.14-6.85-4.39-7.44-7.39,1.45-9.29,5.27c-2.32,4.67-3.09,9.78-4,14.84-.81,4.4-1.43,8.86-3.12,13-1.83,4.51-5.32,6-10.66,4.86-4.29-.9-4.07-4.11-4.08-7.36,0-8.66-.19-17.32-.2-26,0-2.6-.57-4.56-3.52-5.11-1.74-.33-3.92-.58-3.31-3.25.57-2.49,2.75-.92,4.14-1.39A7.65,7.65,0,0,1,202.69,825.4Z"/><path class="cls-62" d="M371.29,868.56c-7.89.22-9.48-1.24-9.66-8.6-.2-8.49-.24-17-.42-25.46,0-1.41.44-3.36-1.6-3.69-2.56-.42-2.39,2-2.6,3.4-1,6.57-1.62,13.19-2.61,19.76-1,6.91-3,13.31-10.18,16.57-9.58,4.38-18.18-.61-18.6-11.12-.33-8.14-.3-16.31-.24-24.46,0-3.4-.61-6-4.6-6.28a2.1,2.1,0,0,1-2.28-2.09,3,3,0,0,1,1.71-3.19c7.33-4.52,13.79-1.18,14.15,7.55.35,8.31.41,16.63.75,24.95.14,3.18.5,6.9,4.49,7.34,3.83.43,7-1.45,8.9-5.14,3-6,3.53-12.74,4.95-19.2a78.72,78.72,0,0,1,2.44-9.1c1.41-4,4.62-5.44,8.7-5.06,3.79.35,6,1.9,5.91,6.31-.15,9,.18,18,.27,27,0,2.88.43,5.45,4.08,5.63,1.84.09,2.7.9,2.61,2.81-.1,2.08-1.71,1.68-2.91,1.86S371.9,868.52,371.29,868.56Z"/><path class="cls-17" d="M293.24,872.89c-3.17.42-6.4-1.22-9.37-3.49-4.8-3.66-9.59-7.28-16.21-6a1.18,1.18,0,0,1-1.55-.87c-.2-1,.56-1.46,1.26-1.87a11.55,11.55,0,0,1,11.87-.16c2.93,1.55,5.76,3.31,8.53,5.13,2.36,1.55,4.46,1.38,6.17-.74s.82-4.12-.69-5.88c-3.78-4.4-8.94-6.78-13.94-9.41-3.81-2-7.92-3.5-11.15-6.5-4.74-4.42-6.07-10.64-3.33-15.84,2.45-4.65,7.46-6.67,13.79-5.32a48.11,48.11,0,0,1,15.32,5.64,37.05,37.05,0,0,1,3.64,2.6,2.57,2.57,0,0,1,.54,3.21c-.75,1.82-2,.43-2.91.14-2.2-.72-4.24-2-6.47-2.5-2.76-.61-6-1-7.42,2.26s1,5.31,3.25,7a25,25,0,0,0,8.22,3.44c3.52,1,7,2.07,9.91,4.44,4.78,3.89,6.37,10.89,4,17.32C304.71,870.7,300.79,873,293.24,872.89Z"/><path class="cls-62" d="M579.19,834.74a50.21,50.21,0,0,0-6.08,0c-2.94.33-5.08,1.91-5,5.16.09,3,2.39,3.65,4.89,3.81,1.17.07,2.33.14,3.49.27,1.76.2,3.08.6,3.06,3s-1.22,2.51-3.07,2.77c-7,1-8.82,3-7.87,8.06.75,4,3.56,5.35,7.11,5.78a16.59,16.59,0,0,0,9.22-1.54c1.76-.83,2.41.35,3.06,1.53s-.08,1.67-1.12,2.17c-6.27,3-12.8,4.84-19.76,3.61-6.57-1.15-10.25-5.62-10.54-13.22-.35-8.72,1.77-17.12,4.45-25.36a5.77,5.77,0,0,1,5.11-4.15c7.08-.89,13.9.76,20.73,2.16,2.68.55,1.55,2.9,1.69,4.55.2,2.34-1.45,2.17-3,2Z"/><path class="cls-62" d="M738,869.43c-7.35,0-9.48-2.06-9.55-9-.11-12-.23-23.94-.22-35.9,0-3.09-.87-5.34-4.17-5.61-3.49-.29-2.49-2.77-2.66-4.74-.22-2.59,1.7-2.32,3.33-2.48,13.6-1.31,14-1,14.32,12.72q.36,16.71.37,33.41c0,3.17.65,5.3,4.39,4.81,1.71-.22,2.37.46,2.43,2.19s-.18,3.1-1.94,3.52C742,868.9,739.67,869.15,738,869.43Z"/><path class="cls-63" d="M174.5,849.42c0-3.82-.08-7.64,0-11.46s.43-7.86-5.15-8.26c-1.56-.11-1.6-1.52-1.63-2.66-.05-1.93,1.55-1.29,2.54-1.41,12-1.47,13-.51,13.33,11.59.18,7.31.68,14.61.69,21.92,0,4.09,1.74,5.78,5.64,5.7,1,0,2.45-.79,2.53,1.26.06,1.46-.86,2.09-2,2.46a44,44,0,0,1-6.66,2c-6.57,1.06-8.88-1-8.91-7.64,0-2.32-.09-4.65-.11-7,0-2.16,0-4.32,0-6.48Z"/><path class="cls-64" d="M467.41,243.89c13.15,0,26.31.1,39.47-.07,3.15,0,4.3.63,4.24,4.05q-.33,18,0,36c.08,3.64-1.18,4.35-4.53,4.33q-39-.18-77.95,0c-3.24,0-4.25-.78-4.19-4.13.21-12,.24-24,0-36-.08-3.67,1.15-4.33,4.49-4.28C441.75,244,454.58,243.89,467.41,243.89Z"/><path class="cls-19" d="M467.79,285.87c-12.14,0-24.29-.08-36.43.06-3,0-4.38-.37-4.29-3.93.27-10.64.19-21.29,0-31.94-.05-2.95.64-4,3.84-4q36.93.19,73.87,0c2.74,0,3.75.61,3.71,3.55-.17,11-.19,22,0,32.94.06,3.16-1.29,3.37-3.81,3.34C492.42,285.81,480.11,285.87,467.79,285.87Z"/></g></g></svg>