<svg xmlns="http://www.w3.org/2000/svg" viewBox="0 0 1008.64 1172.09"><defs><style>.cls-1{fill:#fcd10a;}.cls-2{fill:#d7b229;}.cls-3{fill:#8b752d;}.cls-4{fill:#d9b428;}.cls-5{fill:#766328;}.cls-6{fill:#b29530;}.cls-7{fill:#8c772e;}.cls-8{fill:#786428;}.cls-9{fill:#85712c;}.cls-10{fill:#6d5c25;}.cls-11{fill:#2e348a;}.cls-12{fill:#fff;}.cls-13{fill:#fefefc;}.cls-14{fill:#695d55;}.cls-15{fill:#efc91a;}.cls-16{fill:#f3f2f6;}</style></defs><g id="Layer_2" data-name="Layer 2"><g id="Layer_1-2" data-name="Layer 1"><path class="cls-1" d="M514.41,1172.09H494.24c-4.21-2-4.54-6.21-5.83-10-19.34-57.35-47.67-108.89-96.46-146.85-20.56-16-43.44-28-67.74-37.34-54.47-20.9-104.15-50-148.34-88.08C129.4,849.72,90.34,803.38,60.8,749.45c-28-51.1-47.46-105.25-56.76-163-2.13-13.22-.67-26.74-4-39.78v-8.07c1.23-1.12,1-2.62,1-4s.21-2.91-1-4V520.48a117.28,117.28,0,0,0,0-34.29V476.1a4.65,4.65,0,0,0,0-6.05V460c3.38-18.74,3.29-37.83,7.26-56.61Q36.12,266.57,129.71,163C172.87,115.3,223.44,77.66,280.7,49c44.1-22.1,90.78-36.87,139.45-45.21,12.5-2.15,25.37-.62,37.77-3.75H466a4.67,4.67,0,0,0,6.06,0h8.06a15.7,15.7,0,0,0,12.11,0h34.29c1.79,1.72,4,.76,6,1,2-.26,4.27.71,6.06-1h8.06C560.11,3.09,574,1.49,587.49,3.85c92.16,16.08,174,54.08,245.13,115,61.28,52.51,108,115.84,139,190.3,20.9,50.19,35.1,102.22,36,157.15,0,1.95-.55,4.05,1,5.75v20.18a58.78,58.78,0,0,0,0,24.21V534.6c-3.09,4.15-7.59,5-12.33,5.29-5.94.32-7.8,4.12-8.12,9.31-.34,5.67,3.9,6.08,7.84,6.92,4.84,1,10,1.56,12.61,6.73v4c-2.65,21.23-5.27,42.46-9.29,63.5-3.12,16.37-4.24,17.57-20.18,14.57-6.68-1.26-10,.83-12,7-4.19,13.12-8.47,26.23-14,38.86-2.27,5.19-.52,8.31,4.44,10.25,1.87.73,3.74,1.5,5.55,2.39,9,4.41,10.68,8,6.44,16.75-10,20.55-21.14,40.49-31.56,60.81-3.93,7.66-7.73,8.06-15.77,3.6-15.12-8.38-15.07-8.35-25.14,5.46-5.94,8.14-11.76,16.4-18.64,23.79-4.89,5.25-4.69,9.16,1,14.17,16,14.08,15.83,15,.45,30.42-12.82,12.84-25.53,25.79-38.54,38.44-8.66,8.42-13.3,8.68-20.8-.7-12.24-15.31-12.9-12-26.32-2.13-8.11,6-16,12.26-24.7,17.41-5.53,3.28-6.4,7.22-3,12.51,2,3.1,4.1,6.15,6,9.33,5.31,9,4.52,12.77-5,17.67q-28.68,14.75-57.24,29.69c-10.67,5.6-13.92,4.26-18.57-6.7-9.06-21.38-8-17.42-26-10.8a265.53,265.53,0,0,1-27,8.28c-7,1.74-9.64,5.42-7.26,12.43.75,2.22,1.2,4.54,1.81,6.82,3.89,14.61,2.32,17.2-12.15,19.85-19.17,3.5-38.38,6.77-57.56,10.21-13.91,2.51-16.63.42-18.52-13.35-.37-2.66-1.14-5.3-1.17-8-.1-7.19-3.52-9.84-10.7-9.89-14.46-.11-15.62.61-15.63,15q-.06,76.09-.06,152.2C517.57,1162,518.67,1167.65,514.41,1172.09Z"/><path class="cls-2" d="M0,486.19a62.35,62.35,0,0,1,0,34.29Z"/><path class="cls-3" d="M1008.64,516.45a31.46,31.46,0,0,1,0-24.21Z"/><path class="cls-4" d="M492.22,0c-4,2.82-8.07,3.2-12.11,0Z"/><path class="cls-5" d="M472.05,0c-2,2.52-4,3.18-6.06,0Z"/><path class="cls-6" d="M532.72,1.72c-2.32.31-4.63.63-6.21-1.72h6c.68.33.93.69.75,1.09S532.92,1.72,532.72,1.72Z"/><path class="cls-7" d="M532.72,1.72A14.1,14.1,0,0,1,532.56,0h6.06C537.38,3.07,534.84,1.68,532.72,1.72Z"/><path class="cls-8" d="M0,470.05c3.14,2,2.55,4,0,6.05Z"/><path class="cls-9" d="M0,530.57c2,.77,2,2.37,1.7,4.1-.6,1-1.17.88-1.7-.07Z"/><path class="cls-10" d="M0,534.6a13.73,13.73,0,0,1,1.7.07c.25,1.67.79,3.47-1.7,4Z"/><path class="cls-11" d="M215.19,645.7c-50.34-11.46-97.25-30.59-138.49-62.27C59.86,570.49,44.91,555.66,32.64,538c3-2.9,6.53-1.49,9.59-1.49q220.37-.13,440.72-.31c8.8,0,10.37,2.59,10.16,10.64-.56,22.51-.29,45.05-.16,67.57.09,17.09-2.12,14.53,14.12,14.62,25.21.13,50.42,0,75.63,0,4.37,0,8.76,0,13.1.44,20.4,2.06,26.36,10.35,22,30.34-2.59,12-2.59,12,9.89,12,9.75,0,19.5-.14,29.24.11,9.93.26,18.61,3.78,27.73,12-21.17-.68-40.13-.67-59,2-32.19,4.61-63.25,12.5-90.73,30.84-28,18.69-43.18,44-42.22,78.64.81,28.89.2,57.82.13,86.74,0,3.66-.55,7.32-.85,11-7.75,3.45-15.94,2.05-23.75,1.18-76-8.5-142.6-38.09-200.41-88.19-46.16-40-78.84-89.24-102-145.24-1.7-4.12-4.86-8.32-2-13.27l13.34.24a210.62,210.62,0,0,0,38.33,0c.2,0,.39-.5.5-.79C216.23,646.56,215.93,646.08,215.19,645.7Z"/><path class="cls-11" d="M716.2,715.76c-4.35-39.64-31.79-65.08-69.12-65.15-7.37,0-11.67-.09-12.59-10-1.53-16.44-15.62-27.63-35-31.31-14-2.67-28.14-1.77-42.23-1.88-13.42-.11-26.83,0-41.13,0,3.11-9.3,9.58-15.06,16.15-20.45,31.69-26,68.94-39.63,108.33-48.47a103.24,103.24,0,0,1,23-2.18c79,.08,158,.21,237-.17,8.85,0,10.48,2.32,9.44,10.62q-25,199.69-195.35,306.62c-57.42,36-120.81,54.43-188.44,58.7-8.82.56-12-1.17-11.8-11,.66-36,.86-71.94,0-107.89-.59-25.44,10.24-43.86,30.57-57.62,27.14-18.38,57.85-26.13,89.9-29.75C662.42,702.79,689.31,704.73,716.2,715.76Z"/><path class="cls-11" d="M863.4,504.41c-34.95,0-69.9-.21-104.84.17-7.29.08-8.83-1.89-8.15-9,5.85-60.7,2.06-120.74-13.69-179.81-1.49-5.57.14-7.6,5.41-9.14,52.34-15.3,102.57-35.79,150.23-62.36,4.57-2.55,6.63-2,9.46,2.39,39.47,61.44,64,128.28,72.58,200.82,1.93,16.32,2.24,32.82,3.69,49.21.57,6.37-1.7,7.89-7.84,7.84C934.64,504.26,899,504.41,863.4,504.41Z"/><path class="cls-11" d="M143.5,504.41c-35,0-69.93-.22-104.89.17-7.26.09-8.85-2.09-8.68-9Q33.26,361.94,104.59,249c3.4-5.38,5.83-6.29,11.53-3,46.6,26.54,96,46.64,147.47,61.29,8.12,2.31,8.47,5.44,6.66,12.47-15,58.19-18.82,117.27-12.61,177,.69,6.57-1,7.9-7.23,7.85C214.77,504.27,179.13,504.41,143.5,504.41Z"/><path class="cls-11" d="M621.77,504.41c-32.92,0-65.83-.19-98.74.15-6.62.07-8.48-1.74-8.44-8.38q.4-73.55,0-147.09c0-6.19,1.81-8,7.94-8,62.7-.75,124.35-9.73,185.11-24.87,5.71-1.42,7.36-.38,8.79,5.19,14.65,57.2,18.31,115.14,13,173.84-.7,7.84-3.67,9.47-11,9.38C686.25,504.17,654,504.41,621.77,504.41Z"/><path class="cls-11" d="M385.7,504.41c-32.26,0-64.52-.21-96.77.16-7,.07-9.87-1.2-10.55-8.95-5-57.36-1.7-114,11.93-170.07,1.89-7.79,4.07-9.81,12.63-7.74,58.92,14.23,118.71,22.52,179.39,23,9.33.08,10.85,3.06,10.78,11.47-.4,47-.51,94.09.07,141.12.12,9.71-3.05,11.29-11.73,11.16C449.54,504.11,417.62,504.41,385.7,504.41Z"/><path class="cls-11" d="M41.11,604.08c19.59,12.49,38.3,21.46,58.19,27.74,5.66,1.79,6.39,6.06,7.7,10.51,23.25,78.6,65,145.74,126.23,200.19,71.51,63.55,155.16,98.63,251,103.85,4.91.26,8.93-.28,8.88,7.1-.32,50.09-.21,100.18-.26,150.27a9.82,9.82,0,0,1-.63,2.27c-3.28-1.53-3-5-3.79-7.42-18.32-54.95-52.3-97-102.6-125.94A524.7,524.7,0,0,0,329,944.53Q105.35,849.75,43.18,614.8C42.43,612,42.05,609,41.11,604.08Z"/><path class="cls-11" d="M514.73,227.16c0-27.56.17-55.13-.13-82.68-.06-5.94,1.32-8.19,7.67-8.38a446.77,446.77,0,0,0,86.79-11c4.86-1.12,8,.11,11.13,4.11a519,519,0,0,1,86.27,158.37c1.66,4.93,1.32,6.84-4.13,8.18A844,844,0,0,1,521,320.15c-7.21.19-6.29-3.91-6.29-8.3Q514.75,269.51,514.73,227.16Z"/><path class="cls-11" d="M492.92,227.94c0,27.56-.22,55.12.15,82.68.1,7.14-1.09,9.75-9.23,9.51a881.62,881.62,0,0,1-174.53-22.42c-7.85-1.83-10.27-3.58-7.24-12.32a529.33,529.33,0,0,1,85.14-155.64c4.2-5.33,7.91-6.44,14.33-4.9a404.67,404.67,0,0,0,82.7,11.1c7,.21,8.95,2.36,8.84,9.32C492.68,172.82,492.92,200.38,492.92,227.94Z"/><path class="cls-11" d="M370.06,117.19C330,168.18,300.24,223,280.64,283.26c-1.62,5-3.6,6.14-8.65,4.64-50-14.83-98.14-34-143.84-59.23-5.6-3.09-6.24-5.07-2.29-10.23A480.75,480.75,0,0,1,279,86.86c2.59-1.41,5-3.16,8.39-1.49C313.6,98.17,340.94,108.21,370.06,117.19Z"/><path class="cls-11" d="M639.79,117.65c27.62-8.07,54.34-17.85,79.86-30.67,3.68-1.85,6.57-1.75,10.2.25A482.62,482.62,0,0,1,882,218.42c3.49,4.56,2.5,6.24-2,8.7a753,753,0,0,1-144.75,59.62c-4.18,1.24-6.35,1.32-8-3.71-19.35-59.61-49-113.76-87.14-163.37C639.9,119.43,640,119,639.79,117.65Z"/><path class="cls-11" d="M309.6,71.13C440.22,15.8,569.16,16,699.14,71.56,619.82,128,405.6,127.8,309.6,71.13Z"/><path class="cls-12" d="M163.85,647.63c31.53,84.9,85.17,151.6,163.6,197.54a342.36,342.36,0,0,0,155.59,47c3,.17,6,.64,9,1,2.85,24.17,2.79,24.79-19.81,22.76-99.09-8.91-181.73-51.36-249-124-37.21-40.17-64.46-86.51-82.4-138.28-.88-2.54-1.74-5.08-2.52-7.65a9.31,9.31,0,0,1,.16-2.55C147.05,644,155.57,645,163.85,647.63Z"/><path class="cls-13" d="M514.91,536.73h67.88c-24.08,11.78-47.64,24-67.51,42.12-4.2-5.6-1.62-12-1.65-17.91C513.59,552.89,511.69,544.63,514.91,536.73Z"/><path class="cls-14" d="M215.19,645.7c2-.33,4.4-.84,5.39,1.22,1.16,2.41-1.29,2.61-2.76,2.57-13.55-.31-27.21,1.91-40.63-1.62,9.25,0,18.51,0,27.75-.24C208.39,647.53,212.28,648.93,215.19,645.7Z"/><path class="cls-15" d="M514.91,536.73q.2,21.06.37,42.12c-4.26-2.34-3.1-6.51-2.77-9.88C513.56,558.24,509.51,547.11,514.91,536.73Z"/><path class="cls-16" d="M601.32,652.66c-.33,6.36-3.62,10.39-9.78,10.64s-10.18-3.39-10.46-9.69,3.3-10.14,9.61-10.43S600.44,646.57,601.32,652.66Z"/></g></g></svg>