<svg xmlns="http://www.w3.org/2000/svg" viewBox="0 0 519.41 597.46"><defs><style>.cls-1{fill:#e47825;}.cls-2{fill:#2b2768;}.cls-3{fill:#231f59;}.cls-4{fill:#fff;}.cls-5{fill:#2c296e;}.cls-6{fill:#1ea8e0;}.cls-7{fill:#2b2668;}.cls-8{fill:#fffcfa;}.cls-9{fill:#fffdfb;}.cls-10{fill:#fffcf9;}.cls-11{fill:#fffdfa;}.cls-12{fill:#fefbf7;}.cls-13{fill:#fffbf8;}.cls-14{fill:#fefaf7;}.cls-15{fill:#fefaf6;}.cls-16{fill:#fef9f5;}.cls-17{fill:#d62b27;}.cls-18{fill:#0a9447;}.cls-19{fill:#0f6b37;}.cls-20{fill:#106b38;}.cls-21{fill:#e67e2b;}.cls-22{fill:#e57a27;}.cls-23{fill:#e6802e;}.cls-24{fill:#e98c41;}.cls-25{fill:#e67e2a;}.cls-26{fill:#e67f2c;}.cls-27{fill:#e88737;}</style></defs><g id="Layer_2" data-name="Layer 2"><g id="Layer_1-2" data-name="Layer 1"><path class="cls-1" d="M519.41,426.85c-8.3,16.09-16.73,32.09-27.2,46.93-39.48,55.93-91.59,94.34-157.49,113.53a247.49,247.49,0,0,1-70.36,10.15c-68.68-.32-129.84-22-182.72-66.12C46.55,502.06,20.05,466.25,1,424.76c-2.08-4.52-.88-5.8,3.2-7.28,11.09-4,22-8.51,33.05-12.6,3-1.11,3.66-2.24,2.3-5.31a254.55,254.55,0,0,1-14.37-44c-.79-3.32.28-4.08,3-4.64,6.66-1.4,13.39-2.61,19.93-4.45,3.72-1,4.82-.16,5.67,3.48a221.58,221.58,0,0,0,40.12,85.56c32.78,42.73,75.31,70.59,128.32,80.78,54.17,10.42,104.71-.1,151.13-30,.12-.08.18-.27.27-.41.34-1.87,1.92-2.64,3.25-3.58q53-37.37,78-97.23a205.58,205.58,0,0,0,10.76-33.21c1.63-7,2.67-7.62,9.69-6.1,5.53,1.2,11.07,2.39,16.57,3.72s6.35,2.76,5,8.15a291.41,291.41,0,0,1-12.65,39.43c-2.16,5.4-2.17,5.74,3.09,7.65,9.08,3.29,17.89,7.26,27,10.5,2.07.73,4.07,1.52,5.14,3.64Z"/><path class="cls-2" d="M111.56,0c2.63,1.84,5.9,1.81,8.76,3,5.34,2.28,9.93,5.33,12.57,10.75,1.21,2.49.56,3.89-2.19,4-5.14.26-9.7,1.08-13.59-4.87-4.25-6.49-12-6.78-19.45-5-7.14,1.67-10.54,6.56-11.88,13.2-1.67,8.22,1.41,16,7.5,19.72s17,3.16,22.75-1.06c.53-.39,1.29-.76,1.48-1.3,2.48-7.09,8-4.85,13.14-4.64,4,.17,3.5,1.75,2.19,4.23-2.67,5-7.13,7.93-12.21,9.73a50.84,50.84,0,0,1-34.14.32c-10.79-3.69-17-12.51-16.94-23.28.08-10,6.64-18.22,17.21-22,2.6-.94,5.59-.78,7.8-2.79h4a13.16,13.16,0,0,0,8,0Z"/><path class="cls-3" d="M106.56,0a7.48,7.48,0,0,1-8,0Z"/><path class="cls-4" d="M450.19,271.29c-.1.52-.2,1-.29,1.56-.07,2-1.7,2.77-2.93,3.8C429.1,291.58,411,306.3,393,321c-5.68,4.64-6.05,4.5-12.18-.6-17-14.16-34-28.34-51.17-42.3-6.12-5-6.13-4.89-12.41.37-17.2,14.44-34.64,28.59-51.94,42.91-4.58,3.79-5.94,3.77-10.36.06-17.84-15-36-29.52-53.73-44.66-3.34-2.86-5.79-2.83-9.05-.08-17.29,14.6-34.87,28.85-52.33,43.24-6.62,5.46-6.94,5.49-13.39.28-17-13.69-33.67-27.68-50.55-41.47-1.69-1.38-3.42-2.66-4.13-4.84l-.31-2.14c-.5-11.6,1.92-22.79,5-33.84,7.56-27.46,19.92-52.58,38-74.7,30.92-37.91,70.32-61.74,118.85-69.23,35.71-5.51,70.19-.55,103.29,14.3a189.13,189.13,0,0,1,53.95,36.39,198.26,198.26,0,0,1,36.66,48.34,211.56,211.56,0,0,1,21.16,58.44C449.66,258,449.67,264.68,450.19,271.29Z"/><path class="cls-1" d="M450.19,271.29c-2.12-13.93-4.41-27.81-8.78-41.26-14.72-45.27-41.36-81.61-81.5-107.44-35.75-23-75.2-33-117.42-28.27-63.54,7.1-111,39.93-143.82,94.28a192.48,192.48,0,0,0-26.32,78.29c-.19,1.65-.59,3.27-.89,4.91-1.5-1.35-.78-3.13-.78-4.7,0-66.29,0-132.59-.16-198.89,0-4.64,1.42-5.35,5.59-5.34q80.71.21,161.41.09c2,0,4-.11,6-.17s4,.17,6,.17q97.88,0,195.75-.11c4.74,0,5.66,1.41,5.65,5.81q-.19,97.89-.12,195.76C450.77,266.71,451.27,269.08,450.19,271.29Z"/><path class="cls-5" d="M71.77,273.94c19,15.57,38.15,31,57,46.81,3.38,2.84,5.22,2.7,8.49-.05,18.7-15.72,37.66-31.14,56.42-46.8,2.23-1.86,3.39-2,5.69-.07,18.37,15.34,37,30.38,55.29,45.82,4,3.39,6.28,4.1,10.78.23,17.9-15.38,36.47-30,54.43-45.3,3.63-3.08,5.41-1.92,8.16.36,18.81,15.6,37.74,31.06,56.46,46.77,2.57,2.16,3.78,1.64,6-.22,19.73-16.3,39.57-32.45,59.38-48.65,1.06,11,.8,22,.41,33-5.11,6.72-12.25,11.18-18.55,16.55-12.67,10.79-25.68,21.18-38.41,31.9-5.31,4.47-6.46,4.48-11.9,0-17.61-14.49-35.25-28.95-52.72-43.6-5-4.18-5-4.06-9.9.07-17.72,14.88-35.72,29.41-53.47,44.25-5,4.14-5.23,4-10.09.09Q227.79,332.72,200.55,310c-3.09-2.58-5.07-2.48-8.09,0-17.49,14.62-35.21,29-52.66,43.67-1,.85-2.19,1.54-3.14,2.46-2.53,2.48-4.73,2-7.4-.09-12.59-10.1-24.93-20.51-37.45-30.71-4.77-3.89-9.57-7.75-14.3-11.69a30.2,30.2,0,0,1-5.93-6C70.08,296.42,70.56,285.18,71.77,273.94Z"/><path class="cls-6" d="M71.58,307.68c11.13,7.88,21.18,17.12,31.81,25.62q13.65,10.92,27,22.19c2.13,1.81,3.28,1.59,5.32-.11,18.92-15.77,38-31.33,56.88-47.16,3-2.55,4.87-2.59,7.93,0,18.88,15.83,38,31.36,56.87,47.19,2.48,2.08,3.69,1.48,5.75-.23,18.42-15.31,37-30.41,55.32-45.88,4-3.39,6.39-3.69,10.59-.12,17.85,15.23,36.18,29.89,54.08,45.07,3.51,3,5.53,2.47,8.66-.17,18.32-15.44,36.79-30.71,55.22-46a35.77,35.77,0,0,1,3.31-2.19A172.59,172.59,0,0,1,444,345.14c-16.56,14.18-33.72,27.64-50.33,41.78-5.45,4.64-6.65,4.72-12.39,0-17.48-14.39-35-28.69-52.36-43.26-5-4.2-5-4.19-9.93-.12Q292.7,365.1,266.6,386.83c-6.19,5.18-6.75,5.11-13-.13-17.51-14.6-35.18-29-52.61-43.69-3-2.56-5.08-3-8.47-.19-18.26,15-36.34,30.27-54.71,45.16-4.59,3.73-5.23,3.65-9.7,0-14.37-11.62-28.3-23.76-42.86-35.14-2.85-2.24-5.7-4.63-7.5-7.93A151.42,151.42,0,0,1,71.58,307.68Z"/><path class="cls-5" d="M77.72,344.94q26.43,21.92,52.8,43.88c2.19,1.84,3.44.78,5-.52,19.22-15.89,38.5-31.7,57.59-47.74,2.79-2.34,4.18-2.25,6.92.06,15.88,13.37,32,26.48,48,39.69,3.2,2.64,6.43,5.25,9.52,8,1.8,1.62,3.05,1.7,5.05,0,18.9-15.74,37.95-31.3,56.82-47.08,2.89-2.41,4.7-3.52,8.13-.48,15.71,13.9,32.72,26.26,48.12,40.54a17.71,17.71,0,0,0,2.9,1.81c3.23,2,5.59,6.79,9.11,6.22,3.29-.52,6.09-4.28,9-6.71q21.35-17.61,42.66-35.26c1.32-1.08,2.29-3.07,4.57-2.27-4.07,17.27-11.3,33.27-19.52,48.87a2.43,2.43,0,0,1-1.94,1.34c-6.38,8.06-15.32,13.23-22.78,20.07-2.57,2.35-5.45,4.41-8,6.74-3.16,2.85-5.56,2.41-8.66-.15-14.74-12.21-29.59-24.28-44.27-36.57-3.7-3.1-7.69-5.86-11.18-9.2-2.53-2.42-4.6-2.41-7.34-.19-12.67,10.29-25.16,20.78-37.75,31.15-5.78,4.76-11.61,9.47-17.34,14.28-4.22,3.54-5.17,3.72-9.49.29C245.26,413.48,235,405,224.82,396.41c-8.18-6.83-16.6-13.36-24.6-20.4-2.62-2.31-4.92-2.09-7.5.09-17.66,14.95-35.67,29.47-53.42,44.31-5.9,4.94-6.68,5-12.59,0-9.09-7.79-19-14.61-27.25-23.38C91.14,384.27,85.51,370.3,80.72,356,79.51,352.35,78.71,348.62,77.72,344.94Z"/><path class="cls-6" d="M99.46,397c8.08,5,14.64,11.92,22.18,17.59,3.85,2.89,7.53,8.33,11.31,8.35s7.57-5.26,11.28-8.31c16.19-13.34,32.42-26.63,48.45-40.15,3-2.56,4.87-2.44,7.86.06,18.75,15.72,37.72,31.17,56.49,46.87,2.59,2.17,4,2,6.54-.12,18.89-15.81,38-31.38,56.87-47.18,2.55-2.14,4.09-2.24,6.65-.1,19,15.9,38.25,31.59,57.27,47.51,2.42,2,3.68,2,6.09,0C401,412.65,411.8,404,422.51,395.34c.64,1.51-.48,2.54-1.13,3.61A199.68,199.68,0,0,1,379,448.39a5.67,5.67,0,0,1-1.34.62c-6.29-2.3-10.56-7.41-15.54-11.46C350.55,428.09,339,418.6,327.5,409c-3-2.52-5.1-2.23-7.75.08C309.7,417.77,299.21,426,289,434.57c-8.14,6.87-16.57,13.39-24.6,20.38-2.78,2.41-5.18,2.62-8.31.07-18.34-14.9-36.36-30.19-54.71-45.08-4.87-3.94-5-4-9.59-.16-14.67,12-29.18,24.25-44,36.15-1.52,1.23-2.84,3-5.2,2.36a195.69,195.69,0,0,1-39.9-45.24C101.53,401.13,100.56,399,99.46,397Z"/><path class="cls-5" d="M142.68,448.29q18.56-15.1,37.09-30.23c4.38-3.57,8.8-7.11,13-10.9,2.72-2.46,4.73-2.42,7.6,0,18.75,15.67,37.74,31.06,56.41,46.84,2.88,2.43,4.37,2.09,6.87,0,17.87-14.91,35.86-29.69,53.75-44.58,6.11-5.09,6.14-5.3,12.33-.2,16,13.2,32,26.52,48,39.79a137.9,137.9,0,0,1-22,15.77c-7.35-4-13-10.16-19.57-15.14-3.17-2.39-6.18-5-9.18-7.63-2.26-2-4.18-1.84-6.55.15-17.53,14.73-35.32,29.13-52.88,43.83-2.36,2-4.48,4.55-8,4.65-7.61-4.52-13.92-10.7-20.69-16.28-12.69-10.48-25.52-20.8-38-31.54-3.08-2.66-5.21-2.85-8.41,0-7.2,6.41-14.94,12.19-22.23,18.5a15.63,15.63,0,0,1-5,3.29A242.07,242.07,0,0,1,142.68,448.29Z"/><path class="cls-2" d="M179.64,1.22l23.85-.12,17.33,31.81L237.59,1.18l23.87-.09c0,14.83-.06,29.66.14,44.48,0,3.51-1,4.51-4.5,4.5-10.62,0-10.62.1-10.62-10.3V8.9l-1.1-.44L225.86,45c-1.72,1.9-1.79,5.31-5.8,5.12-3.11-.15-5.16-.76-6.7-3.72-4.79-9.22-9.82-18.31-14.81-27.43-.94-1.72-2.09-3.33-3.14-5-1.09-1-1-3.47-3.42-2.83-.11,11.31-.53,22.64-.18,33.94.16,5.27-2.57,5-6.11,5s-6.33.53-6.19-4.85C179.89,30.54,179.64,15.88,179.64,1.22Z"/><path class="cls-6" d="M259.45,490c7.13-3.72,12.59-9.6,18.74-14.57,14.34-11.57,28.44-23.44,42.57-35.26,2-1.68,3.39-2.28,5.75-.19,9.55,8.46,20,15.87,29.16,24.79l-2.39,2c-13.1,6.72-26.36,13-40.57,17.24a191.9,191.9,0,0,1-55,7.6c-1.8,0-3.68.25-5.4-.62C254.39,488.47,257,490,259.45,490Z"/><path class="cls-6" d="M259.45,490c-2.21,1.62-4.8.39-7.16,1-27.92-.59-53.83-8.54-78.35-21.51-2.93-1.55-5.8-3.22-8.7-4.83,4.66-5.95,11.22-9.74,16.74-14.72,2.72-2.45,5.59-4.74,8.44-7,6.19-5,6.25-5,12.22-.08Q231.08,466.36,259.45,490Z"/><path class="cls-7" d="M146.51,25.51c0-6.81.16-13.62-.07-20.41-.11-3.33,1.09-4.17,4.28-4.19,10.74-.06,10.74-.18,10.74,10.62,0,11.28-.1,22.57.06,33.85,0,3.23-.55,4.71-4.29,4.7-10.72,0-10.72.16-10.72-10.63Z"/><path class="cls-8" d="M198.68,553.43c-2,3.59-4.1,7.13-6,10.77-.89,1.69-1.67,2.43-3.83,1.9s-2.32-1.84-2.3-3.59c.07-5.5,0-11,.16-16.49,0-1.08-.87-3.07,1.4-2.94,1.87.11,3.43.78,3.26,3.38-.23,3.64-.06,7.31-.06,11,2.61-2.48,3.72-6.16,5.62-9.31.93-1.54,1.68-2.72,3.85-2.1s2.94,1.56,2.8,3.84a42.17,42.17,0,0,0,.73,11.14c1.61-3.14,3.25-6.27,4.81-9.43.83-1.7,1.44-3.49,4-2.33,2.93,1.33.52,2.84,0,3.94-2.14,4.5-4.48,8.91-6.89,13.27-.77,1.41-.93,3.64-3.77,3-2.62-.62-2.85-2.19-2.8-4.34.08-3.82,0-7.64,0-11.46Z"/><path class="cls-9" d="M413.43,512.49c1.26,3.21,2.54,6.41,3.77,9.63.55,1.43.93,2.68-.8,3.86s-2.66.48-3.87-.58c-2.32-2-4.71-4-7.07-5.94l-1,.87c1.72,2.45,3.4,4.93,5.19,7.33,1,1.29,1.1,2.18-.35,3.28-1.68,1.27-2.33.17-3.12-.94-3.19-4.47-6.35-9-9.55-13.42-.88-1.23-2.12-2.43-.09-3.66,1.69-1,3-3.48,5.54-1.25,3,2.62,6.07,5.1,9.28,7.78-.19-3.94-2-7.33-3.52-10.72s.69-4.43,2.76-5.86c2.69-1.85,3,.93,3.88,2.1,3.1,4.12,6,8.38,9,12.57.8,1.12,1.62,2.09,0,3.36-1.81,1.43-2.59.28-3.51-1-1.9-2.69-3.83-5.36-5.75-8Z"/><path class="cls-10" d="M308,558.92c.72,3.26,1.29,6.15,2,9,.39,1.54.84,2.89-1.29,3.53-2.79.84-2.58-1.49-2.89-2.84-1.17-5-2.18-10.07-3.13-15.13-.22-1.18-1-2.81.71-3.49a3.69,3.69,0,0,1,4.53.89c2.85,3.21,5.84,6.31,9.36,10.09.24-4.1-.94-7.12-1.54-10.22-.32-1.65-.8-3.39,1.74-3.8s2,1.69,2.32,2.92c1.16,5,2.18,10.06,3.23,15.09.26,1.24,1.15,2.82-.51,3.51-1.48.62-3.18.87-4.57-.71-1.87-2.12-3.84-4.15-5.86-6.13C311,560.53,310.23,558.74,308,558.92Z"/><path class="cls-8" d="M129.26,527.19c-1.63,2.85-3.25,5.69-4.91,8.52-.64,1.11-1,2.35-2.95,1.36s-1.52-2.11-.7-3.53c2.67-4.59,5.23-9.25,8-13.77.61-1,.62-3.32,3-2.3,1.64.71,2.75,1.65,2.71,3.69-.1,4.31,0,8.63,0,13.85,3.23-2.89,4.21-6.24,6.09-8.94.8-1.14,1.06-2.94,3.26-1.83,2.49,1.26,1.06,2.62.3,4-2.53,4.48-5.07,8.95-7.66,13.39-.69,1.19-1.09,3-3.23,2.09-1.62-.73-2.63-1.74-2.56-3.77.14-4.11,0-8.23,0-12.34Z"/><path class="cls-10" d="M239.8,560.55c-.28,4.94-.47,8.37-.67,11.79-.08,1.49-.51,2.52-2.38,2.4s-2.07-1.22-2-2.71c.36-5.49.66-11,1.06-16.45.09-1.25-.07-2.81,1.93-2.87,1.59-.05,2.89.21,3.72,1.84,2,3.94,4.15,7.82,6.84,12.85.43-4.64.75-8,1-11.4.12-1.36.06-2.66,2.14-2.5,1.91.15,2,1.27,2,2.71l-1.05,17.45c-.06,1.08-.32,1.92-1.67,2a3.94,3.94,0,0,1-4.07-2.22C244.67,569.5,242.55,565.65,239.8,560.55Z"/><path class="cls-11" d="M450.66,484.72l-8.07-7.17c-1-.95-1.86-1.8-.54-3.3,1.57-1.79,2.46-.66,3.57.45,3.77,3.75,7.63,7.42,11.35,11.23.76.78,2.73,1.31,1.55,3-.94,1.35-2,2.53-4.12,2a74,74,0,0,0-13.74-2.21c2.28,2.16,4.61,4.27,6.81,6.5,1,1,3.06,1.77,1.13,3.93s-2.81.2-3.85-.79c-3.74-3.56-7.45-7.15-11.06-10.82-.77-.79-2.64-1.35-1.53-3,.94-1.41,2.11-2.39,4.16-1.89,4.5,1.09,9.05,2,13.58,2.91Z"/><path class="cls-10" d="M155.07,553.24c-5.72-.18-10.4-3-11.92-7.46-1.67-4.95,0-9.23,3.43-12.76,4.91-5,14.45-3.3,17.3,3,.69,1.51,1.53,3.66-.08,4.45s-3.36-.15-4.13-2.42c-1.21-3.57-4-4.79-7.51-3.61-3.31,1.1-5.78,6.38-4.83,10s3.55,4.55,6.84,4.48c1,0,2,0,2.39-1.28s-.47-1.77-1.42-2.19c-1.4-.63-2.81-1.18-1.62-3.21,1.31-2.24,2.86-.57,3.69.08,1.7,1.32,5.65.36,4.92,4.21C161.22,551.35,158.94,553.36,155.07,553.24Z"/><path class="cls-9" d="M493,441.71c-.66,3.4-2.47,4.51-5.4,4.27a25.73,25.73,0,0,0-4.47.19c-1.84.16-4,.32-4.55,2.36-.6,2.19,1.91,2.27,3.05,3.27s2.49,1.67,3.4,2.77c.24.29-.72,1.7-1.28,2.5-.83,1.21-1.7.4-2.52-.12-4.9-3.09-9.77-6.24-14.72-9.26-1.68-1-1.77-2-.71-3.52,1.71-2.44,3.27-5,4.93-7.46,1.88-2.81,4.43-4,7.72-2.74,3,1.1,4,3.53,3.42,7.83C485.54,441.82,489.15,440.87,493,441.71Z"/><path class="cls-10" d="M471.38,471.67c-.6,4.47-4.57,7.56-7.5,11.29-.75,1-1.44.23-2.06-.28-4.75-3.91-9.5-7.81-14.21-11.76a2.26,2.26,0,0,1-.86-1.59c.29-3.24,9.29-10.33,12.66-10.07C464.88,459.69,471.36,466,471.38,471.67Z"/><path class="cls-8" d="M272.76,563.4c1.77.59,4.29-1,4.56,1.26.34,2.76,1.66,6-.84,8.48-3.36,3.35-11.42,3.57-15.36.57-4.2-3.19-5.46-10.37-2.7-15.41,2.52-4.6,8.64-6.62,13.85-4.57a5,5,0,0,1,1.35.6c1.52,1.24,3.94,2.69,2.71,4.65s-3.23.91-4.95-.68c-2.62-2.41-5.56-1.92-8,.45-2.64,2.55-2.5,8.87.23,11.48,2.51,2.39,5.44,2.21,8.25.57,1.44-.84,2.47-2.19.19-3.26-1.42-.66-4.31.67-3.89-2.34S271.61,564.71,272.76,563.4Z"/><path class="cls-12" d="M24.6,434.88a23.55,23.55,0,0,1,1.62-3.71c.52-.83,1.12-2.49,2.51-1.57,1.11.74,2.54,1.79,1.48,3.67A6.32,6.32,0,0,0,29.12,436a5.29,5.29,0,0,0,2.56,4.59,2.48,2.48,0,0,0,2.84,0c1.79-1.3.9-2.93.42-4.5-.2-.63-.22-1.32-.42-1.95-1.07-3.38-1.33-6.66,2-8.93,2.54-1.72,5.2-1.19,7.3.84,2.86,2.78,4.7,6.12,3.42,10.28-.35,1.13-1,2.88-2.64,2.42a2.64,2.64,0,0,1-1.79-3.54c.42-1.11,1-2.15.53-3.31-.65-1.52-1.42-3.44-3.36-3.16-2.59.38-1.37,2.57-1.22,4,.17,1.63.77,3.22,1.07,4.85.6,3.33-.45,5.83-3.65,7.33s-5.8.4-8-2A15.2,15.2,0,0,1,24.6,434.88Z"/><path class="cls-8" d="M45.37,468.06c-2.56-2.16-3.32-3.9-1.28-6.28,2.47-2.87-.94-4.34-1.89-6.34-.76-1.6-1.81-3.24-4.22-2.1-3.07,1.46-4.12-.61-5-3.2,6.76-1.67,13.47-3.3,20.17-5A3.13,3.13,0,0,1,57,446.58a3,3,0,0,1,.06,4C53.14,456.33,49.32,462.11,45.37,468.06Z"/><path class="cls-13" d="M352.55,546.65c0-2.83.09-5.66,0-8.48a2.93,2.93,0,0,1,2.24-3.33,3.22,3.22,0,0,1,4,.84c4.09,4.37,8.34,8.58,12.44,12.94.72.75,2.82,1.61,1,2.94-.95.69-2.25,1.69-4,.45-5.33-3.73-9.45-2.07-10.63,4.16a2.9,2.9,0,0,1-3.09,2.55c-1.85.1-1.08-1.63-1.35-2.61a3.62,3.62,0,0,1-.07-1v-8.47Z"/><path class="cls-13" d="M209.56,570.45c3.35-5.87,6.69-11.57,9.85-17.37,1-1.85,2.14-2.62,4.31-2.34s2.4,1.86,2.78,3.49c1.29,5.47,2.69,10.92,3.86,16.42.2,1,1.46,2.77-.85,3.14a2.91,2.91,0,0,1-3.54-1.86c-2.41-5.35-7.86-6.25-11.15-1.8C213,572.6,211.51,571.24,209.56,570.45Z"/><path class="cls-13" d="M181.56,552.75c0,2.66.08,5.33,0,8-.05,1,.86,2.72-.94,2.74a3.17,3.17,0,0,1-3.41-2.24c-2.06-6.49-5.65-7.75-10.91-3.93a3.08,3.08,0,0,1-4.08-.22c-1.46-1.18.15-2.05.78-2.8,3.86-4.58,7.82-9.07,11.68-13.66a3,3,0,0,1,3.82-1.09c1.8.61,2.23,1.6,2.31,3.26.15,3.32.44,6.64.67,10Z"/><path class="cls-13" d="M299.57,564.3c.28,6.75-1.37,9-7.07,9.65-6.71.77-9.06-.94-10.16-7.6-.6-3.59-1-7.21-1.52-10.82-.19-1.37-.46-2.64,1.59-2.83,1.75-.16,2.87.08,3,2.17.29,3.63.72,7.25,1.17,10.86.39,3.06,1.86,4.94,5.29,4.42s3.65-2.86,3.31-5.57c-.42-3.45-.75-6.92-1.27-10.35-.26-1.69-.28-2.91,1.84-3.25s2.58.62,2.7,2.45c.15,2.31.59,4.6.84,6.9C299.47,561.65,299.49,563,299.57,564.3Z"/><path class="cls-8" d="M427.74,517.45c-2.39-6.68-4.65-13.05-6.95-19.41-.61-1.7-.66-3.1,1-4.39a3.24,3.24,0,0,1,4.06-.26c6.1,3.27,12.26,6.45,18.53,9.73-1.55,1.61-2.44,3.37-5,2.46-5.4-1.86-9.53,1.83-8.53,7.4C431.07,514.66,431.07,514.66,427.74,517.45Z"/><path class="cls-8" d="M72.35,496.4c-4.41-.54-6.92-3.31-8.82-6.77-1.73-3.16-.46-5.8,1.77-8.09,2.9-3,5.89-5.86,8.84-8.78,1-1,1.87-1.79,3.26-.36s1.28,2.35-.15,3.65c-2.82,2.57-5.51,5.29-8.22,8-2.16,2.14-2.19,4.4-.07,6.55s4.11,1.33,6-.53c2.75-2.65,5.58-5.22,8.38-7.82.83-.76,1.64-1.89,2.8-.46.67.82,2.3,1.65,1,2.82-4.25,3.91-7.69,8.77-13.07,11.38A7.62,7.62,0,0,1,72.35,496.4Z"/><path class="cls-8" d="M105.32,525c-4-.28-6.76-2.53-8.84-5.71-2-3-.77-5.73,1.07-8.29,2.23-3.1,4.5-6.18,6.74-9.28.9-1.24,1.55-2.45,3.49-1.08,2.18,1.55,1,2.62,0,3.95-1.89,2.53-3.72,5.11-5.61,7.64s-3.17,4.92-.17,7.38c3.2,2.63,5.1.36,6.9-2,2-2.66,4-5.31,6-8,1-1.32,1.69-2.38,3.52-1s1.16,2.35.11,3.67c-2.57,3.26-5,6.61-7.6,9.88C109.48,524,107.77,525.22,105.32,525Z"/><path class="cls-14" d="M89.83,485.85c6.24,2.9,1.07,7.87,2.12,11.85,4,.72,8.54-5.35,12.39,1-2.46.75-4.8,1.6-7.2,2.17-4.29,1-8.19,2.49-10.79,6.44-.7,1.06-1.51,3.26-3.75,1.29-1.91-1.68-1.11-3,.27-4.05,4.73-3.72,4.76-9.21,5.65-14.39C88.77,488.69,88.4,487.08,89.83,485.85Z"/><path class="cls-13" d="M382.37,545.19c.19,1.73-1.11,1.75-1.87,2.24-1.43.93-2.09-.13-2.64-1.21-1.79-3.55-3.73-7-5.27-10.69-1.22-2.9-2.63-3.9-5.45-1.94-1,.67-2.13,1.59-3.15-.39s.24-2.32,1.42-2.92l11.1-5.58c1.19-.61,2.23-1.44,3.2.49s0,2.42-1.44,2.82c-3.9,1.1-3,3.3-1.59,5.93C378.75,537.71,380.58,541.61,382.37,545.19Z"/><path class="cls-14" d="M60.41,481.2a15.33,15.33,0,0,0-2,1.07c-1.17.87-1.82.08-2.45-.69-2.42-2.93-4.78-5.92-7.25-8.82-.94-1.1-1-1.84.16-2.81q7-5.61,13.81-11.35c1.39-1.16,2.24-.72,3.26.52,1.21,1.47.54,2.32-.63,3.26-3.1,2.48-6.07,5.14-9.3,7.45-2.51,1.8-2.65,3.29-.45,5.43A69,69,0,0,1,60.41,481.2Z"/><path class="cls-15" d="M348.09,555.68c-.15,4.26-1.9,6.27-5.09,7.44-2.88,1-5.24.58-7.19-1.67-.8-.92-2.17-2.21-.66-3.36.9-.69,2.42-2.17,3.68.1a2.31,2.31,0,0,0,3.39,1c1.78-1,1.43-2.53,1-3.92-1.13-3.81-2.44-7.57-3.65-11.35-.5-1.54-1.27-3.12,1.2-3.87,2.14-.64,2.49.63,3,2.19C345.23,547,346.8,551.71,348.09,555.68Z"/><path class="cls-16" d="M479.83,424.93c1,.58,2.88,1.63,4.75,2.67,3.61,2,7.19,4,10.83,6,1.51.8,1.72,1.69.91,3.15s-1.56,1.8-3.08.92q-7.73-4.45-15.56-8.68c-1.33-.72-1.64-1.6-.88-2.77C477.27,425.45,477.47,424.14,479.83,424.93Z"/><path class="cls-16" d="M479.94,462.51c-1.32,1.17-1.31,4.17-4,2.19-4.81-3.48-9.6-7-14.44-10.45-1.41-1-1.47-1.95-.48-3.28.83-1.12,1.64-1.52,2.87-.63,4.94,3.59,9.91,7.15,14.85,10.75A8.88,8.88,0,0,1,479.94,462.51Z"/><path class="cls-15" d="M392.63,541.06c-1.48.25-1.71-.91-2.15-1.67-2.8-4.85-5.53-9.74-8.34-14.59-.84-1.45-1.28-2.6.59-3.64s2.64.17,3.41,1.53c2.76,4.87,5.41,9.82,8.36,14.58C396.22,540.06,393.73,540.1,392.63,541.06Z"/><path class="cls-2" d="M417.46,25.71c0,6.65-.19,13.31.08,19.95.15,3.63-1.21,4.42-4.58,4.41-10.46,0-10.46.09-10.46-10.44,0-10.81,0-10.81-11.06-10.81-5.65,0-11.31.13-17-.05-3-.09-4.18.86-4,4,.21,4.65,0,9.32.08,14,0,2.25-.63,3.16-3.07,3.35-11.92.92-11.91,1-11.91-11,0-11.31.11-22.62-.06-33.93-.05-3.29,1-4.22,4.26-4.23,10.75-.06,10.75-.19,10.75,10.63,0,9.5,0,9.5,9.34,9.5,6.32,0,12.64-.11,19,0,2.77.07,3.87-.82,3.75-3.69-.18-4.31.07-8.65-.08-13-.09-2.58.86-3.37,3.45-3.5,11.56-.56,11.55-.65,11.55,10.81Z"/><path class="cls-2" d="M436.3,25.27c0-6.64.12-13.29-.05-19.93-.08-3,.58-4.41,4.06-4.44C450.63.8,450.63.64,450.63,11c0,11.47-.1,22.93.06,34.39,0,3.27-.65,4.69-4.34,4.69-10.05,0-10.05.16-10.05-9.86Z"/><path class="cls-17" d="M295.49,235.73c-10.84,9-21.71,18-32.49,27.06-1.78,1.5-2.64.21-3.73-.7q-15.88-13.18-31.76-26.4a10.25,10.25,0,0,1-1.69-6.07c0-7.07-.1-14.14.05-21.2,0-2.08-.16-4.37,2.08-5.7,10.1,8.2,20.29,16.29,30.23,24.67,2.47,2.08,3.79,2.41,6.45.15,10-8.47,20.23-16.58,30.38-24.83,1.79.86,2,2.58,2.05,4.2.27,8.07.2,16.15,0,24.22A8.69,8.69,0,0,1,295.49,235.73Z"/><path class="cls-17" d="M228,249.7l33.37,27.36L295,249.68c1.78.87,2,2.59,2,4.21.27,8.07.2,16.15,0,24.22a8.75,8.75,0,0,1-1.61,4.61c-10.48,8.72-21,17.4-31.41,26.18-1.71,1.44-2.75,2.11-4.88.29-10.45-8.94-21.11-17.65-31.69-26.44a10.5,10.5,0,0,1-1.69-6.09c0-7.09-.1-14.17,0-21.25C225.91,253.33,225.7,251,228,249.7Z"/><path class="cls-17" d="M228.1,155.69c10.1,8.66,20.88,16.53,30.56,25.71,1.8,1.71,3.46,1.21,5.44-.45,10.15-8.54,20.48-16.87,30.74-25.27a3.08,3.08,0,0,1,2,3.12,193.15,193.15,0,0,1-.16,26.68,6.54,6.54,0,0,1-1.2,3.21c-10.84,9-21.72,18-32.51,27.11-1.77,1.5-2.62.23-3.72-.68q-15.9-13.19-31.77-26.38a9.65,9.65,0,0,1-1.64-5.61c0-7.27-.11-14.54,0-21.8C226,159.25,225.72,156.92,228.1,155.69Z"/><path class="cls-18" d="M228,202.72l-.44,33c-8.73-7.13-17.57-14.15-26.14-21.48-2.69-2.29-4.27-2.35-7,0-9.56,8.23-19.4,16.11-29.12,24.12-1.67-.62-1-2-1-3-.05-8.82,0-17.64-.06-26.45,0-2.29.4-4,2.35-5.62,9.81-7.94,19.52-16,29.2-24.1,1.34-1.12,2.34-1.56,3.85-.31,8.08,6.71,16.33,13.22,24.2,20.16C225.13,200.22,227.05,201,228,202.72Z"/><path class="cls-18" d="M228.1,155.69c-1.13,11,0,22-.59,33.05-8.61-7-17.39-13.89-25.75-21.23-3.1-2.73-4.89-2.49-7.83,0-9.5,8.11-19.25,15.91-29.73,24.5,0-11.35,0-21.76,0-32.16,0-1.52.92-2.37,2-3.25,9.87-8.15,19.76-16.28,29.55-24.53,1.67-1.4,2.91-1.32,4.28,0,7.53,7.54,16.88,13,24.09,20.87C225.21,154.22,227.29,154,228.1,155.69Z"/><path class="cls-18" d="M228,249.7l-.45,33.05c-8.85-7.26-17.75-14.46-26.51-21.82-2.26-1.9-3.7-2.23-6.22-.06-9.7,8.33-19.68,16.32-29.55,24.43-1.67-.58-1-2-1-3-.05-8.82.06-17.64-.09-26.45a6.84,6.84,0,0,1,2.78-5.95q14.47-11.81,28.81-23.79c1.35-1.13,2.45-1.64,3.84-.28,6.14,6,13.27,10.81,19.53,16.71A84.7,84.7,0,0,0,228,249.7Z"/><path class="cls-18" d="M295.49,235.73l-.48-33c9.26-7.79,18.54-15.54,27.75-23.39,2-1.7,2.61-.7,4.52.58,9.23,6.18,16.36,14.93,25.93,20.61,1.46.87,1.41,3,3.22,3.54a201.17,201.17,0,0,1,0,32.84c-9.39-7.61-18.88-15.08-28.07-22.92-2.7-2.29-4.17-1.89-6.6.17C313.09,221.47,304.25,228.56,295.49,235.73Z"/><path class="cls-18" d="M295.49,282.72q-.24-16.52-.47-33c9.26-7.79,18.43-15.68,27.81-23.33,4.25-3.47,6.37,1.78,8.36,3.41,7.43,6.05,14.5,12.54,22.33,18.11,1.2.84,1.32,2.69,2.91,3.18a201.53,201.53,0,0,1,0,32.87c-9.36-7.61-18.81-15.1-28-22.9-2.57-2.18-4.07-2.12-6.58,0C313.15,268.42,304.28,275.51,295.49,282.72Z"/><path class="cls-18" d="M295.51,188.69c-.05-9.22-.08-18.45-.18-27.68,0-1.78.45-3.63-.49-5.33,9.25-7.75,18.38-15.64,27.81-23.17,4-3.2,6.48,1.55,8.52,3.36,4.82,4.26,10.07,7.93,15,12,3.51,3,6.87,6.09,10.29,9.14a199.07,199.07,0,0,1,0,32.85c-9.23-7.51-18.61-14.85-27.59-22.64-2.91-2.54-5.18-2.45-7.53-.23C313.1,174.76,304.09,181.47,295.51,188.69Z"/><path class="cls-19" d="M356.39,283.92q0-16.44,0-32.87c.29.11.84.22.84.34q.09,16.22.09,32.42c0,.14-.2.39-.28.38A2.67,2.67,0,0,1,356.39,283.92Z"/><path class="cls-20" d="M356.39,236.89q0-16.41,0-32.84c.29.11.83.22.83.34q.11,16.17.1,32.35c0,.14-.19.39-.27.39A3.05,3.05,0,0,1,356.39,236.89Z"/><path class="cls-20" d="M356.39,189.91l0-32.85c.29.12.84.23.84.34q.09,16.17.1,32.35c0,.14-.19.4-.26.39A3,3,0,0,1,356.39,189.91Z"/><path class="cls-21" d="M474.72,447.19c-1.87-.86-3.59-1.37-4.11-3.09-.39-1.27,4-6.29,5.27-6.08s2.72,1,2.5,2.58A12.08,12.08,0,0,1,474.72,447.19Z"/><path class="cls-22" d="M467.3,471.68a8.74,8.74,0,0,1-3.72,5.47c-1.56,1-2.39-1.14-3.52-1.87a28.29,28.29,0,0,1-4.62-3.77c-1.05-1.05-3.59-1.43-2.64-3.54a7.35,7.35,0,0,1,4.2-4.05C460.25,462.82,467.26,468,467.3,471.68Z"/><path class="cls-23" d="M47.57,455.9c-1.42-.87-2.66-2.28-2.53-3.53.19-1.73,2.27-1.46,3.65-1.64,1-.13,2.26.16,1.77,1.53S49.27,455.29,47.57,455.9Z"/><path class="cls-24" d="M356.49,540c2.72,2.17,5,3.59,5.25,6.42,0,.37-2.68,1.72-3.39,1.32C355.51,546.09,357.1,543.2,356.49,540Z"/><path class="cls-25" d="M222.16,556.63c2.82,7.46,2.78,7.54-3.18,6.89C219.21,561,220.86,559.23,222.16,556.63Z"/><path class="cls-26" d="M176.47,544.83v7.85c-1.71-.42-4.27-.31-4.32-1.76C172.06,548.63,174.55,547.34,176.47,544.83Z"/><path class="cls-27" d="M425.57,498c2.58,1.46,5,2.24,6.62,4.2C427.7,506.5,427.7,506.5,425.57,498Z"/><path class="cls-2" d="M298.59,1.22,317.47,1l28,48.92c-5.27,0-9.79,0-14.31,0-2.36,0-3-2.12-3.57-3.69-2.53-6.68-7-9.2-14.21-8.34-6.07.71-12.3.23-18.46.11-2.7-.06-5.05.2-6,3.18-2.61,8.53-8.57,10.46-17,8.24Zm8,8-12,21.72h24.17Z"/></g></g></svg>