<svg xmlns="http://www.w3.org/2000/svg" viewBox="0 0 510.77 449.56"><defs><style>.cls-1{fill:#0f8140;}.cls-2{fill:#0f7a3e;}</style></defs><g id="Layer_2" data-name="Layer 2"><g id="Layer_1-2" data-name="Layer 1"><path class="cls-1" d="M1.79,174.47q72.68-64.4,145.35-128.79c15.57-13.79,31.12-27.6,46.8-41.27,2.09-1.83,3.95-5.63,7.27-4,2.65,1.28,1.45,4.87,1.45,7.43q.08,114.74.09,229.47c0,5-1.21,8.9-5.15,12.37Q101.32,334.46,5.15,419.41c-1.43,1.26-3.42,1.89-5.15,2.81v-8.05c2.22-6.86.43-13.91,1-20.85V214.64C1.46,201.25.07,187.83,1.79,174.47Z"/><path class="cls-2" d="M0,394l1.94,0c-.05,6.79.69,13.65-1.94,20.19Z"/><path class="cls-1" d="M19.39,448c.76-4.28,4.36-6,7-8.32q94.19-83.43,188.45-166.77c3.94-3.49,7.85-5.64,13.38-5.63q138.42.19,276.82.13c1.89,0,4-.61,5.73,1.37-.14,3.87-3.65,5.27-6,7.33Q410,359.56,315.08,443A24,24,0,0,1,298,449.56q-134.38-.26-268.77-.14C25.91,449.42,22.49,450,19.39,448Z"/></g></g></svg>