<svg xmlns="http://www.w3.org/2000/svg" viewBox="0 0 690.38 590.88"><defs><style>.cls-1{fill:#d92827;}.cls-2{fill:#d22927;}.cls-3{fill:#d62127;}.cls-4{fill:#dd2827;}.cls-5{fill:#cd2227;}.cls-6{fill:#d82127;}.cls-7{fill:#ce2227;}.cls-8{fill:#d22a27;}</style></defs><g id="Layer_2" data-name="Layer 2"><g id="Layer_1-2" data-name="Layer 1"><path class="cls-1" d="M319,318.87c-6.51.82-10.83,2.34-10.78,11,.42,66.86.26,133.71.2,200.57,0,5.49.27,9.73,7.71,9.65,79.07-.87,158.15,1.61,237.21-1.39q2,3.35-1.31,5.37c-75.47.78-150.94.16-225,.45,2.06.62,6.16,0,10.05,0q99.36.08,198.71,0c6,0,12.26,1.66,18-1.7,2.86-4.63,1.63-9.78,1.63-14.7q.14-257.43.1-514.87c0-3.31.7-6.71-1.56-9.64.63-3.82,3.6-3.38,6.26-3.37Q622.3.48,684.38.78c4.24,5.93,3.31,12.78,3.32,19.4q.06,275,0,550c0,6.54,1.47,13.5-3.32,19.29l-3.32,0c-4.75-2.4-9.85-1.36-14.8-1.36q-236.42-.08-472.83,0c-4.94,0-10-1-14.79,1.36-13,1.07-7.33-9-7.36-13.9q-.57-124.47-.22-248.95c0-17.21.67-34.43,1-51.65,5.76-3.13,12-1.55,18-1.56,57.77-.14,115.53,0,173.3-.19,5.34,0,11.14,2,16-2.08l3.24-3.43c3.66-2.36,2-6,2-9.11q.12-97.89-.08-195.79c0-4,2.65-9.05-2.8-11.91l-235.51-.41c-3.89,0-7.88-.37-10.7,3.21-4.27,5.47-2,11.84-2.06,17.73q-.21,247.38-.12,494.77c0,20.06,0,20.14-20.31,20.21-32.82.11-65.64,0-98.46,0C9.25,588.51,4.4,588.73,1,583q0-6.68,0-13.35A16.61,16.61,0,0,0,4.23,561C4.41,380.42,4.94,199.81,4,19.22a14.35,14.35,0,0,0-3-5.55C-1.86,3.7,1.25,0,12.2,0Q259.82.41,507.43,0c8.65,0,11.65,2.6,11.63,11.38q-.33,148.89-.16,297.79c0,5.48,1.07,12.26-8.4,9.73-2.54-3.07-6.08-2.14-9.28-2.14q-86.45-.08-172.88,0C325.13,316.76,321.6,315.86,319,318.87Z"/><path class="cls-2" d="M684.35,589.45l0-588.67c8.49.63,5.27,7.32,5.28,11.42q.26,283.08,0,566.16C689.64,582.3,693.29,589.26,684.35,589.45Z"/><path class="cls-3" d="M11.13,586.39c2.21-4.38,5.32-7,10.64-6,30.41,5.82,61.17.59,91.64,2.92,15,1.15,18.68-4,18.63-18.68q-.76-245.23-.18-490.47c0-6.86-3-14.66,3.65-20.49.35,4.41,1,8.83,1,13.24q.08,253.08,0,506.17c0,4.41-.67,8.82-1,13.23A926.27,926.27,0,0,1,11.13,586.39Z"/><path class="cls-4" d="M1,13.67l3.43,0C7.24,18.31,6,23.45,6,28.37Q6.11,290,6,551.58c0,4.91,1.24,10.06-1.56,14.72L1,569.65c-.29-3.87-.84-7.73-.84-11.6Q.1,291.66.16,25.26C.16,21.4.71,17.53,1,13.67Z"/><path class="cls-3" d="M554,3.59c2.25.41,4.42,1,4.38,3.89-2.85,173.79-.44,347.59-1.28,521.39,0,4.84,1.38,10.18-3.27,14l-.07-.09-.36-4.06q-.15-265.12-.25-530.25A27.94,27.94,0,0,1,554,3.59Z"/><path class="cls-5" d="M178.61,589.43c5.13-5,11.6-2.94,17.48-2.94q233.73-.18,467.46,0c5.88,0,12.35-2.1,17.48,2.94-38.38.22-76.76.61-115.14.63q-184.48.12-369,0C190.81,590.06,184.71,589.65,178.61,589.43Z"/><path class="cls-6" d="M381.72,50.86c5.4,2.22,4.53,7,4.53,11.34q.06,100.59,0,201.19a14.72,14.72,0,0,1-.94,4.56c-.07.2-1.77-.17-2.72-.28Q382.17,159.26,381.72,50.86Z"/><path class="cls-2" d="M379.36,271.1c-4.53,6.28-11.22,3.67-17,3.69-63.44.19-126.89.13-190.33.14,1.06-5.77,5.77-4.22,9.24-4.22Q280.33,270.78,379.36,271.1Z"/><path class="cls-7" d="M319,318.87c3.59-5,8.94-3.73,13.8-3.73q81.95-.09,163.88,0c4.86,0,10.21-1.22,13.79,3.76Q414.77,321.47,319,318.87Z"/><path class="cls-5" d="M11.13,586.39l124.34-.09c-2.67,6.59-8.47,3.6-12.75,3.64-36.45.27-72.9.33-109.34-.08C8.91,589.81-.29,594.84,1,583Z"/><path class="cls-8" d="M4.44,566.3q0-276.33,0-552.65C9.93,18.58,7.68,25.13,7.69,31q.18,259,0,518C7.68,554.81,9.93,561.37,4.44,566.3Z"/><path class="cls-2" d="M553.8,542.89c-3.29,4.15-8,3.3-12.33,3.3q-106.85,0-213.69,0c-1.56,0-3.13-.61-4.64-3.35H553.73Z"/><ellipse class="cls-6" cx="304.11" cy="430.98" rx="0.92" ry="148.5"/></g></g></svg>