<svg xmlns="http://www.w3.org/2000/svg" viewBox="0 0 347.59 131.77"><defs><style>.cls-1{fill:#7c7989;}.cls-2{fill:#7c7b82;}.cls-3{fill:#e9e9ed;}.cls-4{fill:#8488c2;}.cls-5{fill:#828187;}.cls-6{fill:#80a5c2;}.cls-7{fill:#dcdeee;}.cls-8{fill:#625a71;}.cls-9{fill:#5fa4d9;}.cls-10{fill:#9494c3;}.cls-11{fill:#6aadda;}.cls-12{fill:#68a3d5;}.cls-13{fill:#726977;}.cls-14{fill:#9592bf;}.cls-15{fill:#675e76;}.cls-16{fill:#97b6d9;}.cls-17{fill:#c9cbdf;}.cls-18{fill:#8484bd;}.cls-19{fill:#9798c4;}.cls-20{fill:#9697c7;}.cls-21{fill:#d0d3d6;}.cls-22{fill:#c8c2c7;}.cls-23{fill:#9ea1c5;}.cls-24{fill:#9e9ec9;}.cls-25{fill:#8989ae;}.cls-26{fill:#72a0c4;}.cls-27{fill:#a8c6e6;}.cls-28{fill:#b9bcbe;}.cls-29{fill:#9491c7;}.cls-30{fill:#7d7db7;}.cls-31{fill:#807ea1;}.cls-32{fill:#8482a5;}.cls-33{fill:#b6c0ce;}.cls-34{fill:#b2bdca;}.cls-35{fill:#72a8d4;}.cls-36{fill:#c2c8e6;}.cls-37{fill:#72acdd;}.cls-38{fill:#a3b1b8;}.cls-39{fill:#b4c6d2;}.cls-40{fill:#a6b1b5;}.cls-41{fill:#d8e1f3;}.cls-42{fill:#8b96c6;}.cls-43{fill:#949bc5;}.cls-44{fill:#9da2c2;}.cls-45{fill:#838ac1;}.cls-46{fill:#949bc9;}.cls-47{fill:#fafafa;}.cls-48{fill:#62586e;}.cls-49{fill:#6b5d77;}.cls-50{fill:#6c6978;}.cls-51{fill:#59546b;}.cls-52{fill:#6b607a;}.cls-53{fill:#645a71;}.cls-54{fill:#6c697f;}.cls-55{fill:#797890;}.cls-56{fill:#695e6e;}.cls-57{fill:#65576e;}.cls-58{fill:#6c627b;}.cls-59{fill:#605567;}.cls-60{fill:#676479;}.cls-61{fill:#68606a;}.cls-62{fill:#6aaadc;}.cls-63{fill:#c7d6dd;}.cls-64{fill:#6ea1d2;}.cls-65{fill:#9db4c0;}.cls-66{fill:#719bc2;}.cls-67{fill:#797486;}.cls-68{fill:#737086;}.cls-69{fill:#737088;}.cls-70{fill:#666478;}.cls-71{fill:#bfc3c7;}.cls-72{fill:#8f95c7;}.cls-73{fill:#888fc5;}.cls-74{fill:#a0a6d3;}.cls-75{fill:#8288c0;}.cls-76{fill:#e9edf4;}.cls-77{fill:#4f9fd8;}.cls-78{fill:#57a2d9;}.cls-79{fill:#63afe1;}.cls-80{fill:#67a9dc;}.cls-81{fill:#609cd1;}.cls-82{fill:#8a92c8;}.cls-83{fill:#878390;}.cls-84{fill:#e7e1f0;}.cls-85{fill:#8f93b4;}.cls-86{fill:#d1cee6;}.cls-87{fill:#6e6877;}.cls-88{fill:#5e5971;}.cls-89{fill:#5f5671;}.cls-90{fill:#5f566c;}.cls-91{fill:#55525b;}.cls-92{fill:#51a0d7;}.cls-93{fill:#5f9fd6;}.cls-94{fill:#4c95d0;}.cls-95{fill:#8384be;}.cls-96{fill:#62a5d6;}.cls-97{fill:#56a1d8;}.cls-98{fill:#509ccc;}.cls-99{fill:#50a0d8;}.cls-100{fill:#65a5da;}.cls-101{fill:#625970;}.cls-102{fill:#655c72;}.cls-103{fill:#8c8fc3;}.cls-104{fill:#6b667c;}.cls-105{fill:#78738a;}.cls-106{fill:#b3c3e4;}.cls-107{fill:#6293c6;}.cls-108{fill:#559bd3;}.cls-109{fill:#c8c6df;}.cls-110{fill:#756c85;}.cls-111{fill:#757586;}.cls-112{fill:#636178;}.cls-113{fill:#8e9bca;}.cls-114{fill:#8588c2;}.cls-115{fill:#7881bf;}.cls-116{fill:#9197cb;}.cls-117{fill:#898ec4;}.cls-118{fill:#f5f8fa;}.cls-119{fill:#8487c1;}.cls-120{fill:#f6fafb;}.cls-121{fill:#f4f8fa;}.cls-122{fill:#d2dff1;}.cls-123{fill:#a6b9ce;}.cls-124{fill:#afc0d1;}.cls-125{fill:#5ca3d8;}.cls-126{fill:#5998c4;}.cls-127{fill:#6baada;}.cls-128{fill:#6bacde;}.cls-129{fill:#9394c6;}.cls-130{fill:#9197c0;}.cls-131{fill:#8f99c9;}.cls-132{fill:#8d8ca9;}.cls-133{fill:#8b8bc4;}.cls-134{fill:#8f90c3;}.cls-135{fill:#8181b4;}.cls-136{fill:#61a4d8;}.cls-137{fill:#6aa5d8;}.cls-138{fill:#65aadd;}.cls-139{fill:#639acd;}.cls-140{fill:#8283bf;}.cls-141{fill:#7f8abf;}.cls-142{fill:#8384c0;}.cls-143{fill:#868ac3;}.cls-144{fill:#878fc4;}.cls-145{fill:#898dc2;}.cls-146{fill:#898bc0;}.cls-147{fill:#8e8dc5;}.cls-148{fill:#7a7eba;}.cls-149{fill:#8084c0;}.cls-150{fill:#666271;}.cls-151{fill:#675c74;}.cls-152{fill:#6b667e;}.cls-153{fill:#76707e;}.cls-154{fill:#716a85;}.cls-155{fill:#685f74;}.cls-156{fill:#7c768b;}.cls-157{fill:#68677d;}.cls-158{fill:#717083;}.cls-159{fill:#756c84;}.cls-160{fill:#746f7f;}.cls-161{fill:#6b6975;}.cls-162{fill:#787484;}.cls-163{fill:#777381;}.cls-164{fill:#818091;}.cls-165{fill:#736f83;}.cls-166{fill:#756d7d;}.cls-167{fill:#736e7a;}.cls-168{fill:#7b7688;}.cls-169{fill:#776d7e;}.cls-170{fill:#7a7381;}.cls-171{fill:#625f74;}.cls-172{fill:#71697a;}.cls-173{fill:#645a6b;}.cls-174{fill:#5a5d6f;}.cls-175{fill:#6d6e7f;}.cls-176{fill:#605e73;}.cls-177{fill:#5b536a;}.cls-178{fill:#615b74;}.cls-179{fill:#71687e;}.cls-180{fill:#5a546d;}.cls-181{fill:#474258;}.cls-182{fill:#72667e;}.cls-183{fill:#747288;}.cls-184{fill:#5b576d;}.cls-185{fill:#666077;}.cls-186{fill:#605c73;}.cls-187{fill:#736986;}.cls-188{fill:#645e78;}.cls-189{fill:#615d73;}.cls-190{fill:#747085;}.cls-191{fill:#5b556f;}.cls-192{fill:#56506a;}.cls-193{fill:#4d9fd6;}.cls-194{fill:#64a9d5;}.cls-195{fill:#5396d0;}.cls-196{fill:#f4f7f7;}.cls-197{fill:#777087;}.cls-198{fill:#585268;}.cls-199{fill:#615d6a;}.cls-200{fill:#69667c;}.cls-201{fill:#635f72;}.cls-202{fill:#645f71;}.cls-203{fill:#6b677d;}.cls-204{fill:#575269;}.cls-205{fill:#6c6883;}.cls-206{fill:#f9f9fb;}.cls-207{fill:#8d96c7;}.cls-208{fill:#8f91b9;}.cls-209{fill:#9299cc;}.cls-210{fill:#529dd6;}.cls-211{fill:#4e99d3;}.cls-212{fill:#58a5db;}.cls-213{fill:#5098d2;}.cls-214{fill:#54a2d9;}.cls-215{fill:#4899d3;}.cls-216{fill:#4995d0;}.cls-217{fill:#9395bb;}.cls-218{fill:#9498b5;}.cls-219{fill:#737cb9;}.cls-220{fill:#7982bd;}.cls-221{fill:#605b70;}.cls-222{fill:#6a6579;}.cls-223{fill:#6b687b;}.cls-224{fill:#9b9bc1;}.cls-225{fill:#898cb2;}.cls-226{fill:#67637a;}.cls-227{fill:#4897d2;}.cls-228{fill:#4e9ed6;}.cls-229{fill:#4396d2;}.cls-230{fill:#2683c0;}.cls-231{fill:#5aa7dc;}.cls-232{fill:#57a1d5;}.cls-233{fill:#5daade;}.cls-234{fill:#5ea4da;}.cls-235{fill:#57a3da;}.cls-236{fill:#5099d3;}.cls-237{fill:#5298d2;}.cls-238{fill:#5ea7db;}.cls-239{fill:#4696d2;}.cls-240{fill:#6f6d85;}.cls-241{fill:#c3d8e8;}.cls-242{fill:#c7d5eb;}.cls-243{fill:#6b96b8;}.cls-244{fill:#6a6680;}.cls-245{fill:#716e88;}.cls-246{fill:#d2ecf8;}.cls-247{fill:#789dc0;}.cls-248{fill:#5da2d6;}.cls-249{fill:#5fabdc;}.cls-250{fill:#8c96ad;}.cls-251{fill:#64a7d6;}.cls-252{fill:#66acdd;}.cls-253{fill:#61acde;}.cls-254{fill:#719ebc;}.cls-255{fill:#6a9ec5;}.cls-256{fill:#589ed0;}.cls-257{fill:#8686c0;}.cls-258{fill:#7a81bd;}.cls-259{fill:#8a8bb7;}.cls-260{fill:#9493c8;}.cls-261{fill:#549fd7;}.cls-262{fill:#669eca;}.cls-263{fill:#7d7aba;}.cls-264{fill:#9b9bcd;}.cls-265{fill:#8788c2;}.cls-266{fill:#8481bd;}.cls-267{fill:#7a7cbb;}.cls-268{fill:#9291c7;}.cls-269{fill:#8c8ac3;}.cls-270{fill:#817cba;}.cls-271{fill:#8d8cc2;}.cls-272{fill:#625c70;}.cls-273{fill:#554b63;}.cls-274{fill:#6b6381;}.cls-275{fill:#675e7f;}.cls-276{fill:#645a7a;}.cls-277{fill:#7c7e90;}.cls-278{fill:#615d74;}.cls-279{fill:#625c72;}.cls-280{fill:#79738a;}.cls-281{fill:#74768c;}.cls-282{fill:#818198;}.cls-283{fill:#514b64;}.cls-284{fill:#746f85;}.cls-285{fill:#615c76;}.cls-286{fill:#6e6381;}.cls-287{fill:#5ca5d5;}.cls-288{fill:#635d73;}.cls-289{fill:#6b667a;}.cls-290{fill:#fbfcf8;}.cls-291{fill:#a09ecc;}.cls-292{fill:#fbfcf6;}.cls-293{fill:#8186bd;}.cls-294{fill:#e2e5ef;}.cls-295{fill:#8a8dc3;}.cls-296{fill:#8588bd;}.cls-297{fill:#908fac;}.cls-298{fill:#9292b7;}.cls-299{fill:#8e91ba;}.cls-300{fill:#f8faf2;}.cls-301{fill:#9796bd;}.cls-302{fill:#9a9ec9;}.cls-303{fill:#8582af;}.cls-304{fill:#469ad5;}.cls-305{fill:#408ecc;}.cls-306{fill:#3390cf;}.cls-307{fill:#63a6db;}.cls-308{fill:#7cb7e4;}.cls-309{fill:#4891ce;}.cls-310{fill:#4b95d0;}.cls-311{fill:#4ea0d8;}.cls-312{fill:#54a4da;}.cls-313{fill:#8f8ac2;}.cls-314{fill:#3d8ccb;}.cls-315{fill:#549bd4;}.cls-316{fill:#9199b8;}.cls-317{fill:#6d6c84;}.cls-318{fill:#78798e;}.cls-319{fill:#6b95b7;}.cls-320{fill:#8a93aa;}.cls-321{fill:#69abdd;}.cls-322{fill:#60a7d9;}.cls-323{fill:#716c7e;}.cls-324{fill:#8888c1;}.cls-325{fill:#8188c3;}.cls-326{fill:#868bbf;}.cls-327{fill:#8688bf;}.cls-328{fill:#7b82bf;}.cls-329{fill:#8d92c5;}.cls-330{fill:#8184c0;}.cls-331{fill:#8787bf;}.cls-332{fill:#8288b8;}.cls-333{fill:#898dc5;}.cls-334{fill:#8085c0;}.cls-335{fill:#7478b9;}.cls-336{fill:#8087c2;}.cls-337{fill:#8188c2;}.cls-338{fill:#737ab8;}.cls-339{fill:#6e73b6;}.cls-340{fill:#7076b8;}.cls-341{fill:#7f83bf;}.cls-342{fill:#8f8fc6;}</style></defs><g id="Layer_2" data-name="Layer 2"><g id="Layer_1-2" data-name="Layer 1"><path class="cls-1" d="M1,35.28c.14-8.86.45-17.72.34-26.58C1.23,3,2.38.06,9.26.28,26,.84,42.75.48,59.49.49a2.32,2.32,0,0,1,.16,2.42,5.16,5.16,0,0,1-3.17,2.2A10,10,0,0,1,53.87,5a20.73,20.73,0,0,0-7.61-.3c-2.59.37-4.84,1.68-7.25,2.56a7.79,7.79,0,0,1-2.59.23,11.34,11.34,0,0,1-3.6-1.57c-2.3-1.44-4.18-.24-6.05,1-2.42,1.14-5,.21-7.53.67-2.53,0-5-.39-7.56-.66-1.64-.6-3.2-.69-4.49.75C6,9.35,5.92,11.35,5.88,13.35A26.52,26.52,0,0,0,7,22.17c.67,2.47,1.51,4.72,4.86,3.88A7.52,7.52,0,0,1,16.73,28c1.4,1.23,2.67,2.6,4.11,3.81,1.85,2,8,1.49,4.19,6.91-5.36,2.15-11,1.28-16.49,1.37a13.79,13.79,0,0,1-6.65-1.73A2.56,2.56,0,0,1,1,35.28Z"/><path class="cls-2" d="M1.44,109.63q0-15.45,0-30.88c1.39-1.87,2.73-4,5.22-1.28C7.92,79.6,8.11,82,8.28,84.39c1,14.6,1,14.6,15,18,2,.86.1,5.54,4.85,4.43,2.08-.48,4.31,2.15.4,4C19.51,110.15,10.36,112.29,1.44,109.63Z"/><path class="cls-3" d="M1.44,109.63l28.76-.3a7.3,7.3,0,0,1,3.06-1.68,17.07,17.07,0,0,1,3.49-.49c6.5-.16,13-.06,19.51-.21,18.09.57,36.22-1,54.3.91a6.15,6.15,0,0,1,2.92,2.36c-2.24,2.18-5.08,1.72-7.79,1.72q-47.91,0-95.83,0C6.92,111.93,3.54,112.93,1.44,109.63Z"/><path class="cls-4" d="M167.64,24.64l3.28,0c5.18-2.55,9.38-.87,13.09,3A5.81,5.81,0,0,1,185,32c-2.86,2.44,1.92,2.61,1.31,4.39-1.35,2.78-3.87,3-6.5,3-2.52-.92-6.54-.65-4.26-5.38-1.81,1.48-2.3,4.8-5.79,4-1.27-.3-2.61-.35-3.89-.74-6.65-3.51-4.1-8-1.35-12.55A2.48,2.48,0,0,1,167.64,24.64Z"/><path class="cls-5" d="M5.15,76.71l-3.7,2q-.13-8.3-.28-16.6c-.55-8.31-2.71-16.68.76-24.87l5.43,0C8.78,50.53,11.48,63.88,5.15,76.71Z"/><path class="cls-6" d="M246.13,2.13C264.05,1.79,282,.28,299.89,2a2.31,2.31,0,0,1-.26,2.64,12.16,12.16,0,0,1-6.72,2.65,55.5,55.5,0,0,0-15.76.41c-2.51,0-4.93-.82-7.44-.79-3.13-.16-6.26-.09-9.39,0-2.75,0-5.5,0-8.25-.18C249.46,6,246,6.38,246.13,2.13Z"/><path class="cls-7" d="M117.46,130.82c-5.16-6.13.94-14.43-4-20.6-.21-.32-.43-.63-.65-.94-1.58-1.74-1.88-3.91-2-6.13,0-3.88-.48-7.82,1.59-11.42a3.18,3.18,0,0,1,3-1.18,6.42,6.42,0,0,1,3.67,3.52c1.66,4.51,1,9.22,1.28,13.85-.15,4.08.13,8.16.06,12.24-.29,3.54,0,7.25-2.77,10.11Z"/><path class="cls-8" d="M92.49,2c5.82-3.79,12.25-.51,18.31-1.6l1.16.72-.18,1.35c-1.29,2.41-3.65,3.89-5.26,6a26,26,0,0,1-2.73,2.92,6.35,6.35,0,0,1-3.57,1.7,4.33,4.33,0,0,1-2.92-2.42c-.85-2.87-2.82-5.09-4.52-7.46C92.68,2.77,92.58,2.36,92.49,2Z"/><path class="cls-9" d="M312.4,2.05c2.52-.72,4.29.85,6.19,2,1.36.75,2.77,1.44,3.46,3a8.13,8.13,0,0,1-.64,7.51c-4,2.8-7.84,2-11.64-.39-1.68-2.3-1.81-4.86-1.33-7.54A6.32,6.32,0,0,1,312.4,2.05Z"/><path class="cls-10" d="M183.84,29c-4.12-2-8.07-4.52-12.92-4.4,3-5.52,8.18-4.08,12.92-4,1.26,4.69,7.49,2.29,9.17,6.43a5.71,5.71,0,0,1,0,3C189.44,34.44,186.67,31.44,183.84,29Z"/><path class="cls-11" d="M246.13,2.13c1.45,2.4,3.87,1.86,6.07,2A3.14,3.14,0,0,1,253,7.88c-1.86,2.6-5,1.27-7.36,2.5-1.16.66-2.29,1.36-3.47,2a8.55,8.55,0,0,1-5.39,1.18,3.14,3.14,0,0,1-2-1.86c.15-3.44.5-6.82,3-9.52Z"/><path class="cls-12" d="M320.68,6.21c-.69-.72-1.39-1.43-2.09-2.14l4.1-3,4.23.91A10.85,10.85,0,0,0,337.35,2l6.11,2.31c2,2.88.24,4.85-1.64,6.79a6.46,6.46,0,0,1-4.49.47c-3.54-1.73-7.19-3.07-11.23-2.92A8.37,8.37,0,0,1,320.68,6.21Z"/><path class="cls-13" d="M59.53,2.16c0-.56,0-1.12,0-1.67C69.2.9,79-1.61,88.59,1.89L87.86,3c-2.22,1.45-4.14,3.35-6.72,4.26a9.92,9.92,0,0,1-2.88,0C71.94,5.79,65.14,6.19,59.53,2.16Z"/><path class="cls-14" d="M206.56,20.89l18.76,1.88c-.77,5.87-6.1,3.95-9.39,5.53a14.78,14.78,0,0,1-4.45.23c-4.08-1.43-10.23,1.17-11.5-5.82C201.85,20.94,204.68,22.63,206.56,20.89Z"/><path class="cls-15" d="M88.59,1.89l3.9.06.49.5c1.2,2.51,3.89,4.36,3.35,7.63a7.31,7.31,0,0,1-1,2.69A10.25,10.25,0,0,1,89,15.82a6.6,6.6,0,0,1-2.75-.68,8.59,8.59,0,0,1-2.77-4.83,5.43,5.43,0,0,1,.5-2.69,30.32,30.32,0,0,1,4.36-5.17Z"/><path class="cls-16" d="M237.78,2.18q-1,5.16-1.9,10.31c2.4,2.85,2.54,6.27,2.52,9.75a32.38,32.38,0,0,1-.46,6.88c-.73,2.25-1.39,4.6-4.54,4.27a7.62,7.62,0,0,1-2.21-4.7,11.29,11.29,0,0,1,2.15-8.35C235.67,14.5,229,6.44,237.78,2.18Z"/><path class="cls-17" d="M115.23,18.56c1,1.72,2.58,2.08,4.34,2.16,2.6,3.84.35,7.44-.52,11.11A5.42,5.42,0,0,1,117.11,34a4.52,4.52,0,0,1-4.23-.51,9.37,9.37,0,0,1-1.85-4,51.65,51.65,0,0,1-1.48-7.2A5.9,5.9,0,0,1,111,18.15,3.44,3.44,0,0,1,115.23,18.56Z"/><path class="cls-18" d="M214.86,26.9c2.48-3.94,8-.12,10.46-4.13l2,.09a3.46,3.46,0,0,1,1.17,2.5,8.39,8.39,0,0,1-2.81,5,8.72,8.72,0,0,1-5.5,2.29C217,32.11,214,31.24,214.86,26.9Z"/><path class="cls-19" d="M192.2,27c-2.12-3-9.78,1.22-8.36-6.4l10.42.17c1.19,1.55,3.87.46,4.68,2.68C197.85,26.79,195.66,28.1,192.2,27Z"/><path class="cls-20" d="M143,22.64l7.7-1.91c1.36,1.12,3.09,2,2.64,4.25a5.46,5.46,0,0,1-4.19,3c-2.66-.19-5.05.85-7.49,1.75a5,5,0,0,1-4.38-3.22,5.68,5.68,0,0,1,.27-3C139.05,21.47,140.93,21.62,143,22.64Z"/><path class="cls-21" d="M345.46,82.86c1.06,4.83-1.7,10.21,2.12,14.65q-1.08,3.1-2.14,6.21a2.26,2.26,0,0,1-3.06-.86,26.2,26.2,0,0,1,0-19.2A2.24,2.24,0,0,1,345.46,82.86Z"/><path class="cls-22" d="M115.23,18.56l-3.7.13A4.12,4.12,0,0,1,110,16.25c.25-4.83.83-9.62,1.46-14.41a11.88,11.88,0,0,1-.7-1.49c5.69-.41,4.42,3.92,4.56,7C115.53,11.08,115.29,14.83,115.23,18.56Z"/><path class="cls-23" d="M117.68,33.14c-1.12-4.41,1.2-8.29,1.89-12.42a7.36,7.36,0,0,0,6.27.09,4.22,4.22,0,0,1,.73,4.07C123.62,27.65,122.92,32.84,117.68,33.14Z"/><path class="cls-24" d="M152.71,24.87q-1-2.07-2.05-4.14l8.26,0a4.91,4.91,0,0,1,1.15,5.57,4.53,4.53,0,0,1-2.25,2C155.27,28.39,152.49,28.9,152.71,24.87Z"/><path class="cls-25" d="M159,26.86c0-2.06,0-4.12,0-6.17,3.46.1,7.89-2,8.72,3.95l-2.46.28C163.4,26.52,161.71,28.37,159,26.86Z"/><path class="cls-26" d="M312.4,2.05l-2.1,4.13c-3.36,1.58-6.4.23-9.44-1.07-.31-.35-.61-.72-.91-1.08,0-.67,0-1.35-.06-2C304.06,2.06,308.23.22,312.4,2.05Z"/><path class="cls-27" d="M227.51,24.76a10.08,10.08,0,0,1-.15-1.9l6-2.51q.14,4.33.25,8.68c-1.82,1.27-3.09,0-4.41-1C228.28,27.14,228.18,25.81,227.51,24.76Z"/><path class="cls-28" d="M343.6,103.73c.61,0,1.23,0,1.84,0,.14,2.41.54,4.91-1.94,6.55l-6.21-.51c-1.2-2.86,1.45-3.44,2.82-4.8A6.2,6.2,0,0,1,343.6,103.73Z"/><path class="cls-29" d="M138.25,25v1.74a3.46,3.46,0,0,1-2.52,2.9,7,7,0,0,1-3.79-1.42c-1.6-1.72-5.56-1.85-4-5.77a9.31,9.31,0,0,1,1.66.21C133.15,21.05,136.15,21.37,138.25,25Z"/><path class="cls-30" d="M128,22.44c.81,3.17,5,1.73,6.1,4.5-2.62,4.31-5.59,2.73-8.59.5a2.13,2.13,0,0,1,.22-2.62c0-1.34.09-2.67.13-4Z"/><path class="cls-31" d="M138.25,25a14.21,14.21,0,0,0-8.61-2.34c4.43-3.45,8.87-3.28,13.31,0C141.08,22.81,139.22,23,138.25,25Z"/><path class="cls-32" d="M198.35,22.85c-1.65-.15-3.26-.39-4.09-2.11l12.3.15c-1.53,2.34-4,1.72-6.2,1.93C199.7,23.64,199,23.66,198.35,22.85Z"/><path class="cls-33" d="M235.8,109.73c-2-.56-2.26-2.2-2.42-3.89-2.26-2.8-2.52-6-2.18-9.44a19.61,19.61,0,0,1,.53-3.14c1.82-5.48,1.51-11,.32-16.56.4-5.75-1.39-11.52.1-17.28,1.31-2.32,1.22-6,5.37-5.59,5,5.48,2.95,12.29,3.25,18.58.31,6.48.14,13,.06,19.46-.58,4.73.24,9.59-1.29,14.23C238.88,107.91,237.34,108.82,235.8,109.73Z"/><path class="cls-34" d="M341.32,106.19l-4,3.57-20.65,0c-1.15-3.59,2.43-6.52,1.34-10.1-.17-2.37-1-4.63-1.1-7,.11-2.77,1.14-5,3.82-6.16,2.61,0,3.44,1.87,4.09,3.91a15.86,15.86,0,0,1,.44,2.91c.67,3.94-2,9.77,5.59,9.79,2.86.18,5.75.05,8.5,1A4,4,0,0,1,341.32,106.19Z"/><path class="cls-35" d="M320.46,99.43c1,4.3-.52,7.66-3.82,10.37l-12.7-.22a6.75,6.75,0,0,1-1.77-4,8.24,8.24,0,0,1,1-4.27A5.5,5.5,0,0,1,308,98.81c2.58,1.63,5,.73,7.31-.64A5.09,5.09,0,0,1,320.46,99.43Z"/><path class="cls-36" d="M231.61,105.79l-.12,24.66c-4.76,2-9.58,1.36-14.41.36l-4.25.18v-.72a2,2,0,0,1,.26-2.49,8,8,0,0,1,2.52-1.15,32,32,0,0,1,5.35-.5,18,18,0,0,0,3.78-.69c3.51-2.79,1.94-6.57,2-10-.27-1.38-.64-2.74-.93-4.12a14.21,14.21,0,0,1,.19-5.88c1-2.9.95-6.21,3.51-8.45a2.49,2.49,0,0,1,2.81,1C232.4,100.57,233.2,103.29,231.61,105.79Z"/><path class="cls-37" d="M275.11,109.84l-14.61,0a2,2,0,0,1-.09-2.53A7.74,7.74,0,0,1,262.8,106c2.72-.88,6.27.14,7.86-3.41,1.44-2.72,3.06-5.11,6.74-3.47A7,7,0,0,1,279,105C278.66,107.37,276.93,108.64,275.11,109.84Z"/><path class="cls-38" d="M260.76,107.79c-.08.68-.16,1.35-.26,2l-24.7-.08,2.23-2.17c6.91-4.18,15.08-1.88,22.33-4.31A3.38,3.38,0,0,1,260.76,107.79Z"/><path class="cls-39" d="M275.11,109.84l2.07-4a7.83,7.83,0,0,1,2.31-1.72,11.5,11.5,0,0,1,7.22.18,6.29,6.29,0,0,1,3.15,2.93,2.9,2.9,0,0,1-.32,2.72Z"/><path class="cls-40" d="M289.54,109.91c0-.76-.07-1.53-.11-2.3.38-.33.75-.67,1.12-1,4.35-1.41,8.72-2.39,13.22-.62.06,1.2.11,2.41.17,3.61Z"/><path class="cls-41" d="M231.61,105.79l-.09-8.37c-.57-1.83.18-2.41,1.94-2,0,3.48-.05,7-.08,10.43l-.89-.06Z"/><path class="cls-42" d="M154.76,128.22c-4.64,4.31-9.57,1.63-14.43.6-.3-.26-.61-.53-.92-.78-1.56-2-4.85-1.68-5.85-4.41.92-3.35,4-3.76,6.56-4.87a13.07,13.07,0,0,1,4.31-.55,7.33,7.33,0,0,1,5,2.31,22.52,22.52,0,0,0,5.53,5.4A1.77,1.77,0,0,1,154.76,128.22Z"/><path class="cls-43" d="M200.38,129.63c-7,1.11-14.07,1.75-21-.66.08-.44.17-.88.24-1.32a28.8,28.8,0,0,1,7.89-7.15c6.81-2.84,7.7,4.77,11.83,6.69A3.85,3.85,0,0,1,200.38,129.63Z"/><path class="cls-43" d="M179.38,129c-7.61,2.4-15.16.85-22.73-.29.57-2.23,2.25-3.28,4.24-4a34,34,0,0,1,5.93-.9c4.41-.54,9-1.94,12.78,1.74a2.42,2.42,0,0,1,.27,2.73Z"/><path class="cls-44" d="M117.64,130.27c0-3.34,0-6.67,0-10,4.46-.66,4.54,6,9,5.34,4.7-.07,9.34.17,13.6,2.47l.09.75C133,132.13,125.21,129.91,117.64,130.27Z"/><path class="cls-45" d="M161.08,126.42l-4.43,2.26a3.58,3.58,0,0,1-1.89-.46,7.88,7.88,0,0,0,0-1.88,4.55,4.55,0,0,1-1-4.35c1.31-3.14,3.1-5.59,7.09-4.71C165.27,120.21,164,123.29,161.08,126.42Z"/><path class="cls-46" d="M200.38,129.63q0-.58-.09-1.17c.15-.43.31-.86.47-1.29a5.27,5.27,0,0,1,2.17-1.62,8.34,8.34,0,0,1,2.73,0c2.58.7,5.48.64,7.34,3.07-.07.56-.13,1.11-.18,1.67Z"/><path class="cls-47" d="M5.15,76.71C6.59,63.6,4.47,50.29,7.36,37.26L26.24,37c2.44-2.32,5.52-2.42,8.6-2.57,7.76.27,15.53-.13,23.28,0,1.17,0,2.34,0,3.5,0,4.56.07,9.12,0,13.67,0,4.34,0,8.68.08,13,.36a15.63,15.63,0,0,1,3,.57A48.7,48.7,0,0,1,97,37.51,12.33,12.33,0,0,1,99.41,39c3.27,4,8.29,6.18,11,10.72a21.47,21.47,0,0,1,2,6.93c-.26,3.88-.49,7.77-2,11.42C108.43,70.88,106,73.29,104,76a26.68,26.68,0,0,1-15.3,8.88,32.92,32.92,0,0,1-6,.56c-1.52.07-3,.06-4.56,0s-3.08,0-4.62,0-3.15.08-4.72.08c-2.69.06-5.38.13-8.06.12-8.61,0-17.22-.12-25.81.32C32.11,87.18,27,84,27,90.25c-.47,4.6,1.07,9.6-2.83,13.44C4.85,104,4.87,104,5.29,84.93,5.35,82.19,5.2,79.45,5.15,76.71Z"/><path class="cls-48" d="M59.53,2.16a44.62,44.62,0,0,1,20.65,4c.76,1.6-.18,2.47-1.38,3.24A10,10,0,0,1,75,10c-3.24.61-3.32,4.94-6.51,5.59a6.78,6.78,0,0,1-2.54,0c-2.55-1.26-4.79.2-7.14.85a11.7,11.7,0,0,1-6.92-.53,7.2,7.2,0,0,1-2.25-1.93,11.38,11.38,0,0,1-1.82-4.12A5.24,5.24,0,0,1,49,5.54c2.45-2.51,5.83.56,8.38-1.39Z"/><path class="cls-49" d="M11.41,6.18c2.92-1.8,5.76,0,8.63.22,2.17,2,2.18,4.43,1.45,7a6.91,6.91,0,0,1-1.78,2.41,21.57,21.57,0,0,1-3.81,2.35c-2.7,1.28-5.41,2.54-8.53,1.83-3.9-1.19-2.19-5-3.43-7.42-.2-2.32-.88-4.76,1.56-6.44C7.47,6.9,9.45,3.79,11.41,6.18Z"/><path class="cls-50" d="M34.68,36.83,26.24,37c-1.82-3.15-6.49-.39-8.13-3.93,1.71-2.54,3.26-5.28,6.89-5.35a33.9,33.9,0,0,0,7.6-.08,7.62,7.62,0,0,1,2.56.66c2.31,1.57,4.22,3.4,4.16,6.49C38.35,36.73,36.11,35.88,34.68,36.83Z"/><path class="cls-51" d="M26.24,29l-8.13,4-2.06-4C16,25.2,22.51,27.1,21.6,22.55c.93-1.56,2-3,3-4.53,1.91-2.72,4.33-3.74,7.51-2.23,2.2,2.32.69,4.6-.06,6.9C30.6,25.25,29.49,28.11,26.24,29Z"/><path class="cls-52" d="M20,14.49V6.4c2.1-2.47,4.32.66,6.46-.15,2.68-1.2,4.68,0,6.47,1.86a3.91,3.91,0,0,1-.26,2.83c-2.86,2.78-6,5-10.21,5A4.8,4.8,0,0,1,20,14.49Z"/><path class="cls-53" d="M49.06,6.21c0,1.38,0,2.75,0,4.13-1.26,2.42-1,5-.68,7.56a4.16,4.16,0,0,1-1.82,3.56c-4.88.94-5.3-2.67-6.1-5.91A9.36,9.36,0,0,0,37.77,10c-.81-1-1.54-2-.89-3.36a19.91,19.91,0,0,0,2-.37C42.28,4.72,45.66,3.29,49.06,6.21Z"/><path class="cls-54" d="M22.11,22.78c2.46,6.45-4.69,3.53-6.06,6.24l-4.21-2.16c-1.88-1.77-1.94-3.82-.92-6A6.54,6.54,0,0,1,17,19.12,7.69,7.69,0,0,1,22.11,22.78Z"/><path class="cls-55" d="M11.81,20.71l0,6.15c-1,1.76-2.14,4.16-4.42,3.22C4.16,28.74,6,25.34,5.52,22.86A4.58,4.58,0,0,1,7.2,21.1C8.72,20.76,10.16,19.48,11.81,20.71Z"/><path class="cls-56" d="M49.06,6.21l-10.16,0c1.4-2.38,4-2.89,6.23-3.84,3.2,1.81,7.1-.53,10.24,1.69l2,.05C55.17,7.17,51.92,5.89,49.06,6.21Z"/><path class="cls-57" d="M32.45,8.21l-6-2c1.2-5.74,4.22-4.82,7.72-2.11C33.41,5.4,34.13,7.33,32.45,8.21Z"/><path class="cls-58" d="M32.45,8.21l1.77-4.08,2.66,2.49,1.85,1.66c.84,3.37-1.12,4.59-3.95,5.13-1.65-.34-2.81-1.05-2.32-3Z"/><path class="cls-59" d="M11.41,6.18c-2-2.08-4,6-5.91,0,1-1.84,2.06-3.85,4.55-3.31C11.64,3.18,11.63,4.78,11.41,6.18Z"/><path class="cls-60" d="M7.54,22.74l-2,.12c-3.15-3-1.61-6.76-1.59-10.27,1.22,2,2.42,4,3.63,6A2.7,2.7,0,0,1,7.54,22.74Z"/><path class="cls-61" d="M55.37,4.1c-3.44-.44-7.23,1.29-10.25-1.69C48.61,2.54,52.4.87,55.37,4.1Z"/><path class="cls-62" d="M345.44,20.69q0,10.4,0,20.77a3.36,3.36,0,0,1-2.66.93c-3.21-1.19-4.26-3.72-4.24-6.89,1.88-3-.54-4.78-1.83-6.91,3.59-2.05-.56-9.31,6.21-9.23A5.36,5.36,0,0,1,345.44,20.69Z"/><path class="cls-63" d="M347.59,56l-2.1,8.27a2.47,2.47,0,0,1-2.67.46,6.79,6.79,0,0,1-2.88-3.31,18,18,0,0,1-.76-7.37,8.06,8.06,0,0,1,1.56-4.16c2.45-1.64,3.55.21,4.75,1.83C345.63,53.42,345.94,55,347.59,56Z"/><path class="cls-64" d="M345.44,20.69c-.68,0-1.37,0-2.05,0a12.15,12.15,0,0,1-3.27-6.35,4.48,4.48,0,0,1,1.27-4l2.07-6.07C347.56,9.33,345,15.19,345.44,20.69Z"/><path class="cls-65" d="M345.49,51.72l-4.14-1.92a3.74,3.74,0,0,1-.78-2.49c.36-2.26,1-4.37,2.95-5.84.66,0,1.31,0,2,0C345.48,44.88,345.49,48.3,345.49,51.72Z"/><path class="cls-66" d="M337.35,2q-5.19,4.77-10.43.06Z"/><path class="cls-67" d="M24.16,103.69q.25-8.32.52-16.65a1.81,1.81,0,0,1,2.32.28c1.27,1.81,1.47,4,2.18,6,.32.77.6,1.55.89,2.33.92,2.29,1.82,4.59,2.53,7a27.58,27.58,0,0,1,1.1,3.59,3.65,3.65,0,0,1-1.17,3.41l-2.33-.31c-1.57-.52-3.15-1.51-4.7-1.46C19.58,108.08,22.55,105.72,24.16,103.69Z"/><path class="cls-68" d="M113.13,103.68c-.1,1.87-.2,3.73-.29,5.6-19.18.86-38.36,1.12-57.55.24A4.58,4.58,0,0,1,54,107.08c.11-4,.26-7.91,5.63-8.33,3.92,1.42,7.12,7.72,12.12,1.77,7.57,5.18,16.14,4.9,24.73,4.48,1.85-.08,3.7-.41,5.55-.45,3,.12,6.1.54,8.81-1.39A2,2,0,0,1,113.13,103.68Z"/><path class="cls-69" d="M55.28,107.75c0,.59,0,1.18,0,1.77l-20.72-.09c0-6,4.62-4,7.74-4.54a31,31,0,0,1,9.07-.23A5,5,0,0,1,55.28,107.75Z"/><path class="cls-70" d="M42.75,107.69c-2.82.1-6.33-3-8.18,1.74l-2,.21v-3.91c1-3,3.33-3.82,6.24-3.6C41.41,103,43.66,104.22,42.75,107.69Z"/><path class="cls-71" d="M343.56,64.27c.64,0,1.29,0,1.94,0q0,9.3,0,18.59l-1,0h-.95Q337.25,73.57,343.56,64.27Z"/><path class="cls-72" d="M125.71,24.82c0,.7.05,1.4.07,2.11,2.56,3.68,6.22,5.63,10.47,6.65,4.8,1.65,9.5,1.76,14-1a6.18,6.18,0,0,1,2.74-.08c4.72,1,8.9,4.86,14.23,2.7,4.28.42,9.07-2.1,12.67,2.21a2.42,2.42,0,0,1-1,3c-9.14,4.19-18.69,1.64-28.09,1.7-8.49.06-17,.12-25.47.42-3.1.16-5.33-1.46-7.3-3.6-1.43-1.82-2.33-3.71-.73-5.9l.33,0C121,31,120.41,25.06,125.71,24.82Z"/><path class="cls-73" d="M167.23,35.21c-5.43,3.36-10.44,3.84-14.53-2.11.13-.41.26-.82.38-1.23,1.26-2.45,4.24-2.88,5.8-5l.08,0,6.22-1.94C167.47,28,159.5,33.18,167.23,35.21Z"/><path class="cls-74" d="M186.12,35.3c-1-.51-4,1.13-2.29-2.2a12.71,12.71,0,0,1,13.47,1.15,8.56,8.56,0,0,1,3.64,3.13,2.87,2.87,0,0,1-1,2.9c-3.6,2-7.29,1.9-11.05.49C186.49,39.7,186.77,37.27,186.12,35.3Z"/><path class="cls-75" d="M196.05,37c-3-4.58-7.76-3.79-12.22-3.89,0-1.36,0-2.73,0-4.1,2.76-.8,5.53,3.75,8.3,0,2.45-.87,4,.39,5.2,2.3C198.09,33.47,198,35.43,196.05,37Z"/><path class="cls-76" d="M186.12,35.3l2,4c-2.82,4-5.65,4.08-8.51,0,.1-.62.18-1.25.26-1.87C182.15,37.24,184.71,37.94,186.12,35.3Z"/><path class="cls-77" d="M277.11,6.22a16.75,16.75,0,0,1,16.52,0c1.87,1.48,2.11,3.51,1.95,5.69a13.17,13.17,0,0,1-2.43,5.64c-6,8.78-10,1.08-14.55-1.8A9.83,9.83,0,0,1,275.85,12,5.37,5.37,0,0,1,277.11,6.22Z"/><path class="cls-78" d="M260.51,4.2l10.44,0c2.86,2,4.65,4.11,1.17,7.1a8.13,8.13,0,0,1-2.64.74c-1.43.56-4.09-1.25-4,2.15a9.89,9.89,0,0,1,.73,3.71,4.73,4.73,0,0,1-3.38,4.19,7.22,7.22,0,0,1-6.87-2.29A15,15,0,0,1,252.76,13a8.88,8.88,0,0,1,.11-2.91C253.91,6.22,258,6.25,260.51,4.2Z"/><path class="cls-79" d="M270.88,10.34c3.34-2,.59-4.11.07-6.17l6.16,2.05c0,2.06,0,4.11,0,6.17a4.86,4.86,0,0,1-2.62,1.41C272.37,13.59,270.31,13.33,270.88,10.34Z"/><path class="cls-80" d="M293.74,12.39q0-3.11-.11-6.22c1.51-2.46,4-2,6.32-2.14l0,.15c1.4,3.33.16,6-2,8.5C296.48,13.51,295.06,13.72,293.74,12.39Z"/><path class="cls-81" d="M260.51,4.2l-6.21,6.11c-1.88.52-2.59-.14-2.05-2.05,0-1.37,0-2.75-.05-4.13Z"/><path class="cls-82" d="M125.86,128.24c-6.19.89-5.37-5.45-8.24-8q.12-6.3.25-12.59c.86-1.59,1.46-3.35,3-4.43a4.24,4.24,0,0,1,2.63-.24,5.94,5.94,0,0,1,1.85,1.85,8,8,0,0,1,1.11,4.83c-.61,2.33,1.34,3.46,2.39,5a9.08,9.08,0,0,1,.87,2.62A13.66,13.66,0,0,1,125.86,128.24Z"/><path class="cls-83" d="M113.13,103.68c-.55-.07-1.1-.14-1.65-.18-3.07-2.46-2.74-6-3-9.33,0-2.65,0-5.3.08-8,0-1.48,0-3,.08-4.44a38.4,38.4,0,0,0-.54-6.93c-.32-2.3.46-4.49.67-6.74.4-4-1-8.26,1.8-11.9a2.58,2.58,0,0,1,3.41,0,8.89,8.89,0,0,1,1.67,3.37c-.13,10.57,2.93,21.36-2.14,31.6Q113.35,97.43,113.13,103.68Z"/><path class="cls-84" d="M113.56,91.18l.14-32.94c2.7-.7,4.1.67,4.89,3a9.67,9.67,0,0,1-.08,3.35c-1.68,8.77,2.4,18.23-3.11,26.55Z"/><path class="cls-85" d="M121.62,103.63l-3.75,4q-.37-7.22-.74-14.41c-.91-1.87-.68-3.82-.39-5.77,1.31-1.39,2.53-.85,3.73.15C123.64,92.76,123.71,98.12,121.62,103.63Z"/><path class="cls-86" d="M118,87.16l-.87,6.1-1.73-2.07c1-9.66-2.08-19.6,1.95-29.06a6.88,6.88,0,0,1,2.18,3C120.24,72.57,121.93,80.06,118,87.16Z"/><path class="cls-87" d="M111.5,1.84c3.43,5.07,2.16,9.94-.63,14.74-3.4,2.52-3.4,2.52-7.14-3.46-1-.73-1.94-1.49-.74-2.79l2.25-2.19c1.92-1.77,4.74-2.67,5.44-5.62A2.81,2.81,0,0,1,111.5,1.84Z"/><path class="cls-88" d="M94.46,12.65l.24-2.32a2.77,2.77,0,0,1,4.12,0l2.07,2.05a3.14,3.14,0,0,1,.69,2.7c-1.17,3-2.88,5.27-6.64,4.43C91.91,17.45,90.67,15.23,94.46,12.65Z"/><path class="cls-89" d="M100.87,14.55c0-.71,0-1.43,0-2.14l2.1-2.08,2,2.07c.83,3.87,3.82,8.66-3.83,8.88C99.05,19.14,99.63,16.86,100.87,14.55Z"/><path class="cls-90" d="M98.82,10.36l-4.12,0Q93.83,6.39,93,2.45C96.85,3.67,99.52,5.77,98.82,10.36Z"/><path class="cls-91" d="M110.68,2.52c1.46,5-1.47,5.84-5.44,5.62C105,4.28,108.25,3.8,110.68,2.52Z"/><path class="cls-92" d="M297.81,12.39A13.8,13.8,0,0,1,300,4.17a16.89,16.89,0,0,1,10.33,2q0,4.15,0,8.31l-.72.84a7.12,7.12,0,0,1-2.1.75,15.3,15.3,0,0,1-2.25.21,15.78,15.78,0,0,1-2.28,0,8.48,8.48,0,0,1-3.33-1,5.8,5.8,0,0,1-1.58-1.73Z"/><path class="cls-93" d="M310.31,14.49c3.45-2.29,6.91.68,10.36,0a2,2,0,0,1,2.85.27c1.62,2.38,1.73,5.06,1.56,7.8a8.78,8.78,0,0,1-1.56,4.36,4,4,0,0,1-5.35,0c-1.52-1.62-2.6-3.62-4.35-5.06a21.31,21.31,0,0,1-3.67-3.8l-.6-1.2a2.32,2.32,0,0,1,.76-2.36Z"/><path class="cls-94" d="M322.74,14.48h-2.07c0-2.76,0-5.52,0-8.28l6.18,0a3,3,0,0,1,.65,3.81C323.61,9,324.66,13.35,322.74,14.48Z"/><path class="cls-95" d="M196.3,31.09,192.14,29q0-1,.06-2l6.15-4.12q1,0,2,0c2.19,4.68,7.67,1,10.46,4.09,2.43,4.63-1.26,5.93-4.16,7.67C202.39,35.85,198.68,35.44,196.3,31.09Z"/><path class="cls-96" d="M235.75,22.82l.12-10.33q.94,0,1.89,0c2.82,2.16,3.29-.3,4.11-2.08L244,8.27c4.44-.63,5.09,3.25,6.89,5.77.59,2.36-.07,4.63-.51,6.92a12.13,12.13,0,0,1-1.48,3.81,21.69,21.69,0,0,1-4.67,4.75,4,4,0,0,1-2.56,0C239.19,27.72,238,24.82,235.75,22.82Z"/><path class="cls-97" d="M250.18,14.51,244,8.27c2.75-3.77,5.51.77,8.27,0l2.05,2.05c0,.7,0,1.39,0,2.09A4.58,4.58,0,0,1,250.18,14.51Z"/><path class="cls-98" d="M241.87,10.38c1.37,2.68,1.84,5.83-1.42,6.74-1.95.54-2.54-2.59-2.69-4.66Z"/><path class="cls-99" d="M326.88,10.33c0-1.37,0-2.73,0-4.1,4,0,8.31-.74,10.4,4.11a3.19,3.19,0,0,1,.78,3.78c-4.26,3.57-7.65-.23-11.36-1.35A1.94,1.94,0,0,1,326.88,10.33Z"/><path class="cls-100" d="M337.28,14.46c0-1.37,0-2.75,0-4.12h4.13c0,1.39,0,2.78,0,4.17,1.84,2.79.74,4.35-2.16,5.16C335.35,19.17,336.89,16.59,337.28,14.46Z"/><path class="cls-101" d="M78,8.3l2.14-2.12c.68,0,1.37,0,2,0a2.55,2.55,0,0,1,2.1,2.1c0,.69,0,1.38,0,2.07-.68,2.65-.65,5.51-2.44,7.83a7.91,7.91,0,0,1-8.25,1.91c-2.69-1.36-3.55-3.33-2-6.08C73.4,11.66,76.18,10.5,78,8.3Z"/><path class="cls-102" d="M84.33,8.27l-2.1-2.1c.26-4.11,3-4.27,6.06-3.72C88.63,5.52,88.25,8.1,84.33,8.27Z"/><path class="cls-103" d="M206.64,33.15c1.27-2.16,4.51-3,4.18-6.24h4a6.34,6.34,0,0,0,6.3,4.17c1.59,2.94,1,6,.65,9.11-1,2.33-2.38,4.16-5.07,4.58-3,0-6-.74-9-.86-3.16-.56-6.42-1-7.26-5,0-.56,0-1.11-.09-1.67C199.81,31.86,205.43,35.83,206.64,33.15Z"/><path class="cls-104" d="M74,18.65c3,.33,5.66-.72,8.23-2.1,1.31-.85,2.85-1.22,4.16-2.05h2.1c2.43,2.27,4.27,4.74,2.69,8.31-1.48,1.64-3.46,2.05-5.53,2.24A19.53,19.53,0,0,1,75.75,23a8.07,8.07,0,0,1-2.18-1.81A2.12,2.12,0,0,1,74,18.65Z"/><path class="cls-105" d="M90.48,22.75c-.66-2.75-1.33-5.5-2-8.24l6-1.86a5.05,5.05,0,0,0,.35,5.91,4.11,4.11,0,0,1,.66,4.32C93.78,24,92,28,90.48,22.75Z"/><path class="cls-102" d="M86.39,14.5c.12,3.73-1.91,3.1-4.16,2.05-1.64-2.87-1.23-5,2.11-6.21C86,11.24,86.34,12.8,86.39,14.5Z"/><path class="cls-106" d="M229.65,26.92,233.59,29l.18,4.29c1.82,1.72,1.91,3.85,1.48,6.11a5.31,5.31,0,0,1-1.84,2.72,4.46,4.46,0,0,1-4.73-.77,9.94,9.94,0,0,1-1.74-4.81C226.77,33.05,226.72,29.56,229.65,26.92Z"/><path class="cls-107" d="M233.59,39.37l.18-6q1-2.13,2-4.27c2.51-1,3.93.49,5.24,2.26a9.19,9.19,0,0,1,.46,6.3,5.37,5.37,0,0,1-1.86,2.61A5,5,0,0,1,233.59,39.37Z"/><path class="cls-108" d="M239.8,31.09l-4.06-2q0-3.11,0-6.23c4,.13,5.94,2.24,6.16,6.13C242.44,30.89,241.71,31.57,239.8,31.09Z"/><path class="cls-109" d="M117.4,60.15l-3.7-1.91c-.23-.76-.46-1.51-.7-2.27-2.63-5.16-2.44-10.72-2.36-16.28.23-2.55.71-5,3.09-6.54l3.61-.06c.22,1.65.36,3.35,2.11,4.25a61.59,61.59,0,0,1,.84,11.51C120.13,52.82,120.8,57,117.4,60.15Z"/><path class="cls-110" d="M101,20.63c5.77-.56,3.54-5.08,4.08-8.23,4.18-1.73,0,8.21,5.84,4.18l.66,2.11c-.16,1.38-.33,2.76-.49,4.14a11,11,0,0,1-3,2.61c-2,1.24-3.85,2.84-6.47,1.86C98.38,25.36,95.57,23.37,101,20.63Z"/><path class="cls-111" d="M113.73,33.15,113,39.29a3.07,3.07,0,0,1-2.41,1.12,6,6,0,0,1-4.39-3.18,7.15,7.15,0,0,1-.26-4.12c.65-2.21,1.27-4.45,2.8-6.27,2.29-1.18,3.36.24,4.27,2C113.22,30.28,113.47,31.71,113.73,33.15Z"/><path class="cls-112" d="M113,28.85,109.22,27c-3.52,0-3.53-1.7-2.09-4.17l3.91,0C112.29,24.64,114,26.31,113,28.85Z"/><path class="cls-113" d="M229.65,26.92q-.21,5.22-.41,10.45c-2.37,3.64-4.14,2.53-5.64-.71-.78-2.84.12-5.31,1.64-7.66.75-1.41,1.51-2.82,2.26-4.24Z"/><path class="cls-114" d="M225.24,29l0,8.26c-.91,1.6-1.88,3.1-4.11,2.1a6.71,6.71,0,0,1,0-8.29Z"/><path class="cls-115" d="M152.7,33.1l-2,0c-4.56,3-9.29,2.57-14.1.73a3.3,3.3,0,0,1-.44-4.9l2.13-2.24,4.12,2.3a42.12,42.12,0,0,1,7.19.19c1.83.68,3.95,1.13,3.12,3.92Z"/><path class="cls-116" d="M152.68,33.14c-.83-1.69-2.39-2-4.05-2.14a2.68,2.68,0,0,1,0-4.07l4.12-2.06c1.48,2.41,3.9,2,6.17,2C158.91,31.06,155.36,31.66,152.68,33.14Z"/><path class="cls-117" d="M148.59,26.93c0,1.36,0,2.72,0,4.08-2.3,0-4.73.44-6.26-2C142.8,23.48,146.06,26.26,148.59,26.93Z"/><path class="cls-118" d="M343.56,64.27q0,9.3,0,18.6,0,10.42.05,20.86c-.76.82-1.52,1.63-2.28,2.46l.14-.66a61.46,61.46,0,0,1,0-43.45Z"/><path class="cls-119" d="M136.12,29l0,4.14c.53.47.7.93.5,1.37s-.39.65-.58.65c-5.44-.21-10.6-.78-10.29-8.2,2.77.08,5.53,2,8.3,0Z"/><path class="cls-120" d="M341.44,62.08q0,21.72,0,43.45l-10.44.11c-6.12-1.88-5.75-8-8.17-12.37V91.15A171.52,171.52,0,0,1,323.44,63c.67-7.25-6.42-8.86-12.26-8.92-5.67,0-12.27-.33-12,8.73.48,14.34.92,28.72-4.49,42.45-1.3,1.8-3.75,1-5.25,2.36l0,0-1.95-1.87c-7.82-4.72-8.61-12.38-8.93-20.47-.36-9.08,2.85-18.35-1.36-27.22-2.72-3.15-6.49-3.77-10.28-4.08-8-.65-10.56,2.14-9.29,10.13a124.26,124.26,0,0,1,1.18,26.76c-.37,6.37-1.6,13.2-9.38,14s-10.28-5.17-11.66-11.59c-1.26-13.17,2.24-26.58-2-39.6-3.08-4-1.92-7.68.63-11.33,4.62-2.72,9.45-4.32,14.86-2.84C266.93,44,282.65,43,298.39,40c8.07-.61,16,.41,23.94,1.81,7.63,2,14.25,5.64,19.08,12.08Z"/><path class="cls-121" d="M237.77,93.29c1,1.72,1.69,3.93,3.17,5.06,2.86,2.17,5.34,6.16,9.64,4.66,4-1.39,5.54-5.44,5.57-9.16.07-9.87.22-19.84-1.07-29.58s1.69-14.4,11.13-13.3c4.54.52,9.77.55,13,5-.31.33-.62.67-.92,1-4.65,3.38-12-1.38-15.56,5.23-1.57,2.68-.55,5.4-.13,8.1-.19,5-.75,10-.32,15a17.53,17.53,0,0,1-.53,2.69c-1.41,4-.67,8,.08,12a3.68,3.68,0,0,1-1.71,3.6c-6.24,7.65-14.8,2.36-22.12,3.94Q237.9,100.42,237.77,93.29Z"/><path class="cls-122" d="M233.46,95.4l-1.94,2-1.9-.06c-2.2-1.66-2.64-4.09-2.87-6.61-.09-6.72-.54-13.46.57-20.16,1.69-4.64,1.06-9.51,1.49-14.27.31-3.54-.53-8,4.78-8.92A18.82,18.82,0,0,1,233.75,60c-.54,5.59,2.5,11.17,0,16.76a32.48,32.48,0,0,1,0,16.44Z"/><path class="cls-123" d="M233.75,60q-.09-6.18-.17-12.36c-1.68-1.82-1.22-3.33.7-4.61l1.33.52c2.55,3.34-.75,6.77.17,10.13C235.52,55.93,236.13,58.45,233.75,60Z"/><path class="cls-124" d="M233.7,93.21q0-8.22,0-16.44A16.09,16.09,0,0,1,233.7,93.21Z"/><path class="cls-121" d="M293.72,105.75c1.73-15.28,4-30.46,3.33-46-.27-6.72,8.94-11.3,17.66-8.3,5.23,1.8,13.51,2.4,10.73,13.07-2.2,8.48.7,17.92-2.58,26.6L320.8,87.1a5.84,5.84,0,0,1-2-2.62,13.19,13.19,0,0,1-.7-3.18c-.31-5.68-.13-11.38-.19-17.06.23-3.4-.52-6-4.76-5.6-10.44-1.43-8.32,6-8.39,11.89.05,1,.05,2.09,0,3.15-.05,3.88,0,7.75,0,11.62-.21,4.67.48,9.4-1,14C301.65,103.24,300.6,109.09,293.72,105.75Z"/><path class="cls-125" d="M320.46,99.43l-6,.07c-2.85-.28-5.72-.54-8.36-1.84-2.68-3.17-2.28-6.62-.95-10.15,3.13-3.14,6.42-1.48,9.68-.33,3.11.83,1.36,4.76,3.81,6Q319.54,96.33,320.46,99.43Z"/><path class="cls-121" d="M322.85,93.27c4.85,2.71,4.06,9.16,8.17,12.37C319.56,107.28,323.34,98.86,322.85,93.27Z"/><path class="cls-126" d="M318.62,93.22c-3.7.18-3.13-1.85-2.13-4.11-1.53-4.09-.5-5.7,3.91-4,.15.67.29,1.35.4,2Z"/><path class="cls-127" d="M306.16,87.05c.51,3.5-1.39,7.48,2.08,10.4a1.22,1.22,0,0,1,.51,1.37c-.18.45-.35.68-.53.68L304,101.6a5,5,0,0,1-2-1.94l.17-14.73c.85-1,1.25-2.38,2.72-2.74A2.71,2.71,0,0,1,307,83.44,3.1,3.1,0,0,1,306.16,87.05Z"/><path class="cls-39" d="M301.93,99.66l2,1.94c-.06,1.45-.13,2.91-.2,4.36-4.52,2.63-9.43,1.94-14.29,1.7l4.24-1.92C298.66,106.7,300.43,103.37,301.93,99.66Z"/><path class="cls-128" d="M308.22,99.5c0-.68,0-1.37,0-2.06,2,.76,5.73-3.43,6.2,2.06-.26,1.68-.46,3.48-2.61,3.75C309.06,103.6,308.52,101.62,308.22,99.5Z"/><path class="cls-129" d="M221.24,128.32l-6.3.22c-1.29-1.31-2.66-2.57-2.84-4.56a3.37,3.37,0,0,1,.94-2.39c1-2.52,5.08,2,5.32-2.34a4.52,4.52,0,0,1,4.66-3.87,7.17,7.17,0,0,1,3.44,2.22c1,1.59,2,3.2,1.16,5.2C225.94,125.17,223.11,126.19,221.24,128.32Z"/><path class="cls-130" d="M229.12,91.24c.16,2,.33,4.08.49,6.12-.71,2.8,1.11,6.25-2.13,8.41l-1.23-.35a7.48,7.48,0,0,1-2.47-2.83c-.86-1.89-2.23-3.47-3.18-5.32a4.16,4.16,0,0,1,1.54-3.37C224.26,92.48,226.05,90.18,229.12,91.24Z"/><path class="cls-131" d="M212.86,122.4q1,3.06,2.08,6.14l-1,.06h-1c-2.88-.44-6.2.89-8.44-2.1.8-3,3.27-4,5.87-4.92A3.07,3.07,0,0,1,212.86,122.4Z"/><path class="cls-132" d="M227.25,122.23l-1.86-4c.42-2.28.2-5.19,4-4.17-1.73,4.59,4,11.36-4.11,14.09C224.15,125.55,225.82,123.93,227.25,122.23Z"/><path class="cls-133" d="M227.48,105.77q.09,3,.16,6.1a4.64,4.64,0,0,1-4.37,1.4,3.7,3.7,0,0,1-2.81-3.52c1.19-3.19,2.29-6.54,6.84-4Z"/><path class="cls-134" d="M223.22,111.93l4.42-.06,1.79,2.14-4,4.17-2.16-2.1A2.73,2.73,0,0,1,223.22,111.93Z"/><path class="cls-135" d="M227.25,122.23q-1,2.94-1.93,5.87l-4.08.23C221.36,124.44,223.47,122.51,227.25,122.23Z"/><path class="cls-136" d="M277.09,99.41c-4.15.28-4.15,3.28-4.14,6.3a7.08,7.08,0,0,1-7-1.88c-1.77-4.62-4.76-8.87-4.48-14.15a5.53,5.53,0,0,1,2.93-3.2c5.91,4.18,4.32-3.48,7-4.44a4.4,4.4,0,0,1,4.31.75c2.28,3.18,1.93,7.11,3.06,10.62C279.08,95.65,278.93,97.77,277.09,99.41Z"/><path class="cls-137" d="M262.63,89.14c.71,5,5.76,8.82,4.14,14.51,1.26,4-3.12,2.3-4.1,4l-1.92.1c-.19-1.39-.39-2.78-.59-4.17,0-1.37,0-2.75-.05-4.13a29.5,29.5,0,0,1,0-12.34l.37-.17C262.32,86.55,263.39,86.93,262.63,89.14Z"/><path class="cls-138" d="M277.09,99.41,277,93.17c-2.27-3.12.76-7.23-1.93-10.27h-4.13c-2.47-4-1.59-6.53,3.19-7.42a7.8,7.8,0,0,1,4.78,2.17,4.71,4.71,0,0,1,1.31,3.24c-1.57,8.22,3.23,16.63-.74,24.78l-2.27.12Z"/><path class="cls-139" d="M262.67,107.69l4.1-4,6.18,2.06C270.05,109.1,266.15,107.28,262.67,107.69Z"/><path class="cls-121" d="M279.45,105.68q-.51-13.49-1-27c-2.63-7.53-3.64-15,.46-22.42l.37-.33c4.95,6,2.29,12.94,2.07,19.46-.35,10.67-.58,21.17,6.18,30.33Z"/><path class="cls-140" d="M161.05,118.18c-3.24-.39-4.08,2.86-6.24,4.11-2.08.35-4.15,1.59-6.23,0-.88-1.68-2.44-2-4.14-2.12-2.45-2.88-.78-5.87-.25-8.83a9.91,9.91,0,0,1,1.31-2.84c1.82-5.44,4.57,2.78,7.73-.72,3-3.34,7.37-.69,10.42,2.31a5.73,5.73,0,0,1,.66,3A6.8,6.8,0,0,1,161.05,118.18Z"/><path class="cls-141" d="M125.86,128.24l2-12.17c4.56-.29,3.75,3.71,4.91,6.14a7.1,7.1,0,0,0,1.31,2.15c1.88,1.51,7.62-3.34,6.14,3.71Z"/><path class="cls-142" d="M146.43,111.78c-.66,2.81-1.32,5.61-2,8.42l-4.12.08c-4.69-.35-3.58-3.42-2.94-6.27C139.72,110.53,142.63,109.33,146.43,111.78Z"/><path class="cls-143" d="M138.26,113.94c0,2.33-.41,4.81,2.06,6.34l-6.22,4.08-2.14,0a8.83,8.83,0,0,1,.31-9.09,7.3,7.3,0,0,1,4.44-1.82Z"/><path class="cls-144" d="M148.58,122.32c2.07-.61,4.14-3.36,6.23,0,0,1.35,0,2.7,0,4C151.74,126.48,148.81,126.48,148.58,122.32Z"/><path class="cls-145" d="M200.29,128.46c-3.32.34-5.89-.71-7.09-4-1-2.71-2.58-3.62-5.22-2.15a5.17,5.17,0,0,1-1.5-2.34,5.57,5.57,0,0,1,.83-4c2.28-2,5.1-.54,7.59-1.23,2.59.49,5-1,7.6-.67,2.43,2.44,2.3,5.15.88,8-5.23.08-.56,4.84-2.95,6.26Z"/><path class="cls-146" d="M188,120.23v2.07c-2.48,2.29-4.55,5.14-8.11,6a14.76,14.76,0,0,1-.2-2,5.06,5.06,0,0,1-1.49-4.07,8.84,8.84,0,0,1,5.4-6.71C187.31,115,186.35,118.81,188,120.23Z"/><path class="cls-147" d="M161.05,118.18c0-1.68.34-3.22,2-4.11,3.05,1.12,6.35,1.75,8.76,4.22,2.06,4.67-2,6-4.48,8.1l-6.23,0C161.1,123.67,163.06,120.92,161.05,118.18Z"/><path class="cls-148" d="M167.31,126.39c1.15-2.85,4.39-4.68,4.09-8.25l1.12-.7a5.94,5.94,0,0,1,2.57.41,8.28,8.28,0,0,1,4.56,4.5c0,1.31,0,2.63,0,3.93A20.6,20.6,0,0,0,167.31,126.39Z"/><path class="cls-149" d="M202.52,122.26c-.34-2.84.93-6.09-2.09-8.25-.05-.54-.11-1.07-.16-1.6,3.29-3.36,6.38-3.2,9.24.55a10,10,0,0,0,1.3,9.36l-6.25,4.18c-.68-.07-1.35-.11-2-.12C201.74,125,202.27,123.64,202.52,122.26Z"/><path class="cls-131" d="M202.52,122.26c2.35,1.37.18,2.75,0,4.12l-2.1,2C201.09,126.32,197.13,122.69,202.52,122.26Z"/><path class="cls-150" d="M32.31,84.58c9.58-3.41,19.41-1.44,29.16-1.43,2.06,5.17-1.59,5.93-5.18,6.75-2.84-.79-6.24-3.16-8.56-.65-6.56,7.12-11,2.2-15.84-2A2.57,2.57,0,0,1,32.31,84.58Z"/><path class="cls-151" d="M88.45,83c5.52-1.53,9.8-5.12,14.16-8.58,1.92-.8,2.92.34,3.77,1.8a8.6,8.6,0,0,1,.38,4.74,8.26,8.26,0,0,1-3.57,5c-2.29,1.21-4.81,1.34-7.31,1.61-3.29-.26-6.15,3.05-9.65,1.25C84.41,85.92,86.22,84.38,88.45,83Z"/><path class="cls-152" d="M75.82,36.51,61.57,37c-.8-2.44,1.34-3.83,2-5.74,1.78-3.51,5.16-5.82,6.9-9.36.93-1.05,1.91-1.92,3.44-1.15l0,0C76,23.09,79,25,78.37,28.79,76.81,31.13,76.58,33.91,75.82,36.51Z"/><path class="cls-153" d="M32.53,66.09c-5.07.83-8.17,0-7.91-6.48.25-6.18,3.26-6.55,7.89-5.56C37,58.05,37.05,62.07,32.53,66.09Z"/><path class="cls-154" d="M34.68,36.83l4.14-1.77c2.11-2.21,5.19-2.74,7.62-4.41,3.07-.33,5.52-2.28,8.4-3.17,2.82-.25,4.95.69,6,3.45a6.51,6.51,0,0,1-1.44,6Z"/><path class="cls-155" d="M32.53,66.09a17.37,17.37,0,0,0,0-12l12.38.05A4.41,4.41,0,0,1,46.25,58C45.06,62,41,63.31,38.68,66.18Z"/><path class="cls-156" d="M63.57,66.11l-8.32.13c-2.79-1.66-7-1.5-7.63-6,3.33-8.78,9.94-2.34,15-3.23C65.25,59.82,64.81,62.92,63.57,66.11Z"/><path class="cls-157" d="M75.82,36.51C72.53,32.81,71.1,29.66,78,29l1.36.11c3.64,1.85,8.18,1.17,11.44,4.09.75,1.33.93,2.62-.26,3.82Z"/><path class="cls-158" d="M107.13,37.28l4.1,2.09c1.56,4.08.42,7.62-2.2,10.87-3.8-3.21-9.33-4.75-10.28-10.7.27-.36.54-.72.8-1.09C101.93,37.14,104.3,35.68,107.13,37.28Z"/><path class="cls-159" d="M48.93,60l6.32,6.22-16.57-.06c-1.36-5.31,3.93-5.6,6.18-8.19C47.23,56.65,47.86,58.77,48.93,60Z"/><path class="cls-160" d="M48.93,60l-4.07-2,0-3.89L63.61,54a2.61,2.61,0,0,1,.77,3.23l-.88.84C58.7,59.15,53.42,56.61,48.93,60Z"/><path class="cls-161" d="M71.86,54.11c5.54.76,12.6-4.86,16.23,3.87a12.67,12.67,0,0,1-11.27,3.94,7.38,7.38,0,0,1-5.52-5A3.21,3.21,0,0,1,71.86,54.11Z"/><path class="cls-162" d="M55.28,89.11c2.57-1.46,6-2,6.19-6l8.32-.21a3.08,3.08,0,0,1,.65,3c-3.91,7.22-10,9.18-17.66,7.29C52.28,91,51.58,88.74,55.28,89.11Z"/><path class="cls-163" d="M76.1,60.12l12-2.14c1.09,6.38-1.23,9.4-8,8.06-1.63-1-3.53-1.58-4.6-3.33A2.38,2.38,0,0,1,76.1,60.12Z"/><path class="cls-164" d="M109,50.24q1.09-5.44,2.2-10.87c.58,0,1.15,0,1.72-.08L113,56l-2.39.24C107.5,54.91,108.48,52.51,109,50.24Z"/><path class="cls-165" d="M63.57,66.11c-2-2.66-1.8-5.33-.06-8l.08-.09a3.61,3.61,0,0,1,4.12-.71A8.83,8.83,0,0,1,71,62.22a4.42,4.42,0,0,1-1.17,4.12Z"/><path class="cls-166" d="M105,76.7l-2.43-2.3c2.55-1.62,1.39-6.92,6.21-6.29,3.7,2.15.79,4.54.26,6.85C109,78.51,107.16,77.9,105,76.7Z"/><path class="cls-167" d="M32.31,84.58l.27,2.51a3.25,3.25,0,0,1,.67,3.72A3,3,0,0,1,30.93,92c-2.6-.55-3.16-3-4.43-4.78A15.93,15.93,0,0,0,24.68,87C24.8,78.68,29.24,83.77,32.31,84.58Z"/><path class="cls-168" d="M69.81,66.34l0-4.05c2-2,4-1.6,6.12-.16L80.14,66Z"/><path class="cls-169" d="M78.08,83.09l4.18-.15c2.54,1.73,4.18,3.72,2,6.83a5.28,5.28,0,0,1-6.31-.48A4.57,4.57,0,0,1,78.08,83.09Z"/><path class="cls-170" d="M69.8,84.86c0-.64,0-1.28,0-1.92L74,83a5.4,5.4,0,0,1,.72,6.46c-1.51,1.37-3.21,3-5.11,1C68,88.78,68.68,86.69,69.8,84.86Z"/><path class="cls-150" d="M67.85,58l-4.26,0c0-1.33,0-2.65,0-4l8.25.08V56C71.09,57.77,70.06,59,67.85,58Z"/><path class="cls-171" d="M59.45,37l.16-5.79A2.68,2.68,0,0,1,61.77,30c2,.18,2.77,1.91,3.85,3.22L61.57,37Z"/><path class="cls-172" d="M73.94,89.12Q74,86,74,83l4.12.12,0,6.06-.66.75-.93.33s-1,0-1,0A1.88,1.88,0,0,1,73.94,89.12Z"/><path class="cls-173" d="M84.38,89.13q-1.06-3.1-2.12-6.19l6.19,0q-1,3.08-2.06,6.15l-1,.53Z"/><path class="cls-174" d="M90.58,37l.06-3.62L92,32.83a4.21,4.21,0,0,1,3,2.85c-.18,1.6-.55,2.93-2.6,1.73l-1,0Z"/><path class="cls-175" d="M92.42,37.41l2.24-2.1,1-.7a2.32,2.32,0,0,1,2,1.08,2.67,2.67,0,0,1-.75,3.2Z"/><path class="cls-176" d="M96.83,38.89l0-3.48a3,3,0,0,1,2.37-1c3.68,1.88,1.73,3.35-.34,4.82l-.14.35A4.66,4.66,0,0,1,96.83,38.89Z"/><path class="cls-177" d="M73.94,20.71l-2.11,2c-1.59,1.42-3.17,1.25-4.77,0-1.85-2.9-1.43-5.62.66-8.21,3.33-.85,1.6-6.69,6.2-6.3,1.78,2.1,1.52,4.2,0,6.3-2.17,1.42-2.06,2.81.07,4.16Z"/><path class="cls-178" d="M67.72,14.49c0,2.73,0,5.47.07,8.2-1.3,1.68-3,1.83-4.94,1.45a3.84,3.84,0,0,1-1.92-1.59c.22-1.39,1-2.82-.22-4.16A3.94,3.94,0,0,1,61.14,16a6.48,6.48,0,0,1,4.55-1.55Z"/><path class="cls-179" d="M65.69,14.48c-.9,1.69-2.47,2.05-4.2,2.08a1.52,1.52,0,0,1-2.09,0,1.49,1.49,0,0,1,.09-2.08C61.56,13.94,63.6,6.57,65.69,14.48Z"/><path class="cls-180" d="M59.49,14.5l0,2.11-.77,1.08A8.9,8.9,0,0,1,54,20a3.94,3.94,0,0,1-3.58-1.66,3.35,3.35,0,0,1,.81-3.81Z"/><path class="cls-181" d="M51.18,14.48l-.11,4.13c-.7,1.76-1.74,2.85-3.8,1.93l-.15-3.93c-.35-3-1.57-6.82,4-4.07C51.09,13.19,51.12,13.83,51.18,14.48Z"/><path class="cls-180" d="M51.09,12.54c-3.86-1.12-2.18,3.17-4,4.07-3.57-3.4-2.5-5.36,2-6.27C49.74,11.07,50.42,11.8,51.09,12.54Z"/><path class="cls-182" d="M73.93,14.49c0-2.1,0-4.19,0-6.29L78,8.3A6.07,6.07,0,0,1,73.93,14.49Z"/><path class="cls-183" d="M7.54,22.74c0-1.37,0-2.75,0-4.12l8.29-2a3.42,3.42,0,0,1,2.73,2A2.48,2.48,0,0,1,18,20.75l-6.16,0Z"/><path class="cls-184" d="M18,18.78l-2.11-2.19L18,14.5c.9.86,2.25,1.26,2.65,2.63C20.23,18.5,19.59,19.44,18,18.78Z"/><path class="cls-185" d="M20,16.56,18,14.5h4.18A1.62,1.62,0,0,1,22.78,16c-.09.55-.21.82-.36.82A1.86,1.86,0,0,1,20,16.56Z"/><path class="cls-186" d="M47,31.07c-.7,5.52-4.92,3.78-8.2,4l-4.27-6c1.83-2.22,4.33-2.27,6.89-2.16a10.93,10.93,0,0,1,2.92.76A4.82,4.82,0,0,1,47,31.07Z"/><path class="cls-187" d="M42.85,29l-8.31,0H32.43a3.7,3.7,0,0,1-.93-4A5.08,5.08,0,0,1,36,22.12c1.77.53,3.1,1.81,4.63,2.75C41.94,25.93,43.87,26.68,42.85,29Z"/><path class="cls-188" d="M32.66,25c-.08,1.33-.16,2.65-.23,4-2.07.58-4.13,3.28-6.19,0L30.4,22.9A2.51,2.51,0,0,1,32.66,25Z"/><path class="cls-189" d="M22.08,16.63c0-.71,0-1.42.05-2.13l10.33-4.12,2.09,2a3.12,3.12,0,0,1,.55,4,2,2,0,0,1-2.62.11c-3,0-6,0-6.25,4.19C22.9,21.33,21.5,20,22.08,16.63Z"/><path class="cls-88" d="M32.48,16.56h2.05a3.24,3.24,0,0,1,4.12-.46c1.53,2.84.24,4.83-2,6.55l-4,2.39L30.4,22.9Z"/><path class="cls-190" d="M22.08,16.63l4.15,4.12c-.86,1.72-2.49,1.88-4.12,2-1.7,0-3.25-.36-4.15-2,0-.66,0-1.32,0-2L20,16.56C20.72,16.56,21.4,16.58,22.08,16.63Z"/><path class="cls-191" d="M36.67,22.65l2-6.09c-1.75-4.4-.31-5.71,4.06-4.19.59,3.22-1.51,7.94,4.5,8.17l3.81-1.93h4.26c2-.85,2.58.42,3.05,1.93-.1,2.87-1.71,4.46-4.36,5.17a19.32,19.32,0,0,1-4.16-.26c-3.75.31-7.82-1.92-11.17,1.46C37,26,36.7,24.37,36.67,22.65Z"/><path class="cls-192" d="M42.76,12.37c-2.65.14-4,1.53-4.06,4.19H34.53c0-1.38,0-2.76,0-4.14l4.17-4.14A6.81,6.81,0,0,1,42.76,12.37Z"/><path class="cls-193" d="M337.31,18.63c2.68-.07,4-1.45,4.1-4.12,2.42,1.48,2,3.89,2,6.15-5.23.43-.08,8.49-6.12,8.34,1.56,1.88,2,3.88.66,6.08-1.7,1.84-3.73,1.94-5.93,1.13a5,5,0,0,1-2.33-3.79c-1.36-4.57,3.42-8.67,1.07-13.37C332.8,16.71,335,16.62,337.31,18.63Z"/><path class="cls-194" d="M331,35.2l6.24,0a1.23,1.23,0,0,1,2.07.09c1.39,2,2.79,4.1,4.18,6.16-.08,2.31.1,4.72-2.24,6.23a2.26,2.26,0,0,1-2.55.3c-2.88-2.36-5.92-4.55-8.17-7.6a5,5,0,0,1-.43-4.11Z"/><path class="cls-195" d="M339.34,35.31l-2.07-.09V29c2.22.23,5.1-.62,5.74,2.62C343.55,34.3,341.44,34.94,339.34,35.31Z"/><path class="cls-196" d="M339.61,47.5c.56.06,1.12.12,1.67.2,0,.7.05,1.4.07,2.1l.06,4.08-18.67-10.3C330.41,36.09,334.17,45.41,339.61,47.5Z"/><path class="cls-197" d="M30.48,91.21q1,0,1.92,0c4.75,1.68,8.17,4.37,7.66,10.05a3.93,3.93,0,0,1-1.41,2.29l-6.13,2.15-2.11-2.1c3.33-3.73-.66-5.65-2-8.23l-.06-.06C27.26,93,28.56,92,30.48,91.21Z"/><path class="cls-198" d="M28.39,95.4c3.55,2,9.74,3.42,2,8.23C29.74,100.89,29.06,98.15,28.39,95.4Z"/><path class="cls-199" d="M30.48,91.21C29.76,92.59,29,94,28.33,95.34c-2.83-2.22-1.65-5.35-1.84-8.16Z"/><path class="cls-200" d="M99,107.56a89,89,0,0,0-10.34.3c-7.41,1-13.74-.71-18.88-6.28-.93-2.29.28-3.77,1.9-5.1a10.44,10.44,0,0,1,7-.85,30.62,30.62,0,0,0,7.75.93c3,.62,6.24-.63,9.09,1.19C97.92,100.57,101.39,103,99,107.56Z"/><path class="cls-201" d="M73.94,89.12c.69,0,1.38,0,2.06,0,2.15,3.12,2.21,5.68-1.89,7.14-5.38-1-9.24,4.78-14.73,3.35-4.51,1.12-2,5.78-4.1,8.13l-4.13-2.06a6.21,6.21,0,0,1-2-4.23c.09-3.39,1.06-6.35,4.09-8.28,5.6-2.58,12.79-2,16.53-8.32C70.09,87.34,68.8,91.36,73.94,89.12Z"/><path class="cls-202" d="M110.93,93.38c.18,3.37.36,6.75.55,10.12-1.57,5.57-5,4.22-8.51,2.23a14,14,0,0,1-7-8.51c2.22-6.54,8.4.12,11.5-3.47a6.1,6.1,0,0,1,2.34-1.15Z"/><path class="cls-203" d="M59.38,99.62c4.15-1.52,6.86-7.12,12.49-4.36.75.45,1,.9.77,1.36s-.48.7-.72.7q-1.07,2.13-2.11,4.26c1.13,2.4,1.73,4.72-1.62,5.77-2.16.67-4.84.25-5.21-1.91C62.51,102.77,60.88,101.36,59.38,99.62Z"/><path class="cls-204" d="M96.75,97.38q3.1,4.17,6.22,8.35l-4,1.83L94.7,97.42l1-.71Z"/><path class="cls-205" d="M51.13,101.6c0,1.37,0,2.73,0,4.09l-8.4,2a6.9,6.9,0,0,0-4.1-4.1c0-.69.05-1.37.06-2.06,1.18-2.58,2.52-5,6-4.63,1.56,1,1.74,3.88,4.47,3.43A3.72,3.72,0,0,1,51.13,101.6Z"/><path class="cls-206" d="M222.45,95.17l-1.7,2.07c-.22,2.3-1.84,3.52-3.58,4.67A67,67,0,0,1,202.48,108a19.54,19.54,0,0,1-3.57.49c-14.41-.24-28.83,1.25-43.16-1.44-4.33-.81-8.78.48-13.19,1.06-6.3.83-13.09,2.07-18.68-2.86a2.7,2.7,0,0,0-.18-1.68c-3.12-15.3-3.16-30.79-2.8-46.29.14-3.84,1-7.65.83-11.53a6.09,6.09,0,0,1,1.71-4.36c5.86-4.16,12.52-2,18.8-2.14,12.46-.34,24.93,0,37.4,0,2.85,2.15,5.68,1.22,8.51,0l12.36-.31a13.32,13.32,0,0,0,8.23,2.65c3.62,1.14,6.74,3.37,10.31,4.67a11.29,11.29,0,0,1,2.36,2c3.64,4.88,5.34,10.52,6.44,16.41-.33,6.37-.71,12.73-.49,19.11C227.52,88.35,226.4,92.35,222.45,95.17Z"/><path class="cls-207" d="M136.07,35.13c0-.67.07-1.34.08-2l14.51,0C146.74,40.7,141.33,37.39,136.07,35.13Z"/><path class="cls-208" d="M123.44,41.38c0,1.41.09,2.81.13,4.22-1.31,2.57-2.93,4.24-5.87,2a16,16,0,0,1,1.75-10.26Z"/><path class="cls-209" d="M206.64,33.15l-6.22,4.12L196.05,37c.08-2,.16-3.93.25-5.9C199.49,33,203,33.38,206.64,33.15Z"/><path class="cls-210" d="M279.21,14.49c4.56-1.84,6.78,10.4,12.42,2.07a2.08,2.08,0,0,1,2-.74,11.08,11.08,0,0,1,1.83,1.35,7.74,7.74,0,0,0,3.13,1.34c.85.06,1.66.18,2.5.31a10.16,10.16,0,0,1,2.57.83,5.61,5.61,0,0,1,1.86,2.13,14.22,14.22,0,0,1,1,4.4,16.44,16.44,0,0,1-1.08,7.76c-2,3.2-4.91,3.64-8.26,2.85-4.65-5.88-13.09-4.34-18.28-9.23a6.44,6.44,0,0,1-1.4-3.86C277.92,20.61,277.68,17.38,279.21,14.49Z"/><path class="cls-211" d="M279.21,14.49a6.77,6.77,0,0,1,0,8.3c-1.81,1.77-3.64,3.5-6.52,2.46a9.39,9.39,0,0,1-3.29-7.77c.1-3.7,4.13-3,5.69-5,.67,0,1.35,0,2-.06Z"/><path class="cls-212" d="M293.73,16.58l-2.1,0q1.06-2.08,2.11-4.17h4.07l.07,0c.82,1.42.39,2.66-.53,3.84l-1.11.87A2.25,2.25,0,0,1,293.73,16.58Z"/><path class="cls-213" d="M270.91,16.56,273,24.84c-1.56,2.13-3.94,2.73-6.3,3.39a6.06,6.06,0,0,1-4.3-.77,5.23,5.23,0,0,1-1.26-4.18,6.46,6.46,0,0,1,1.49-2.57c1.66-.88,2-2.42,2.09-4.12A4.28,4.28,0,0,1,270.91,16.56Z"/><path class="cls-11" d="M250.18,14.51c.87-1.7,2.43-2.06,4.14-2.11l2,6.17A6.88,6.88,0,0,1,252,21.89a3.92,3.92,0,0,1-3.83-1.21Z"/><path class="cls-214" d="M270.91,16.56l-6.2,0-2.11-2.11c-.58-5.36,4.3-2.49,6.19-4.12l2.09,0c.9,1.69,2.48,2,4.2,2.11C276.06,16.23,271.79,14.68,270.91,16.56Z"/><path class="cls-215" d="M268.79,10.36l-6.19,4.12c-2.15-1.56-1.81-3.17-.05-4.75C264.84,7.66,266.76,9.6,268.79,10.36Z"/><path class="cls-216" d="M252.28,20.71c.83-1.74,2.39-2.05,4.08-2.14l6.26,2.14v2.08a6.57,6.57,0,0,1-5.78,1.78C254.65,24.08,253,23,252.28,20.71Z"/><path class="cls-217" d="M123.88,105.24l78.59.43a2,2,0,0,1-.29,2.89c-8.17,3.85-16.94.9-25.33,2.23-.95.24-1.93.46-2.89.71-2.34.5-4.64,1.19-7,1.71a4.26,4.26,0,0,1-3.86-1.28c-5.09-4.44-10.91-3-16.66-2.09-3.79.58-7.72.19-11.4,1.63a12.64,12.64,0,0,1-7,.07,5.3,5.3,0,0,1-2.27-1.75Z"/><path class="cls-218" d="M123.84,53.82q-.07,24.87-.14,49.74l-2.08.07q-1-7.29-2.05-14.57c.14-7.73-.07-15.46,0-23.19C119.78,61.43,116.52,55.74,123.84,53.82Z"/><path class="cls-219" d="M134,116.07c-3,2.17-1.69,5.44-2.07,8.27-3.35-1.77-.75-6.48-4.08-8.27,0-.69,0-1.38,0-2.07l1.17-1C131.59,112.57,134.25,112,134,116.07Z"/><path class="cls-220" d="M125.8,109.79l2.08.12a2.78,2.78,0,0,1,0,4.11v0c-1.83-.22-4.34.62-5.11-1.6S124.4,110.25,125.8,109.79Z"/><path class="cls-221" d="M103,84.85l2.1-4c2-1.63,4-1.76,5.89.1l0,3.91c-2.32,2.45.74,6-1.72,8.42h0c-2.39,1.42-4.36.1-6.37-1C99.74,89.76,100.17,87.28,103,84.85Z"/><path class="cls-222" d="M110.94,80.94l-5.89-.1c0-1.38,0-2.76,0-4.14l4-1.74C111.85,76.29,111,78.73,110.94,80.94Z"/><path class="cls-223" d="M109.19,93.27c1.66-2.58-3.76-6.61,1.72-8.41q0,4.24,0,8.51C110.35,93.31,109.78,93.28,109.19,93.27Z"/><path class="cls-224" d="M123.84,53.82c-3,3-3.9,6.46-2.21,10.46a2.63,2.63,0,0,1-3.92,0l-.36-2.2a4.28,4.28,0,0,0,.05-2l.3-12.56,5.87-2C125.64,48.27,123.94,51.07,123.84,53.82Z"/><path class="cls-225" d="M117.71,64.33l3.92-.06c-1,8.24,2.21,16.83-2.06,24.79L118,87.16Q117.85,75.75,117.71,64.33Z"/><path class="cls-226" d="M101,20.63c-4.39,3.75,1.71,4.06,2.06,6.26.64,1.8-.41,2.72-1.79,3.46A6.66,6.66,0,0,1,95.7,30c-2-2.16-1.76-4.64-1.06-7.2,0-1.4.11-2.81.17-4.21,3.19.42,3.93-2.85,6.06-4C100.9,16.58,100.92,18.6,101,20.63Z"/><path class="cls-227" d="M306,14.59l2.21-.1a15.8,15.8,0,0,1,2.09,2.08l0,0c.21,4-2.45,3.51-5,3.26a3.08,3.08,0,0,1-1.95-2C303.3,16,304.88,15.48,306,14.59Z"/><path class="cls-228" d="M304.14,16.45l-.05,2.18c.53.47.7.93.52,1.39s-.36.69-.54.69l-2.19-.06c-.48-.5-.94-1-1.41-1.53a11.28,11.28,0,0,1-1.06-1.81c-.11-.34-.21-.68-.32-1a2,2,0,0,1,.84-1.8l4.35.11a1.13,1.13,0,0,1,.34,1.26C304.45,16.26,304.29,16.45,304.14,16.45Z"/><path class="cls-229" d="M299.93,14.49v2.09a3.06,3.06,0,0,1-4.15,0q1.05-2.07,2.09-4.16Z"/><path class="cls-230" d="M304.14,16.45a7.19,7.19,0,0,1,.14-1.85,14.1,14.1,0,0,1,1.72,0Z"/><path class="cls-231" d="M310.3,16.57l-2.09-2.08h2.1C310.31,15.18,310.3,15.88,310.3,16.57Z"/><path class="cls-232" d="M331,31.08v4.14c-6,3-12.68,1.3-18.94,3-3.58.94-6.74-1.1-6.92-5.61-.21-2.89,1-4.78,3.86-5.57,3.31-.13,6-3.1,9.56-2.14.89,1.67,2.44,2,4.15,2.06C327.41,24.51,329.9,26.44,331,31.08Z"/><path class="cls-233" d="M331,31.08c-1.85-3.21-5.39-3-8.29-4.16V22.78a10,10,0,0,1,5.9-3,2.78,2.78,0,0,1,2.39.94l6.64,2.16C333.59,24.7,330.75,26.9,331,31.08Z"/><path class="cls-234" d="M329,20.76c-1.51,2.41-3.95,1.95-6.22,2v-8.3c.14-2.62-.94-6.46,4.14-4.15V12.4C327.76,15.14,331.59,17.15,329,20.76Z"/><path class="cls-235" d="M318.59,24.86c-2.34,2.24-4.42,5-8.31,4.14-1.3-1.67-5.25-.5-4.59-4.28,2.09-3.14,6.28-1.7,8.75-4C317.14,20.78,318.53,22.15,318.59,24.86Z"/><path class="cls-236" d="M314.44,20.71c-1.9,3.08-5.44,2.88-8.26,4.14-.69,1-1.39,1-2.09,0,0-1.39,0-2.78,0-4.16,0-.69,0-1.39,0-2.08,2.26-.07,4.7.39,6.19-2A6.93,6.93,0,0,1,314.44,20.71Z"/><path class="cls-237" d="M239.8,31.09c.7-.72,1.4-1.43,2.11-2.14.68,0,1.36,0,2,0,4.94-.18,5.88,3.57,7,7.13a3.26,3.26,0,0,1-1.83,2.54c-3.33.94-6.55,1.2-9.32-1.43Z"/><path class="cls-235" d="M250.18,35.23,243.94,29c.09-2.69,1.5-4,4.16-4.11l1.25.81c2.18,2.76,4,5.66,3.34,9.44A1.74,1.74,0,0,1,250.18,35.23Z"/><path class="cls-238" d="M252.28,20.71l4.08,2.12c1.44,2.08,1,3.84-1.26,4.76-3,1.23-5-1-7-2.74h0c0-1.39,0-2.77,0-4.16Z"/><path class="cls-239" d="M329,20.76c.77-3.15-4.85-4.71-2.08-8.36,4.22-3.12,6.64,2.85,10.4,2.06,2.34,1.37.16,2.78,0,4.17-2.28.1-4.77-.39-6.28,2.07Z"/><path class="cls-116" d="M221.16,39.36l4.11-2.1c1.27,2.32,2.64.34,4,.11l.36,4.14c.92,2.13-.29,3.62-1.5,5.13a8.27,8.27,0,0,1-5.07,2.5,6.66,6.66,0,0,1-4-1.45h0c-1.14-1.13-3.05-1.76-2.51-4Z"/><path class="cls-76" d="M216.54,43.73q1.26,2,2.51,4c-4.38-.43-7.16-3.58-10.31-6.09C211.71,40.94,214.1,42.44,216.54,43.73Z"/><path class="cls-240" d="M94.64,22.77a5.46,5.46,0,0,1,0,6.24c-.28.31-.55.63-.82.95a9.41,9.41,0,0,1-3.59,1.23,13.07,13.07,0,0,1-3.9.83c-2.26-.22-3.32-1.67-3.8-3.71a6.12,6.12,0,0,1,1.76-5.52l6.15,0C91.86,25.09,93.25,23,94.64,22.77Z"/><path class="cls-157" d="M84.33,22.79l0,6.3c-2.1,1.74-4.17,1.36-6.22-.09l0,0c-1.1-2.86-4.42-4.64-4.08-8.22Z"/><path class="cls-241" d="M252.27,41.48c-5.72-.66-11.23.4-16.66,2.08l0,.09c-.61-.76-1.94-.88-1.94-2.19,0-.69,0-1.39,0-2.09l6.15-.6c10.83-.6,21.52-3.22,32.46-2.3,4.47.3,9.16-.65,13.14,2.39a2.35,2.35,0,0,1-.64,3.36C273.88,42.73,263,43.75,252.27,41.48Z"/><path class="cls-242" d="M233.63,41.46l1.94,2.19c-1.66.84-1.86,2.4-2,4-5.31,6.93,1.11,15.88-4,22.84-2.66-2-2-4.95-2.25-7.67-.16-3.2-.81-6.37-.69-9.6-.05-2.58-.38-5.19.73-7.66q1.1-2,2.18-4.05Z"/><path class="cls-243" d="M273,38.86l-33.25-.08c0-.53.06-1.06.08-1.59h10.35c6.48-4,13.79-2.1,20.71-3a3.55,3.55,0,0,1,2.75,1.57A3.21,3.21,0,0,1,273,38.86Z"/><path class="cls-244" d="M100.85,29.05,103,26.89l4.13-4.1c0,1.73.41,3.27,2.09,4.17-.14,2.26.35,4.74-2.11,6.23C103.05,34.79,99.39,35.79,100.85,29.05Z"/><path class="cls-245" d="M100.85,29.05c.26,4.14,3.28,4.11,6.26,4.14,0,1.36,0,2.73,0,4.09-2.57,1.39-5.21,2.48-8.24,1.91.18-1.35,2.33-2.75-.11-4-1-1.82-2.82-1.35-4.37-1.68a4,4,0,0,1-1-2.3A3.76,3.76,0,0,1,94.68,29h0Z"/><path class="cls-246" d="M285.4,41.43l.06-1.83c2.42-2.94,5.67-3,9-2.58,8.55-.23,17.06,1.88,25.68-.14A14.19,14.19,0,0,1,331,39.21c3,2.61,7.5,3.7,8.59,8.29-5.9-.09-10-7.91-16.87-3.92l-24.89-2.1A13.4,13.4,0,0,1,285.4,41.43Z"/><path class="cls-196" d="M285.4,41.43l12.45,0c-3.23,5.19-8.6,3.2-12.8,3-10.95-.46-22.37,3.25-32.78-3Z"/><path class="cls-247" d="M278.87,56.29l-.45,22.42-1.35-.1c-3.65-3.71-.55-10.08-5.31-13.33-.94-.14-1.86-.28-2.81-.37-3-.33-6.05-.27-8.24-2.81-.86-3.93.64-5.93,4.74-5.88C269.92,56.27,274.4,56.27,278.87,56.29Z"/><path class="cls-248" d="M260.71,62.1l10.19.12c2.12,2.16.81,4.3,0,6.46-1.64,3.09-.51,7.81-5.26,9.12-5.64.27-2.93-5.16-5-7.32C260,67.68,258.68,64.88,260.71,62.1Z"/><path class="cls-249" d="M260.63,70.48c2.66,1.46,1.57,6.6,6.1,6.22,4.53,4.47,4.24,8-2,10.35l-2.08,2.09L260.46,87A33.88,33.88,0,0,1,260.63,70.48Z"/><path class="cls-38" d="M260.09,87.15q0,6.18,0,12.35A12.76,12.76,0,0,1,260.09,87.15Z"/><path class="cls-250" d="M228.69,62.16q.47,4.17.94,8.33l-.51,20.75-6.67,3.93c5.46-10.45,2.25-21.73,3.09-32.61a1.51,1.51,0,0,1,1.34-1.44A2.18,2.18,0,0,1,228.69,62.16Z"/><path class="cls-251" d="M302.21,70.41c-.65-14.78-.65-14.78,12.17-14.06,1.69,1.55,1.8,3.4,1,5.41-1.63,2.58-4.93,2.5-7,4.43C306.4,67.63,305.76,71.19,302.21,70.41Z"/><path class="cls-251" d="M320.87,62.28q-.11,10.31-.22,20.62c-3.93.5-4.75-2.59-6-5.19-1-5.32-1.86-10.62,1.37-15.56C317.67,61,319.29,60.86,320.87,62.28Z"/><path class="cls-252" d="M316.52,78.76l4.13,4.14c-.08.73-.16,1.45-.25,2.17-2.71,0-3.82,1.52-3.91,4l-10.33-2.06,0-4.18a1.67,1.67,0,0,1-.6-1.49q.13-.81.33-.81c2.4-2,4.45.9,6.74.45C314,80.32,315.07,79.23,316.52,78.76Z"/><path class="cls-253" d="M302.21,70.41l4-6.15c1.4,4.59,9.23,5,7.55,11.6a5.72,5.72,0,0,1-5.51,3.88c-3.66,0-3-3.61-4.51-5.39-.5-.63-1-1.23-1.58-1.82C302.15,71.82,302.18,71.11,302.21,70.41Z"/><path class="cls-254" d="M320.87,62.28l-4.35-.07a1.22,1.22,0,0,1-2-.05c0-1.94-.07-3.88-.11-5.81C319.58,55,321.26,57.51,320.87,62.28Z"/><path class="cls-255" d="M302.13,72.53l2,.06a11,11,0,0,1-.05,10.29l-2,2.05Z"/><path class="cls-256" d="M304.08,82.88c0-3.43,0-6.86.05-10.29,3.34,1.15,3.63,3.33,2.07,6.13.73.49,1,1,.72,1.43s-.49.71-.74.71c0,.67,0,1.34,0,2l-1,0Z"/><path class="cls-257" d="M210.81,122.32c-4-1.95-6.28-4.32-2.09-8.32,1.69-1.78,1.43-4.27,2.27-6.37a9.16,9.16,0,0,1,1.32-2.49,11.81,11.81,0,0,1,6.43-2.82,5.62,5.62,0,0,1,2.68.86c1.83,2.31-.1,4.47-.28,6.7l2.08,2.05c0,1.39,0,2.77,0,4.15a7,7,0,0,0-4.12,4.13c-2,1-4.73-.3-6.25,2.08v.11A20.07,20.07,0,0,0,210.81,122.32Z"/><path class="cls-258" d="M212.86,122.29c.49-5.47,3.57-3.16,6.25-2.08C218.14,124.26,214.87,121.36,212.86,122.29Z"/><path class="cls-259" d="M221.14,103.6l-2.09,0c-1.41-.91-3-1.75-1.93-3.87l3.63-2.51c2.73.19,4.51,1.39,4.56,4.38A4.78,4.78,0,0,1,221.14,103.6Z"/><path class="cls-260" d="M221.14,103.6c.92-1.65,2.47-2,4.17-2q1,2.05,2,4.11c-3.22-.34-4,2.92-6.16,4.15C218.75,107.79,221.88,105.7,221.14,103.6Z"/><path class="cls-261" d="M264.71,87.05c1.74-3.24,4.38-6.31,2-10.35,2.6-2.3-1.37-6.28,2.16-8.34,4.49-2.58,5.44,1,6.76,3.9.42,1.57.63,3.1-.62,4.44-4.22.18-4.13,3.22-4.12,6.21.59,3.5,1.17,7,1.81,10.79C268,93.46,268.54,87.64,264.71,87.05Z"/><path class="cls-262" d="M275,82.9c4.83,2.64.76,6.95,1.93,10.27C273.72,90.24,275.56,86.35,275,82.9Z"/><path class="cls-262" d="M275,76.7c0-1.4,0-2.79,0-4.18-.71-3.44-4.23-6.3-2.1-10.31,8.42,3.69,2.41,11,4.13,16.4Z"/><path class="cls-263" d="M163.11,111.93l4.14-.08c2.49.24,4.5,1.13,5.19,3.82a3.3,3.3,0,0,1-1,2.45v0c-3.24-.42-7.63,1.51-8.37-4.08C163.06,113.35,163.08,112.64,163.11,111.93Z"/><path class="cls-264" d="M136.15,109.8c3.44-1.72,6.87-2.06,10.3,0,0,.65,0,1.29,0,1.94l-8.17,2.16h0C136.67,113,134.86,112.2,136.15,109.8Z"/><path class="cls-265" d="M136.15,109.8q1,2.07,2.11,4.14L134,116.07c-1.46-2.49-3.91-2-6.17-2,0-1.37,0-2.74,0-4.11Z"/><path class="cls-266" d="M188,120.23c-1.38-1.38-2.75-2.77-4.13-4.16a4.8,4.8,0,0,1-1.41-3c1.14-4.75,3.21-5.91,6.68-1.75a5.21,5.21,0,0,1-1.08,4.75Z"/><path class="cls-267" d="M200.43,114c-.46,5.56-4.14,1.27-6.18,2-1.85-1.17-5.91-.61-3.84-4.88,4.17-2,7.35-.48,10,2.86Z"/><path class="cls-268" d="M190.09,111.94l4.16,4.08c-2.06,2.51-4.15-.62-6.21,0,0-1.37,0-2.75,0-4.12A1.38,1.38,0,0,1,190.09,111.94Z"/><path class="cls-269" d="M183.79,114l.06,2.07-4.2,6.28-6.26-4.21a16.12,16.12,0,0,1,8-5.21A3.42,3.42,0,0,1,183.79,114Z"/><path class="cls-270" d="M181.75,114c-2.33,2.3-4.47,5-8.36,4.14-.66,0-1.32,0-2,0,0-.66,0-1.31,0-2,1.55-1.79-.35-4.76,2.12-6.25h0C176.92,109.91,181.1,108.4,181.75,114Z"/><path class="cls-271" d="M181.75,114l-8.26-4.1c9.41-4.4,19.39-1,29-2.13,3.45-2,6.9-2.75,10.33,0,0,3,.06,6-4.14,6.19-2.77-2.92-5.53-2.91-8.3,0l-10.33-2.06H188c-3.3-3.2-3.73-.53-4.2,2.06h-2Z"/><path class="cls-272" d="M51.13,101.6l-2.13,0c-1.43-1.23-2.6-2.73-4-4l-6.27,3.93c.28-4.89-5.3-6.19-6.31-10.29l.18-4.15c4.62-.26,10.05,8,14.14-1.44C47,85,54,83.83,55.28,89.11c-1.61.9-2,2.41-2,4.07C52.55,96,51.84,98.79,51.13,101.6Z"/><path class="cls-273" d="M103,84.85c1.67,2.11-2.67,4.28.07,6.39-2.7,4.31-3.43,4.32-8,.09-.83-2-1.49-4.12-.21-6.24Z"/><path class="cls-173" d="M94.83,85.09l1.92,4c-1,1.12-1.43,2.7-2.92,3.39a7.68,7.68,0,0,1-7.38-.66,2.08,2.08,0,0,1-.06-2.72h0C89.27,87.93,91.13,84.58,94.83,85.09Z"/><path class="cls-274" d="M61.52,22.73l6.27,0h4c.89,5.24-6.29,5.71-6.21,10.48l-4.15-2.09C60.57,28.29,59.25,25.5,61.52,22.73Z"/><path class="cls-275" d="M61.52,22.73c0,2.78,2.06,5.58-.05,8.36l-1.86.06c-1.55-2.45-4-2.11-6.39-2.13a3.1,3.1,0,0,1,0-4.23,6.65,6.65,0,0,0,4.15-4.08,2.93,2.93,0,0,1,2.05-1.19A3.29,3.29,0,0,1,61.5,20.7C61.51,21.38,61.52,22.05,61.52,22.73Z"/><path class="cls-276" d="M53.22,24.79V29C52,32.35,49.85,32.71,47,31.07l-2.11-2c1.25-2.94,4.35-4,6.26-6.3Z"/><path class="cls-277" d="M78.09,29l6.22.09c.9,1.64,2.44,1.94,4.11,1.95l1.14-.81,1.3.5a2.07,2.07,0,0,1-.27,2.49l0,.14C86.16,32.74,80.71,34.93,78.09,29Z"/><path class="cls-278" d="M67.85,58l4-2,4.24,4.16c0,.67-.08,1.34-.14,2l-6.12.16A4.12,4.12,0,0,1,67.85,58Z"/><path class="cls-279" d="M86.39,89.13c0,.66,0,1.33,0,2,.53,1.71,1.53,3.34.84,5.24l-.85,1.06c-2.1.62-4.21,3.31-6.27,0a8.78,8.78,0,0,1-2-8.24v0l6.27,0Z"/><path class="cls-280" d="M78.1,89.13a13.21,13.21,0,0,1,2,8.24l-8.2-.05c0-.68,0-1.37,0-2.06,4.32-.06,4-3.22,4.13-6.13Z"/><path class="cls-281" d="M90.59,33.22l0-2.17c1.38-1.11,2.75-1.25,4.11,0V33.2c.7.36,1,.75.73,1.15S95,35,94.76,35l-.1.35Z"/><path class="cls-282" d="M94.76,35c0-.59-.06-1.17-.07-1.76,2.14-1,4.25-1.86,4.09,2-.64.11-1.28.19-1.93.25Z"/><path class="cls-283" d="M61.5,20.7c-.65,0-1.3-.05-1.94-.09a1.43,1.43,0,0,1-.84-1.4c.08-.57.2-.86.38-.86a1.61,1.61,0,0,1,2.36.24C62.83,19.27,62.92,20,61.5,20.7Z"/><path class="cls-284" d="M61.46,18.59c-.67,0-1.35.05-2,.06-.57-.47-.76-.93-.57-1.39s.39-.68.58-.68l.07,0c.66,0,1.32,0,2,0C61.5,17.24,61.49,17.91,61.46,18.59Z"/><path class="cls-285" d="M59.45,16.58c0,.69,0,1.38,0,2.07s.06,1.31.11,2l-2.18.1-2-2.09C56.2,16.93,57.76,16.62,59.45,16.58Z"/><path class="cls-286" d="M51.16,22.77c-.15,4-2.34,6-6.26,6.29-.68,0-1.37,0-2-.07-.89-1.69-2.46-2-4.16-2.07C40.77,19.29,47,24.18,51.16,22.77Z"/><path class="cls-287" d="M331,39.21l-37.3-.35a2.46,2.46,0,0,1-.88-2.24c.56-1.27,1.32-2.15,2.88-1.55,2.91-.13,6.14,1.16,8.36-1.92.68-.91,1.37-1,2.07,0,1.21,4.16,5.45,4.07,7.38,2.89,5.94-3.62,11.66-1.38,17.5-.8C331,36.55,331,37.88,331,39.21Z"/><path class="cls-288" d="M94.7,97.42c-2.77,1-5.54,3.81-8.31,0l0,0c1.16-3.5,2.85-5.93,7-3.49,1.19.9,2.1,1.91,1.29,3.54Z"/><path class="cls-289" d="M94.69,97.44l-2.1-2.17c-1.15-2.29.87-2.94,2.08-4,.7-.71,1.39-1.43,2.08-2.14.83,4.44,2.79,5.54,6.27,2.11l6.17,2c-.06,3.62,0,7.18-5.47,4.55-2.1-1-4.45-3.76-7-.44C96.06,97.41,95.38,97.43,94.69,97.44Z"/><path class="cls-69" d="M45,97.6c2.78-.12,4,1.35,4,4C44.13,103.82,45,100.25,45,97.6Z"/><path class="cls-290" d="M144.28,43.54c17,0,34,0,51,0,2.73,0,6.3.2,5.91,4-.34,3.3-3.88,2.25-6,2.1C186,49,176.65,48.89,167.67,47,159.86,45.35,151.68,49,144.28,43.54Z"/><path class="cls-291" d="M147,54.08l43,.44a4.3,4.3,0,0,1-1.39,4.08,8.44,8.44,0,0,1-2.71,1.24,12.71,12.71,0,0,1-4.35,0c-5-2-9.79-.31-14.59,1.06-3.18-.35-6.6-3-9.48.08-6.24,6.69-8.9,1.72-11.7-3.28C145.54,56.29,145.36,54.86,147,54.08Z"/><path class="cls-292" d="M190.82,98.74c-5.95.56-11.9,1.18-17.86,1.65-1.74.14-3.94-.44-4-2.2-.07-1.21,1.57-3.15,2.89-3.69C178.57,91.73,184.92,93.41,190.82,98.74Z"/><path class="cls-293" d="M202.68,80.81a3.16,3.16,0,0,1,.26,1.89c-2.66,5.3-9.09,3.77-12.85,7.08a6.12,6.12,0,0,1-6.23-1.61c-1.15-2.45-.62-5-.65-7.59a9.21,9.21,0,0,1,4.72-4.7,7.55,7.55,0,0,1,2.76-.1C195.13,76.41,200.17,75.62,202.68,80.81Z"/><path class="cls-294" d="M147,54.08l.24,4.23c1.54,3.11,1.62,6.51,2,9.85.13,4.2-.06,8.42.15,12.62.89,9.24,8.39,4.44,12.88,6a11.53,11.53,0,0,1,2.89.71c1.43.72,2.46,1.72,2.35,3.48-27.85.83-22.81,1.48-23-22.55C144.54,63.68,142.13,58.13,147,54.08Z"/><path class="cls-295" d="M202.68,80.81c-3-5.13-10.07,2.28-12.64-4.12-.19-2.88,6.14-2.81,3.14-7a3.18,3.18,0,0,1,1.72-2,8.71,8.71,0,0,1,7.74,2.79A10.56,10.56,0,0,1,202.68,80.81Z"/><path class="cls-296" d="M202.64,70.49a14.24,14.24,0,0,1-8.44-2.1c-2.78,1.41-4.83.08-6.75-1.78-1.42-6.94,4.44-5.07,7.7-6.38,5.42,0,7.6,2.83,7.11,8C202.39,69,202.51,69.74,202.64,70.49Z"/><path class="cls-294" d="M183.83,87.07c1.93,1.1,3.69,2.72,6.2,2,3.95-2.36,8-3,12.14-.55-10,5.68-20.77,1.57-31.15,2.39,0-1.76,1.06-2.73,2.51-3.41C176.93,86.71,180.32,85.32,183.83,87.07Z"/><path class="cls-297" d="M188.07,58.05c.65-1.18,1.29-2.36,1.93-3.54,4.59-.27,9.52-1.75,12.55,3.54-1.86,4.7-6.51.93-9.23,3C190.77,61.46,188.85,60.74,188.07,58.05Z"/><path class="cls-298" d="M194.12,60.1c2.14-3.42,6,.4,8.43-2.05,2.55,3.48,2.89,6.9-.29,10.22-2.28-2.57-2.79-7.48-8-6.1q-1.07-.64-.75-1.35T194.12,60.1Z"/><path class="cls-299" d="M202.17,88.53,190,89.08c2-6.84,9-3.44,12.91-6.38C205.59,85,203,86.67,202.17,88.53Z"/><path class="cls-300" d="M208.09,97.23c-3-7.22,1.45-11.76,1-16.92C210.84,85.6,212,90.82,208.09,97.23Z"/><path class="cls-301" d="M217.12,99.75c.65,1.29,1.29,2.58,1.93,3.87l-6.14,2.14c-3,1.32-5.89,1.7-8.73-.31Z"/><path class="cls-76" d="M227.89,62.28l-2.36.27q-3.22-7.42-6.46-14.86l3.55.34a6.88,6.88,0,0,1,4.15,4.07C227.08,55.49,228.89,58.73,227.89,62.28Z"/><path class="cls-302" d="M173.48,89.12,171,90.93l-3.46,0-2.46-2a3.38,3.38,0,0,1-.46-4.11,5.91,5.91,0,0,1,2.64-1.39,6.73,6.73,0,0,1,6.6,2.94A2.47,2.47,0,0,1,173.48,89.12Z"/><path class="cls-303" d="M204.18,105.45l8.73.31c0,.69,0,1.37,0,2l-10.33,0-.06-2.1A4,4,0,0,1,204.18,105.45Z"/><path class="cls-304" d="M295.72,35.07l-2.18,2c-6.88-.22-14,1.82-20.56-1.74v-.17c-1.44-1.09-3.93-.32-4.66-2.66.48-3.24,2.57-5.16,5.36-6.51,2-.54,3.93-.86,5.53.92C284.05,31,294.37,23.91,295.72,35.07Z"/><path class="cls-305" d="M279.2,26.93H273c-2.07,1.62-4.12,1.8-6.16-.07,1.49-2.42,3.94-1.9,6.18-2l6.21-2.05Z"/><path class="cls-306" d="M306.15,33.13l-2.07,0q0-4.14,0-8.28l2.09,0,4.1,4.15C307.58,29.05,306.23,30.45,306.15,33.13Z"/><path class="cls-307" d="M295.78,16.58H300l.8,1.18c-.2.43-.4.85-.61,1.28-.78.53-1.55,1.09-2.29,1.68-1.71-.05-3.26-.41-4.13-2.11.71-.66,1.32-1.44,2.09-2Z"/><path class="cls-308" d="M302,18.67c0,.66-.06,1.32-.13,2L300,20.7a1.23,1.23,0,0,1-.52-1.38c.16-.47.33-.7.5-.7l-.07.06A1.33,1.33,0,0,1,302,18.67Z"/><path class="cls-309" d="M300,18.62c0,.69,0,1.39,0,2.08h-2.17Z"/><path class="cls-310" d="M295.81,16.56l-2.09,2c0-.67,0-1.35,0-2Z"/><path class="cls-311" d="M248.1,24.85c2.65-1.1,7.12,5.21,8.26-2l6.26,0v4.14a4.87,4.87,0,0,1,1.15,5.37c-3.18,3.51-7.5,2.62-11.51,2.91Z"/><path class="cls-312" d="M262.62,33.15V26.93l4.19-.06,6.16.07c.38,3.23-2.89,4-4.12,6.21A4.3,4.3,0,0,1,262.62,33.15Z"/><path class="cls-313" d="M173.5,109.9c-.1,2.29.32,4.76-2.12,6.25q-2.07-2.15-4.13-4.3C168.79,109.46,171.23,109.94,173.5,109.9Z"/><path class="cls-314" d="M302,18.67h-2.08c0-.7,0-1.41,0-2.11Z"/><path class="cls-315" d="M262.62,33.15h6.23c1.69,0,3.23.38,4.12,2-7.32,3.9-15.19,1.5-22.8,2,0-.65,0-1.31,0-2l2.08,0C255.3,32.46,258.72,31.62,262.62,33.15Z"/><path class="cls-316" d="M224.83,51.94,222.63,48l4.79-2.46q.93,3.15,1.84,6.3A3.27,3.27,0,0,1,224.83,51.94Z"/><path class="cls-317" d="M94.68,31.09l-4.11,0h0a1.28,1.28,0,0,1-.5-1.34c.13-.46.28-.69.43-.69h4.19Z"/><path class="cls-318" d="M90.49,29c0,.67.05,1.35.07,2l-2.14,0Z"/><path class="cls-319" d="M273,35.35c6.88.34,13.94-1.55,20.57,1.74a17.66,17.66,0,0,1,.17,1.77l-8.26.74L273,38.86C273,37.69,273,36.52,273,35.35Z"/><path class="cls-320" d="M224.83,51.94l4.43-.08c-.19,3.43-.37,6.87-.56,10.3l-.81.12Z"/><path class="cls-321" d="M272.94,62.21,275,72.52c-2.14-1.25-3-4.47-6.16-4.16.68-2,1.35-4.09,2-6.14C271.58,62.19,272.26,62.19,272.94,62.21Z"/><path class="cls-322" d="M314.49,62.16c.67,0,1.35,0,2,.05V78.76q-.09,4-4.13,4.16a4.78,4.78,0,0,1,0-6.23c.75-5.54-6-7.37-6.2-12.43C308.35,61.18,311.63,62.49,314.49,62.16Z"/><path class="cls-125" d="M312.38,76.69c0,2.08,0,4.15,0,6.23-2.8,1.5-3.54-3.19-6.21-2.06,0-.71,0-1.43,0-2.14Z"/><path class="cls-323" d="M94.67,91.26l-2.08,4c-3.08-2.26-4.31.87-6.18,2.11.68-2.09-2.38-4.17,0-6.27Z"/><path class="cls-324" d="M147,68.41l.27-10.1c2.86-.33,4.74,8.41,9,.27,2.06-4,7.7-2.54,11,1.51a1.91,1.91,0,0,1,2.44-.35,3.53,3.53,0,0,1,.12,2.67,8.81,8.81,0,0,1-4.67,2.79,7.76,7.76,0,0,1-2.59-.09c-1.45-.29-3-.82-4.18.6-1.11,2.36.13,4.81-.33,7.18a4.76,4.76,0,0,1-1.5,2.22C150.65,76.66,149.77,71.2,147,68.41Z"/><path class="cls-325" d="M181.73,58.25l4.15,0c2.42,2.16.86,4.82.93,7.28-.73,2.22-2.62,3.08-4.54,3.93a9.58,9.58,0,0,1-4.56.53A6.61,6.61,0,0,1,175,68.67a6.07,6.07,0,0,1-.94-4.33C175.09,60.41,178.34,59.23,181.73,58.25Z"/><path class="cls-326" d="M181.73,58.25l-6.19,5.94c-3.89,1.44-4.09-2.77-6.19-4.06l-2.14,0C171.55,55.57,176.37,54.78,181.73,58.25Z"/><path class="cls-327" d="M185.91,66.32l0-8,2.19-.22,6.05,2.05q.06,1,.09,2.07c-1.64,2-6.43-.69-6.22,4.12A1.63,1.63,0,0,1,185.91,66.32Z"/><path class="cls-328" d="M177.61,68.39l4.17,0,1.22.23A9,9,0,0,1,185,70a11.57,11.57,0,0,1,2.25,3,6.89,6.89,0,0,1,.68,3.68,7.06,7.06,0,0,1-4.13,4.14c-3.25,1.28-5.57-.07-7.46-2.65C174.85,74.67,175.07,71.39,177.61,68.39Z"/><path class="cls-329" d="M177.62,78.77l6.22,2.06a5.57,5.57,0,0,1,0,6.24c-3.17,2.12-6.69,2.42-10.35,2.05,0-.66,0-1.33,0-2C173.1,83.48,177,82,177.62,78.77Z"/><path class="cls-330" d="M188,76.69c-1.67-.9-2-2.46-2.06-4.17,1.94-4,4.81-4.26,8.28-2,2.5,4.66-1.95,4.68-4.15,6.21Z"/><path class="cls-331" d="M147,68.41c4.88-.47,5.16,6.39,9.87,6.2.21.39.43.77.65,1.15a5.26,5.26,0,0,1-.76,2.5c-1.61,2.15-1.83,5-3.77,7-2.74,1-4.42-.53-5.95-2.44Q147,75.63,147,68.41Z"/><path class="cls-259" d="M147.05,82.84,152.74,85c1.57-.25,3-1,4.65-1.08a6.87,6.87,0,0,1,2.46.41c1.65,1.12,4.29,1.56,3.22,4.58C157.6,87.22,148.83,94.26,147.05,82.84Z"/><path class="cls-332" d="M163.07,88.91,159,85a8.78,8.78,0,0,1,4.59-4.84,2.84,2.84,0,0,1,2.4,1.1,3.2,3.2,0,0,1-.77,3.81c0,1.29,0,2.57-.07,3.86l-1,.15Z"/><path class="cls-333" d="M194.19,70.48a13.58,13.58,0,0,0-8.28,2l-2.17-2.15c-.63-.67-1.28-1.31-2-1.93v-.07c.88-1.68,2.44-2,4.13-2.05l2.08,0,6.21,2.1C194.2,69.08,194.2,69.78,194.19,70.48Z"/><path class="cls-334" d="M177.62,78.77c3.6,5.29.45,7.2-4.19,8.36L167.23,85c-1.38-2.6-1.52-5.55-2.35-8.31.06-4.13-1.24-8.3.29-12.41.89-1.67,2.45-2,4.15-2.07,2.7,1.46,4.43,3.89,6.25,6.23h2C177.61,71.85,177.62,75.31,177.62,78.77Z"/><path class="cls-335" d="M167.24,74.63c0,3.44,0,6.89,0,10.33-.68.05-1.37.08-2.06.12,0-1.41,0-2.81,0-4.22a4.84,4.84,0,0,1-.68-5.94A1.88,1.88,0,0,1,167.24,74.63Z"/><path class="cls-336" d="M167.24,74.63h-2a44.17,44.17,0,0,0-8.31-2.09c-1.07-2.79-3.85-5.61.13-8.32a13.29,13.29,0,0,1,6,0h2.1Z"/><path class="cls-337" d="M156.89,72.54c3.19-1,6.11-.87,8.31,2.09,0,2.08,0,4.15-.07,6.23h-2c-3.49-.67-4-4.3-6.24-6.24h0C156.88,73.92,156.89,73.23,156.89,72.54Z"/><path class="cls-338" d="M175.57,68.4c-2.66-1.5-6.17-2.14-6.25-6.23l0-2c3.21-.39,4,2.88,6.19,4.07Z"/><path class="cls-339" d="M163.07,64.24a5.09,5.09,0,0,1-6.06,0C159.05,58.72,161.05,62.77,163.07,64.24Z"/><path class="cls-340" d="M181.78,68.44l2,1.93Z"/><path class="cls-341" d="M156.88,74.62c4.1.06,4.72,3.6,6.24,6.24-.07,2.71-1.51,4-4.17,4.15h-2c-3.92-2.23-3.92-2.23-.06-8.29Z"/><path class="cls-342" d="M156.84,76.73c.82,2.76-3.76,5.55.06,8.29-1.4,2.08-2.78,2.07-4.16,0C153.17,81.78,151.23,77.38,156.84,76.73Z"/></g></g></svg>