<svg xmlns="http://www.w3.org/2000/svg" xmlns:xlink="http://www.w3.org/1999/xlink" viewBox="0 0 58.4 58.5"><defs><style>.cls-1{fill:url(#radial-gradient);}</style><radialGradient id="radial-gradient" cx="55.98" cy="892.9" r="48.29" gradientTransform="matrix(1, 0, 0, -1, 0, 903.9)" gradientUnits="userSpaceOnUse"><stop offset="0" stop-color="#fff"/><stop offset="0.06" stop-color="#ecf3fb"/><stop offset="0.18" stop-color="#b8d6f1"/><stop offset="0.36" stop-color="#67a4d9"/><stop offset="0.54" stop-color="#356eb6"/><stop offset="1" stop-color="#0b2444"/></radialGradient></defs><g id="Layer_2" data-name="Layer 2"><g id="Layer_1-2" data-name="Layer 1"><path class="cls-1" d="M35.9,47.8a32.89,32.89,0,0,0,10.7-1.7c.8-.3,1.6-.6,2.3-.9A13.45,13.45,0,0,1,45,50.6a27,27,0,0,1-11.8,4.9,22.27,22.27,0,0,0,2.7-7.7M17.8,53.2c-.1-.1-.2-.1-.3-.2-1.5-.7-2.1-4.1-1.3-9.3a54.51,54.51,0,0,0,9.4,3.1,48.2,48.2,0,0,0,7.5,1c-1.2,5.2-2.8,8-3.8,8h-.2a26.77,26.77,0,0,1-11.3-2.6M3.7,36.5a25.12,25.12,0,0,1-.4-2.7,23,23,0,0,0,3.3,3.8,36.33,36.33,0,0,0,7,4.9,24,24,0,0,0-.3,7.9A27.43,27.43,0,0,1,3.7,36.5m33.9-7.3V26a20.57,20.57,0,0,0,9.1-2.6,30.71,30.71,0,0,1,3.6,14.4,23.76,23.76,0,0,1-.3,3.9,16.22,16.22,0,0,1-4.2,1.9,34.2,34.2,0,0,1-9.4,1.6,102.86,102.86,0,0,0,1.2-16M26.2,44.1a40.84,40.84,0,0,1-9.5-3.2,67.87,67.87,0,0,1,5.5-15.2c.4-.8.8-1.6,1.2-2.5a33.29,33.29,0,0,0,6.3,2.1,22.2,22.2,0,0,0,5.1.6v3.2A85.39,85.39,0,0,1,33.5,45a31.66,31.66,0,0,1-7.3-.9M8.5,35.6a16.81,16.81,0,0,1-4.7-6.7,21,21,0,0,1,3.7-7.5,29.06,29.06,0,0,1,6.4-6.2,12.87,12.87,0,0,0,3,3.7A22.85,22.85,0,0,0,21.1,22c-.4.8-.9,1.7-1.3,2.5a82,82,0,0,0-5.6,15.1,29.11,29.11,0,0,1-5.7-4M35.8,10.2A36.83,36.83,0,0,1,44.1,19c.4.7.9,1.3,1.3,2a17.8,17.8,0,0,1-7.9,2.2,80.47,80.47,0,0,0-1.7-13M30.4,22.7a26.17,26.17,0,0,1-5.6-1.8A56.78,56.78,0,0,1,32.9,9.7a68,68,0,0,1,1.9,13.5,21.18,21.18,0,0,1-4.4-.5M18.7,17a15,15,0,0,1-2.6-3.3A39.66,39.66,0,0,1,24.5,10a52.28,52.28,0,0,1,5.4-1.2,63.75,63.75,0,0,0-7.6,10.8A18.31,18.31,0,0,1,18.7,17M12.9,8.3c0,.1-.1.3-.1.4a8.57,8.57,0,0,0,.1,3.9,31.75,31.75,0,0,0-7.5,7.1c-.6.8-1.2,1.7-1.7,2.5A26.36,26.36,0,0,1,12.9,8.3m2.5,1a6.5,6.5,0,0,1,2.5-3.7,17.72,17.72,0,0,1,10.8.7,43.7,43.7,0,0,0-4.9,1.2,39.39,39.39,0,0,0-8.4,3.6,5.44,5.44,0,0,1,0-1.8M37.5,5.7A9.32,9.32,0,0,1,40,4.5a17.05,17.05,0,0,1,4,2.1,60,60,0,0,0-6.5-.9M33,2.8a23.34,23.34,0,0,1,3.5.6,15,15,0,0,0-2.3,1.5c-.5-.8-.8-1.5-1.2-2.1M30,3.9a25.94,25.94,0,0,0-3.7-1.1,28.25,28.25,0,0,1,2.9-.2c.5,0,1,.6,1.6,1.6a6.89,6.89,0,0,0-.8-.3M0,29.2a29.73,29.73,0,0,0,1.1,8c0,.2.1.3.1.5v.1a29.38,29.38,0,0,0,28,20.7,29,29,0,0,0,16.4-5.1.1.1,0,0,0,.1-.1c.3-.2.5-.4.8-.6A29.66,29.66,0,0,0,57.6,36.2a2.92,2.92,0,0,0,.2-.9v-.2a29.07,29.07,0,0,0,.6-6,29.39,29.39,0,0,0-2.3-11.4,1.37,1.37,0,1,0-2.5,1.1,26.35,26.35,0,0,1,2.1,10.3,27.36,27.36,0,0,1-.8,6.4,9.46,9.46,0,0,1-2.1,3.6V37.7a34.52,34.52,0,0,0-4.1-15.9,10.24,10.24,0,0,0,3.6-6.1,1.51,1.51,0,0,0-1.1-1.6,1.44,1.44,0,0,0-1.6,1.1,8.36,8.36,0,0,1-2.3,4.2c-.4-.6-.8-1.3-1.2-1.9a42.11,42.11,0,0,0-8.3-9,27.11,27.11,0,0,1,11,3,1.36,1.36,0,0,0,1.6-.1,1.31,1.31,0,0,0,.2-1.9C46.2,3.4,38.6,0,29.2,0A29.11,29.11,0,0,0,0,29.2"/></g></g></svg>