<svg xmlns="http://www.w3.org/2000/svg" viewBox="0 0 471.58 288.95"><defs><style>.cls-1{fill:#0b5dab;}.cls-2{fill:#0b58a5;}.cls-3{fill:#07559f;}.cls-4{fill:#0653a1;}.cls-5{fill:#105a9f;}.cls-6{fill:#03569d;}.cls-7{fill:#04539d;}.cls-8{fill:#0c5dab;}.cls-9{fill:#2966ab;}.cls-10{fill:#04559f;}.cls-11{fill:#0157a2;}</style></defs><g id="Layer_2" data-name="Layer 2"><g id="Layer_1-2" data-name="Layer 1"><path class="cls-1" d="M321.59,272.35c-22.24-12.89-42.59-27.19-42.12-56.87,4.26-8.67,3.81-17.39.3-26.15,2.44-28.1,15.17-49.76,36.78-68.5C342,98.72,365.63,74.63,395.49,58c9.92-5.51,18.48-8.57,28.13.82,19.83,19.31,39.18,38.69,44.05,67.63-2.12,3-2.21,6.54-1.91,10,.15,1.81-.88,3.26-.76,4.95,2-1.41,1.68-4.62,4.24-5.62,7.47,32.26-3.56,58.27-24.52,82.88-22.3,26.17-46.54,47.63-81.62,53.55C349.25,269.91,335.42,272.06,321.59,272.35Z"/><path class="cls-2" d="M5,125.9c4.59-.12,14.86-1.38,12.64,1.27-13.2,15.77,1.87,36.93-11.56,51.68C-2,161.36-1.71,143.7,5,125.9Z"/><path class="cls-3" d="M321.59,272.35c13.81-7.16,27.65-7,41.51-.13C349.28,276.52,335.44,278.34,321.59,272.35Z"/><path class="cls-4" d="M188.87,4.88,221.37,7c-12.48,2.62-25.19,8.41-36.56-1.67A2.93,2.93,0,0,1,188.87,4.88Z"/><path class="cls-5" d="M42.52,66.27c-1.38,9.28.65,21.7-15.8,17.13A36.48,36.48,0,0,1,42.52,66.27Z"/><path class="cls-6" d="M469.24,135.79c-.78,4.08-1.57,8.16-2.83,14.69-4.53-10.21-5-17.41,1.26-24C468.19,129.59,468.72,132.69,469.24,135.79Z"/><path class="cls-7" d="M279.77,189.33c7.09,8.8,7.51,17.52-.3,26.15A45.06,45.06,0,0,1,279.77,189.33Z"/><path class="cls-8" d="M5,125.9C6.81,109,14.49,95,26.72,83.4c9.27-2,13.38-8.8,15.8-17.13,39.55-38.67,89.27-53.65,142.29-61,9.76,7.13,21.5,0,31.69,4.06-8.83-3.7-19.43,2.77-27.63-4.49,73-13.08,141.3.4,211.64,37.35-53,19.65-99.81,40-142.51,68.3-40.16,26.63-77.37,57.19-103.54,97.91-16.2,25.22-16.83,53.8,1.64,80.51-63.47-3.64-144.42-61.63-150-110.1C5.07,161.22,9.33,143.47,5,125.9ZM205,69.72c-2.22-4.62-4.17-9.39-6.72-13.82-12.72-22.16-35.43-31.33-60.08-23.3-22.39,7.3-27.64,26-28.28,46.71-.66,21.26,11.33,35.4,27.86,46.62,12,5.22,24.29,3.31,36.55,1,15.16-8.86,24.09-22.7,30.75-38.35C210,82.28,210.09,76,205,69.72Z"/><path class="cls-9" d="M137.8,125.93l36.55,1C162,134.24,149.73,135.5,137.8,125.93Z"/><path class="cls-10" d="M205.1,88.6q0-9.45-.08-18.88c12,6.71,5.31,16.21,3.75,25C207.55,92.65,206.33,90.62,205.1,88.6Z"/><path class="cls-11" d="M104.77,73.39V90.76C98.12,84.17,102.15,78.74,104.77,73.39Z"/></g></g></svg>