<?xml version="1.0" encoding="utf-8"?>
<!-- Generator: Adobe Illustrator 25.4.1, SVG Export Plug-In . SVG Version: 6.00 Build 0)  -->
<svg version="1.1" id="Layer_1" xmlns="http://www.w3.org/2000/svg" xmlns:xlink="http://www.w3.org/1999/xlink" x="0px" y="0px"
	 viewBox="0 0 612 582.8" style="enable-background:new 0 0 612 582.8;" xml:space="preserve">
<style type="text/css">
	.st0{fill:none;stroke:#D8D0C4;stroke-width:0.675;stroke-miterlimit:3.6;}
	.st1{fill:#D4F5E2;}
	.st2{fill:#007A3D;}
	.st3{font-family:'Arial-BoldMT';}
	.st4{font-size:9px;}
	.st5{font-family:'Arial-BoldItalicMT';}
	.st6{font-size:9.9px;}
	.st7{fill:#D4F5E2;stroke:#00A651;stroke-width:1.0062;stroke-miterlimit:3.6;}
	.st8{fill:none;}
	.st9{fill:none;stroke:#007A3D;stroke-width:1.35;stroke-linecap:round;stroke-linejoin:round;stroke-miterlimit:3.6;}
	.st10{fill:#FFFFFF;filter:url(#Adobe_OpacityMaskFilter);}
	
		.st11{mask:url(#imagine-text-gaps-tax1ai_00000078036296570137842610000010617918931124661146_);fill:none;stroke:#007A3D;stroke-width:1.35;stroke-linecap:round;stroke-linejoin:round;stroke-miterlimit:3.6;}
	.st12{fill:#5E8070;}
	.st13{font-family:'ArialMT';}
	.st14{fill:#D6EAF8;}
	.st15{fill:#003F6B;}
	.st16{fill:#A06000;}
	.st17{fill:#00568E;}
	.st18{fill:#FFFFFF;filter:url(#Adobe_OpacityMaskFilter_00000060000035569588991370000014735943201859657609_);}
	
		.st19{mask:url(#imagine-text-gaps-tax1ai_00000059294416933030149940000010397268892059329461_);fill:none;stroke:#A06000;stroke-width:1.35;stroke-linecap:round;stroke-linejoin:round;stroke-miterlimit:3.6;}
	.st20{fill:none;stroke:#A06000;stroke-width:1.35;stroke-linecap:round;stroke-linejoin:round;stroke-miterlimit:3.6;}
	.st21{fill:#FFCA0A;stroke:#A06000;stroke-width:0.9;stroke-miterlimit:3.6;}
	.st22{fill:#7A5000;}
	.st23{font-size:7.2px;}
	.st24{fill:#F4EFE6;stroke:#00A651;stroke-width:1.35;stroke-miterlimit:3.6;}
	.st25{fill:#00A651;}
	.st26{fill:#FFFFFF;}
	.st27{fill:#FFFFFF;filter:url(#Adobe_OpacityMaskFilter_00000011746903322699557270000011359036478238450089_);}
	
		.st28{mask:url(#imagine-text-gaps-tax1ai_00000106852845271323788980000009379471365446677393_);fill:none;stroke:#007A3D;stroke-width:1.35;stroke-linecap:round;stroke-linejoin:round;stroke-miterlimit:3.6;}
	.st29{fill:none;stroke:#00568E;stroke-width:2.25;stroke-miterlimit:3.6;}
	.st30{fill:none;stroke:#007A3D;stroke-width:2.25;stroke-miterlimit:3.6;}
	.st31{fill:none;stroke:#FFCA0A;stroke-width:2.25;stroke-miterlimit:3.6;}
	.st32{fill:none;stroke:#003F6B;stroke-width:2.25;stroke-miterlimit:3.6;}
	.st33{fill:none;stroke:#A06000;stroke-width:1.5;stroke-miterlimit:10;}
</style>
<desc  style="fill:rgb(0, 0, 0);stroke:none;color:rgb(255, 255, 255);stroke-width:1px;stroke-linecap:butt;stroke-linejoin:miter;opacity:1;font-family:&quot;Anthropic Sans&quot;, -apple-system, BlinkMacSystemFont, &quot;Segoe UI&quot;, sans-serif;font-size:16px;font-weight:400;text-anchor:start;dominant-baseline:auto">
	Diagram tiga panel landscape mengilustrasikan cara kerja direct service, trunk-and-feeder, dan hybrid BRT</desc>
<path class="st0" d="M27,47.1h558c5,0,9,4,9,9v133.2c0,5-4,9-9,9H27c-5,0-9-4-9-9V56.1C18,51.2,22,47.1,27,47.1z"/>
<path class="st1" d="M36,55.2h55.8c4,0,7.2,3.2,7.2,7.2l0,0c0,4-3.2,7.2-7.2,7.2H36c-4,0-7.2-3.2-7.2-7.2l0,0
	C28.8,58.5,32,55.2,36,55.2z"/>
<text transform="matrix(1 0 0 1 50.064 66.0415)" class="st2 st3 st4">Pola A</text>
<text transform="matrix(1 0 0 1 108 66.0415)" class="st2 st5 st6">Direct service</text>
<path class="st7" d="M185.4,101.7h241.2c3,0,5.4,1.3,5.4,3v54c0,1.7-2.4,3-5.4,3H185.4c-3,0-5.4-1.3-5.4-3v-54
	C180,103.1,182.4,101.7,185.4,101.7z"/>
<text transform="matrix(1 0 0 1 279.2524 91.2412)" class="st2 st3 st4">Koridor BRT</text>
<path class="st8" d=""/>
<path class="st8" d=""/>
<path marker-end="url(#arr-g)" class="st9" d="M585,101.1"/>
<path class="st8" d=""/>
<path marker-end="url(#arr-g)" class="st9" d="M585,164.1"/>
<path class="st8" d=""/>
<defs>
	<filter id="Adobe_OpacityMaskFilter" filterUnits="userSpaceOnUse" x="585" y="61.5" width="0" height="0">
		<feColorMatrix  type="matrix" values="1 0 0 0 0  0 1 0 0 0  0 0 1 0 0  0 0 0 1 0"/>
	</filter>
</defs>
<mask maskUnits="userSpaceOnUse" x="585" y="61.5" width="0" height="0" id="imagine-text-gaps-tax1ai_00000078036296570137842610000010617918931124661146_">
	<rect y="29.1" class="st10" width="612" height="524.5"/>
	<path d="M48.8,55.2h31.5c1,0,1.8,0.8,1.8,1.8v11.7c0,1-0.8,1.8-1.8,1.8H48.8c-1,0-1.8-0.8-1.8-1.8V57C47,56,47.8,55.2,48.8,55.2z"
		/>
	<path d="M105.3,54.3h73.5c1,0,1.8,0.8,1.8,1.8v12.6c0,1-0.8,1.8-1.8,1.8h-73.5c-1,0-1.8-0.8-1.8-1.8V56.1
		C103.5,55.1,104.3,54.3,105.3,54.3z"/>
	<path d="M278.5,80.4h56c1,0,1.8,0.8,1.8,1.8v11.7c0,1-0.8,1.8-1.8,1.8h-56c-1,0-1.8-0.8-1.8-1.8V82.2
		C276.7,81.2,277.5,80.4,278.5,80.4z"/>
	<path d="M76.8,119.1h43.9c1,0,1.8,0.8,1.8,1.8v11.7c0,1-0.8,1.8-1.8,1.8H76.8c-1,0-1.8-0.8-1.8-1.8v-11.7
		C75,119.9,75.8,119.1,76.8,119.1z"/>
	<path d="M503.7,119.1h54.6c1,0,1.8,0.8,1.8,1.8v11.7c0,1-0.8,1.8-1.8,1.8h-54.6c-1,0-1.8-0.8-1.8-1.8v-11.7
		C501.9,119.9,502.7,119.1,503.7,119.1z"/>
	<path d="M185.8,184.8h241.4c1,0,1.8,0.8,1.8,1.8v11.7c0,1-0.8,1.8-1.8,1.8H185.8c-1,0-1.8-0.8-1.8-1.8v-11.7
		C184,185.6,184.8,184.8,185.8,184.8z"/>
	<path d="M49.2,221.7h30.6c1,0,1.8,0.8,1.8,1.8v11.7c0,1-0.8,1.8-1.8,1.8H49.2c-1,0-1.8-0.8-1.8-1.8v-11.7
		C47.4,222.5,48.2,221.7,49.2,221.7z"/>
	<path d="M118.8,220.8h88.4c1,0,1.8,0.8,1.8,1.8v12.6c0,1-0.8,1.8-1.8,1.8h-88.4c-1,0-1.8-0.8-1.8-1.8v-12.6
		C117,221.6,117.8,220.8,118.8,220.8z"/>
	<path d="M261.9,246.9h88.2c1,0,1.8,0.8,1.8,1.8v11.7c0,1-0.8,1.8-1.8,1.8h-88.2c-1,0-1.8-0.8-1.8-1.8v-11.7
		C260.1,247.7,260.9,246.9,261.9,246.9z"/>
	<path d="M82.3,285.6h34.3c1,0,1.8,0.8,1.8,1.8v11.7c0,1-0.8,1.8-1.8,1.8H82.3c-1,0-1.8-0.8-1.8-1.8v-11.7
		C80.5,286.4,81.3,285.6,82.3,285.6z"/>
	<path d="M514.3,285.6h34.3c1,0,1.8,0.8,1.8,1.8v11.7c0,1-0.8,1.8-1.8,1.8h-34.3c-1,0-1.8-0.8-1.8-1.8v-11.7
		C512.5,286.4,513.3,285.6,514.3,285.6z"/>
	<path d="M175.2,261.3h9.9c1,0,1.8,0.8,1.8,1.8v9c0,1-0.8,1.8-1.8,1.8h-9.9c-1,0-1.8-0.8-1.8-1.8v-9
		C173.4,262.1,174.2,261.3,175.2,261.3z"/>
	<path d="M427.2,261.3h9.9c1,0,1.8,0.8,1.8,1.8v9c0,1-0.8,1.8-1.8,1.8h-9.9c-1,0-1.8-0.8-1.8-1.8v-9
		C425.4,262.1,426.2,261.3,427.2,261.3z"/>
	<path d="M229.2,237.9h9.9c1,0,1.8,0.8,1.8,1.8v9c0,1-0.8,1.8-1.8,1.8h-9.9c-1,0-1.8-0.8-1.8-1.8v-9
		C227.4,238.7,228.2,237.9,229.2,237.9z"/>
	<path d="M337.2,345.9h9.9c1,0,1.8,0.8,1.8,1.8v9c0,1-0.8,1.8-1.8,1.8h-9.9c-1,0-1.8-0.8-1.8-1.8v-9
		C335.4,346.7,336.2,345.9,337.2,345.9z"/>
	<path d="M27.6,346.8h9.9c1,0,1.8,0.8,1.8,1.8v9c0,1-0.8,1.8-1.8,1.8h-9.9c-1,0-1.8-0.8-1.8-1.8v-9
		C25.8,347.6,26.6,346.8,27.6,346.8z"/>
	<path d="M41.4,345h65.3c1,0,1.8,0.8,1.8,1.8v11.7c0,1-0.8,1.8-1.8,1.8H41.4c-1,0-1.8-0.8-1.8-1.8v-11.7
		C39.6,345.8,40.4,345,41.4,345z"/>
	<path d="M155,351.3h303.2c1,0,1.8,0.8,1.8,1.8v11.7c0,1-0.8,1.8-1.8,1.8H155c-1,0-1.8-0.8-1.8-1.8v-11.7
		C153.2,352.1,154,351.3,155,351.3z"/>
	<path d="M53.5,388.2h122.3c1,0,1.8,0.8,1.8,1.8v11.7c0,1-0.8,1.8-1.8,1.8H53.5c-1,0-1.8-0.8-1.8-1.8V390
		C51.7,389,52.5,388.2,53.5,388.2z"/>
	<path d="M207.9,387.3h38.8c1,0,1.8,0.8,1.8,1.8v12.6c0,1-0.8,1.8-1.8,1.8h-38.8c-1,0-1.8-0.8-1.8-1.8v-12.6
		C206.1,388.1,206.9,387.3,207.9,387.3z"/>
	<path d="M278.5,413.4h56c1,0,1.8,0.8,1.8,1.8v11.7c0,1-0.8,1.8-1.8,1.8h-56c-1,0-1.8-0.8-1.8-1.8v-11.7
		C276.7,414.2,277.5,413.4,278.5,413.4z"/>
	<path d="M76.8,452.1h43.9c1,0,1.8,0.8,1.8,1.8v11.7c0,1-0.8,1.8-1.8,1.8H76.8c-1,0-1.8-0.8-1.8-1.8v-11.7
		C75,452.9,75.8,452.1,76.8,452.1z"/>
	<path d="M503.7,452.1h54.6c1,0,1.8,0.8,1.8,1.8v11.7c0,1-0.8,1.8-1.8,1.8h-54.6c-1,0-1.8-0.8-1.8-1.8v-11.7
		C501.9,452.9,502.7,452.1,503.7,452.1z"/>
	<path d="M229.2,404.4h9.9c1,0,1.8,0.8,1.8,1.8v9c0,1-0.8,1.8-1.8,1.8h-9.9c-1,0-1.8-0.8-1.8-1.8v-9
		C227.4,405.2,228.2,404.4,229.2,404.4z"/>
	<path d="M382.2,512.4h9.9c1,0,1.8,0.8,1.8,1.8v9c0,1-0.8,1.8-1.8,1.8h-9.9c-1,0-1.8-0.8-1.8-1.8v-9
		C380.4,513.2,381.2,512.4,382.2,512.4z"/>
	<path d="M27.6,516h9.9c1,0,1.8,0.8,1.8,1.8v9c0,1-0.8,1.8-1.8,1.8h-9.9c-1,0-1.8-0.8-1.8-1.8v-9C25.8,516.8,26.6,516,27.6,516z"/>
	<path d="M41.4,514.2h95.4c1,0,1.8,0.8,1.8,1.8v11.7c0,1-0.8,1.8-1.8,1.8H41.4c-1,0-1.8-0.8-1.8-1.8V516
		C39.6,515,40.4,514.2,41.4,514.2z"/>
	<path d="M144,514.2h146.2c1,0,1.8,0.8,1.8,1.8v11.7c0,1-0.8,1.8-1.8,1.8H144c-1,0-1.8-0.8-1.8-1.8V516
		C142.2,515,143,514.2,144,514.2z"/>
	<path d="M343.8,514.2h136.8c1,0,1.8,0.8,1.8,1.8v11.7c0,1-0.8,1.8-1.8,1.8H343.8c-1,0-1.8-0.8-1.8-1.8V516
		C342,515,342.8,514.2,343.8,514.2z"/>
	<path d="M128.1,531.3h356.3c1,0,1.8,0.8,1.8,1.8v11.7c0,1-0.8,1.8-1.8,1.8H128.1c-1,0-1.8-0.8-1.8-1.8v-11.7
		C126.3,532.1,127.1,531.3,128.1,531.3z"/>
</mask>
<path marker-end="url(#arr-g)" class="st11" d="M585,61.5"/>
<path class="st8" d=""/>
<path marker-end="url(#arr-g)" class="st9" d="M585,186.6"/>
<text transform="matrix(1 0 0 1 133.1323 192.6416)" class="st12 st13 st4">Bus masuk dan keluar koridor langsung, tanpa penumpang perlu berpindah kendaraan</text>
<path class="st0" d="M27,213.6h558c5,0,9,4,9,9v133.2c0,5-4,9-9,9H27c-5,0-9-4-9-9V222.6C18,217.7,22,213.6,27,213.6z"/>
<path class="st14" d="M36,221.7h55.8c4,0,7.2,3.2,7.2,7.2l0,0c0,4-3.2,7.2-7.2,7.2H36c-4,0-7.2-3.2-7.2-7.2l0,0
	C28.8,225,32,221.7,36,221.7z"/>
<text transform="matrix(1 0 0 1 49.897 232.5415)" class="st15 st3 st4">Pola B</text>
<text transform="matrix(1 0 0 1 109.6001 232.5415)" class="st15 st5 st6">Trunk-and-feeder</text>
<path class="st7" d="M185.4,268.2h241.2c3,0,5.4,1.3,5.4,3v54c0,1.7-2.4,3-5.4,3H185.4c-3,0-5.4-1.3-5.4-3v-54
	C180,269.6,182.4,268.2,185.4,268.2z"/>
<g>
	<text transform="matrix(1 0 0 1 279.2527 257.7412)" class="st2 st3 st4">Koridor BRT</text>
</g>
<text transform="matrix(1 0 0 1 84.7422 300.9414)" class="st16 st13 st4">Feeder</text>
<text transform="matrix(1 0 0 1 52.9208 131.7415)" class="st17 st13 st4">Rute Direct Service</text>
<text transform="matrix(1 0 0 1 283.9898 294.4412)" class="st17 st13 st4">Rute Trunk</text>
<text transform="matrix(1 0 0 1 504.2214 263.0128)" class="st16 st13 st4">Feeder</text>
<path class="st8" d=""/>
<defs>
	
		<filter id="Adobe_OpacityMaskFilter_00000003826677420342234740000016210012897153649033_" filterUnits="userSpaceOnUse" x="173.7" y="267.6" width="0" height="0">
		<feColorMatrix  type="matrix" values="1 0 0 0 0  0 1 0 0 0  0 0 1 0 0  0 0 0 1 0"/>
	</filter>
</defs>
<mask maskUnits="userSpaceOnUse" x="173.7" y="267.6" width="0" height="0" id="imagine-text-gaps-tax1ai_00000059294416933030149940000010397268892059329461_">
	
		<rect y="29.1" style="fill:#FFFFFF;filter:url(#Adobe_OpacityMaskFilter_00000003826677420342234740000016210012897153649033_);" width="612" height="524.5"/>
	<path d="M48.8,55.2h31.5c1,0,1.8,0.8,1.8,1.8v11.7c0,1-0.8,1.8-1.8,1.8H48.8c-1,0-1.8-0.8-1.8-1.8V57C47,56,47.8,55.2,48.8,55.2z"
		/>
	<path d="M105.3,54.3h73.5c1,0,1.8,0.8,1.8,1.8v12.6c0,1-0.8,1.8-1.8,1.8h-73.5c-1,0-1.8-0.8-1.8-1.8V56.1
		C103.5,55.1,104.3,54.3,105.3,54.3z"/>
	<path d="M278.5,80.4h56c1,0,1.8,0.8,1.8,1.8v11.7c0,1-0.8,1.8-1.8,1.8h-56c-1,0-1.8-0.8-1.8-1.8V82.2
		C276.7,81.2,277.5,80.4,278.5,80.4z"/>
	<path d="M76.8,119.1h43.9c1,0,1.8,0.8,1.8,1.8v11.7c0,1-0.8,1.8-1.8,1.8H76.8c-1,0-1.8-0.8-1.8-1.8v-11.7
		C75,119.9,75.8,119.1,76.8,119.1z"/>
	<path d="M503.7,119.1h54.6c1,0,1.8,0.8,1.8,1.8v11.7c0,1-0.8,1.8-1.8,1.8h-54.6c-1,0-1.8-0.8-1.8-1.8v-11.7
		C501.9,119.9,502.7,119.1,503.7,119.1z"/>
	<path d="M185.8,184.8h241.4c1,0,1.8,0.8,1.8,1.8v11.7c0,1-0.8,1.8-1.8,1.8H185.8c-1,0-1.8-0.8-1.8-1.8v-11.7
		C184,185.6,184.8,184.8,185.8,184.8z"/>
	<path d="M49.2,221.7h30.6c1,0,1.8,0.8,1.8,1.8v11.7c0,1-0.8,1.8-1.8,1.8H49.2c-1,0-1.8-0.8-1.8-1.8v-11.7
		C47.4,222.5,48.2,221.7,49.2,221.7z"/>
	<path d="M118.8,220.8h88.4c1,0,1.8,0.8,1.8,1.8v12.6c0,1-0.8,1.8-1.8,1.8h-88.4c-1,0-1.8-0.8-1.8-1.8v-12.6
		C117,221.6,117.8,220.8,118.8,220.8z"/>
	<path d="M261.9,246.9h88.2c1,0,1.8,0.8,1.8,1.8v11.7c0,1-0.8,1.8-1.8,1.8h-88.2c-1,0-1.8-0.8-1.8-1.8v-11.7
		C260.1,247.7,260.9,246.9,261.9,246.9z"/>
	<path d="M82.3,285.6h34.3c1,0,1.8,0.8,1.8,1.8v11.7c0,1-0.8,1.8-1.8,1.8H82.3c-1,0-1.8-0.8-1.8-1.8v-11.7
		C80.5,286.4,81.3,285.6,82.3,285.6z"/>
	<path d="M514.3,285.6h34.3c1,0,1.8,0.8,1.8,1.8v11.7c0,1-0.8,1.8-1.8,1.8h-34.3c-1,0-1.8-0.8-1.8-1.8v-11.7
		C512.5,286.4,513.3,285.6,514.3,285.6z"/>
	<path d="M175.2,261.3h9.9c1,0,1.8,0.8,1.8,1.8v9c0,1-0.8,1.8-1.8,1.8h-9.9c-1,0-1.8-0.8-1.8-1.8v-9
		C173.4,262.1,174.2,261.3,175.2,261.3z"/>
	<path d="M427.2,261.3h9.9c1,0,1.8,0.8,1.8,1.8v9c0,1-0.8,1.8-1.8,1.8h-9.9c-1,0-1.8-0.8-1.8-1.8v-9
		C425.4,262.1,426.2,261.3,427.2,261.3z"/>
	<path d="M229.2,237.9h9.9c1,0,1.8,0.8,1.8,1.8v9c0,1-0.8,1.8-1.8,1.8h-9.9c-1,0-1.8-0.8-1.8-1.8v-9
		C227.4,238.7,228.2,237.9,229.2,237.9z"/>
	<path d="M337.2,345.9h9.9c1,0,1.8,0.8,1.8,1.8v9c0,1-0.8,1.8-1.8,1.8h-9.9c-1,0-1.8-0.8-1.8-1.8v-9
		C335.4,346.7,336.2,345.9,337.2,345.9z"/>
	<path d="M27.6,346.8h9.9c1,0,1.8,0.8,1.8,1.8v9c0,1-0.8,1.8-1.8,1.8h-9.9c-1,0-1.8-0.8-1.8-1.8v-9
		C25.8,347.6,26.6,346.8,27.6,346.8z"/>
	<path d="M41.4,345h65.3c1,0,1.8,0.8,1.8,1.8v11.7c0,1-0.8,1.8-1.8,1.8H41.4c-1,0-1.8-0.8-1.8-1.8v-11.7
		C39.6,345.8,40.4,345,41.4,345z"/>
	<path d="M155,351.3h303.2c1,0,1.8,0.8,1.8,1.8v11.7c0,1-0.8,1.8-1.8,1.8H155c-1,0-1.8-0.8-1.8-1.8v-11.7
		C153.2,352.1,154,351.3,155,351.3z"/>
	<path d="M53.5,388.2h122.3c1,0,1.8,0.8,1.8,1.8v11.7c0,1-0.8,1.8-1.8,1.8H53.5c-1,0-1.8-0.8-1.8-1.8V390
		C51.7,389,52.5,388.2,53.5,388.2z"/>
	<path d="M207.9,387.3h38.8c1,0,1.8,0.8,1.8,1.8v12.6c0,1-0.8,1.8-1.8,1.8h-38.8c-1,0-1.8-0.8-1.8-1.8v-12.6
		C206.1,388.1,206.9,387.3,207.9,387.3z"/>
	<path d="M278.5,413.4h56c1,0,1.8,0.8,1.8,1.8v11.7c0,1-0.8,1.8-1.8,1.8h-56c-1,0-1.8-0.8-1.8-1.8v-11.7
		C276.7,414.2,277.5,413.4,278.5,413.4z"/>
	<path d="M76.8,452.1h43.9c1,0,1.8,0.8,1.8,1.8v11.7c0,1-0.8,1.8-1.8,1.8H76.8c-1,0-1.8-0.8-1.8-1.8v-11.7
		C75,452.9,75.8,452.1,76.8,452.1z"/>
	<path d="M503.7,452.1h54.6c1,0,1.8,0.8,1.8,1.8v11.7c0,1-0.8,1.8-1.8,1.8h-54.6c-1,0-1.8-0.8-1.8-1.8v-11.7
		C501.9,452.9,502.7,452.1,503.7,452.1z"/>
	<path d="M229.2,404.4h9.9c1,0,1.8,0.8,1.8,1.8v9c0,1-0.8,1.8-1.8,1.8h-9.9c-1,0-1.8-0.8-1.8-1.8v-9
		C227.4,405.2,228.2,404.4,229.2,404.4z"/>
	<path d="M382.2,512.4h9.9c1,0,1.8,0.8,1.8,1.8v9c0,1-0.8,1.8-1.8,1.8h-9.9c-1,0-1.8-0.8-1.8-1.8v-9
		C380.4,513.2,381.2,512.4,382.2,512.4z"/>
	<path d="M27.6,516h9.9c1,0,1.8,0.8,1.8,1.8v9c0,1-0.8,1.8-1.8,1.8h-9.9c-1,0-1.8-0.8-1.8-1.8v-9C25.8,516.8,26.6,516,27.6,516z"/>
	<path d="M41.4,514.2h95.4c1,0,1.8,0.8,1.8,1.8v11.7c0,1-0.8,1.8-1.8,1.8H41.4c-1,0-1.8-0.8-1.8-1.8V516
		C39.6,515,40.4,514.2,41.4,514.2z"/>
	<path d="M144,514.2h146.2c1,0,1.8,0.8,1.8,1.8v11.7c0,1-0.8,1.8-1.8,1.8H144c-1,0-1.8-0.8-1.8-1.8V516
		C142.2,515,143,514.2,144,514.2z"/>
	<path d="M343.8,514.2h136.8c1,0,1.8,0.8,1.8,1.8v11.7c0,1-0.8,1.8-1.8,1.8H343.8c-1,0-1.8-0.8-1.8-1.8V516
		C342,515,342.8,514.2,343.8,514.2z"/>
	<path d="M128.1,531.3h356.3c1,0,1.8,0.8,1.8,1.8v11.7c0,1-0.8,1.8-1.8,1.8H128.1c-1,0-1.8-0.8-1.8-1.8v-11.7
		C126.3,532.1,127.1,531.3,128.1,531.3z"/>
</mask>
<path marker-end="url(#arr-y)" class="st19" d="M173.7,267.6"/>
<path class="st8" d=""/>
<path class="st8" d=""/>
<path marker-end="url(#arr-y)" class="st20" d="M234,237.9"/>
<path class="st8" d=""/>
<path marker-end="url(#arr-y)" class="st20" d="M342,327.9"/>
<circle class="st21" cx="32.4" cy="353.1" r="5.4"/>
<text transform="matrix(1 0 0 1 30.2012 355.8413)" class="st22 st3 st23">T</text>
<text transform="matrix(1 0 0 1 43.2002 355.8413)" class="st12 st13 st4">= titik transfer</text>
<text transform="matrix(1 0 0 1 122.1306 358.1416)" class="st12 st13 st4">Feeder berhenti di batas koridor, penumpang berpindah ke bus untuk menjangkau rute trunk</text>
<path class="st24" d="M27,380.1h558c5,0,9,4,9,9v133.2c0,5-4,9-9,9H27c-5,0-9-4-9-9V389.1C18,384.2,22,380.1,27,380.1z"/>
<path class="st25" d="M36,388.2h156.6c4,0,7.2,3.2,7.2,7.2l0,0c0,4-3.2,7.2-7.2,7.2H36c-4,0-7.2-3.2-7.2-7.2l0,0
	C28.8,391.5,32,388.2,36,388.2z"/>
<text transform="matrix(1 0 0 1 54.5322 399.041)" class="st26 st3 st4">Pola C — Metro Jabar Trans</text>
<text transform="matrix(1 0 0 1 210.6001 399.041)" class="st2 st5 st6">Hybrid</text>
<path class="st7" d="M185.4,434.7h241.2c3,0,5.4,1.3,5.4,3v54c0,1.7-2.4,3-5.4,3H185.4c-3,0-5.4-1.3-5.4-3v-54
	C180,436.1,182.4,434.7,185.4,434.7z"/>
<text transform="matrix(1 0 0 1 279.2529 424.2412)" class="st2 st3 st4">Koridor BRT</text>
<path class="st8" d=""/>
<path marker-end="url(#arr-g)" class="st9" d="M178.2,434.1"/>
<path class="st8" d=""/>
<path marker-end="url(#arr-g)" class="st9" d="M585,434.1"/>
<path class="st8" d=""/>
<path marker-end="url(#arr-g)" class="st9" d="M585,497.1"/>
<path class="st8" d=""/>
<defs>
	
		<filter id="Adobe_OpacityMaskFilter_00000006671143116122565180000000986647492514487950_" filterUnits="userSpaceOnUse" x="585" y="398.1" width="0" height="0">
		<feColorMatrix  type="matrix" values="1 0 0 0 0  0 1 0 0 0  0 0 1 0 0  0 0 0 1 0"/>
	</filter>
</defs>
<mask maskUnits="userSpaceOnUse" x="585" y="398.1" width="0" height="0" id="imagine-text-gaps-tax1ai_00000106852845271323788980000009379471365446677393_">
	
		<rect y="29.1" style="fill:#FFFFFF;filter:url(#Adobe_OpacityMaskFilter_00000006671143116122565180000000986647492514487950_);" width="612" height="524.5"/>
	<path d="M48.8,55.2h31.5c1,0,1.8,0.8,1.8,1.8v11.7c0,1-0.8,1.8-1.8,1.8H48.8c-1,0-1.8-0.8-1.8-1.8V57C47,56,47.8,55.2,48.8,55.2z"
		/>
	<path d="M105.3,54.3h73.5c1,0,1.8,0.8,1.8,1.8v12.6c0,1-0.8,1.8-1.8,1.8h-73.5c-1,0-1.8-0.8-1.8-1.8V56.1
		C103.5,55.1,104.3,54.3,105.3,54.3z"/>
	<path d="M278.5,80.4h56c1,0,1.8,0.8,1.8,1.8v11.7c0,1-0.8,1.8-1.8,1.8h-56c-1,0-1.8-0.8-1.8-1.8V82.2
		C276.7,81.2,277.5,80.4,278.5,80.4z"/>
	<path d="M76.8,119.1h43.9c1,0,1.8,0.8,1.8,1.8v11.7c0,1-0.8,1.8-1.8,1.8H76.8c-1,0-1.8-0.8-1.8-1.8v-11.7
		C75,119.9,75.8,119.1,76.8,119.1z"/>
	<path d="M503.7,119.1h54.6c1,0,1.8,0.8,1.8,1.8v11.7c0,1-0.8,1.8-1.8,1.8h-54.6c-1,0-1.8-0.8-1.8-1.8v-11.7
		C501.9,119.9,502.7,119.1,503.7,119.1z"/>
	<path d="M185.8,184.8h241.4c1,0,1.8,0.8,1.8,1.8v11.7c0,1-0.8,1.8-1.8,1.8H185.8c-1,0-1.8-0.8-1.8-1.8v-11.7
		C184,185.6,184.8,184.8,185.8,184.8z"/>
	<path d="M49.2,221.7h30.6c1,0,1.8,0.8,1.8,1.8v11.7c0,1-0.8,1.8-1.8,1.8H49.2c-1,0-1.8-0.8-1.8-1.8v-11.7
		C47.4,222.5,48.2,221.7,49.2,221.7z"/>
	<path d="M118.8,220.8h88.4c1,0,1.8,0.8,1.8,1.8v12.6c0,1-0.8,1.8-1.8,1.8h-88.4c-1,0-1.8-0.8-1.8-1.8v-12.6
		C117,221.6,117.8,220.8,118.8,220.8z"/>
	<path d="M261.9,246.9h88.2c1,0,1.8,0.8,1.8,1.8v11.7c0,1-0.8,1.8-1.8,1.8h-88.2c-1,0-1.8-0.8-1.8-1.8v-11.7
		C260.1,247.7,260.9,246.9,261.9,246.9z"/>
	<path d="M82.3,285.6h34.3c1,0,1.8,0.8,1.8,1.8v11.7c0,1-0.8,1.8-1.8,1.8H82.3c-1,0-1.8-0.8-1.8-1.8v-11.7
		C80.5,286.4,81.3,285.6,82.3,285.6z"/>
	<path d="M514.3,285.6h34.3c1,0,1.8,0.8,1.8,1.8v11.7c0,1-0.8,1.8-1.8,1.8h-34.3c-1,0-1.8-0.8-1.8-1.8v-11.7
		C512.5,286.4,513.3,285.6,514.3,285.6z"/>
	<path d="M175.2,261.3h9.9c1,0,1.8,0.8,1.8,1.8v9c0,1-0.8,1.8-1.8,1.8h-9.9c-1,0-1.8-0.8-1.8-1.8v-9
		C173.4,262.1,174.2,261.3,175.2,261.3z"/>
	<path d="M427.2,261.3h9.9c1,0,1.8,0.8,1.8,1.8v9c0,1-0.8,1.8-1.8,1.8h-9.9c-1,0-1.8-0.8-1.8-1.8v-9
		C425.4,262.1,426.2,261.3,427.2,261.3z"/>
	<path d="M229.2,237.9h9.9c1,0,1.8,0.8,1.8,1.8v9c0,1-0.8,1.8-1.8,1.8h-9.9c-1,0-1.8-0.8-1.8-1.8v-9
		C227.4,238.7,228.2,237.9,229.2,237.9z"/>
	<path d="M337.2,345.9h9.9c1,0,1.8,0.8,1.8,1.8v9c0,1-0.8,1.8-1.8,1.8h-9.9c-1,0-1.8-0.8-1.8-1.8v-9
		C335.4,346.7,336.2,345.9,337.2,345.9z"/>
	<path d="M27.6,346.8h9.9c1,0,1.8,0.8,1.8,1.8v9c0,1-0.8,1.8-1.8,1.8h-9.9c-1,0-1.8-0.8-1.8-1.8v-9
		C25.8,347.6,26.6,346.8,27.6,346.8z"/>
	<path d="M41.4,345h65.3c1,0,1.8,0.8,1.8,1.8v11.7c0,1-0.8,1.8-1.8,1.8H41.4c-1,0-1.8-0.8-1.8-1.8v-11.7
		C39.6,345.8,40.4,345,41.4,345z"/>
	<path d="M155,351.3h303.2c1,0,1.8,0.8,1.8,1.8v11.7c0,1-0.8,1.8-1.8,1.8H155c-1,0-1.8-0.8-1.8-1.8v-11.7
		C153.2,352.1,154,351.3,155,351.3z"/>
	<path d="M53.5,388.2h122.3c1,0,1.8,0.8,1.8,1.8v11.7c0,1-0.8,1.8-1.8,1.8H53.5c-1,0-1.8-0.8-1.8-1.8V390
		C51.7,389,52.5,388.2,53.5,388.2z"/>
	<path d="M207.9,387.3h38.8c1,0,1.8,0.8,1.8,1.8v12.6c0,1-0.8,1.8-1.8,1.8h-38.8c-1,0-1.8-0.8-1.8-1.8v-12.6
		C206.1,388.1,206.9,387.3,207.9,387.3z"/>
	<path d="M278.5,413.4h56c1,0,1.8,0.8,1.8,1.8v11.7c0,1-0.8,1.8-1.8,1.8h-56c-1,0-1.8-0.8-1.8-1.8v-11.7
		C276.7,414.2,277.5,413.4,278.5,413.4z"/>
	<path d="M76.8,452.1h43.9c1,0,1.8,0.8,1.8,1.8v11.7c0,1-0.8,1.8-1.8,1.8H76.8c-1,0-1.8-0.8-1.8-1.8v-11.7
		C75,452.9,75.8,452.1,76.8,452.1z"/>
	<path d="M503.7,452.1h54.6c1,0,1.8,0.8,1.8,1.8v11.7c0,1-0.8,1.8-1.8,1.8h-54.6c-1,0-1.8-0.8-1.8-1.8v-11.7
		C501.9,452.9,502.7,452.1,503.7,452.1z"/>
	<path d="M229.2,404.4h9.9c1,0,1.8,0.8,1.8,1.8v9c0,1-0.8,1.8-1.8,1.8h-9.9c-1,0-1.8-0.8-1.8-1.8v-9
		C227.4,405.2,228.2,404.4,229.2,404.4z"/>
	<path d="M382.2,512.4h9.9c1,0,1.8,0.8,1.8,1.8v9c0,1-0.8,1.8-1.8,1.8h-9.9c-1,0-1.8-0.8-1.8-1.8v-9
		C380.4,513.2,381.2,512.4,382.2,512.4z"/>
	<path d="M27.6,516h9.9c1,0,1.8,0.8,1.8,1.8v9c0,1-0.8,1.8-1.8,1.8h-9.9c-1,0-1.8-0.8-1.8-1.8v-9C25.8,516.8,26.6,516,27.6,516z"/>
	<path d="M41.4,514.2h95.4c1,0,1.8,0.8,1.8,1.8v11.7c0,1-0.8,1.8-1.8,1.8H41.4c-1,0-1.8-0.8-1.8-1.8V516
		C39.6,515,40.4,514.2,41.4,514.2z"/>
	<path d="M144,514.2h146.2c1,0,1.8,0.8,1.8,1.8v11.7c0,1-0.8,1.8-1.8,1.8H144c-1,0-1.8-0.8-1.8-1.8V516
		C142.2,515,143,514.2,144,514.2z"/>
	<path d="M343.8,514.2h136.8c1,0,1.8,0.8,1.8,1.8v11.7c0,1-0.8,1.8-1.8,1.8H343.8c-1,0-1.8-0.8-1.8-1.8V516
		C342,515,342.8,514.2,343.8,514.2z"/>
	<path d="M128.1,531.3h356.3c1,0,1.8,0.8,1.8,1.8v11.7c0,1-0.8,1.8-1.8,1.8H128.1c-1,0-1.8-0.8-1.8-1.8v-11.7
		C126.3,532.1,127.1,531.3,128.1,531.3z"/>
</mask>
<path marker-end="url(#arr-g)" class="st28" d="M585,398.1"/>
<path class="st8" d=""/>
<path class="st8" d=""/>
<path class="st8" d=""/>
<path marker-end="url(#arr-y)" class="st20" d="M387,525"/>
<circle class="st21" cx="32.4" cy="522.3" r="5.4"/>
<text transform="matrix(1 0 0 1 30.2012 525.041)" class="st22 st3 st23">T</text>
<text transform="matrix(1 0 0 1 43.2002 525.041)" class="st12 st13 st4">= titik transfer</text>
<line class="st29" x1="32.4" y1="137.6" x2="579.6" y2="137.6"/>
<polyline class="st30" points="180,132.7 447.7,132.7 447.7,105.2 579.6,105.2 "/>
<polyline class="st31" points="32.4,105 161.9,105 161.9,128.1 379.8,128.1 379.8,177.4 579.6,177.4 "/>
<polyline class="st32" points="432,141.9 209.6,141.9 209.6,174.6 32.4,174.6 "/>
<text transform="matrix(1 0 0 1 188.6121 525.6416)" class="st12 st13 st4">Gabungan pola operasi direct service dan trunk-and-feeder</text>
<text transform="matrix(1 0 0 1 52.9208 464.7415)" class="st17 st13 st4">Rute Direct Service</text>
<line class="st29" x1="32.4" y1="470.6" x2="579.6" y2="470.6"/>
<polyline class="st30" points="180,465.7 447.7,465.7 447.7,438.2 579.6,438.2 "/>
<polyline class="st31" points="32.4,438 161.9,438 161.9,461.1 379.8,461.1 379.8,510.4 579.6,510.4 "/>
<polyline class="st32" points="432,474.9 209.6,474.9 209.6,507.6 32.4,507.6 "/>
<line class="st29" x1="180" y1="298.2" x2="432" y2="298.2"/>
<circle class="st21" cx="180" cy="298.2" r="6.3"/>
<text transform="matrix(1 0 0 1 177.8008 300.9414)" class="st22 st3 st23">T</text>
<circle class="st21" cx="432" cy="298.2" r="6.3"/>
<text transform="matrix(1 0 0 1 429.8008 300.9414)" class="st22 st3 st23">T</text>
<circle class="st21" cx="365.3" cy="298.2" r="6.3"/>
<text transform="matrix(1 0 0 1 363.0865 300.9414)" class="st22 st3 st23">T</text>
<circle class="st21" cx="233.3" cy="298.2" r="6.3"/>
<text transform="matrix(1 0 0 1 231.0938 300.9414)" class="st22 st3 st23">T</text>
<polyline class="st33" points="43.2,260 160,260 160,295.4 174.7,295.4 "/>
<polyline class="st33" points="43.2,306.3 160.2,306.3 160.2,298.6 173.7,298.6 "/>
<polyline class="st33" points="43.2,328.2 170.3,328.2 170.3,302 174.8,302 "/>
<polyline class="st33" points="210.6,243.7 233.3,243.7 233.3,291.9 "/>
<circle class="st21" cx="233.3" cy="465.4" r="6.3"/>
<text transform="matrix(1 0 0 1 231.0938 468.1135)" class="st22 st3 st23">T</text>
<polyline class="st33" points="210.6,410.9 233.3,410.9 233.3,459.1 "/>
<polyline class="st33" points="365.3,291.9 365.3,257.7 411.4,257.7 "/>
<polyline class="st33" points="365.3,304.5 365.3,342.1 333.6,342.1 "/>
<polyline class="st33" points="437.3,295.6 470.8,295.6 470.8,250.8 566.7,250.8 "/>
<polyline class="st33" points="437.3,300.9 470.8,300.9 470.8,328.2 569.1,328.2 "/>
<polyline class="st33" points="32.4,420.5 70,420.5 70,438 "/>
<polyline class="st33" points="397.5,470.6 397.5,405.1 579.6,405.1 "/>
<polyline class="st33" points="488.6,470.6 488.6,491.3 565,491.3 "/>
<circle class="st21" cx="70" cy="438" r="6.3"/>
<text transform="matrix(1 0 0 1 67.8008 440.6999)" class="st22 st3 st23">T</text>
<circle class="st21" cx="397.5" cy="468.9" r="6.3"/>
<text transform="matrix(1 0 0 1 395.3365 471.5785)" class="st22 st3 st23">T</text>
<circle class="st21" cx="488.6" cy="468.9" r="6.3"/>
<text transform="matrix(1 0 0 1 486.3687 471.5785)" class="st22 st3 st23">T</text>
<line class="st33" x1="438.3" y1="298.2" x2="569.1" y2="298.2"/>
<text transform="matrix(1 0 0 1 504.2214 416.7271)" class="st16 st13 st4">Feeder</text>
</svg>