<?xml version="1.0" encoding="utf-8"?>
<!-- Generator: Adobe Illustrator 25.4.1, SVG Export Plug-In . SVG Version: 6.00 Build 0)  -->
<svg version="1.1" id="Layer_1" xmlns="http://www.w3.org/2000/svg" xmlns:xlink="http://www.w3.org/1999/xlink" x="0px" y="0px"
	 viewBox="0 0 173.6 48" style="enable-background:new 0 0 173.6 48;" xml:space="preserve">
<style type="text/css">
	.st0{fill:#00A651;}
	.st1{enable-background:new    ;}
	.st2{fill:#0A1F12;}
</style>
<path class="st0" d="M4.8,11.2v30c0,1.3-1.1,2.4-2.4,2.4l0,0c-1.3,0-2.4-1.1-2.4-2.4V11.8L4.8,11.2z"/>
<path class="st0" d="M0,6.5l39.1-5.3v5.3L0,11.8V6.5z"/>
<g class="st1">
	<path class="st2" d="M58,37.1l-4.9-8L50.7,32v5.1h-4V18.7h4v5.2v3.6h0.2l2.6-3.6l4.2-5.2h4.6l-6.2,7.6l6.8,10.9H58z"/>
	<path class="st2" d="M77,37.1h-2.2c-0.5,0-0.9-0.1-1.3-0.4c-0.4-0.2-0.7-0.6-1-1.1c-0.2-0.5-0.4-1-0.4-1.7v-0.3l0.8,1h-1
		c-0.2,0.9-0.7,1.6-1.4,2.1c-0.7,0.5-1.6,0.7-2.7,0.7c-1.4,0-2.5-0.4-3.2-1.1c-0.7-0.8-1.1-1.7-1.1-2.9c0-1,0.2-1.8,0.7-2.4
		s1.2-1.1,2.1-1.4c0.9-0.3,1.9-0.5,3.2-0.5h2.2v-0.9c0-0.7-0.2-1.2-0.5-1.6S70.3,26,69.5,26c-0.8,0-1.4,0.2-1.9,0.5
		c-0.5,0.3-0.8,0.7-1.1,1.1l-2.3-2.1c0.6-0.8,1.3-1.5,2.1-1.9c0.9-0.5,2-0.7,3.5-0.7c2,0,3.4,0.4,4.4,1.3c1,0.9,1.5,2.1,1.5,3.8v6.1
		H77V37.1z M71.8,31.3h-1.9c-0.8,0-1.3,0.1-1.7,0.4c-0.4,0.3-0.6,0.7-0.6,1.2v0.4c0,0.5,0.2,0.9,0.5,1.1c0.3,0.2,0.8,0.4,1.3,0.4
		c0.4,0,0.8-0.1,1.2-0.2c0.4-0.1,0.6-0.3,0.9-0.6c0.2-0.3,0.3-0.6,0.3-1V31.3z"/>
	<path class="st2" d="M82.1,37.1l-3.9-13.9H82l1.4,5.6l1,4.2h0.1l1.1-4.2l1.6-5.6h3.6l1.6,5.6l1.1,4.2h0.1l1-4.2l1.3-5.6h3.6
		l-3.8,13.9h-4.1l-1.7-5.9l-1-3.6h-0.1l-1,3.6l-1.7,5.9H82.1z"/>
	<path class="st2" d="M113.8,37.1h-2.2c-0.5,0-0.9-0.1-1.3-0.4c-0.4-0.2-0.7-0.6-1-1.1c-0.2-0.5-0.4-1-0.4-1.7v-0.3l0.8,1h-1
		c-0.2,0.9-0.7,1.6-1.4,2.1c-0.7,0.5-1.6,0.7-2.7,0.7c-1.4,0-2.5-0.4-3.2-1.1c-0.7-0.8-1.1-1.7-1.1-2.9c0-1,0.2-1.8,0.7-2.4
		s1.2-1.1,2.1-1.4c0.9-0.3,1.9-0.5,3.2-0.5h2.2v-0.9c0-0.7-0.2-1.2-0.5-1.6c-0.4-0.4-0.9-0.6-1.8-0.6c-0.8,0-1.4,0.2-1.9,0.5
		c-0.5,0.3-0.8,0.7-1.1,1.1l-2.3-2.1c0.6-0.8,1.3-1.5,2.1-1.9c0.9-0.5,2-0.7,3.5-0.7c2,0,3.4,0.4,4.4,1.3c1,0.9,1.5,2.1,1.5,3.8v6.1
		h1.3V37.1z M108.6,31.3h-1.9c-0.8,0-1.3,0.1-1.7,0.4c-0.4,0.3-0.6,0.7-0.6,1.2v0.4c0,0.5,0.2,0.9,0.5,1.1c0.3,0.2,0.8,0.4,1.3,0.4
		c0.4,0,0.8-0.1,1.2-0.2c0.4-0.1,0.6-0.3,0.9-0.6c0.2-0.3,0.3-0.6,0.3-1V31.3z"/>
	<path class="st2" d="M122.1,37.1h-1.8c-1.3,0-2.3-0.3-3-1c-0.6-0.7-0.9-1.6-0.9-2.8V17.6h3.9v16.5h1.7V37.1z"/>
</g>
<g class="st1">
	<path class="st0" d="M126,37.1V18.7h9c1.5,0,2.7,0.4,3.6,1.3c0.9,0.9,1.3,2,1.3,3.4c0,0.9-0.2,1.7-0.5,2.3c-0.3,0.6-0.7,1-1.2,1.3
		c-0.5,0.3-1.1,0.4-1.7,0.5v0.2c0.4,0,0.9,0.1,1.4,0.2c0.5,0.2,0.9,0.4,1.3,0.7c0.4,0.3,0.8,0.8,1,1.3s0.4,1.2,0.4,2
		c0,1-0.2,1.9-0.6,2.6c-0.4,0.8-1,1.4-1.7,1.9s-1.5,0.7-2.4,0.7H126z M130.1,22.1v4.2h4c0.4,0,0.7-0.1,0.9-0.2
		c0.3-0.1,0.4-0.3,0.6-0.6c0.1-0.3,0.2-0.6,0.2-0.9v-0.8c0-0.4-0.1-0.7-0.2-0.9c-0.1-0.3-0.3-0.5-0.6-0.6c-0.3-0.1-0.6-0.2-0.9-0.2
		H130.1z M130.1,29.5v4.2h4.6c0.4,0,0.7-0.1,0.9-0.2c0.3-0.1,0.5-0.3,0.6-0.6c0.1-0.2,0.2-0.5,0.2-0.9v-0.9c0-0.4-0.1-0.7-0.2-0.9
		c-0.1-0.2-0.3-0.4-0.6-0.6s-0.6-0.2-0.9-0.2H130.1z"/>
	<path class="st0" d="M147.7,30.4v6.8h-4V18.7h8.8c1.1,0,2.1,0.2,3,0.7c0.8,0.5,1.5,1.2,1.9,2.1c0.5,0.9,0.7,1.9,0.7,3.1
		c0,1.2-0.3,2.3-0.8,3.3c-0.6,0.9-1.4,1.6-2.5,2.1l3.6,7.3h-4.5l-3.2-6.8H147.7z M147.7,27h4.2c0.4,0,0.8-0.1,1-0.2s0.5-0.3,0.7-0.6
		c0.2-0.3,0.2-0.6,0.2-1V24c0-0.4-0.1-0.7-0.2-1c-0.2-0.3-0.4-0.5-0.7-0.6s-0.6-0.2-1-0.2h-4.2V27z"/>
	<path class="st0" d="M173.6,22.2h-5v14.9h-4V22.2h-5v-3.6h14V22.2z"/>
</g>
<g id="Layer_1-2">
	<path class="st0" d="M37.8,18.7h-1.3v-4c0-0.5-0.3-0.8-0.7-1c0,0-3.7-1.2-11.1-1.2s-11.1,1.2-11.1,1.2c-0.4,0.2-0.7,0.6-0.7,1v4
		h-1.3c-0.4,0-0.8,0.3-0.8,0.8v5.8c0,0.4,0.3,0.8,0.8,0.8h1.3v13.6c0,0.4,0.3,0.8,0.8,0.8h1.6v2.4c0.1,0.5,0.5,0.8,0.9,0.8H18
		c0.5,0.1,0.9-0.3,0.9-0.8v-2.4h11.7v2.4c0.1,0.5,0.5,0.8,0.9,0.8h1.7c0.5,0.1,0.9-0.3,0.9-0.8v-2.4h1.5c0.4,0,0.8-0.3,0.8-0.8V26
		h1.3c0.4,0,0.8-0.3,0.8-0.8v-5.8C38.5,19,38.2,18.7,37.8,18.7L37.8,18.7z M16.3,36.7c-0.9,0-1.6-0.7-1.6-1.6c0-0.9,0.7-1.6,1.6-1.6
		c0.9,0,1.6,0.7,1.6,1.6S17.2,36.7,16.3,36.7L16.3,36.7z M33,36.7c-0.9,0-1.6-0.7-1.6-1.6c0-0.9,0.7-1.6,1.6-1.6s1.6,0.7,1.6,1.6
		S33.9,36.7,33,36.7L33,36.7L33,36.7z M34.9,24.4v5.7c0,0.7-0.5,1.3-1.2,1.5c-3,0.5-6.1,0.7-9.1,0.7c-3.1,0-6.1-0.2-9.1-0.7
		c-0.6-0.2-1.2-0.8-1.2-1.5V18.2c0-0.7,0.5-1.3,1.2-1.5c3-0.5,6-0.7,9-0.6c3.1,0,6.2,0.2,9.3,0.7c0.6,0.2,1.2,0.8,1.2,1.5L34.9,24.4
		z"/>
</g>
</svg>
