<?xml version="1.0" encoding="utf-8"?>
<!-- Generator: Adobe Illustrator 25.4.1, SVG Export Plug-In . SVG Version: 6.00 Build 0)  -->
<svg version="1.1" id="Layer_1" xmlns="http://www.w3.org/2000/svg" xmlns:xlink="http://www.w3.org/1999/xlink" x="0px" y="0px"
	 viewBox="0 0 102 102" style="enable-background:new 0 0 102 102;" xml:space="preserve">
<style type="text/css">
	.st0{fill:#00A651;}
</style>
<path class="st0" d="M19.6,25.9V90c0,2.8-2.3,5.1-5.1,5.1l0,0c-2.8,0-5.1-2.3-5.1-5.1V27.5L19.6,25.9z"/>
<path class="st0" d="M9.5,16.3L92.5,5v11.2l-83,11.2V16.3z"/>
<g id="Layer_1-2">
	<path class="st0" d="M89.7,42.1h-2.8v-8.4c0-1-0.6-1.7-1.5-2.1c0,0-7.9-2.6-23.5-2.6s-23.5,2.6-23.5,2.6c-0.9,0.4-1.5,1.2-1.5,2.1
		v8.4h-2.8c-0.9,0-1.6,0.7-1.6,1.6v12.4c0,0.9,0.7,1.6,1.6,1.6h2.8v28.9c0,0.9,0.7,1.6,1.6,1.6H42v5.1c0.1,1,1,1.7,2,1.7h3.7
		c1,0.1,1.9-0.6,2-1.7v-5.1h24.9v5.1c0.1,1,1,1.7,2,1.7h3.7c1,0.1,1.9-0.6,2-1.7v-5.1h3.2c0.9,0,1.6-0.7,1.6-1.6V57.7h2.8
		c0.9,0,1.6-0.7,1.6-1.6V43.7C91.3,42.8,90.6,42.1,89.7,42.1L89.7,42.1z M44.2,80.4c-1.9,0-3.3-1.5-3.3-3.3s1.5-3.3,3.3-3.3
		s3.3,1.5,3.3,3.3C47.6,78.8,46.1,80.4,44.2,80.4L44.2,80.4z M79.7,80.4c-1.9,0-3.3-1.5-3.3-3.3s1.5-3.3,3.3-3.3s3.3,1.5,3.3,3.3
		C83.1,78.8,81.6,80.4,79.7,80.4L79.7,80.4L79.7,80.4z M83.7,54.2v12.1c0,1.5-1.1,2.7-2.5,3.1c-6.4,1-13,1.5-19.4,1.5
		c-6.6,0-13-0.5-19.4-1.5c-1.4-0.4-2.5-1.6-2.5-3.1V41c0-1.5,1.1-2.7,2.5-3.1c6.3-1,12.7-1.5,19.2-1.4c6.6,0,13.2,0.5,19.7,1.5
		c1.4,0.4,2.5,1.6,2.5,3.1V54.2z"/>
</g>
</svg>
