<?xml version="1.0" encoding="utf-8"?>
<!-- Generator: Adobe Illustrator 25.4.1, SVG Export Plug-In . SVG Version: 6.00 Build 0)  -->
<svg version="1.1" id="Layer_1" xmlns="http://www.w3.org/2000/svg" xmlns:xlink="http://www.w3.org/1999/xlink" x="0px" y="0px"
	 viewBox="0 0 168.6 48" style="enable-background:new 0 0 168.6 48;" xml:space="preserve">
<style type="text/css">
	.st0{fill:#00A651;}
	.st1{fill:#0A1F12;}
	.st2{font-family:'IBMPlexSans-Bold';}
	.st3{font-size:26.4706px;}
</style>
<path class="st0" d="M4.8,11.2v30c0,1.3-1.1,2.4-2.4,2.4l0,0c-1.3,0-2.4-1.1-2.4-2.4V11.8L4.8,11.2z"/>
<path class="st0" d="M0,6.5l39.1-5.3v5.3L0,11.8V6.5z"/>
<text transform="matrix(1 0 0 1 44.6092 37.1442)" class="st1 st2 st3">Kawal</text>
<text transform="matrix(1 0 0 1 119.9964 37.1442)" class="st0 st2 st3">BRT</text>
<g id="Layer_1-2">
	<path class="st0" d="M37.8,18.7h-1.3v-4c0-0.5-0.3-0.8-0.7-1c0,0-3.7-1.2-11.1-1.2s-11.1,1.2-11.1,1.2c-0.4,0.2-0.7,0.6-0.7,1v4
		h-1.3c-0.4,0-0.8,0.3-0.8,0.8v5.8c0,0.4,0.3,0.8,0.8,0.8h1.3v13.6c0,0.4,0.3,0.8,0.8,0.8h1.6v2.4c0.1,0.5,0.5,0.8,0.9,0.8H18
		c0.5,0.1,0.9-0.3,0.9-0.8v-2.4h11.7v2.4c0.1,0.5,0.5,0.8,0.9,0.8h1.7c0.5,0.1,0.9-0.3,0.9-0.8v-2.4h1.5c0.4,0,0.8-0.3,0.8-0.8V26
		h1.3c0.4,0,0.8-0.3,0.8-0.8v-5.8C38.5,19,38.2,18.7,37.8,18.7L37.8,18.7z M16.3,36.7c-0.9,0-1.6-0.7-1.6-1.6c0-0.9,0.7-1.6,1.6-1.6
		c0.9,0,1.6,0.7,1.6,1.6C17.9,36,17.2,36.7,16.3,36.7L16.3,36.7z M33,36.7c-0.9,0-1.6-0.7-1.6-1.6c0-0.9,0.7-1.6,1.6-1.6
		s1.6,0.7,1.6,1.6C34.6,36,33.9,36.7,33,36.7L33,36.7L33,36.7z M34.9,24.4v5.7c0,0.7-0.5,1.3-1.2,1.5c-3,0.5-6.1,0.7-9.1,0.7
		c-3.1,0-6.1-0.2-9.1-0.7c-0.6-0.2-1.2-0.8-1.2-1.5V18.2c0-0.7,0.5-1.3,1.2-1.5c3-0.5,6-0.7,9-0.6c3.1,0,6.2,0.2,9.3,0.7
		c0.6,0.2,1.2,0.8,1.2,1.5L34.9,24.4z"/>
</g>
</svg>
